%
M48
M72
T01C0.0320
T02C0.0390
T03C0.0394
T04C0.0400
T05C0.0512
T06C0.1083
%
T01
X22980Y3080
X21880Y2280
X20780Y1480
X19680Y1480
X18580Y1480
X17480Y1480
X16380Y1480
X14180Y1460
X13080Y1460
X11980Y1460
X10880Y1460
X10880Y5460
X11980Y5460
X13080Y5460
X14180Y5460
X16380Y5480
X17480Y5480
X18580Y5480
X19680Y5480
X20780Y5480
X21880Y6280
X22980Y7080
X24080Y7880
X24080Y3880
X15980Y9680
X15980Y10780
X15510Y12380
X15510Y13380
X15510Y14380
X15510Y15380
X15510Y16380
X15510Y17380
X15510Y18380
X12510Y18380
X12510Y17380
X12510Y16380
X12510Y15380
X12510Y14380
X12510Y13380
X12510Y12380
X11980Y10780
X11980Y9680
X10880Y15080
X9680Y15080
X8480Y15080
X8480Y19080
X9680Y19080
X10880Y19080
T02
X20516Y11385
X20516Y12385
X20516Y13385
X20516Y14385
X20516Y15385
X20516Y16385
X20516Y17385
X20516Y18385
X17516Y18385
X17516Y17385
X17516Y16385
X17516Y15385
X17516Y14385
X17516Y13385
X17516Y12385
X17516Y11385
T03
X23380Y10480
X23380Y11480
X23380Y12480
X23380Y13480
X23380Y14480
X23380Y15480
X23380Y16480
X23380Y17480
X23380Y18480
X6974Y17233
X5974Y17233
X2974Y17233
X1974Y17233
X1974Y9733
X2974Y9733
X5974Y9733
X6974Y9733
T04
X22575Y20449
X21575Y20449
X20575Y20449
X19575Y20449
X18575Y20449
X17575Y20449
X16575Y20449
X15575Y20449
X14575Y20449
X13575Y20449
X12575Y20449
X11575Y20449
X10575Y20449
X9575Y20449
X8575Y20449
X7575Y20449
X6575Y20449
X5575Y20449
X4575Y20449
X3575Y20449
X3575Y21449
X4575Y21449
X5575Y21449
X6575Y21449
X7575Y21449
X8575Y21449
X9575Y21449
X10575Y21449
X11575Y21449
X12575Y21449
X13575Y21449
X14575Y21449
X15575Y21449
X16575Y21449
X17575Y21449
X18575Y21449
X19575Y21449
X20575Y21449
X21575Y21449
X22575Y21449
T05
X8406Y5406
X6406Y5406
X4406Y5406
X2406Y5406
T06
X24493Y1658
X24493Y21146
X1658Y21146
X1658Y1658
M30
