G75*
%MOIN*%
%OFA0B0*%
%FSLAX24Y24*%
%IPPOS*%
%LPD*%
%AMOC8*
5,1,8,0,0,1.08239X$1,22.5*
%
%ADD10C,0.0160*%
%ADD11C,0.0120*%
%ADD12C,0.0000*%
%ADD13R,0.0250X0.0500*%
%ADD14R,0.0500X0.0250*%
D10*
X001461Y000280D02*
X024689Y000280D01*
X024755Y000282D01*
X024821Y000287D01*
X024887Y000297D01*
X024952Y000310D01*
X025016Y000326D01*
X025079Y000346D01*
X025141Y000370D01*
X025201Y000397D01*
X025260Y000427D01*
X025317Y000461D01*
X025372Y000498D01*
X025425Y000538D01*
X025476Y000580D01*
X025524Y000626D01*
X025570Y000674D01*
X025612Y000725D01*
X025652Y000778D01*
X025689Y000833D01*
X025723Y000890D01*
X025753Y000949D01*
X025780Y001009D01*
X025804Y001071D01*
X025824Y001134D01*
X025840Y001198D01*
X025853Y001263D01*
X025863Y001329D01*
X025868Y001395D01*
X025870Y001461D01*
X025871Y001461D02*
X025871Y021343D01*
X025870Y021343D02*
X025868Y021409D01*
X025863Y021475D01*
X025853Y021541D01*
X025840Y021606D01*
X025824Y021670D01*
X025804Y021733D01*
X025780Y021795D01*
X025753Y021855D01*
X025723Y021914D01*
X025689Y021971D01*
X025652Y022026D01*
X025612Y022079D01*
X025570Y022130D01*
X025524Y022178D01*
X025476Y022224D01*
X025425Y022266D01*
X025372Y022306D01*
X025317Y022343D01*
X025260Y022377D01*
X025201Y022407D01*
X025141Y022434D01*
X025079Y022458D01*
X025016Y022478D01*
X024952Y022494D01*
X024887Y022507D01*
X024821Y022517D01*
X024755Y022522D01*
X024689Y022524D01*
X001461Y022524D02*
X001395Y022522D01*
X001329Y022517D01*
X001263Y022507D01*
X001198Y022494D01*
X001134Y022478D01*
X001071Y022458D01*
X001009Y022434D01*
X000949Y022407D01*
X000890Y022377D01*
X000833Y022343D01*
X000778Y022306D01*
X000725Y022266D01*
X000674Y022224D01*
X000626Y022178D01*
X000580Y022130D01*
X000538Y022079D01*
X000498Y022026D01*
X000461Y021971D01*
X000427Y021914D01*
X000397Y021855D01*
X000370Y021795D01*
X000346Y021733D01*
X000326Y021670D01*
X000310Y021606D01*
X000297Y021541D01*
X000287Y021475D01*
X000282Y021409D01*
X000280Y021343D01*
X000280Y001461D01*
X000282Y001395D01*
X000287Y001329D01*
X000297Y001263D01*
X000310Y001198D01*
X000326Y001134D01*
X000346Y001071D01*
X000370Y001009D01*
X000397Y000949D01*
X000427Y000890D01*
X000461Y000833D01*
X000498Y000778D01*
X000538Y000725D01*
X000580Y000674D01*
X000626Y000626D01*
X000674Y000580D01*
X000725Y000538D01*
X000778Y000498D01*
X000833Y000461D01*
X000890Y000427D01*
X000949Y000397D01*
X001009Y000370D01*
X001071Y000346D01*
X001134Y000326D01*
X001198Y000310D01*
X001263Y000297D01*
X001329Y000287D01*
X001395Y000282D01*
X001461Y000280D01*
D11*
X001461Y022524D02*
X024689Y022524D01*
D12*
X023952Y021146D02*
X023954Y021192D01*
X023960Y021237D01*
X023969Y021282D01*
X023983Y021326D01*
X024000Y021369D01*
X024021Y021410D01*
X024045Y021449D01*
X024072Y021486D01*
X024102Y021520D01*
X024136Y021552D01*
X024171Y021581D01*
X024209Y021607D01*
X024249Y021629D01*
X024291Y021648D01*
X024335Y021663D01*
X024379Y021675D01*
X024424Y021683D01*
X024470Y021687D01*
X024516Y021687D01*
X024562Y021683D01*
X024607Y021675D01*
X024651Y021663D01*
X024695Y021648D01*
X024737Y021629D01*
X024777Y021607D01*
X024815Y021581D01*
X024850Y021552D01*
X024884Y021520D01*
X024914Y021486D01*
X024941Y021449D01*
X024965Y021410D01*
X024986Y021369D01*
X025003Y021326D01*
X025017Y021282D01*
X025026Y021237D01*
X025032Y021192D01*
X025034Y021146D01*
X025032Y021100D01*
X025026Y021055D01*
X025017Y021010D01*
X025003Y020966D01*
X024986Y020923D01*
X024965Y020882D01*
X024941Y020843D01*
X024914Y020806D01*
X024884Y020772D01*
X024850Y020740D01*
X024815Y020711D01*
X024777Y020685D01*
X024737Y020663D01*
X024695Y020644D01*
X024651Y020629D01*
X024607Y020617D01*
X024562Y020609D01*
X024516Y020605D01*
X024470Y020605D01*
X024424Y020609D01*
X024379Y020617D01*
X024335Y020629D01*
X024291Y020644D01*
X024249Y020663D01*
X024209Y020685D01*
X024171Y020711D01*
X024136Y020740D01*
X024102Y020772D01*
X024072Y020806D01*
X024045Y020843D01*
X024021Y020882D01*
X024000Y020923D01*
X023983Y020966D01*
X023969Y021010D01*
X023960Y021055D01*
X023954Y021100D01*
X023952Y021146D01*
X023952Y001658D02*
X023954Y001704D01*
X023960Y001749D01*
X023969Y001794D01*
X023983Y001838D01*
X024000Y001881D01*
X024021Y001922D01*
X024045Y001961D01*
X024072Y001998D01*
X024102Y002032D01*
X024136Y002064D01*
X024171Y002093D01*
X024209Y002119D01*
X024249Y002141D01*
X024291Y002160D01*
X024335Y002175D01*
X024379Y002187D01*
X024424Y002195D01*
X024470Y002199D01*
X024516Y002199D01*
X024562Y002195D01*
X024607Y002187D01*
X024651Y002175D01*
X024695Y002160D01*
X024737Y002141D01*
X024777Y002119D01*
X024815Y002093D01*
X024850Y002064D01*
X024884Y002032D01*
X024914Y001998D01*
X024941Y001961D01*
X024965Y001922D01*
X024986Y001881D01*
X025003Y001838D01*
X025017Y001794D01*
X025026Y001749D01*
X025032Y001704D01*
X025034Y001658D01*
X025032Y001612D01*
X025026Y001567D01*
X025017Y001522D01*
X025003Y001478D01*
X024986Y001435D01*
X024965Y001394D01*
X024941Y001355D01*
X024914Y001318D01*
X024884Y001284D01*
X024850Y001252D01*
X024815Y001223D01*
X024777Y001197D01*
X024737Y001175D01*
X024695Y001156D01*
X024651Y001141D01*
X024607Y001129D01*
X024562Y001121D01*
X024516Y001117D01*
X024470Y001117D01*
X024424Y001121D01*
X024379Y001129D01*
X024335Y001141D01*
X024291Y001156D01*
X024249Y001175D01*
X024209Y001197D01*
X024171Y001223D01*
X024136Y001252D01*
X024102Y001284D01*
X024072Y001318D01*
X024045Y001355D01*
X024021Y001394D01*
X024000Y001435D01*
X023983Y001478D01*
X023969Y001522D01*
X023960Y001567D01*
X023954Y001612D01*
X023952Y001658D01*
X001117Y001658D02*
X001119Y001704D01*
X001125Y001749D01*
X001134Y001794D01*
X001148Y001838D01*
X001165Y001881D01*
X001186Y001922D01*
X001210Y001961D01*
X001237Y001998D01*
X001267Y002032D01*
X001301Y002064D01*
X001336Y002093D01*
X001374Y002119D01*
X001414Y002141D01*
X001456Y002160D01*
X001500Y002175D01*
X001544Y002187D01*
X001589Y002195D01*
X001635Y002199D01*
X001681Y002199D01*
X001727Y002195D01*
X001772Y002187D01*
X001816Y002175D01*
X001860Y002160D01*
X001902Y002141D01*
X001942Y002119D01*
X001980Y002093D01*
X002015Y002064D01*
X002049Y002032D01*
X002079Y001998D01*
X002106Y001961D01*
X002130Y001922D01*
X002151Y001881D01*
X002168Y001838D01*
X002182Y001794D01*
X002191Y001749D01*
X002197Y001704D01*
X002199Y001658D01*
X002197Y001612D01*
X002191Y001567D01*
X002182Y001522D01*
X002168Y001478D01*
X002151Y001435D01*
X002130Y001394D01*
X002106Y001355D01*
X002079Y001318D01*
X002049Y001284D01*
X002015Y001252D01*
X001980Y001223D01*
X001942Y001197D01*
X001902Y001175D01*
X001860Y001156D01*
X001816Y001141D01*
X001772Y001129D01*
X001727Y001121D01*
X001681Y001117D01*
X001635Y001117D01*
X001589Y001121D01*
X001544Y001129D01*
X001500Y001141D01*
X001456Y001156D01*
X001414Y001175D01*
X001374Y001197D01*
X001336Y001223D01*
X001301Y001252D01*
X001267Y001284D01*
X001237Y001318D01*
X001210Y001355D01*
X001186Y001394D01*
X001165Y001435D01*
X001148Y001478D01*
X001134Y001522D01*
X001125Y001567D01*
X001119Y001612D01*
X001117Y001658D01*
X001117Y021146D02*
X001119Y021192D01*
X001125Y021237D01*
X001134Y021282D01*
X001148Y021326D01*
X001165Y021369D01*
X001186Y021410D01*
X001210Y021449D01*
X001237Y021486D01*
X001267Y021520D01*
X001301Y021552D01*
X001336Y021581D01*
X001374Y021607D01*
X001414Y021629D01*
X001456Y021648D01*
X001500Y021663D01*
X001544Y021675D01*
X001589Y021683D01*
X001635Y021687D01*
X001681Y021687D01*
X001727Y021683D01*
X001772Y021675D01*
X001816Y021663D01*
X001860Y021648D01*
X001902Y021629D01*
X001942Y021607D01*
X001980Y021581D01*
X002015Y021552D01*
X002049Y021520D01*
X002079Y021486D01*
X002106Y021449D01*
X002130Y021410D01*
X002151Y021369D01*
X002168Y021326D01*
X002182Y021282D01*
X002191Y021237D01*
X002197Y021192D01*
X002199Y021146D01*
X002197Y021100D01*
X002191Y021055D01*
X002182Y021010D01*
X002168Y020966D01*
X002151Y020923D01*
X002130Y020882D01*
X002106Y020843D01*
X002079Y020806D01*
X002049Y020772D01*
X002015Y020740D01*
X001980Y020711D01*
X001942Y020685D01*
X001902Y020663D01*
X001860Y020644D01*
X001816Y020629D01*
X001772Y020617D01*
X001727Y020609D01*
X001681Y020605D01*
X001635Y020605D01*
X001589Y020609D01*
X001544Y020617D01*
X001500Y020629D01*
X001456Y020644D01*
X001414Y020663D01*
X001374Y020685D01*
X001336Y020711D01*
X001301Y020740D01*
X001267Y020772D01*
X001237Y020806D01*
X001210Y020843D01*
X001186Y020882D01*
X001165Y020923D01*
X001148Y020966D01*
X001134Y021010D01*
X001125Y021055D01*
X001119Y021100D01*
X001117Y021146D01*
D13*
X012487Y008625D03*
X012987Y008625D03*
X013487Y008625D03*
X013987Y008625D03*
X013987Y006558D03*
X013487Y006558D03*
X012987Y006558D03*
X012487Y006558D03*
D14*
X010703Y008544D03*
X010703Y009044D03*
X010703Y009544D03*
X010703Y010044D03*
X008636Y010044D03*
X008636Y009544D03*
X008636Y009044D03*
X008636Y008544D03*
X008936Y012144D03*
X008936Y012644D03*
X008936Y013144D03*
X008936Y013644D03*
X011003Y013644D03*
X011003Y013144D03*
X011003Y012644D03*
X011003Y012144D03*
M02*
