G75*
%MOIN*%
%OFA0B0*%
%FSLAX24Y24*%
%IPPOS*%
%LPD*%
%AMOC8*
5,1,8,0,0,1.08239X$1,22.5*
%
%ADD10C,0.0160*%
%ADD11C,0.0120*%
%ADD12C,0.0000*%
%ADD13OC8,0.0600*%
%ADD14C,0.1500*%
%ADD15R,0.0590X0.0590*%
%ADD16C,0.0590*%
%ADD17OC8,0.0520*%
%ADD18C,0.0594*%
%ADD19C,0.0520*%
%ADD20C,0.0360*%
D10*
X001461Y000280D02*
X024689Y000280D01*
X024755Y000282D01*
X024821Y000287D01*
X024887Y000297D01*
X024952Y000310D01*
X025016Y000326D01*
X025079Y000346D01*
X025141Y000370D01*
X025201Y000397D01*
X025260Y000427D01*
X025317Y000461D01*
X025372Y000498D01*
X025425Y000538D01*
X025476Y000580D01*
X025524Y000626D01*
X025570Y000674D01*
X025612Y000725D01*
X025652Y000778D01*
X025689Y000833D01*
X025723Y000890D01*
X025753Y000949D01*
X025780Y001009D01*
X025804Y001071D01*
X025824Y001134D01*
X025840Y001198D01*
X025853Y001263D01*
X025863Y001329D01*
X025868Y001395D01*
X025870Y001461D01*
X025871Y001461D02*
X025871Y021343D01*
X025870Y021343D02*
X025868Y021409D01*
X025863Y021475D01*
X025853Y021541D01*
X025840Y021606D01*
X025824Y021670D01*
X025804Y021733D01*
X025780Y021795D01*
X025753Y021855D01*
X025723Y021914D01*
X025689Y021971D01*
X025652Y022026D01*
X025612Y022079D01*
X025570Y022130D01*
X025524Y022178D01*
X025476Y022224D01*
X025425Y022266D01*
X025372Y022306D01*
X025317Y022343D01*
X025260Y022377D01*
X025201Y022407D01*
X025141Y022434D01*
X025079Y022458D01*
X025016Y022478D01*
X024952Y022494D01*
X024887Y022507D01*
X024821Y022517D01*
X024755Y022522D01*
X024689Y022524D01*
X001461Y022524D02*
X001395Y022522D01*
X001329Y022517D01*
X001263Y022507D01*
X001198Y022494D01*
X001134Y022478D01*
X001071Y022458D01*
X001009Y022434D01*
X000949Y022407D01*
X000890Y022377D01*
X000833Y022343D01*
X000778Y022306D01*
X000725Y022266D01*
X000674Y022224D01*
X000626Y022178D01*
X000580Y022130D01*
X000538Y022079D01*
X000498Y022026D01*
X000461Y021971D01*
X000427Y021914D01*
X000397Y021855D01*
X000370Y021795D01*
X000346Y021733D01*
X000326Y021670D01*
X000310Y021606D01*
X000297Y021541D01*
X000287Y021475D01*
X000282Y021409D01*
X000280Y021343D01*
X000280Y001461D01*
X000282Y001395D01*
X000287Y001329D01*
X000297Y001263D01*
X000310Y001198D01*
X000326Y001134D01*
X000346Y001071D01*
X000370Y001009D01*
X000397Y000949D01*
X000427Y000890D01*
X000461Y000833D01*
X000498Y000778D01*
X000538Y000725D01*
X000580Y000674D01*
X000626Y000626D01*
X000674Y000580D01*
X000725Y000538D01*
X000778Y000498D01*
X000833Y000461D01*
X000890Y000427D01*
X000949Y000397D01*
X001009Y000370D01*
X001071Y000346D01*
X001134Y000326D01*
X001198Y000310D01*
X001263Y000297D01*
X001329Y000287D01*
X001395Y000282D01*
X001461Y000280D01*
D11*
X011980Y009680D02*
X013480Y009680D01*
X013980Y010180D01*
X013980Y013080D01*
X013680Y013380D01*
X012510Y013380D01*
X012510Y014380D02*
X012880Y014380D01*
X013380Y014880D01*
X013380Y015880D01*
X012880Y016380D01*
X012510Y016380D01*
X011580Y016980D02*
X011980Y017380D01*
X012510Y017380D01*
X011580Y016980D02*
X011580Y015780D01*
X011980Y015380D01*
X012510Y015380D01*
X010880Y019080D02*
X011080Y019280D01*
X011080Y020954D01*
X011575Y021449D01*
X010575Y021449D02*
X010080Y020954D01*
X010080Y019480D01*
X009680Y019080D01*
X008575Y019175D02*
X008480Y019080D01*
X008575Y019175D02*
X008575Y020449D01*
X012575Y020449D02*
X013045Y019980D01*
X013780Y019980D01*
X014080Y020280D01*
X014080Y021680D01*
X014380Y021980D01*
X017780Y021980D01*
X018080Y021680D01*
X018080Y019980D01*
X018880Y019180D01*
X018880Y016780D01*
X018485Y016385D01*
X017516Y016385D01*
X017516Y015385D02*
X017875Y015385D01*
X017880Y015380D01*
X019080Y016580D01*
X019080Y021580D01*
X018480Y022180D01*
X013580Y022180D01*
X013080Y021680D01*
X013080Y020945D01*
X013575Y020449D01*
X014575Y020449D02*
X015145Y019880D01*
X016780Y019880D01*
X016980Y019680D01*
X017780Y019680D01*
X018480Y018980D01*
X018480Y017980D01*
X018380Y017880D01*
X017280Y017880D01*
X016980Y017580D01*
X016980Y014580D01*
X017175Y014385D01*
X017516Y014385D01*
X020516Y014385D02*
X020611Y014480D01*
X023380Y014480D01*
X024480Y014480D01*
X024780Y014180D01*
X024780Y009680D01*
X024080Y008980D01*
X022780Y008980D01*
X022080Y008280D01*
X022080Y007680D01*
X021080Y006680D01*
X021080Y006380D01*
X020680Y005980D01*
X020180Y005980D01*
X019680Y005480D01*
X019280Y006180D02*
X018580Y005480D01*
X018380Y006380D02*
X017480Y005480D01*
X017480Y006580D02*
X016380Y005480D01*
X017480Y006580D02*
X020380Y006580D01*
X020480Y006680D01*
X020480Y006980D01*
X021480Y007980D01*
X021480Y008580D01*
X022480Y009580D01*
X023780Y009580D01*
X024180Y009980D01*
X024180Y011180D01*
X023880Y011480D01*
X023380Y011480D01*
X020611Y011480D01*
X020516Y011385D01*
X020516Y012385D02*
X020611Y012480D01*
X023380Y012480D01*
X024080Y012480D01*
X024380Y012180D01*
X024380Y009880D01*
X023880Y009380D01*
X022580Y009380D01*
X021680Y008480D01*
X021680Y007880D01*
X020680Y006880D01*
X020680Y006580D01*
X020480Y006380D01*
X018380Y006380D01*
X019280Y006180D02*
X020580Y006180D01*
X020880Y006480D01*
X020880Y006780D01*
X021880Y007780D01*
X021880Y008380D01*
X022680Y009180D01*
X023980Y009180D01*
X024580Y009780D01*
X024580Y013180D01*
X024280Y013480D01*
X023380Y013480D01*
X020611Y013480D01*
X020516Y013385D01*
X020516Y015385D02*
X020611Y015480D01*
X023380Y015480D01*
X024680Y015480D01*
X024980Y015180D01*
X024980Y009580D01*
X024180Y008780D01*
X022880Y008780D01*
X022280Y008180D01*
X022280Y007580D01*
X021280Y006580D01*
X021280Y006213D01*
X020780Y005713D01*
X020780Y005480D01*
X021880Y006280D02*
X022480Y006880D01*
X022480Y008112D01*
X022948Y008580D01*
X024280Y008580D01*
X025180Y009480D01*
X025180Y016180D01*
X024880Y016480D01*
X023380Y016480D01*
X020611Y016480D01*
X020516Y016385D01*
X020516Y017385D02*
X020611Y017480D01*
X023380Y017480D01*
X025080Y017480D01*
X025380Y017180D01*
X025380Y009380D01*
X024380Y008380D01*
X023080Y008380D01*
X022980Y008280D01*
X022980Y007080D01*
X024080Y007880D02*
X024180Y007880D01*
X025580Y009280D01*
X025580Y018180D01*
X025280Y018480D01*
X023380Y018480D01*
X020611Y018480D01*
X020516Y018385D01*
X018680Y019080D02*
X018680Y017580D01*
X018485Y017385D01*
X017516Y017385D01*
X018680Y019080D02*
X017880Y019880D01*
X017180Y019880D01*
X017080Y019980D01*
X017080Y020680D01*
X016830Y020930D01*
X015095Y020930D01*
X014575Y021449D01*
X024689Y022524D02*
X001461Y022524D01*
D12*
X001117Y021146D02*
X001119Y021192D01*
X001125Y021237D01*
X001134Y021282D01*
X001148Y021326D01*
X001165Y021369D01*
X001186Y021410D01*
X001210Y021449D01*
X001237Y021486D01*
X001267Y021520D01*
X001301Y021552D01*
X001336Y021581D01*
X001374Y021607D01*
X001414Y021629D01*
X001456Y021648D01*
X001500Y021663D01*
X001544Y021675D01*
X001589Y021683D01*
X001635Y021687D01*
X001681Y021687D01*
X001727Y021683D01*
X001772Y021675D01*
X001816Y021663D01*
X001860Y021648D01*
X001902Y021629D01*
X001942Y021607D01*
X001980Y021581D01*
X002015Y021552D01*
X002049Y021520D01*
X002079Y021486D01*
X002106Y021449D01*
X002130Y021410D01*
X002151Y021369D01*
X002168Y021326D01*
X002182Y021282D01*
X002191Y021237D01*
X002197Y021192D01*
X002199Y021146D01*
X002197Y021100D01*
X002191Y021055D01*
X002182Y021010D01*
X002168Y020966D01*
X002151Y020923D01*
X002130Y020882D01*
X002106Y020843D01*
X002079Y020806D01*
X002049Y020772D01*
X002015Y020740D01*
X001980Y020711D01*
X001942Y020685D01*
X001902Y020663D01*
X001860Y020644D01*
X001816Y020629D01*
X001772Y020617D01*
X001727Y020609D01*
X001681Y020605D01*
X001635Y020605D01*
X001589Y020609D01*
X001544Y020617D01*
X001500Y020629D01*
X001456Y020644D01*
X001414Y020663D01*
X001374Y020685D01*
X001336Y020711D01*
X001301Y020740D01*
X001267Y020772D01*
X001237Y020806D01*
X001210Y020843D01*
X001186Y020882D01*
X001165Y020923D01*
X001148Y020966D01*
X001134Y021010D01*
X001125Y021055D01*
X001119Y021100D01*
X001117Y021146D01*
X001117Y001658D02*
X001119Y001704D01*
X001125Y001749D01*
X001134Y001794D01*
X001148Y001838D01*
X001165Y001881D01*
X001186Y001922D01*
X001210Y001961D01*
X001237Y001998D01*
X001267Y002032D01*
X001301Y002064D01*
X001336Y002093D01*
X001374Y002119D01*
X001414Y002141D01*
X001456Y002160D01*
X001500Y002175D01*
X001544Y002187D01*
X001589Y002195D01*
X001635Y002199D01*
X001681Y002199D01*
X001727Y002195D01*
X001772Y002187D01*
X001816Y002175D01*
X001860Y002160D01*
X001902Y002141D01*
X001942Y002119D01*
X001980Y002093D01*
X002015Y002064D01*
X002049Y002032D01*
X002079Y001998D01*
X002106Y001961D01*
X002130Y001922D01*
X002151Y001881D01*
X002168Y001838D01*
X002182Y001794D01*
X002191Y001749D01*
X002197Y001704D01*
X002199Y001658D01*
X002197Y001612D01*
X002191Y001567D01*
X002182Y001522D01*
X002168Y001478D01*
X002151Y001435D01*
X002130Y001394D01*
X002106Y001355D01*
X002079Y001318D01*
X002049Y001284D01*
X002015Y001252D01*
X001980Y001223D01*
X001942Y001197D01*
X001902Y001175D01*
X001860Y001156D01*
X001816Y001141D01*
X001772Y001129D01*
X001727Y001121D01*
X001681Y001117D01*
X001635Y001117D01*
X001589Y001121D01*
X001544Y001129D01*
X001500Y001141D01*
X001456Y001156D01*
X001414Y001175D01*
X001374Y001197D01*
X001336Y001223D01*
X001301Y001252D01*
X001267Y001284D01*
X001237Y001318D01*
X001210Y001355D01*
X001186Y001394D01*
X001165Y001435D01*
X001148Y001478D01*
X001134Y001522D01*
X001125Y001567D01*
X001119Y001612D01*
X001117Y001658D01*
X023952Y001658D02*
X023954Y001704D01*
X023960Y001749D01*
X023969Y001794D01*
X023983Y001838D01*
X024000Y001881D01*
X024021Y001922D01*
X024045Y001961D01*
X024072Y001998D01*
X024102Y002032D01*
X024136Y002064D01*
X024171Y002093D01*
X024209Y002119D01*
X024249Y002141D01*
X024291Y002160D01*
X024335Y002175D01*
X024379Y002187D01*
X024424Y002195D01*
X024470Y002199D01*
X024516Y002199D01*
X024562Y002195D01*
X024607Y002187D01*
X024651Y002175D01*
X024695Y002160D01*
X024737Y002141D01*
X024777Y002119D01*
X024815Y002093D01*
X024850Y002064D01*
X024884Y002032D01*
X024914Y001998D01*
X024941Y001961D01*
X024965Y001922D01*
X024986Y001881D01*
X025003Y001838D01*
X025017Y001794D01*
X025026Y001749D01*
X025032Y001704D01*
X025034Y001658D01*
X025032Y001612D01*
X025026Y001567D01*
X025017Y001522D01*
X025003Y001478D01*
X024986Y001435D01*
X024965Y001394D01*
X024941Y001355D01*
X024914Y001318D01*
X024884Y001284D01*
X024850Y001252D01*
X024815Y001223D01*
X024777Y001197D01*
X024737Y001175D01*
X024695Y001156D01*
X024651Y001141D01*
X024607Y001129D01*
X024562Y001121D01*
X024516Y001117D01*
X024470Y001117D01*
X024424Y001121D01*
X024379Y001129D01*
X024335Y001141D01*
X024291Y001156D01*
X024249Y001175D01*
X024209Y001197D01*
X024171Y001223D01*
X024136Y001252D01*
X024102Y001284D01*
X024072Y001318D01*
X024045Y001355D01*
X024021Y001394D01*
X024000Y001435D01*
X023983Y001478D01*
X023969Y001522D01*
X023960Y001567D01*
X023954Y001612D01*
X023952Y001658D01*
X023952Y021146D02*
X023954Y021192D01*
X023960Y021237D01*
X023969Y021282D01*
X023983Y021326D01*
X024000Y021369D01*
X024021Y021410D01*
X024045Y021449D01*
X024072Y021486D01*
X024102Y021520D01*
X024136Y021552D01*
X024171Y021581D01*
X024209Y021607D01*
X024249Y021629D01*
X024291Y021648D01*
X024335Y021663D01*
X024379Y021675D01*
X024424Y021683D01*
X024470Y021687D01*
X024516Y021687D01*
X024562Y021683D01*
X024607Y021675D01*
X024651Y021663D01*
X024695Y021648D01*
X024737Y021629D01*
X024777Y021607D01*
X024815Y021581D01*
X024850Y021552D01*
X024884Y021520D01*
X024914Y021486D01*
X024941Y021449D01*
X024965Y021410D01*
X024986Y021369D01*
X025003Y021326D01*
X025017Y021282D01*
X025026Y021237D01*
X025032Y021192D01*
X025034Y021146D01*
X025032Y021100D01*
X025026Y021055D01*
X025017Y021010D01*
X025003Y020966D01*
X024986Y020923D01*
X024965Y020882D01*
X024941Y020843D01*
X024914Y020806D01*
X024884Y020772D01*
X024850Y020740D01*
X024815Y020711D01*
X024777Y020685D01*
X024737Y020663D01*
X024695Y020644D01*
X024651Y020629D01*
X024607Y020617D01*
X024562Y020609D01*
X024516Y020605D01*
X024470Y020605D01*
X024424Y020609D01*
X024379Y020617D01*
X024335Y020629D01*
X024291Y020644D01*
X024249Y020663D01*
X024209Y020685D01*
X024171Y020711D01*
X024136Y020740D01*
X024102Y020772D01*
X024072Y020806D01*
X024045Y020843D01*
X024021Y020882D01*
X024000Y020923D01*
X023983Y020966D01*
X023969Y021010D01*
X023960Y021055D01*
X023954Y021100D01*
X023952Y021146D01*
D13*
X022575Y021449D03*
X022575Y020449D03*
X021575Y020449D03*
X020575Y020449D03*
X019575Y020449D03*
X018575Y020449D03*
X017575Y020449D03*
X016575Y020449D03*
X015575Y020449D03*
X014575Y020449D03*
X013575Y020449D03*
X012575Y020449D03*
X011575Y020449D03*
X010575Y020449D03*
X009575Y020449D03*
X008575Y020449D03*
X007575Y020449D03*
X006575Y020449D03*
X005575Y020449D03*
X004575Y020449D03*
X003575Y020449D03*
X003575Y021449D03*
X004575Y021449D03*
X005575Y021449D03*
X006575Y021449D03*
X007575Y021449D03*
X008575Y021449D03*
X009575Y021449D03*
X010575Y021449D03*
X011575Y021449D03*
X012575Y021449D03*
X013575Y021449D03*
X014575Y021449D03*
X015575Y021449D03*
X016575Y021449D03*
X017575Y021449D03*
X018575Y021449D03*
X019575Y021449D03*
X020575Y021449D03*
X021575Y021449D03*
D14*
X008406Y005406D03*
X006406Y005406D03*
X004406Y005406D03*
X002406Y005406D03*
D15*
X020516Y011385D03*
D16*
X020516Y012385D03*
X020516Y013385D03*
X020516Y014385D03*
X020516Y015385D03*
X020516Y016385D03*
X020516Y017385D03*
X020516Y018385D03*
X017516Y018385D03*
X017516Y017385D03*
X017516Y016385D03*
X017516Y015385D03*
X017516Y014385D03*
X017516Y013385D03*
X017516Y012385D03*
X017516Y011385D03*
D17*
X015980Y010780D03*
X015980Y009680D03*
X011980Y009680D03*
X011980Y010780D03*
X010880Y015080D03*
X009680Y015080D03*
X008480Y015080D03*
X008480Y019080D03*
X009680Y019080D03*
X010880Y019080D03*
X024080Y007880D03*
X022980Y007080D03*
X021880Y006280D03*
X020780Y005480D03*
X019680Y005480D03*
X018580Y005480D03*
X017480Y005480D03*
X016380Y005480D03*
X014180Y005460D03*
X013080Y005460D03*
X011980Y005460D03*
X010880Y005460D03*
X010880Y001460D03*
X011980Y001460D03*
X013080Y001460D03*
X014180Y001460D03*
X016380Y001480D03*
X017480Y001480D03*
X018580Y001480D03*
X019680Y001480D03*
X020780Y001480D03*
X021880Y002280D03*
X022980Y003080D03*
X024080Y003880D03*
D18*
X023677Y010480D02*
X023083Y010480D01*
X023083Y011480D02*
X023677Y011480D01*
X023677Y012480D02*
X023083Y012480D01*
X023083Y013480D02*
X023677Y013480D01*
X023677Y014480D02*
X023083Y014480D01*
X023083Y015480D02*
X023677Y015480D01*
X023677Y016480D02*
X023083Y016480D01*
X023083Y017480D02*
X023677Y017480D01*
X023677Y018480D02*
X023083Y018480D01*
X006974Y017530D02*
X006974Y016936D01*
X005974Y016936D02*
X005974Y017530D01*
X002974Y017530D02*
X002974Y016936D01*
X001974Y016936D02*
X001974Y017530D01*
X001974Y010030D02*
X001974Y009436D01*
X002974Y009436D02*
X002974Y010030D01*
X005974Y010030D02*
X005974Y009436D01*
X006974Y009436D02*
X006974Y010030D01*
D19*
X012250Y012380D02*
X012770Y012380D01*
X012770Y013380D02*
X012250Y013380D01*
X012250Y014380D02*
X012770Y014380D01*
X012770Y015380D02*
X012250Y015380D01*
X012250Y016380D02*
X012770Y016380D01*
X012770Y017380D02*
X012250Y017380D01*
X012250Y018380D02*
X012770Y018380D01*
X015250Y018380D02*
X015770Y018380D01*
X015770Y017380D02*
X015250Y017380D01*
X015250Y016380D02*
X015770Y016380D01*
X015770Y015380D02*
X015250Y015380D01*
X015250Y014380D02*
X015770Y014380D01*
X015770Y013380D02*
X015250Y013380D01*
X015250Y012380D02*
X015770Y012380D01*
D20*
X015510Y012380D02*
X016310Y012380D01*
X016310Y012422D01*
X016297Y012506D01*
X016270Y012587D01*
X016232Y012663D01*
X016182Y012732D01*
X016122Y012792D01*
X016053Y012842D01*
X015978Y012880D01*
X016053Y012918D01*
X016122Y012968D01*
X016182Y013028D01*
X016232Y013097D01*
X016270Y013173D01*
X016297Y013254D01*
X016310Y013338D01*
X016310Y013380D01*
X016310Y013422D01*
X016297Y013506D01*
X016270Y013587D01*
X016232Y013663D01*
X016182Y013732D01*
X016122Y013792D01*
X016053Y013842D01*
X015977Y013880D01*
X015917Y013900D01*
X016053Y013956D01*
X016194Y014097D01*
X016270Y014281D01*
X016270Y014479D01*
X016194Y014663D01*
X016053Y014804D01*
X015869Y014880D01*
X016053Y014956D01*
X016194Y015097D01*
X016270Y015281D01*
X016270Y015479D01*
X016194Y015663D01*
X016053Y015804D01*
X015917Y015860D01*
X015977Y015880D01*
X016053Y015918D01*
X016122Y015968D01*
X016182Y016028D01*
X016232Y016097D01*
X016270Y016173D01*
X016297Y016254D01*
X016310Y016338D01*
X016310Y016380D01*
X016310Y016422D01*
X016297Y016506D01*
X016270Y016587D01*
X016232Y016663D01*
X016182Y016732D01*
X016122Y016792D01*
X016053Y016842D01*
X015978Y016880D01*
X016053Y016918D01*
X016122Y016968D01*
X016182Y017028D01*
X016232Y017097D01*
X016270Y017173D01*
X016297Y017254D01*
X016310Y017338D01*
X016310Y017380D01*
X016310Y017422D01*
X016297Y017506D01*
X016270Y017587D01*
X016232Y017663D01*
X016182Y017732D01*
X016122Y017792D01*
X016053Y017842D01*
X015977Y017880D01*
X015917Y017900D01*
X016053Y017956D01*
X016194Y018097D01*
X016270Y018281D01*
X016270Y018479D01*
X016194Y018663D01*
X016053Y018804D01*
X015869Y018880D01*
X015151Y018880D01*
X014967Y018804D01*
X014963Y018800D01*
X014896Y018800D01*
X014742Y018736D01*
X014624Y018618D01*
X014124Y018118D01*
X014060Y017964D01*
X014060Y013424D01*
X013934Y013550D01*
X013850Y013634D01*
X013740Y013680D01*
X013177Y013680D01*
X013053Y013804D01*
X012869Y013880D01*
X013053Y013956D01*
X013194Y014097D01*
X013270Y014281D01*
X013270Y014346D01*
X013550Y014626D01*
X013634Y014710D01*
X013680Y014820D01*
X013680Y015940D01*
X013634Y016050D01*
X013270Y016414D01*
X013270Y016479D01*
X013194Y016663D01*
X013053Y016804D01*
X012869Y016880D01*
X013053Y016956D01*
X013194Y017097D01*
X013270Y017281D01*
X013270Y017479D01*
X013194Y017663D01*
X013053Y017804D01*
X012869Y017880D01*
X013053Y017956D01*
X013194Y018097D01*
X013270Y018281D01*
X013270Y018479D01*
X013194Y018663D01*
X013053Y018804D01*
X012869Y018880D01*
X012151Y018880D01*
X011967Y018804D01*
X011826Y018663D01*
X011750Y018479D01*
X011750Y018281D01*
X011826Y018097D01*
X011967Y017956D01*
X012151Y017880D01*
X012869Y017880D01*
X012151Y017880D01*
X011967Y017804D01*
X011826Y017663D01*
X011815Y017636D01*
X011810Y017634D01*
X011726Y017550D01*
X011326Y017150D01*
X011280Y017040D01*
X011280Y015720D01*
X011326Y015610D01*
X011410Y015526D01*
X011810Y015126D01*
X011815Y015124D01*
X011826Y015097D01*
X011967Y014956D01*
X012151Y014880D01*
X011967Y014804D01*
X011826Y014663D01*
X011750Y014479D01*
X011750Y014281D01*
X011826Y014097D01*
X011967Y013956D01*
X012151Y013880D01*
X012869Y013880D01*
X012151Y013880D01*
X011967Y013804D01*
X011826Y013663D01*
X011750Y013479D01*
X011750Y013281D01*
X011826Y013097D01*
X011967Y012956D01*
X012103Y012900D01*
X012043Y012880D01*
X011967Y012842D01*
X011898Y012792D01*
X011838Y012732D01*
X011788Y012663D01*
X011750Y012587D01*
X011723Y012506D01*
X011710Y012422D01*
X011710Y012380D01*
X012510Y012380D01*
X013310Y012380D01*
X013310Y012422D01*
X013297Y012506D01*
X013270Y012587D01*
X013232Y012663D01*
X013182Y012732D01*
X013122Y012792D01*
X013053Y012842D01*
X012977Y012880D01*
X012917Y012900D01*
X013053Y012956D01*
X013177Y013080D01*
X013556Y013080D01*
X013680Y012956D01*
X013680Y010304D01*
X013356Y009980D01*
X012387Y009980D01*
X012187Y010180D01*
X011773Y010180D01*
X011480Y009887D01*
X011480Y009473D01*
X011773Y009180D01*
X012187Y009180D01*
X012387Y009380D01*
X013540Y009380D01*
X013650Y009426D01*
X013734Y009510D01*
X013734Y009510D01*
X014060Y009836D01*
X014060Y008154D01*
X013859Y007953D01*
X009201Y007953D01*
X008900Y008254D01*
X008900Y008914D01*
X008836Y009068D01*
X007877Y010026D01*
X007819Y010086D01*
X007818Y010086D01*
X007741Y010118D01*
X007664Y010150D01*
X007664Y010150D01*
X007664Y010150D01*
X007580Y010150D01*
X007505Y010150D01*
X007429Y010334D01*
X007278Y010485D01*
X007080Y010566D01*
X006867Y010566D01*
X006670Y010485D01*
X006519Y010334D01*
X006474Y010225D01*
X006429Y010334D01*
X006278Y010485D01*
X006080Y010566D01*
X005867Y010566D01*
X005670Y010485D01*
X005519Y010334D01*
X005444Y010153D01*
X005149Y010153D01*
X004995Y010089D01*
X004877Y009971D01*
X004050Y009144D01*
X003986Y008990D01*
X003986Y006304D01*
X003845Y006245D01*
X003567Y005967D01*
X003417Y005605D01*
X003397Y005692D01*
X003359Y005801D01*
X003309Y005905D01*
X003247Y006003D01*
X003175Y006093D01*
X003093Y006175D01*
X003003Y006247D01*
X002905Y006309D01*
X002801Y006359D01*
X002692Y006397D01*
X002579Y006423D01*
X002464Y006436D01*
X002406Y006436D01*
X002406Y005406D01*
X002406Y005406D01*
X002406Y006436D01*
X002348Y006436D01*
X002233Y006423D01*
X002120Y006397D01*
X002011Y006359D01*
X001907Y006309D01*
X001809Y006247D01*
X001719Y006175D01*
X001637Y006093D01*
X001565Y006003D01*
X001503Y005905D01*
X001453Y005801D01*
X001415Y005692D01*
X001389Y005579D01*
X001376Y005464D01*
X001376Y005406D01*
X002406Y005406D01*
X002406Y004376D01*
X002464Y004376D01*
X002579Y004389D01*
X002692Y004415D01*
X002801Y004453D01*
X002905Y004503D01*
X003003Y004565D01*
X003093Y004637D01*
X003175Y004719D01*
X003247Y004809D01*
X003309Y004907D01*
X003359Y005011D01*
X003397Y005120D01*
X003417Y005207D01*
X003567Y004845D01*
X003845Y004567D01*
X003986Y004508D01*
X003986Y002270D01*
X004050Y002116D01*
X004944Y001222D01*
X005062Y001104D01*
X005216Y001040D01*
X010593Y001040D01*
X010673Y000960D01*
X011087Y000960D01*
X011380Y001253D01*
X011380Y001466D01*
X011480Y001366D01*
X011480Y001253D01*
X011773Y000960D01*
X012187Y000960D01*
X012267Y001040D01*
X012793Y001040D01*
X012873Y000960D01*
X013287Y000960D01*
X013367Y001040D01*
X013893Y001040D01*
X013973Y000960D01*
X014387Y000960D01*
X014680Y001253D01*
X014680Y001667D01*
X014387Y001960D01*
X013973Y001960D01*
X013893Y001880D01*
X013367Y001880D01*
X013287Y001960D01*
X012873Y001960D01*
X012793Y001880D01*
X012267Y001880D01*
X012187Y001960D01*
X012074Y001960D01*
X011498Y002536D01*
X011344Y002600D01*
X007254Y002600D01*
X006826Y003028D01*
X006826Y004508D01*
X006967Y004567D01*
X007245Y004845D01*
X007396Y005209D01*
X007396Y005603D01*
X007245Y005967D01*
X006967Y006245D01*
X006603Y006396D01*
X006209Y006396D01*
X005845Y006245D01*
X005567Y005967D01*
X005416Y005603D01*
X005416Y005209D01*
X005567Y004845D01*
X005845Y004567D01*
X005986Y004508D01*
X005986Y002770D01*
X006050Y002616D01*
X006724Y001942D01*
X006786Y001880D01*
X005474Y001880D01*
X004826Y002528D01*
X004826Y004508D01*
X004967Y004567D01*
X005245Y004845D01*
X005396Y005209D01*
X005396Y005603D01*
X005245Y005967D01*
X004967Y006245D01*
X004826Y006304D01*
X004826Y008732D01*
X005407Y009313D01*
X005444Y009313D01*
X005519Y009132D01*
X005670Y008981D01*
X005867Y008899D01*
X006080Y008899D01*
X006278Y008981D01*
X006429Y009132D01*
X006474Y009240D01*
X006519Y009132D01*
X006670Y008981D01*
X006867Y008899D01*
X007080Y008899D01*
X007278Y008981D01*
X007429Y009132D01*
X007474Y009242D01*
X008060Y008656D01*
X008060Y007996D01*
X008124Y007842D01*
X008242Y007724D01*
X008789Y007177D01*
X008944Y007113D01*
X014116Y007113D01*
X014271Y007177D01*
X014389Y007295D01*
X014718Y007624D01*
X016218Y009124D01*
X016336Y009242D01*
X016397Y009390D01*
X016480Y009473D01*
X016480Y009887D01*
X016400Y009967D01*
X016400Y010493D01*
X016480Y010573D01*
X016480Y010987D01*
X016187Y011280D01*
X015773Y011280D01*
X015480Y010987D01*
X015480Y010573D01*
X015560Y010493D01*
X015560Y009967D01*
X015480Y009887D01*
X015480Y009574D01*
X014900Y008994D01*
X014900Y011967D01*
X014967Y011918D01*
X015043Y011880D01*
X015124Y011853D01*
X015208Y011840D01*
X015510Y011840D01*
X015812Y011840D01*
X015896Y011853D01*
X015977Y011880D01*
X016053Y011918D01*
X016122Y011968D01*
X016182Y012028D01*
X016232Y012097D01*
X016270Y012173D01*
X016297Y012254D01*
X016310Y012338D01*
X016310Y012380D01*
X015510Y012380D01*
X015510Y012380D01*
X015510Y012380D01*
X015510Y012840D01*
X015510Y013380D01*
X016310Y013380D01*
X015510Y013380D01*
X015510Y013380D01*
X015510Y013380D01*
X015510Y012380D01*
X015510Y011840D01*
X015510Y012380D01*
X015510Y012380D01*
X015510Y012469D02*
X015510Y012469D01*
X015510Y012111D02*
X015510Y012111D01*
X014900Y011752D02*
X017127Y011752D01*
X017063Y011688D02*
X016981Y011491D01*
X016981Y011278D01*
X017063Y011082D01*
X017213Y010931D01*
X017410Y010850D01*
X017623Y010850D01*
X017819Y010931D01*
X017970Y011082D01*
X018051Y011278D01*
X018051Y011491D01*
X017970Y011688D01*
X017819Y011838D01*
X017707Y011885D01*
X017819Y011931D01*
X017970Y012082D01*
X018051Y012278D01*
X018051Y012491D01*
X017970Y012688D01*
X017819Y012838D01*
X017759Y012863D01*
X017818Y012893D01*
X017891Y012946D01*
X017955Y013010D01*
X018008Y013083D01*
X018049Y013164D01*
X018077Y013250D01*
X018091Y013339D01*
X018091Y013385D01*
X018091Y013430D01*
X018077Y013519D01*
X018049Y013605D01*
X018008Y013686D01*
X017955Y013759D01*
X017891Y013823D01*
X017818Y013877D01*
X017759Y013906D01*
X017819Y013931D01*
X017970Y014082D01*
X018051Y014278D01*
X018051Y014491D01*
X017970Y014688D01*
X017819Y014838D01*
X017707Y014885D01*
X017819Y014931D01*
X017970Y015082D01*
X017975Y015095D01*
X018050Y015126D01*
X019250Y016326D01*
X019334Y016410D01*
X019380Y016520D01*
X019380Y019909D01*
X019799Y019909D01*
X020075Y020186D01*
X020352Y019909D01*
X020799Y019909D01*
X021075Y020186D01*
X021352Y019909D01*
X021799Y019909D01*
X022075Y020186D01*
X022352Y019909D01*
X022799Y019909D01*
X023115Y020226D01*
X023115Y020571D01*
X023308Y020237D01*
X023584Y019961D01*
X023921Y019767D01*
X023921Y019767D01*
X024298Y019666D01*
X024688Y019666D01*
X025064Y019767D01*
X025402Y019961D01*
X025511Y020070D01*
X025511Y018674D01*
X025450Y018734D01*
X025340Y018780D01*
X024134Y018780D01*
X024132Y018784D01*
X023981Y018935D01*
X023784Y019017D01*
X022976Y019017D01*
X022779Y018935D01*
X022628Y018784D01*
X022626Y018780D01*
X020878Y018780D01*
X020819Y018838D01*
X020623Y018920D01*
X020410Y018920D01*
X020213Y018838D01*
X020063Y018688D01*
X019981Y018491D01*
X019981Y018278D01*
X020063Y018082D01*
X020213Y017931D01*
X020325Y017885D01*
X020213Y017838D01*
X020063Y017688D01*
X019981Y017491D01*
X019981Y017278D01*
X020063Y017082D01*
X020213Y016931D01*
X020325Y016885D01*
X020213Y016838D01*
X020063Y016688D01*
X019981Y016491D01*
X019981Y016278D01*
X020063Y016082D01*
X020213Y015931D01*
X020325Y015885D01*
X020213Y015838D01*
X020063Y015688D01*
X019981Y015491D01*
X019981Y015278D01*
X020063Y015082D01*
X020213Y014931D01*
X020325Y014885D01*
X020213Y014838D01*
X020063Y014688D01*
X019981Y014491D01*
X019981Y014278D01*
X020063Y014082D01*
X020213Y013931D01*
X020325Y013885D01*
X020213Y013838D01*
X020063Y013688D01*
X019981Y013491D01*
X019981Y013278D01*
X020063Y013082D01*
X020213Y012931D01*
X020325Y012885D01*
X020213Y012838D01*
X020063Y012688D01*
X019981Y012491D01*
X019981Y012278D01*
X020063Y012082D01*
X020213Y011931D01*
X020241Y011920D01*
X020173Y011920D01*
X020085Y011883D01*
X020018Y011816D01*
X019981Y011727D01*
X019981Y011042D01*
X020018Y010954D01*
X020085Y010886D01*
X020173Y010850D01*
X020859Y010850D01*
X020947Y010886D01*
X021015Y010954D01*
X021051Y011042D01*
X021051Y011180D01*
X022626Y011180D01*
X022628Y011176D01*
X022779Y011025D01*
X022887Y010980D01*
X022779Y010935D01*
X022628Y010784D01*
X022546Y010587D01*
X022546Y010373D01*
X022628Y010176D01*
X022779Y010025D01*
X022976Y009943D01*
X023719Y009943D01*
X023656Y009880D01*
X022420Y009880D01*
X022310Y009834D01*
X022226Y009750D01*
X021226Y008750D01*
X021180Y008640D01*
X021180Y008104D01*
X020310Y007234D01*
X020226Y007150D01*
X020180Y007040D01*
X020180Y006880D01*
X017420Y006880D01*
X017310Y006834D01*
X016456Y005980D01*
X016173Y005980D01*
X015880Y005687D01*
X015880Y005273D01*
X016173Y004980D01*
X016587Y004980D01*
X016880Y005273D01*
X016880Y005556D01*
X016980Y005656D01*
X016980Y005273D01*
X017273Y004980D01*
X017687Y004980D01*
X017980Y005273D01*
X017980Y005556D01*
X018080Y005656D01*
X018080Y005273D01*
X018373Y004980D01*
X018787Y004980D01*
X019080Y005273D01*
X019080Y005556D01*
X019180Y005656D01*
X019180Y005273D01*
X019473Y004980D01*
X019887Y004980D01*
X020180Y005273D01*
X020180Y005556D01*
X020280Y005656D01*
X020280Y005273D01*
X020573Y004980D01*
X020987Y004980D01*
X021280Y005273D01*
X021280Y005687D01*
X021229Y005738D01*
X021450Y005959D01*
X021472Y005981D01*
X021673Y005780D01*
X022087Y005780D01*
X022380Y006073D01*
X022380Y006356D01*
X022689Y006664D01*
X022773Y006580D01*
X023187Y006580D01*
X023480Y006873D01*
X023480Y007287D01*
X023280Y007487D01*
X023280Y008080D01*
X023580Y008080D01*
X023580Y007673D01*
X023873Y007380D01*
X024287Y007380D01*
X024580Y007673D01*
X024580Y007856D01*
X025511Y008786D01*
X025511Y002748D01*
X025173Y002994D01*
X024727Y003138D01*
X024258Y003138D01*
X023812Y002994D01*
X023433Y002718D01*
X023433Y002718D01*
X023157Y002338D01*
X023012Y001892D01*
X023012Y001423D01*
X023157Y000977D01*
X023402Y000640D01*
X002734Y000640D01*
X002843Y000749D01*
X003038Y001087D01*
X003138Y001463D01*
X003138Y001892D01*
X002994Y002338D01*
X002994Y002338D01*
X002718Y002718D01*
X002718Y002718D01*
X002718Y002718D01*
X002338Y002994D01*
X001892Y003138D01*
X001423Y003138D01*
X000977Y002994D01*
X000640Y002748D01*
X000640Y020070D01*
X000749Y019961D01*
X001087Y019767D01*
X001463Y019666D01*
X001853Y019666D01*
X002229Y019767D01*
X002229Y019767D01*
X002567Y019961D01*
X002567Y019961D01*
X002843Y020237D01*
X003035Y020571D01*
X003035Y020226D01*
X003352Y019909D01*
X003799Y019909D01*
X004075Y020186D01*
X004352Y019909D01*
X004799Y019909D01*
X005075Y020186D01*
X005352Y019909D01*
X005799Y019909D01*
X006075Y020186D01*
X006352Y019909D01*
X006799Y019909D01*
X007047Y020157D01*
X007335Y019869D01*
X007575Y019869D01*
X007575Y020449D01*
X007575Y020449D01*
X007575Y019869D01*
X007816Y019869D01*
X008104Y020157D01*
X008275Y019986D01*
X008275Y019580D01*
X008273Y019580D01*
X007980Y019287D01*
X007980Y018873D01*
X008273Y018580D01*
X008687Y018580D01*
X008980Y018873D01*
X008980Y019287D01*
X008875Y019392D01*
X008875Y019986D01*
X009075Y020186D01*
X009352Y019909D01*
X009780Y019909D01*
X009780Y019604D01*
X009756Y019580D01*
X009473Y019580D01*
X009180Y019287D01*
X009180Y018873D01*
X009473Y018580D01*
X009887Y018580D01*
X010180Y018873D01*
X010180Y019156D01*
X010334Y019310D01*
X010380Y019420D01*
X010380Y019909D01*
X010780Y019909D01*
X010780Y019580D01*
X010673Y019580D01*
X010380Y019287D01*
X010380Y018873D01*
X010673Y018580D01*
X011087Y018580D01*
X011380Y018873D01*
X011380Y019909D01*
X011799Y019909D01*
X012075Y020186D01*
X012352Y019909D01*
X012691Y019909D01*
X012790Y019810D01*
X012875Y019726D01*
X012985Y019680D01*
X013840Y019680D01*
X013950Y019726D01*
X014243Y020018D01*
X014352Y019909D01*
X014691Y019909D01*
X014975Y019626D01*
X015085Y019580D01*
X016656Y019580D01*
X016810Y019426D01*
X016920Y019380D01*
X017656Y019380D01*
X018180Y018856D01*
X018180Y018180D01*
X018054Y018180D01*
X018077Y018250D01*
X018091Y018339D01*
X018091Y018385D01*
X018091Y018430D01*
X018077Y018519D01*
X018049Y018605D01*
X018008Y018686D01*
X017955Y018759D01*
X017891Y018823D01*
X017818Y018877D01*
X017737Y018918D01*
X017651Y018946D01*
X017561Y018960D01*
X017516Y018960D01*
X017471Y018960D01*
X017382Y018946D01*
X017295Y018918D01*
X017215Y018877D01*
X017142Y018823D01*
X017078Y018759D01*
X017024Y018686D01*
X016983Y018605D01*
X016955Y018519D01*
X016941Y018430D01*
X016941Y018385D01*
X017516Y018385D01*
X017516Y018960D01*
X017516Y018385D01*
X017516Y018385D01*
X017516Y018385D01*
X016941Y018385D01*
X016941Y018339D01*
X016955Y018250D01*
X016983Y018164D01*
X017024Y018083D01*
X017039Y018063D01*
X017026Y018050D01*
X016726Y017750D01*
X016680Y017640D01*
X016680Y014520D01*
X016726Y014410D01*
X016810Y014326D01*
X017005Y014130D01*
X017050Y014112D01*
X017063Y014082D01*
X017213Y013931D01*
X017273Y013906D01*
X017215Y013877D01*
X017142Y013823D01*
X017078Y013759D01*
X017024Y013686D01*
X016983Y013605D01*
X016955Y013519D01*
X016941Y013430D01*
X016941Y013385D01*
X017516Y013385D01*
X017516Y013385D01*
X016941Y013385D01*
X016941Y013339D01*
X016955Y013250D01*
X016983Y013164D01*
X017024Y013083D01*
X017078Y013010D01*
X017142Y012946D01*
X017215Y012893D01*
X017273Y012863D01*
X017213Y012838D01*
X017063Y012688D01*
X016981Y012491D01*
X016981Y012278D01*
X017063Y012082D01*
X017213Y011931D01*
X017325Y011885D01*
X017213Y011838D01*
X017063Y011688D01*
X017051Y012111D02*
X016239Y012111D01*
X016303Y012469D02*
X016981Y012469D01*
X017202Y012828D02*
X016073Y012828D01*
X016275Y013186D02*
X016976Y013186D01*
X016964Y013545D02*
X016284Y013545D01*
X015925Y013903D02*
X017267Y013903D01*
X017766Y013903D02*
X020281Y013903D01*
X020003Y013545D02*
X018069Y013545D01*
X018091Y013385D02*
X017516Y013385D01*
X017516Y013385D01*
X018091Y013385D01*
X018056Y013186D02*
X020019Y013186D01*
X020202Y012828D02*
X017830Y012828D01*
X018051Y012469D02*
X019981Y012469D01*
X020051Y012111D02*
X017982Y012111D01*
X017906Y011752D02*
X019991Y011752D01*
X019981Y011394D02*
X018051Y011394D01*
X017923Y011035D02*
X019984Y011035D01*
X021048Y011035D02*
X022769Y011035D01*
X022583Y010677D02*
X016480Y010677D01*
X016400Y010318D02*
X022569Y010318D01*
X022937Y009960D02*
X016408Y009960D01*
X015980Y009680D02*
X015980Y010780D01*
X016432Y011035D02*
X017109Y011035D01*
X016981Y011394D02*
X014900Y011394D01*
X014900Y011035D02*
X015528Y011035D01*
X015480Y010677D02*
X014900Y010677D01*
X014900Y010318D02*
X015560Y010318D01*
X015552Y009960D02*
X014900Y009960D01*
X014900Y009601D02*
X015480Y009601D01*
X015149Y009243D02*
X014900Y009243D01*
X014060Y009243D02*
X012250Y009243D01*
X011710Y009243D02*
X008661Y009243D01*
X008900Y008884D02*
X014060Y008884D01*
X014060Y008526D02*
X008900Y008526D01*
X008480Y008830D02*
X007580Y009730D01*
X005974Y009733D01*
X005233Y009733D01*
X004406Y008906D01*
X004406Y005406D01*
X004406Y002354D01*
X005300Y001460D01*
X010880Y001460D01*
X011380Y001356D02*
X011480Y001356D01*
X011736Y000997D02*
X011124Y000997D01*
X010636Y000997D02*
X002986Y000997D01*
X003038Y001087D02*
X003038Y001087D01*
X003110Y001356D02*
X004811Y001356D01*
X004452Y001714D02*
X003138Y001714D01*
X003080Y002073D02*
X004094Y002073D01*
X003986Y002431D02*
X002926Y002431D01*
X002619Y002790D02*
X003986Y002790D01*
X003986Y003148D02*
X000640Y003148D01*
X000640Y002790D02*
X000697Y002790D01*
X000977Y002994D02*
X000977Y002994D01*
X000640Y003507D02*
X003986Y003507D01*
X003986Y003865D02*
X000640Y003865D01*
X000640Y004224D02*
X003986Y004224D01*
X003830Y004582D02*
X003025Y004582D01*
X003325Y004941D02*
X003527Y004941D01*
X003439Y005658D02*
X003405Y005658D01*
X003237Y006016D02*
X003616Y006016D01*
X003986Y006375D02*
X002757Y006375D01*
X002406Y006375D02*
X002406Y006375D01*
X002406Y006016D02*
X002406Y006016D01*
X002406Y005658D02*
X002406Y005658D01*
X002406Y005406D02*
X002406Y005406D01*
X002406Y005406D01*
X002406Y004376D01*
X002348Y004376D01*
X002233Y004389D01*
X002120Y004415D01*
X002011Y004453D01*
X001907Y004503D01*
X001809Y004565D01*
X001719Y004637D01*
X001637Y004719D01*
X001565Y004809D01*
X001503Y004907D01*
X001453Y005011D01*
X001415Y005120D01*
X001389Y005233D01*
X001376Y005348D01*
X001376Y005406D01*
X002406Y005406D01*
X002406Y005299D02*
X002406Y005299D01*
X002406Y004941D02*
X002406Y004941D01*
X002406Y004582D02*
X002406Y004582D01*
X001787Y004582D02*
X000640Y004582D01*
X000640Y004941D02*
X001487Y004941D01*
X001382Y005299D02*
X000640Y005299D01*
X000640Y005658D02*
X001407Y005658D01*
X001575Y006016D02*
X000640Y006016D01*
X000640Y006375D02*
X002055Y006375D01*
X000640Y006733D02*
X003986Y006733D01*
X003986Y007092D02*
X000640Y007092D01*
X000640Y007450D02*
X003986Y007450D01*
X003986Y007809D02*
X000640Y007809D01*
X000640Y008167D02*
X003986Y008167D01*
X003986Y008526D02*
X000640Y008526D01*
X000640Y008884D02*
X001806Y008884D01*
X001839Y008873D02*
X001752Y008901D01*
X001671Y008943D01*
X001598Y008996D01*
X001534Y009060D01*
X001480Y009134D01*
X001439Y009214D01*
X001411Y009301D01*
X001397Y009391D01*
X001397Y009733D01*
X001974Y009733D01*
X002551Y009733D01*
X002974Y009733D01*
X003551Y009733D01*
X003551Y010075D01*
X003536Y010165D01*
X003508Y010251D01*
X003467Y010332D01*
X003414Y010405D01*
X003349Y010470D01*
X003276Y010523D01*
X003195Y010564D01*
X003109Y010592D01*
X003019Y010606D01*
X002974Y010606D01*
X002974Y009733D01*
X002974Y009733D01*
X002974Y009733D01*
X003551Y009733D01*
X003551Y009391D01*
X003536Y009301D01*
X003508Y009214D01*
X003467Y009134D01*
X003414Y009060D01*
X003349Y008996D01*
X003276Y008943D01*
X003195Y008901D01*
X003109Y008873D01*
X003019Y008859D01*
X002974Y008859D01*
X002974Y009733D01*
X002974Y010606D01*
X002928Y010606D01*
X002839Y010592D01*
X002752Y010564D01*
X002671Y010523D01*
X002598Y010470D01*
X002534Y010405D01*
X002480Y010332D01*
X002474Y010319D01*
X002467Y010332D01*
X002414Y010405D01*
X002349Y010470D01*
X002276Y010523D01*
X002195Y010564D01*
X002109Y010592D01*
X002019Y010606D01*
X001974Y010606D01*
X001974Y009733D01*
X001974Y009733D01*
X001974Y009733D01*
X002974Y009733D01*
X002974Y009733D01*
X002974Y009733D01*
X002974Y008859D01*
X002928Y008859D01*
X002839Y008873D01*
X002752Y008901D01*
X002671Y008943D01*
X002598Y008996D01*
X002534Y009060D01*
X002480Y009134D01*
X002474Y009147D01*
X002467Y009134D01*
X002414Y009060D01*
X002349Y008996D01*
X002276Y008943D01*
X002195Y008901D01*
X002109Y008873D01*
X002019Y008859D01*
X001974Y008859D01*
X001974Y009733D01*
X001974Y010606D01*
X001928Y010606D01*
X001839Y010592D01*
X001752Y010564D01*
X001671Y010523D01*
X001598Y010470D01*
X001534Y010405D01*
X001480Y010332D01*
X001439Y010251D01*
X001411Y010165D01*
X001397Y010075D01*
X001397Y009733D01*
X001974Y009733D01*
X001974Y009733D01*
X001974Y009733D01*
X001974Y008859D01*
X001928Y008859D01*
X001839Y008873D01*
X001974Y008884D02*
X001974Y008884D01*
X002142Y008884D02*
X002806Y008884D01*
X002974Y008884D02*
X002974Y008884D01*
X003142Y008884D02*
X003986Y008884D01*
X004149Y009243D02*
X003517Y009243D01*
X003551Y009601D02*
X004507Y009601D01*
X004866Y009960D02*
X003551Y009960D01*
X003474Y010318D02*
X005512Y010318D01*
X006435Y010318D02*
X006512Y010318D01*
X007435Y010318D02*
X011735Y010318D01*
X011773Y010280D02*
X011480Y010573D01*
X011480Y010987D01*
X011773Y011280D01*
X012187Y011280D01*
X012480Y010987D01*
X012480Y010573D01*
X012187Y010280D01*
X011773Y010280D01*
X011552Y009960D02*
X007944Y009960D01*
X007818Y010086D02*
X007818Y010086D01*
X008303Y009601D02*
X011480Y009601D01*
X012225Y010318D02*
X013680Y010318D01*
X013680Y010677D02*
X012480Y010677D01*
X012432Y011035D02*
X013680Y011035D01*
X013680Y011394D02*
X000640Y011394D01*
X000640Y011035D02*
X011528Y011035D01*
X011480Y010677D02*
X000640Y010677D01*
X000640Y010318D02*
X001473Y010318D01*
X001397Y009960D02*
X000640Y009960D01*
X000640Y009601D02*
X001397Y009601D01*
X001430Y009243D02*
X000640Y009243D01*
X001974Y009243D02*
X001974Y009243D01*
X001974Y009601D02*
X001974Y009601D01*
X001974Y009960D02*
X001974Y009960D01*
X001974Y010318D02*
X001974Y010318D01*
X002974Y010318D02*
X002974Y010318D01*
X002974Y009960D02*
X002974Y009960D01*
X002974Y009601D02*
X002974Y009601D01*
X002974Y009243D02*
X002974Y009243D01*
X004826Y008526D02*
X008060Y008526D01*
X007832Y008884D02*
X004978Y008884D01*
X005336Y009243D02*
X005473Y009243D01*
X004826Y008167D02*
X008060Y008167D01*
X008158Y007809D02*
X004826Y007809D01*
X004826Y007450D02*
X008516Y007450D01*
X009027Y007533D02*
X008480Y008080D01*
X008480Y008830D01*
X008987Y008167D02*
X014060Y008167D01*
X014480Y007980D02*
X015980Y009480D01*
X015980Y009680D01*
X016480Y009601D02*
X022077Y009601D01*
X021718Y009243D02*
X016336Y009243D01*
X015978Y008884D02*
X021360Y008884D01*
X021180Y008526D02*
X015619Y008526D01*
X015261Y008167D02*
X021180Y008167D01*
X020884Y007809D02*
X014902Y007809D01*
X014718Y007624D02*
X014718Y007624D01*
X014544Y007450D02*
X020526Y007450D01*
X020310Y007234D02*
X020310Y007234D01*
X020201Y007092D02*
X004826Y007092D01*
X004826Y006733D02*
X017209Y006733D01*
X016850Y006375D02*
X008655Y006375D01*
X008603Y006396D02*
X008209Y006396D01*
X007845Y006245D01*
X007567Y005967D01*
X007416Y005603D01*
X007416Y005209D01*
X007567Y004845D01*
X007845Y004567D01*
X008209Y004416D01*
X008603Y004416D01*
X008967Y004567D01*
X009245Y004845D01*
X009396Y005209D01*
X009396Y005603D01*
X009245Y005967D01*
X008967Y006245D01*
X008603Y006396D01*
X008157Y006375D02*
X006655Y006375D01*
X006157Y006375D02*
X004826Y006375D01*
X005196Y006016D02*
X005616Y006016D01*
X005439Y005658D02*
X005373Y005658D01*
X005396Y005299D02*
X005416Y005299D01*
X005527Y004941D02*
X005285Y004941D01*
X004982Y004582D02*
X005830Y004582D01*
X005986Y004224D02*
X004826Y004224D01*
X004826Y003865D02*
X005986Y003865D01*
X005986Y003507D02*
X004826Y003507D01*
X004826Y003148D02*
X005986Y003148D01*
X005986Y002790D02*
X004826Y002790D01*
X004923Y002431D02*
X006235Y002431D01*
X006406Y002854D02*
X007080Y002180D01*
X011260Y002180D01*
X011980Y001460D01*
X013080Y001460D01*
X014180Y001460D01*
X014633Y001714D02*
X015850Y001714D01*
X015840Y001704D02*
X015840Y001480D01*
X016380Y001480D01*
X016380Y001480D01*
X016380Y002020D01*
X016604Y002020D01*
X016920Y001704D01*
X016920Y001480D01*
X016380Y001480D01*
X016380Y001480D01*
X016380Y001480D01*
X016380Y002020D01*
X016156Y002020D01*
X015840Y001704D01*
X015840Y001480D02*
X015840Y001256D01*
X016156Y000940D01*
X016380Y000940D01*
X016604Y000940D01*
X016920Y001256D01*
X016920Y001480D01*
X016380Y001480D01*
X016380Y000940D01*
X016380Y001480D01*
X016380Y001480D01*
X015840Y001480D01*
X015840Y001356D02*
X014680Y001356D01*
X014424Y000997D02*
X016099Y000997D01*
X016380Y000997D02*
X016380Y000997D01*
X016661Y000997D02*
X017199Y000997D01*
X017256Y000940D02*
X016940Y001256D01*
X016940Y001480D01*
X017480Y001480D01*
X017480Y001480D01*
X017480Y002020D01*
X017704Y002020D01*
X018020Y001704D01*
X018020Y001480D01*
X017480Y001480D01*
X017480Y001480D01*
X017480Y001480D01*
X017480Y002020D01*
X017256Y002020D01*
X016940Y001704D01*
X016940Y001480D01*
X017480Y001480D01*
X018020Y001480D01*
X018020Y001256D01*
X017704Y000940D01*
X017480Y000940D01*
X017480Y001480D01*
X017480Y001480D01*
X017480Y000940D01*
X017256Y000940D01*
X017480Y000997D02*
X017480Y000997D01*
X017761Y000997D02*
X018299Y000997D01*
X018356Y000940D02*
X018040Y001256D01*
X018040Y001480D01*
X018580Y001480D01*
X018580Y001480D01*
X018580Y002020D01*
X018804Y002020D01*
X019120Y001704D01*
X019120Y001480D01*
X018580Y001480D01*
X018580Y001480D01*
X018580Y001480D01*
X018580Y002020D01*
X018356Y002020D01*
X018040Y001704D01*
X018040Y001480D01*
X018580Y001480D01*
X019120Y001480D01*
X019120Y001256D01*
X018804Y000940D01*
X018580Y000940D01*
X018580Y001480D01*
X018580Y001480D01*
X018580Y000940D01*
X018356Y000940D01*
X018580Y000997D02*
X018580Y000997D01*
X018580Y001356D02*
X018580Y001356D01*
X018580Y001714D02*
X018580Y001714D01*
X019110Y001714D02*
X019150Y001714D01*
X019140Y001704D02*
X019140Y001480D01*
X019680Y001480D01*
X019680Y001480D01*
X019680Y002020D01*
X019904Y002020D01*
X020220Y001704D01*
X020220Y001480D01*
X019680Y001480D01*
X019680Y001480D01*
X019680Y001480D01*
X019680Y002020D01*
X019456Y002020D01*
X019140Y001704D01*
X019140Y001480D02*
X019140Y001256D01*
X019456Y000940D01*
X019680Y000940D01*
X019904Y000940D01*
X020220Y001256D01*
X020220Y001480D01*
X019680Y001480D01*
X019680Y000940D01*
X019680Y001480D01*
X019680Y001480D01*
X019140Y001480D01*
X019140Y001356D02*
X019120Y001356D01*
X018861Y000997D02*
X019399Y000997D01*
X019680Y000997D02*
X019680Y000997D01*
X019961Y000997D02*
X020499Y000997D01*
X020556Y000940D02*
X020240Y001256D01*
X020240Y001480D01*
X020780Y001480D01*
X020780Y001480D01*
X020780Y002020D01*
X021004Y002020D01*
X021320Y001704D01*
X021320Y001480D01*
X020780Y001480D01*
X020780Y001480D01*
X020780Y001480D01*
X020780Y002020D01*
X020556Y002020D01*
X020240Y001704D01*
X020240Y001480D01*
X020780Y001480D01*
X021320Y001480D01*
X021320Y001256D01*
X021004Y000940D01*
X020780Y000940D01*
X020780Y001480D01*
X020780Y001480D01*
X020780Y000940D01*
X020556Y000940D01*
X020780Y000997D02*
X020780Y000997D01*
X021061Y000997D02*
X023151Y000997D01*
X023157Y000977D02*
X023157Y000977D01*
X023034Y001356D02*
X021320Y001356D01*
X021310Y001714D02*
X023012Y001714D01*
X023071Y002073D02*
X022420Y002073D01*
X022420Y002056D02*
X022420Y002280D01*
X022420Y002504D01*
X022104Y002820D01*
X021880Y002820D01*
X021880Y002280D01*
X021880Y002280D01*
X022420Y002280D01*
X021880Y002280D01*
X021880Y002280D01*
X021880Y002280D01*
X021340Y002280D01*
X021340Y002504D01*
X021656Y002820D01*
X021880Y002820D01*
X021880Y002280D01*
X021880Y001740D01*
X022104Y001740D01*
X022420Y002056D01*
X022420Y002431D02*
X023224Y002431D01*
X023204Y002540D02*
X022980Y002540D01*
X022980Y003080D01*
X022980Y003080D01*
X022980Y003620D01*
X023204Y003620D01*
X023520Y003304D01*
X023520Y003080D01*
X022980Y003080D01*
X022980Y003080D01*
X022980Y003080D01*
X022440Y003080D01*
X022440Y003304D01*
X022756Y003620D01*
X022980Y003620D01*
X022980Y003080D01*
X023520Y003080D01*
X023520Y002856D01*
X023204Y002540D01*
X023157Y002338D02*
X023157Y002338D01*
X022980Y002540D02*
X022980Y003080D01*
X022980Y003080D01*
X022440Y003080D01*
X022440Y002856D01*
X022756Y002540D01*
X022980Y002540D01*
X022980Y002790D02*
X022980Y002790D01*
X022980Y003148D02*
X022980Y003148D01*
X022980Y003507D02*
X022980Y003507D01*
X022643Y003507D02*
X006826Y003507D01*
X006826Y003865D02*
X023540Y003865D01*
X023540Y003880D02*
X023540Y003656D01*
X023856Y003340D01*
X024080Y003340D01*
X024304Y003340D01*
X024620Y003656D01*
X024620Y003880D01*
X024620Y004104D01*
X024304Y004420D01*
X024080Y004420D01*
X024080Y003880D01*
X024080Y003880D01*
X024620Y003880D01*
X024080Y003880D01*
X024080Y003880D01*
X024080Y003880D01*
X023540Y003880D01*
X023540Y004104D01*
X023856Y004420D01*
X024080Y004420D01*
X024080Y003880D01*
X024080Y003340D01*
X024080Y003880D01*
X024080Y003880D01*
X023540Y003880D01*
X023690Y003507D02*
X023317Y003507D01*
X023520Y003148D02*
X025511Y003148D01*
X025511Y002790D02*
X025454Y002790D01*
X025173Y002994D02*
X025173Y002994D01*
X025511Y003507D02*
X024470Y003507D01*
X024620Y003865D02*
X025511Y003865D01*
X025511Y004224D02*
X024500Y004224D01*
X024080Y004224D02*
X024080Y004224D01*
X023660Y004224D02*
X006826Y004224D01*
X006982Y004582D02*
X007830Y004582D01*
X007527Y004941D02*
X007285Y004941D01*
X007396Y005299D02*
X007416Y005299D01*
X007439Y005658D02*
X007373Y005658D01*
X007196Y006016D02*
X007616Y006016D01*
X006406Y005406D02*
X006406Y002854D01*
X006826Y003148D02*
X022440Y003148D01*
X022507Y002790D02*
X022134Y002790D01*
X021880Y002790D02*
X021880Y002790D01*
X021626Y002790D02*
X007064Y002790D01*
X006594Y002073D02*
X005281Y002073D01*
X002843Y000749D02*
X002843Y000749D01*
X002338Y002994D02*
X002338Y002994D01*
X008982Y004582D02*
X025511Y004582D01*
X025511Y004941D02*
X013324Y004941D01*
X013304Y004920D02*
X013620Y005236D01*
X013620Y005460D01*
X013620Y005684D01*
X013304Y006000D01*
X013080Y006000D01*
X013080Y005460D01*
X013080Y005460D01*
X013620Y005460D01*
X013080Y005460D01*
X013080Y005460D01*
X013080Y005460D01*
X012540Y005460D01*
X012540Y005684D01*
X012856Y006000D01*
X013080Y006000D01*
X013080Y005460D01*
X013080Y004920D01*
X013304Y004920D01*
X013080Y004920D02*
X013080Y005460D01*
X013080Y005460D01*
X012540Y005460D01*
X012540Y005236D01*
X012856Y004920D01*
X013080Y004920D01*
X013080Y004941D02*
X013080Y004941D01*
X012836Y004941D02*
X009285Y004941D01*
X009396Y005299D02*
X010380Y005299D01*
X010380Y005253D02*
X010673Y004960D01*
X011087Y004960D01*
X011380Y005253D01*
X011380Y005667D01*
X011087Y005960D01*
X010673Y005960D01*
X010380Y005667D01*
X010380Y005253D01*
X010380Y005658D02*
X009373Y005658D01*
X009196Y006016D02*
X016492Y006016D01*
X015880Y005658D02*
X014680Y005658D01*
X014680Y005667D02*
X014387Y005960D01*
X013973Y005960D01*
X013680Y005667D01*
X013680Y005253D01*
X013973Y004960D01*
X014387Y004960D01*
X014680Y005253D01*
X014680Y005667D01*
X014680Y005299D02*
X015880Y005299D01*
X016880Y005299D02*
X016980Y005299D01*
X017980Y005299D02*
X018080Y005299D01*
X019080Y005299D02*
X019180Y005299D01*
X020180Y005299D02*
X020280Y005299D01*
X021280Y005299D02*
X025511Y005299D01*
X025511Y005658D02*
X021280Y005658D01*
X021450Y005959D02*
X021450Y005959D01*
X022323Y006016D02*
X025511Y006016D01*
X025511Y006375D02*
X022399Y006375D01*
X023340Y006733D02*
X025511Y006733D01*
X025511Y007092D02*
X023480Y007092D01*
X023317Y007450D02*
X023803Y007450D01*
X023580Y007809D02*
X023280Y007809D01*
X024357Y007450D02*
X025511Y007450D01*
X025511Y007809D02*
X024580Y007809D01*
X024891Y008167D02*
X025511Y008167D01*
X025511Y008526D02*
X025250Y008526D01*
X024080Y003865D02*
X024080Y003865D01*
X024080Y003507D02*
X024080Y003507D01*
X023812Y002994D02*
X023812Y002994D01*
X023531Y002790D02*
X023453Y002790D01*
X023433Y002718D02*
X023433Y002718D01*
X021880Y002431D02*
X021880Y002431D01*
X021880Y002280D02*
X021340Y002280D01*
X021340Y002056D01*
X021656Y001740D01*
X021880Y001740D01*
X021880Y002280D01*
X021880Y002280D01*
X021880Y002073D02*
X021880Y002073D01*
X021340Y002073D02*
X011961Y002073D01*
X011603Y002431D02*
X021340Y002431D01*
X020780Y001714D02*
X020780Y001714D01*
X020780Y001356D02*
X020780Y001356D01*
X020240Y001356D02*
X020220Y001356D01*
X020210Y001714D02*
X020250Y001714D01*
X019680Y001714D02*
X019680Y001714D01*
X019680Y001356D02*
X019680Y001356D01*
X018040Y001356D02*
X018020Y001356D01*
X018010Y001714D02*
X018050Y001714D01*
X017480Y001714D02*
X017480Y001714D01*
X017480Y001356D02*
X017480Y001356D01*
X016940Y001356D02*
X016920Y001356D01*
X016910Y001714D02*
X016950Y001714D01*
X016380Y001714D02*
X016380Y001714D01*
X016380Y001356D02*
X016380Y001356D01*
X013936Y000997D02*
X013324Y000997D01*
X012836Y000997D02*
X012224Y000997D01*
X012187Y004960D02*
X011773Y004960D01*
X011480Y005253D01*
X011480Y005667D01*
X011773Y005960D01*
X012187Y005960D01*
X012480Y005667D01*
X012480Y005253D01*
X012187Y004960D01*
X012480Y005299D02*
X012540Y005299D01*
X012540Y005658D02*
X012480Y005658D01*
X013080Y005658D02*
X013080Y005658D01*
X013080Y005299D02*
X013080Y005299D01*
X013620Y005299D02*
X013680Y005299D01*
X013680Y005658D02*
X013620Y005658D01*
X014033Y007533D02*
X009027Y007533D01*
X011380Y005658D02*
X011480Y005658D01*
X011480Y005299D02*
X011380Y005299D01*
X014033Y007533D02*
X014480Y007980D01*
X014480Y017880D01*
X014980Y018380D01*
X015510Y018380D01*
X016235Y018564D02*
X016970Y018564D01*
X016970Y018205D02*
X016239Y018205D01*
X016044Y017847D02*
X016822Y017847D01*
X016680Y017488D02*
X016300Y017488D01*
X016310Y017380D02*
X015510Y017380D01*
X015510Y017380D01*
X016310Y017380D01*
X016248Y017130D02*
X016680Y017130D01*
X016680Y016771D02*
X016143Y016771D01*
X016310Y016413D02*
X016680Y016413D01*
X016680Y016054D02*
X016201Y016054D01*
X016310Y016380D02*
X015510Y016380D01*
X016310Y016380D01*
X016162Y015696D02*
X016680Y015696D01*
X016680Y015337D02*
X016270Y015337D01*
X016076Y014979D02*
X016680Y014979D01*
X016680Y014620D02*
X016212Y014620D01*
X016262Y014262D02*
X016874Y014262D01*
X018044Y014262D02*
X019988Y014262D01*
X020035Y014620D02*
X017998Y014620D01*
X017867Y014979D02*
X020166Y014979D01*
X019981Y015337D02*
X018261Y015337D01*
X018620Y015696D02*
X020070Y015696D01*
X020090Y016054D02*
X018978Y016054D01*
X019335Y016413D02*
X019981Y016413D01*
X020146Y016771D02*
X019380Y016771D01*
X019380Y017130D02*
X020043Y017130D01*
X019981Y017488D02*
X019380Y017488D01*
X019380Y017847D02*
X020233Y017847D01*
X020012Y018205D02*
X019380Y018205D01*
X019380Y018564D02*
X020011Y018564D01*
X019380Y018922D02*
X022766Y018922D01*
X022887Y019998D02*
X023548Y019998D01*
X023584Y019961D02*
X023584Y019961D01*
X023308Y020237D02*
X023308Y020237D01*
X023239Y020356D02*
X023115Y020356D01*
X022263Y019998D02*
X021887Y019998D01*
X021263Y019998D02*
X020887Y019998D01*
X020263Y019998D02*
X019887Y019998D01*
X019380Y019639D02*
X025511Y019639D01*
X025511Y019281D02*
X019380Y019281D01*
X018114Y018922D02*
X017723Y018922D01*
X017516Y018922D02*
X017516Y018922D01*
X017309Y018922D02*
X011380Y018922D01*
X011785Y018564D02*
X000640Y018564D01*
X000640Y018922D02*
X007980Y018922D01*
X007980Y019281D02*
X000640Y019281D01*
X000640Y019639D02*
X008275Y019639D01*
X008263Y019998D02*
X007944Y019998D01*
X007575Y019998D02*
X007575Y019998D01*
X007207Y019998D02*
X006887Y019998D01*
X007575Y020356D02*
X007575Y020356D01*
X006263Y019998D02*
X005887Y019998D01*
X005263Y019998D02*
X004887Y019998D01*
X004263Y019998D02*
X003887Y019998D01*
X003263Y019998D02*
X002603Y019998D01*
X002843Y020237D02*
X002843Y020237D01*
X002911Y020356D02*
X003035Y020356D01*
X001087Y019767D02*
X001087Y019767D01*
X000749Y019961D02*
X000749Y019961D01*
X000713Y019998D02*
X000640Y019998D01*
X000640Y018205D02*
X011781Y018205D01*
X012070Y017847D02*
X007416Y017847D01*
X007429Y017834D02*
X007278Y017985D01*
X007080Y018066D01*
X006867Y018066D01*
X006670Y017985D01*
X006519Y017834D01*
X006474Y017725D01*
X006429Y017834D01*
X006278Y017985D01*
X006080Y018066D01*
X005867Y018066D01*
X005670Y017985D01*
X005519Y017834D01*
X005437Y017636D01*
X005437Y016829D01*
X005519Y016632D01*
X005670Y016481D01*
X005867Y016399D01*
X006080Y016399D01*
X006278Y016481D01*
X006429Y016632D01*
X006474Y016740D01*
X006519Y016632D01*
X006670Y016481D01*
X006867Y016399D01*
X007080Y016399D01*
X007278Y016481D01*
X007429Y016632D01*
X007511Y016829D01*
X007511Y017636D01*
X007429Y017834D01*
X007511Y017488D02*
X011664Y017488D01*
X011317Y017130D02*
X007511Y017130D01*
X007486Y016771D02*
X011280Y016771D01*
X011280Y016413D02*
X007113Y016413D01*
X006834Y016413D02*
X006113Y016413D01*
X005834Y016413D02*
X003217Y016413D01*
X003195Y016401D02*
X003276Y016443D01*
X003349Y016496D01*
X003414Y016560D01*
X003467Y016634D01*
X003508Y016714D01*
X003536Y016801D01*
X003551Y016891D01*
X003551Y017233D01*
X003551Y017575D01*
X003536Y017665D01*
X003508Y017751D01*
X003467Y017832D01*
X003414Y017905D01*
X003349Y017970D01*
X003276Y018023D01*
X003195Y018064D01*
X003109Y018092D01*
X003019Y018106D01*
X002974Y018106D01*
X002974Y017233D01*
X003551Y017233D01*
X002974Y017233D01*
X002974Y017233D01*
X002974Y017233D01*
X002974Y018106D01*
X002928Y018106D01*
X002839Y018092D01*
X002752Y018064D01*
X002671Y018023D01*
X002598Y017970D01*
X002534Y017905D01*
X002480Y017832D01*
X002474Y017819D01*
X002467Y017832D01*
X002414Y017905D01*
X002349Y017970D01*
X002276Y018023D01*
X002195Y018064D01*
X002109Y018092D01*
X002019Y018106D01*
X001974Y018106D01*
X001974Y017233D01*
X002551Y017233D01*
X002974Y017233D01*
X002974Y016359D01*
X003019Y016359D01*
X003109Y016373D01*
X003195Y016401D01*
X002974Y016413D02*
X002974Y016413D01*
X002974Y016359D02*
X002974Y017233D01*
X002974Y017233D01*
X002974Y017233D01*
X001974Y017233D01*
X001974Y017233D01*
X001974Y017233D01*
X001974Y018106D01*
X001928Y018106D01*
X001839Y018092D01*
X001752Y018064D01*
X001671Y018023D01*
X001598Y017970D01*
X001534Y017905D01*
X001480Y017832D01*
X001439Y017751D01*
X001411Y017665D01*
X001397Y017575D01*
X001397Y017233D01*
X001974Y017233D01*
X001974Y016359D01*
X002019Y016359D01*
X002109Y016373D01*
X002195Y016401D01*
X002276Y016443D01*
X002349Y016496D01*
X002414Y016560D01*
X002467Y016634D01*
X002474Y016647D01*
X002480Y016634D01*
X002534Y016560D01*
X002598Y016496D01*
X002671Y016443D01*
X002752Y016401D01*
X002839Y016373D01*
X002928Y016359D01*
X002974Y016359D01*
X002730Y016413D02*
X002217Y016413D01*
X001974Y016413D02*
X001974Y016413D01*
X001974Y016359D02*
X001974Y017233D01*
X001974Y017233D01*
X001974Y017233D01*
X001397Y017233D01*
X001397Y016891D01*
X001411Y016801D01*
X001439Y016714D01*
X001480Y016634D01*
X001534Y016560D01*
X001598Y016496D01*
X001671Y016443D01*
X001752Y016401D01*
X001839Y016373D01*
X001928Y016359D01*
X001974Y016359D01*
X001730Y016413D02*
X000640Y016413D01*
X000640Y016054D02*
X011280Y016054D01*
X011290Y015696D02*
X000640Y015696D01*
X000640Y015337D02*
X007973Y015337D01*
X007940Y015304D02*
X007940Y015080D01*
X008480Y015080D01*
X008480Y015080D01*
X008480Y015620D01*
X008704Y015620D01*
X009020Y015304D01*
X009020Y015080D01*
X008480Y015080D01*
X008480Y015080D01*
X008480Y015080D01*
X008480Y015620D01*
X008256Y015620D01*
X007940Y015304D01*
X007940Y015080D02*
X007940Y014856D01*
X008256Y014540D01*
X008480Y014540D01*
X008704Y014540D01*
X009020Y014856D01*
X009020Y015080D01*
X008480Y015080D01*
X008480Y014540D01*
X008480Y015080D01*
X008480Y015080D01*
X007940Y015080D01*
X007940Y014979D02*
X000640Y014979D01*
X000640Y014620D02*
X008176Y014620D01*
X008480Y014620D02*
X008480Y014620D01*
X008784Y014620D02*
X009376Y014620D01*
X009456Y014540D02*
X009140Y014856D01*
X009140Y015080D01*
X009680Y015080D01*
X009680Y015080D01*
X009680Y015620D01*
X009904Y015620D01*
X010220Y015304D01*
X010220Y015080D01*
X009680Y015080D01*
X009680Y015080D01*
X009680Y015080D01*
X009680Y015620D01*
X009456Y015620D01*
X009140Y015304D01*
X009140Y015080D01*
X009680Y015080D01*
X010220Y015080D01*
X010220Y014856D01*
X009904Y014540D01*
X009680Y014540D01*
X009680Y015080D01*
X009680Y015080D01*
X009680Y014540D01*
X009456Y014540D01*
X009680Y014620D02*
X009680Y014620D01*
X009984Y014620D02*
X010633Y014620D01*
X010673Y014580D02*
X011087Y014580D01*
X011380Y014873D01*
X011380Y015287D01*
X011087Y015580D01*
X010673Y015580D01*
X010380Y015287D01*
X010380Y014873D01*
X010673Y014580D01*
X011127Y014620D02*
X011808Y014620D01*
X011758Y014262D02*
X000640Y014262D01*
X000640Y013903D02*
X012095Y013903D01*
X011777Y013545D02*
X000640Y013545D01*
X000640Y013186D02*
X011789Y013186D01*
X011947Y012828D02*
X000640Y012828D01*
X000640Y012469D02*
X011717Y012469D01*
X011710Y012380D02*
X011710Y012338D01*
X011723Y012254D01*
X011750Y012173D01*
X011788Y012097D01*
X011838Y012028D01*
X011898Y011968D01*
X011967Y011918D01*
X012043Y011880D01*
X012124Y011853D01*
X012208Y011840D01*
X012510Y011840D01*
X012812Y011840D01*
X012896Y011853D01*
X012977Y011880D01*
X013053Y011918D01*
X013122Y011968D01*
X013182Y012028D01*
X013232Y012097D01*
X013270Y012173D01*
X013297Y012254D01*
X013310Y012338D01*
X013310Y012380D01*
X012510Y012380D01*
X012510Y012380D01*
X012510Y011840D01*
X012510Y012380D01*
X012510Y012380D01*
X012510Y012380D01*
X011710Y012380D01*
X011781Y012111D02*
X000640Y012111D01*
X000640Y011752D02*
X013680Y011752D01*
X013680Y012111D02*
X013239Y012111D01*
X013303Y012469D02*
X013680Y012469D01*
X013680Y012828D02*
X013073Y012828D01*
X012510Y012111D02*
X012510Y012111D01*
X013940Y013545D02*
X014060Y013545D01*
X014060Y013903D02*
X012925Y013903D01*
X013262Y014262D02*
X014060Y014262D01*
X014060Y014620D02*
X013544Y014620D01*
X013680Y014979D02*
X014060Y014979D01*
X014060Y015337D02*
X013680Y015337D01*
X013680Y015696D02*
X014060Y015696D01*
X014060Y016054D02*
X013630Y016054D01*
X013272Y016413D02*
X014060Y016413D01*
X014060Y016771D02*
X013086Y016771D01*
X012869Y016880D02*
X012151Y016880D01*
X012869Y016880D01*
X013207Y017130D02*
X014060Y017130D01*
X014060Y017488D02*
X013266Y017488D01*
X012950Y017847D02*
X014060Y017847D01*
X014211Y018205D02*
X013239Y018205D01*
X013235Y018564D02*
X014570Y018564D01*
X014961Y019639D02*
X011380Y019639D01*
X011380Y019281D02*
X017755Y019281D01*
X017516Y018564D02*
X017516Y018564D01*
X017516Y018385D02*
X018091Y018385D01*
X017516Y018385D01*
X017516Y018385D01*
X018063Y018564D02*
X018180Y018564D01*
X018180Y018205D02*
X018062Y018205D01*
X015510Y017380D02*
X015510Y016840D01*
X015510Y016380D01*
X015510Y016380D01*
X015510Y016380D01*
X015510Y017380D01*
X015510Y017380D01*
X015510Y017130D02*
X015510Y017130D01*
X015510Y016771D02*
X015510Y016771D01*
X015510Y016413D02*
X015510Y016413D01*
X014900Y015023D02*
X014967Y014956D01*
X015151Y014880D01*
X015869Y014880D01*
X015151Y014880D01*
X014967Y014804D01*
X014900Y014737D01*
X014900Y015023D01*
X014900Y014979D02*
X014944Y014979D01*
X015510Y013186D02*
X015510Y013186D01*
X015510Y012828D02*
X015510Y012828D01*
X013017Y014941D02*
X012930Y014855D01*
X012869Y014880D01*
X012151Y014880D01*
X012869Y014880D01*
X013017Y014941D01*
X011944Y014979D02*
X011380Y014979D01*
X011330Y015337D02*
X011599Y015337D01*
X010430Y015337D02*
X010187Y015337D01*
X010220Y014979D02*
X010380Y014979D01*
X009680Y014979D02*
X009680Y014979D01*
X009680Y015337D02*
X009680Y015337D01*
X009173Y015337D02*
X008987Y015337D01*
X009020Y014979D02*
X009140Y014979D01*
X008480Y014979D02*
X008480Y014979D01*
X008480Y015337D02*
X008480Y015337D01*
X006531Y017847D02*
X006416Y017847D01*
X005531Y017847D02*
X003456Y017847D01*
X003551Y017488D02*
X005437Y017488D01*
X005437Y017130D02*
X003551Y017130D01*
X003527Y016771D02*
X005461Y016771D01*
X002974Y016771D02*
X002974Y016771D01*
X002974Y017130D02*
X002974Y017130D01*
X002974Y017488D02*
X002974Y017488D01*
X002974Y017847D02*
X002974Y017847D01*
X002491Y017847D02*
X002456Y017847D01*
X001974Y017847D02*
X001974Y017847D01*
X001974Y017488D02*
X001974Y017488D01*
X001974Y017130D02*
X001974Y017130D01*
X001974Y016771D02*
X001974Y016771D01*
X001421Y016771D02*
X000640Y016771D01*
X000640Y017130D02*
X001397Y017130D01*
X001397Y017488D02*
X000640Y017488D01*
X000640Y017847D02*
X001491Y017847D01*
X008875Y019639D02*
X009780Y019639D01*
X010380Y019639D02*
X010780Y019639D01*
X010380Y019281D02*
X010305Y019281D01*
X010380Y018922D02*
X010180Y018922D01*
X009180Y018922D02*
X008980Y018922D01*
X008980Y019281D02*
X009180Y019281D01*
X009263Y019998D02*
X008887Y019998D01*
X011887Y019998D02*
X012263Y019998D01*
X014222Y019998D02*
X014263Y019998D01*
X012151Y016880D02*
X011976Y016952D01*
X011880Y016856D01*
X011880Y016717D01*
X011967Y016804D01*
X012151Y016880D01*
X011934Y016771D02*
X011880Y016771D01*
X013825Y009601D02*
X014060Y009601D01*
X023994Y018922D02*
X025511Y018922D01*
X025064Y019767D02*
X025064Y019767D01*
X025402Y019961D02*
X025402Y019961D01*
X025438Y019998D02*
X025511Y019998D01*
M02*
