<?xml version="1.0" encoding="UTF-8" standalone="no"?>
<svg
   xmlns:dc="http://purl.org/dc/elements/1.1/"
   xmlns:cc="http://creativecommons.org/ns#"
   xmlns:rdf="http://www.w3.org/1999/02/22-rdf-syntax-ns#"
   xmlns:svg="http://www.w3.org/2000/svg"
   xmlns="http://www.w3.org/2000/svg"
   xmlns:sodipodi="http://sodipodi.sourceforge.net/DTD/sodipodi-0.dtd"
   xmlns:inkscape="http://www.inkscape.org/namespaces/inkscape"
   version="1.1"
   width="1892.126"
   height="992.12598"
   viewBox="0 0 1892.1275 992.1268"
   id="svg3294"
   inkscape:version="0.48.4 r9939"
   sodipodi:docname="case.svg">
  <metadata
     id="metadata3324">
    <rdf:RDF>
      <cc:Work
         rdf:about="">
        <dc:format>image/svg+xml</dc:format>
        <dc:type
           rdf:resource="http://purl.org/dc/dcmitype/StillImage" />
      </cc:Work>
    </rdf:RDF>
  </metadata>
  <defs
     id="defs3322" />
  <sodipodi:namedview
     pagecolor="#ffffff"
     bordercolor="#666666"
     borderopacity="1"
     objecttolerance="10"
     gridtolerance="10"
     guidetolerance="10"
     inkscape:pageopacity="0"
     inkscape:pageshadow="2"
     inkscape:window-width="1440"
     inkscape:window-height="878"
     id="namedview3320"
     showgrid="false"
     inkscape:zoom="0.55907046"
     inkscape:cx="765.19569"
     inkscape:cy="458.09144"
     inkscape:window-x="0"
     inkscape:window-y="0"
     inkscape:window-maximized="0"
     inkscape:current-layer="svg3294"
     inkscape:document-units="mm"
     units="mm" />
  <!-- Front-->
  <g
     transform="translate(14.533175,24.982939)"
     id="g3296">
    <polygon
       style="fill:none;stroke:#000000;stroke-width:0.90000075"
       points="207.28364,0 249.80336,0 249.80336,42.51972 292.32308,42.51972 292.32308,0 334.8428,0 334.8428,42.51972 377.36251,42.51972 377.36251,0 419.88223,0 419.88223,42.51972 462.40195,42.51972 462.40195,0 504.92167,0 504.92167,42.51972 566.04377,42.51972 566.04377,0 627.16587,0 627.16587,56.69296 584.64615,56.69296 584.64615,113.38592 627.16587,113.38592 627.16587,155.90564 584.64615,155.90564 584.64615,198.42536 627.16587,198.42536 627.16587,240.94508 584.64615,240.94508 584.64615,297.63804 627.16587,297.63804 627.16587,354.331 566.04377,354.331 566.04377,311.81128 504.92167,311.81128 504.92167,354.331 462.40195,354.331 462.40195,311.81128 419.88223,311.81128 419.88223,354.331 377.36251,354.331 377.36251,311.81128 334.8428,311.81128 334.8428,354.331 292.32308,354.331 292.32308,311.81128 249.80336,311.81128 249.80336,354.331 207.28364,354.331 207.28364,311.81128 164.76391,311.81128 164.76391,354.331 122.2442,354.331 122.2442,311.81128 61.122098,311.81128 61.122098,354.331 0,354.331 0,297.63804 42.51972,297.63804 42.51972,240.94508 0,240.94508 0,198.42536 42.51972,198.42536 42.51972,155.90564 0,155.90564 0,113.38592 42.51972,113.38592 42.51972,56.69296 0,56.69296 0,0 61.122098,0 61.122098,42.51972 122.2442,42.51972 122.2442,0 164.76391,0 164.76391,42.51972 207.28364,42.51972 "
       id="polygon3298" />
  </g>
  <!-- Back-->
  <g
     transform="translate(662.59906,24.982939)"
     id="g3300">
    <polygon
       style="fill:none;stroke:#000000;stroke-width:0.90000075"
       points="207.28364,0 249.80336,0 249.80336,42.51972 292.32308,42.51972 292.32308,0 334.8428,0 334.8428,42.51972 377.36251,42.51972 377.36251,0 419.88223,0 419.88223,42.51972 462.40195,42.51972 462.40195,0 504.92167,0 504.92167,42.51972 566.04377,42.51972 566.04377,0 627.16587,0 627.16587,56.69296 584.64615,56.69296 584.64615,113.38592 627.16587,113.38592 627.16587,155.90564 584.64615,155.90564 584.64615,198.42536 627.16587,198.42536 627.16587,240.94508 584.64615,240.94508 584.64615,297.63804 627.16587,297.63804 627.16587,354.331 566.04377,354.331 566.04377,311.81128 504.92167,311.81128 504.92167,354.331 462.40195,354.331 462.40195,311.81128 419.88223,311.81128 419.88223,354.331 377.36251,354.331 377.36251,311.81128 334.8428,311.81128 334.8428,354.331 292.32308,354.331 292.32308,311.81128 249.80336,311.81128 249.80336,354.331 207.28364,354.331 207.28364,311.81128 164.76391,311.81128 164.76391,354.331 122.2442,354.331 122.2442,311.81128 61.122098,311.81128 61.122098,354.331 0,354.331 0,297.63804 42.51972,297.63804 42.51972,240.94508 0,240.94508 0,198.42536 42.51972,198.42536 42.51972,155.90564 0,155.90564 0,113.38592 42.51972,113.38592 42.51972,56.69296 0,56.69296 0,0 61.122098,0 61.122098,42.51972 122.2442,42.51972 122.2442,0 164.76391,0 164.76391,42.51972 207.28364,42.51972 "
       id="polygon3302" />
  </g>
  <!-- Left-->
  <g
     transform="translate(1310.665,24.982939)"
     id="g3304">
    <polygon
       style="fill:none;stroke:#000000;stroke-width:0.90000075"
       points="219.68522,0 262.20494,0 262.20494,42.51972 304.72466,42.51972 304.72466,0 347.24438,0 347.24438,42.51972 389.7641,42.51972 389.7641,0 432.28382,0 432.28382,42.51972 499.60671,42.51972 499.60671,0 524.40988,0 524.40988,56.69296 566.9296,56.69296 566.9296,113.38592 524.40988,113.38592 524.40988,155.90564 566.9296,155.90564 566.9296,198.42536 524.40988,198.42536 524.40988,240.94508 566.9296,240.94508 566.9296,297.63804 524.40988,297.63804 524.40988,354.331 499.60671,354.331 499.60671,311.81128 432.28382,311.81128 432.28382,354.331 389.7641,354.331 389.7641,311.81128 347.24438,311.81128 347.24438,354.331 304.72466,354.331 304.72466,311.81128 262.20494,311.81128 262.20494,354.331 219.68522,354.331 219.68522,311.81128 177.1655,311.81128 177.1655,354.331 134.64578,354.331 134.64578,311.81128 67.32289,311.81128 67.32289,354.331 42.51972,354.331 42.51972,297.63804 0,297.63804 0,240.94508 42.51972,240.94508 42.51972,198.42536 0,198.42536 0,155.90564 42.51972,155.90564 42.51972,113.38592 0,113.38592 0,56.69296 42.51972,56.69296 42.51972,0 67.32289,0 67.32289,42.51972 134.64578,42.51972 134.64578,0 177.1655,0 177.1655,42.51972 219.68522,42.51972 "
       id="polygon3306" />
  </g>
  <!-- Right-->
  <g
     transform="translate(1310.665,400.21406)"
     id="g3308">
    <polygon
       style="fill:none;stroke:#000000;stroke-width:0.90000075"
       points="219.68522,0 262.20494,0 262.20494,42.51972 304.72466,42.51972 304.72466,0 347.24438,0 347.24438,42.51972 389.7641,42.51972 389.7641,0 432.28382,0 432.28382,42.51972 499.60671,42.51972 499.60671,0 524.40988,0 524.40988,56.69296 566.9296,56.69296 566.9296,113.38592 524.40988,113.38592 524.40988,155.90564 566.9296,155.90564 566.9296,198.42536 524.40988,198.42536 524.40988,240.94508 566.9296,240.94508 566.9296,297.63804 524.40988,297.63804 524.40988,354.331 499.60671,354.331 499.60671,311.81128 432.28382,311.81128 432.28382,354.331 389.7641,354.331 389.7641,311.81128 347.24438,311.81128 347.24438,354.331 304.72466,354.331 304.72466,311.81128 262.20494,311.81128 262.20494,354.331 219.68522,354.331 219.68522,311.81128 177.1655,311.81128 177.1655,354.331 134.64578,354.331 134.64578,311.81128 67.32289,311.81128 67.32289,354.331 42.51972,354.331 42.51972,297.63804 0,297.63804 0,240.94508 42.51972,240.94508 42.51972,198.42536 0,198.42536 0,155.90564 42.51972,155.90564 42.51972,113.38592 0,113.38592 0,56.69296 42.51972,56.69296 42.51972,0 67.32289,0 67.32289,42.51972 134.64578,42.51972 134.64578,0 177.1655,0 177.1655,42.51972 219.68522,42.51972 "
       id="polygon3310" />
  </g>
  <!-- Top-->
  <g
     transform="translate(14.533175,400.21406)"
     id="g3312">
    <polygon
       style="fill:none;stroke:#000000;stroke-width:0.90000075"
       points="207.28364,42.51972 249.80336,42.51972 249.80336,0 292.32308,0 292.32308,42.51972 334.8428,42.51972 334.8428,0 377.36251,0 377.36251,42.51972 419.88223,42.51972 419.88223,0 462.40195,0 462.40195,42.51972 504.92167,42.51972 504.92167,0 566.04377,0 566.04377,42.51972 584.64615,42.51972 584.64615,67.32289 627.16587,67.32289 627.16587,134.64578 584.64615,134.64578 584.64615,177.1655 627.16587,177.1655 627.16587,219.68522 584.64615,219.68522 584.64615,262.20494 627.16587,262.20494 627.16587,304.72466 584.64615,304.72466 584.64615,347.24438 627.16587,347.24438 627.16587,389.7641 584.64615,389.7641 584.64615,432.28382 627.16587,432.28382 627.16587,499.60671 584.64615,499.60671 584.64615,524.40988 566.04377,524.40988 566.04377,566.9296 504.92167,566.9296 504.92167,524.40988 462.40195,524.40988 462.40195,566.9296 419.88223,566.9296 419.88223,524.40988 377.36251,524.40988 377.36251,566.9296 334.8428,566.9296 334.8428,524.40988 292.32308,524.40988 292.32308,566.9296 249.80336,566.9296 249.80336,524.40988 207.28364,524.40988 207.28364,566.9296 164.76391,566.9296 164.76391,524.40988 122.2442,524.40988 122.2442,566.9296 61.122098,566.9296 61.122098,524.40988 42.51972,524.40988 42.51972,499.60671 0,499.60671 0,432.28382 42.51972,432.28382 42.51972,389.7641 0,389.7641 0,347.24438 42.51972,347.24438 42.51972,304.72466 0,304.72466 0,262.20494 42.51972,262.20494 42.51972,219.68522 0,219.68522 0,177.1655 42.51972,177.1655 42.51972,134.64578 0,134.64578 0,67.32289 42.51972,67.32289 42.51972,42.51972 61.122098,42.51972 61.122098,0 122.2442,0 122.2442,42.51972 164.76391,42.51972 164.76391,0 207.28364,0 "
       id="polygon3314" />
  </g>
  <!-- Bottom-->
  <g
     transform="translate(662.59906,400.21406)"
     id="g3316">
    <polygon
       style="fill:none;stroke:#000000;stroke-width:0.90000075"
       points="207.28364,42.51972 249.80336,42.51972 249.80336,0 292.32308,0 292.32308,42.51972 334.8428,42.51972 334.8428,0 377.36251,0 377.36251,42.51972 419.88223,42.51972 419.88223,0 462.40195,0 462.40195,42.51972 504.92167,42.51972 504.92167,0 566.04377,0 566.04377,42.51972 584.64615,42.51972 584.64615,67.32289 627.16587,67.32289 627.16587,134.64578 584.64615,134.64578 584.64615,177.1655 627.16587,177.1655 627.16587,219.68522 584.64615,219.68522 584.64615,262.20494 627.16587,262.20494 627.16587,304.72466 584.64615,304.72466 584.64615,347.24438 627.16587,347.24438 627.16587,389.7641 584.64615,389.7641 584.64615,432.28382 627.16587,432.28382 627.16587,499.60671 584.64615,499.60671 584.64615,524.40988 566.04377,524.40988 566.04377,566.9296 504.92167,566.9296 504.92167,524.40988 462.40195,524.40988 462.40195,566.9296 419.88223,566.9296 419.88223,524.40988 377.36251,524.40988 377.36251,566.9296 334.8428,566.9296 334.8428,524.40988 292.32308,524.40988 292.32308,566.9296 249.80336,566.9296 249.80336,524.40988 207.28364,524.40988 207.28364,566.9296 164.76391,566.9296 164.76391,524.40988 122.2442,524.40988 122.2442,566.9296 61.122098,566.9296 61.122098,524.40988 42.51972,524.40988 42.51972,499.60671 0,499.60671 0,432.28382 42.51972,432.28382 42.51972,389.7641 0,389.7641 0,347.24438 42.51972,347.24438 42.51972,304.72466 0,304.72466 0,262.20494 42.51972,262.20494 42.51972,219.68522 0,219.68522 0,177.1655 42.51972,177.1655 42.51972,134.64578 0,134.64578 0,67.32289 42.51972,67.32289 42.51972,42.51972 61.122098,42.51972 61.122098,0 122.2442,0 122.2442,42.51972 164.76391,42.51972 164.76391,0 207.28364,0 "
       id="polygon3318" />
  </g>
  <path
     sodipodi:type="star"
     style="fill:#28ff00;fill-opacity:1;stroke:#000000;stroke-width:0.35433072;stroke-linecap:butt;stroke-linejoin:round;stroke-miterlimit:4;stroke-opacity:1;stroke-dasharray:none"
     id="path3993"
     sodipodi:sides="5"
     sodipodi:cx="999.849"
     sodipodi:cy="852.20105"
     sodipodi:r1="61.660358"
     sodipodi:r2="30.830179"
     sodipodi:arg1="2.2097103"
     sodipodi:arg2="2.8380288"
     inkscape:flatsided="false"
     inkscape:rounded="0"
     inkscape:randomized="0"
     d="m 963.07945,901.69852 7.34901,-40.28162 -29.01677,-28.89021 40.58107,-5.45838 18.50954,-36.52416 17.7315,36.90816 40.4563,6.31704 -29.6224,28.26888 6.4938,40.4283 -36.03915,-19.43703 z"
     transform="matrix(2.9148549,0,0,2.9148549,-1938.4363,-1794.6692)"
     inkscape:transform-center-x="-0.58596043"
     inkscape:transform-center-y="-16.604228" />
  <rect
     style="fill:#28ff00;fill-opacity:1;stroke:#000000;stroke-width:0.28277919;stroke-linecap:butt;stroke-linejoin:round;stroke-miterlimit:4;stroke-opacity:1;stroke-dasharray:none"
     id="rect3999"
     width="123.73317"
     height="106.01662"
     x="-1164.8883"
     y="149.14023"
     transform="scale(-1,1)" />
  <path
     sodipodi:type="arc"
     style="fill:#28ff00;fill-opacity:1;stroke:#000000;stroke-width:0.35433072;stroke-linecap:butt;stroke-linejoin:round;stroke-miterlimit:4;stroke-opacity:1;stroke-dasharray:none"
     id="path4001"
     sodipodi:cx="1146.9272"
     sodipodi:cy="314.7999"
     sodipodi:rx="18.384777"
     sodipodi:ry="18.384777"
     d="m 1165.312,314.7999 a 18.384777,18.384777 0 1 1 -36.7695,0 18.384777,18.384777 0 1 1 36.7695,0 z"
     transform="matrix(-1.2407923,0,0,1.2407923,2233.4643,-158.33486)" />
  <path
     sodipodi:type="arc"
     style="fill:#28ff00;fill-opacity:1"
     id="path4042"
     sodipodi:cx="1074.8022"
     sodipodi:cy="184.69228"
     sodipodi:rx="48.08326"
     sodipodi:ry="48.08326"
     d="m 1122.8855,184.69228 a 48.08326,48.08326 0 1 1 -96.1665,0 48.08326,48.08326 0 1 1 96.1665,0 z"
     transform="matrix(-1.105367,0,0,1.105367,2125.2569,-2.004458)" />
  <rect
     style="fill:#00ff00;stroke:#000000;stroke-width:0.26467892999999998;stroke-linecap:butt;stroke-linejoin:round;stroke-miterlimit:4;stroke-opacity:1;stroke-dasharray:none;fill-opacity:1"
     id="rect4026"
     width="354.06662"
     height="141.46785"
     x="151.08279"
     y="131.41452" />
</svg>
