<?xml version="1.0" encoding="UTF-8" standalone="no"?>
<svg
   xmlns:dc="http://purl.org/dc/elements/1.1/"
   xmlns:cc="http://creativecommons.org/ns#"
   xmlns:rdf="http://www.w3.org/1999/02/22-rdf-syntax-ns#"
   xmlns:svg="http://www.w3.org/2000/svg"
   xmlns="http://www.w3.org/2000/svg"
   xmlns:sodipodi="http://sodipodi.sourceforge.net/DTD/sodipodi-0.dtd"
   xmlns:inkscape="http://www.inkscape.org/namespaces/inkscape"
   version="1.1"
   width="2075.7415"
   height="1185.9554"
   viewBox="0 0 2075.7432 1185.9562"
   id="svg2"
   inkscape:version="0.48.4 r9939"
   sodipodi:docname="caseplans.svg">
  <metadata
     id="metadata32">
    <rdf:RDF>
      <cc:Work
         rdf:about="">
        <dc:format>image/svg+xml</dc:format>
        <dc:type
           rdf:resource="http://purl.org/dc/dcmitype/StillImage" />
      </cc:Work>
    </rdf:RDF>
  </metadata>
  <defs
     id="defs30" />
  <sodipodi:namedview
     pagecolor="#ffffff"
     bordercolor="#666666"
     borderopacity="1"
     objecttolerance="10"
     gridtolerance="10"
     guidetolerance="10"
     inkscape:pageopacity="0"
     inkscape:pageshadow="2"
     inkscape:window-width="1440"
     inkscape:window-height="878"
     id="namedview28"
     showgrid="false"
     fit-margin-top="1"
     fit-margin-left="1"
     fit-margin-right="1"
     fit-margin-bottom="1"
     units="cm"
     inkscape:zoom="1.4142136"
     inkscape:cx="1598.656"
     inkscape:cy="229.68041"
     inkscape:window-x="0"
     inkscape:window-y="0"
     inkscape:window-maximized="0"
     inkscape:current-layer="svg2"
     inkscape:document-units="mm"
     showguides="false"
     inkscape:guide-bbox="true">
    <sodipodi:guide
       orientation="0,1"
       position="1166.3276,1039.5529"
       id="guide3965" />
    <sodipodi:guide
       orientation="1,0"
       position="1346.017,403.4744"
       id="guide3973" />
    <sodipodi:guide
       orientation="1,0"
       position="1367.2549,435.74429"
       id="guide3975" />
    <sodipodi:guide
       orientation="0,1"
       position="1312.2997,353.50632"
       id="guide3977" />
    <sodipodi:guide
       orientation="0,1"
       position="1435.4268,61.51829"
       id="guide3981" />
    <sodipodi:guide
       orientation="1,0"
       position="2013.133,313.95541"
       id="guide3985" />
    <inkscape:grid
       type="xygrid"
       id="grid3995"
       empspacing="5"
       visible="true"
       enabled="true"
       snapvisiblegridlinesonly="true" />
  </sodipodi:namedview>
  <!-- Front-->
  <g
     transform="translate(35.870601,35.870568)"
     id="g4"
     style="stroke-width:0.35433101;stroke-miterlimit:4;stroke-dasharray:none">
    <polygon
       style="fill:none;stroke:#000000;stroke-width:0.35433101;stroke-miterlimit:4;stroke-dasharray:none"
       points="605.90601,310.03963 627.16587,310.03963 627.16587,354.331 567.81543,354.331 567.81543,333.07114 508.46498,333.07114 508.46498,354.331 473.03188,354.331 473.03188,333.07114 437.59878,333.07114 437.59878,354.331 402.16568,354.331 402.16568,333.07114 366.73258,333.07114 366.73258,354.331 331.29949,354.331 331.29949,333.07114 295.86638,333.07114 295.86638,354.331 260.43328,354.331 260.43328,333.07114 225.00018,333.07114 225.00018,354.331 189.56708,354.331 189.56708,333.07114 154.13398,333.07114 154.13398,354.331 118.70088,354.331 118.70088,333.07114 59.350442,333.07114 59.350442,354.331 0,354.331 0,310.03963 21.25986,310.03963 21.25986,265.74825 0,265.74825 0,230.31515 21.25986,230.31515 21.25986,194.88205 0,194.88205 0,159.44895 21.25986,159.44895 21.25986,124.01585 0,124.01585 0,88.58275 21.25986,88.58275 21.25986,44.291375 0,44.291375 0,0 59.350442,0 59.350442,21.25986 118.70088,21.25986 118.70088,0 154.13398,0 154.13398,21.25986 189.56708,21.25986 189.56708,0 225.00018,0 225.00018,21.25986 260.43328,21.25986 260.43328,0 295.86638,0 295.86638,21.25986 331.29949,21.25986 331.29949,0 366.73258,0 366.73258,21.25986 402.16568,21.25986 402.16568,0 437.59878,0 437.59878,21.25986 473.03188,21.25986 473.03188,0 508.46498,0 508.46498,21.25986 567.81543,21.25986 567.81543,0 627.16587,0 627.16587,44.291375 605.90601,44.291375 605.90601,88.58275 627.16587,88.58275 627.16587,124.01585 605.90601,124.01585 605.90601,159.44895 627.16587,159.44895 627.16587,194.88205 605.90601,194.88205 605.90601,230.31515 627.16587,230.31515 627.16587,265.74825 605.90601,265.74825 "
       id="polygon6" />
  </g>
  <!-- Back-->
  <g
     transform="translate(690.50475,35.870568)"
     id="g8"
     style="stroke-width:0.35433101;stroke-miterlimit:4;stroke-dasharray:none">
    <polygon
       style="fill:none;stroke:#000000;stroke-width:0.35433101;stroke-miterlimit:4;stroke-dasharray:none"
       points="605.90601,265.74825 605.90601,310.03963 627.16587,310.03963 627.16587,354.331 567.81543,354.331 567.81543,333.07114 508.46498,333.07114 508.46498,354.331 473.03188,354.331 473.03188,333.07114 437.59878,333.07114 437.59878,354.331 402.16568,354.331 402.16568,333.07114 366.73258,333.07114 366.73258,354.331 331.29949,354.331 331.29949,333.07114 295.86638,333.07114 295.86638,354.331 260.43328,354.331 260.43328,333.07114 225.00018,333.07114 225.00018,354.331 189.56708,354.331 189.56708,333.07114 154.13398,333.07114 154.13398,354.331 118.70088,354.331 118.70088,333.07114 59.350442,333.07114 59.350442,354.331 0,354.331 0,310.03963 21.25986,310.03963 21.25986,265.74825 0,265.74825 0,230.31515 21.25986,230.31515 21.25986,194.88205 0,194.88205 0,159.44895 21.25986,159.44895 21.25986,124.01585 0,124.01585 0,88.58275 21.25986,88.58275 21.25986,44.291375 0,44.291375 0,0 59.350442,0 59.350442,21.25986 118.70088,21.25986 118.70088,0 154.13398,0 154.13398,21.25986 189.56708,21.25986 189.56708,0 225.00018,0 225.00018,21.25986 260.43328,21.25986 260.43328,0 295.86638,0 295.86638,21.25986 331.29949,21.25986 331.29949,0 366.73258,0 366.73258,21.25986 402.16568,21.25986 402.16568,0 437.59878,0 437.59878,21.25986 473.03188,21.25986 473.03188,0 508.46498,0 508.46498,21.25986 567.81543,21.25986 567.81543,0 627.16587,0 627.16587,44.291375 605.90601,44.291375 605.90601,88.58275 627.16587,88.58275 627.16587,124.01585 605.90601,124.01585 605.90601,159.44895 627.16587,159.44895 627.16587,194.88205 605.90601,194.88205 605.90601,230.31515 627.16587,230.31515 627.16587,265.74825 "
       id="polygon10" />
  </g>
  <!-- Left-->
  <g
     transform="translate(1347.6992,34.768178)"
     id="g12"
     style="stroke-width:0.35433102;stroke-miterlimit:4;stroke-dasharray:none">
    <polygon
       style="fill:none;stroke:#000000;stroke-width:0.35433102;stroke-miterlimit:4;stroke-dasharray:none"
       points="637.7958,265.74825 637.7958,310.03963 616.53594,310.03963 616.53594,354.331 593.50442,354.331 593.50442,333.07114 549.21305,333.07114 549.21305,354.331 513.77995,354.331 513.77995,333.07114 478.34685,333.07114 478.34685,354.331 442.91375,354.331 442.91375,333.07114 407.48065,333.07114 407.48065,354.331 372.04755,354.331 372.04755,333.07114 336.61445,333.07114 336.61445,354.331 301.18135,354.331 301.18135,333.07114 265.74825,333.07114 265.74825,354.331 230.31515,354.331 230.31515,333.07114 194.88205,333.07114 194.88205,354.331 159.44895,354.331 159.44895,333.07114 124.01585,333.07114 124.01585,354.331 88.58275,354.331 88.58275,333.07114 44.291375,333.07114 44.291375,354.331 21.25986,354.331 21.25986,310.03963 0,310.03963 0,265.74825 21.25986,265.74825 21.25986,230.31515 0,230.31515 0,194.88205 21.25986,194.88205 21.25986,159.44895 0,159.44895 0,124.01585 21.25986,124.01585 21.25986,88.58275 0,88.58275 0,44.291375 21.25986,44.291375 21.25986,0 44.291375,0 44.291375,21.25986 88.58275,21.25986 88.58275,0 124.01585,0 124.01585,21.25986 159.44895,21.25986 159.44895,0 194.88205,0 194.88205,21.25986 230.31515,21.25986 230.31515,0 265.74825,0 265.74825,21.25986 301.18135,21.25986 301.18135,0 336.61445,0 336.61445,21.25986 372.04755,21.25986 372.04755,0 407.48065,0 407.48065,21.25986 442.91375,21.25986 442.91375,0 478.34685,0 478.34685,21.25986 513.77995,21.25986 513.77995,0 549.21305,0 549.21305,21.25986 593.50442,21.25986 593.50442,0 616.53594,0 616.53594,44.291375 637.7958,44.291375 637.7958,88.58275 616.53594,88.58275 616.53594,124.01585 637.7958,124.01585 637.7958,159.44895 616.53594,159.44895 616.53594,194.88205 637.7958,194.88205 637.7958,230.31515 616.53594,230.31515 616.53594,265.74825 "
       id="polygon14" />
  </g>
  <!-- Right-->
  <g
     transform="translate(1346.2231,419.50118)"
     id="g16"
     style="stroke-width:0.35433102;stroke-miterlimit:4;stroke-dasharray:none">
    <polygon
       style="fill:none;stroke:#000000;stroke-width:0.35433102;stroke-miterlimit:4;stroke-dasharray:none"
       points="637.7958,230.31515 616.53594,230.31515 616.53594,265.74825 637.7958,265.74825 637.7958,310.03963 616.53594,310.03963 616.53594,354.331 593.50442,354.331 593.50442,333.07114 549.21305,333.07114 549.21305,354.331 513.77995,354.331 513.77995,333.07114 478.34685,333.07114 478.34685,354.331 442.91375,354.331 442.91375,333.07114 407.48065,333.07114 407.48065,354.331 372.04755,354.331 372.04755,333.07114 336.61445,333.07114 336.61445,354.331 301.18135,354.331 301.18135,333.07114 265.74825,333.07114 265.74825,354.331 230.31515,354.331 230.31515,333.07114 194.88205,333.07114 194.88205,354.331 159.44895,354.331 159.44895,333.07114 124.01585,333.07114 124.01585,354.331 88.58275,354.331 88.58275,333.07114 44.291375,333.07114 44.291375,354.331 21.25986,354.331 21.25986,310.03963 0,310.03963 0,265.74825 21.25986,265.74825 21.25986,230.31515 0,230.31515 0,194.88205 21.25986,194.88205 21.25986,159.44895 0,159.44895 0,124.01585 21.25986,124.01585 21.25986,88.58275 0,88.58275 0,44.291375 21.25986,44.291375 21.25986,0 44.291375,0 44.291375,21.25986 88.58275,21.25986 88.58275,0 124.01585,0 124.01585,21.25986 159.44895,21.25986 159.44895,0 194.88205,0 194.88205,21.25986 230.31515,21.25986 230.31515,0 265.74825,0 265.74825,21.25986 301.18135,21.25986 301.18135,0 336.61445,0 336.61445,21.25986 372.04755,21.25986 372.04755,0 407.48065,0 407.48065,21.25986 442.91375,21.25986 442.91375,0 478.34685,0 478.34685,21.25986 513.77995,21.25986 513.77995,0 549.21305,0 549.21305,21.25986 593.50442,21.25986 593.50442,0 616.53594,0 616.53594,44.291375 637.7958,44.291375 637.7958,88.58275 616.53594,88.58275 616.53594,124.01585 637.7958,124.01585 637.7958,159.44895 616.53594,159.44895 616.53594,194.88205 637.7958,194.88205 "
       id="polygon18" />
  </g>
  <!-- Top-->
  <g
     transform="translate(35.870601,417.66993)"
     id="g20"
     style="stroke-width:0.35433101;stroke-miterlimit:4;stroke-dasharray:none">
    <polygon
       style="fill:none;stroke:#000000;stroke-width:0.35433101;stroke-miterlimit:4;stroke-dasharray:none"
       points="627.16587,301.18135 605.90601,301.18135 605.90601,336.61445 627.16587,336.61445 627.16587,372.04755 605.90601,372.04755 605.90601,407.48065 627.16587,407.48065 627.16587,442.91375 605.90601,442.91375 605.90601,478.34685 627.16587,478.34685 627.16587,513.77995 605.90601,513.77995 605.90601,549.21305 627.16587,549.21305 627.16587,593.50442 605.90601,593.50442 605.90601,616.53594 567.81543,616.53594 567.81543,637.7958 508.46498,637.7958 508.46498,616.53594 473.03188,616.53594 473.03188,637.7958 437.59878,637.7958 437.59878,616.53594 402.16568,616.53594 402.16568,637.7958 366.73258,637.7958 366.73258,616.53594 331.29949,616.53594 331.29949,637.7958 295.86638,637.7958 295.86638,616.53594 260.43328,616.53594 260.43328,637.7958 225.00018,637.7958 225.00018,616.53594 189.56708,616.53594 189.56708,637.7958 154.13398,637.7958 154.13398,616.53594 118.70088,616.53594 118.70088,637.7958 59.350442,637.7958 59.350442,616.53594 21.25986,616.53594 21.25986,593.50442 0,593.50442 0,549.21305 21.25986,549.21305 21.25986,513.77995 0,513.77995 0,478.34685 21.25986,478.34685 21.25986,442.91375 0,442.91375 0,407.48065 21.25986,407.48065 21.25986,372.04755 0,372.04755 0,336.61445 21.25986,336.61445 21.25986,301.18135 0,301.18135 0,265.74825 21.25986,265.74825 21.25986,230.31515 0,230.31515 0,194.88205 21.25986,194.88205 21.25986,159.44895 0,159.44895 0,124.01585 21.25986,124.01585 21.25986,88.58275 0,88.58275 0,44.291375 21.25986,44.291375 21.25986,21.25986 59.350442,21.25986 59.350442,0 118.70088,0 118.70088,21.25986 154.13398,21.25986 154.13398,0 189.56708,0 189.56708,21.25986 225.00018,21.25986 225.00018,0 260.43328,0 260.43328,21.25986 295.86638,21.25986 295.86638,0 331.29949,0 331.29949,21.25986 366.73258,21.25986 366.73258,0 402.16568,0 402.16568,21.25986 437.59878,21.25986 437.59878,0 473.03188,0 473.03188,21.25986 508.46498,21.25986 508.46498,0 567.81543,0 567.81543,21.25986 605.90601,21.25986 605.90601,44.291375 627.16587,44.291375 627.16587,88.58275 605.90601,88.58275 605.90601,124.01585 627.16587,124.01585 627.16587,159.44895 605.90601,159.44895 605.90601,194.88205 627.16587,194.88205 627.16587,230.31515 605.90601,230.31515 605.90601,265.74825 627.16587,265.74825 "
       id="polygon22" />
  </g>
  <!-- Bottom-->
  <g
     transform="translate(694.16725,421.33238)"
     id="g24"
     style="stroke-width:0.35433101;stroke-miterlimit:4;stroke-dasharray:none">
    <polygon
       style="fill:none;stroke:#000000;stroke-width:0.35433101;stroke-miterlimit:4;stroke-dasharray:none"
       points="627.16587,301.18135 605.90601,301.18135 605.90601,336.61445 627.16587,336.61445 627.16587,372.04755 605.90601,372.04755 605.90601,407.48065 627.16587,407.48065 627.16587,442.91375 605.90601,442.91375 605.90601,478.34685 627.16587,478.34685 627.16587,513.77995 605.90601,513.77995 605.90601,549.21305 627.16587,549.21305 627.16587,593.50442 605.90601,593.50442 605.90601,616.53594 567.81543,616.53594 567.81543,637.7958 508.46498,637.7958 508.46498,616.53594 473.03188,616.53594 473.03188,637.7958 437.59878,637.7958 437.59878,616.53594 402.16568,616.53594 402.16568,637.7958 366.73258,637.7958 366.73258,616.53594 331.29949,616.53594 331.29949,637.7958 295.86638,637.7958 295.86638,616.53594 260.43328,616.53594 260.43328,637.7958 225.00018,637.7958 225.00018,616.53594 189.56708,616.53594 189.56708,637.7958 154.13398,637.7958 154.13398,616.53594 118.70088,616.53594 118.70088,637.7958 59.350442,637.7958 59.350442,616.53594 21.25986,616.53594 21.25986,593.50442 0,593.50442 0,549.21305 21.25986,549.21305 21.25986,513.77995 0,513.77995 0,478.34685 21.25986,478.34685 21.25986,442.91375 0,442.91375 0,407.48065 21.25986,407.48065 21.25986,372.04755 0,372.04755 0,336.61445 21.25986,336.61445 21.25986,301.18135 0,301.18135 0,265.74825 21.25986,265.74825 21.25986,230.31515 0,230.31515 0,194.88205 21.25986,194.88205 21.25986,159.44895 0,159.44895 0,124.01585 21.25986,124.01585 21.25986,88.58275 0,88.58275 0,44.291375 21.25986,44.291375 21.25986,21.25986 59.350442,21.25986 59.350442,0 118.70088,0 118.70088,21.25986 154.13398,21.25986 154.13398,0 189.56708,0 189.56708,21.25986 225.00018,21.25986 225.00018,0 260.43328,0 260.43328,21.25986 295.86638,21.25986 295.86638,0 331.29949,0 331.29949,21.25986 366.73258,21.25986 366.73258,0 402.16568,0 402.16568,21.25986 437.59878,21.25986 437.59878,0 473.03188,0 473.03188,21.25986 508.46498,21.25986 508.46498,0 567.81543,0 567.81543,21.25986 605.90601,21.25986 605.90601,44.291375 627.16587,44.291375 627.16587,88.58275 605.90601,88.58275 605.90601,124.01585 627.16587,124.01585 627.16587,159.44895 605.90601,159.44895 605.90601,194.88205 627.16587,194.88205 627.16587,230.31515 605.90601,230.31515 605.90601,265.74825 627.16587,265.74825 "
       id="polygon26" />
  </g>
  <text
     xml:space="preserve"
     style="font-size:96.67876434px;font-style:italic;font-variant:normal;font-weight:normal;font-stretch:normal;text-align:start;line-height:125%;letter-spacing:0px;word-spacing:0px;writing-mode:lr-tb;text-anchor:start;fill:#000000;fill-opacity:1;stroke:none;font-family:Bitstream Charter;-inkscape-font-specification:Bitstream Charter Italic"
     x="861.46222"
     y="827.5011"
     id="text3009"
     sodipodi:linespacing="125%"><tspan
       sodipodi:role="line"
       id="tspan3013"
       x="861.46222"
       y="827.5011">caracas</tspan></text>
  <rect
     style="fill:none;stroke:#000000;stroke-width:0.36617002;stroke-linecap:butt;stroke-linejoin:round;stroke-miterlimit:4;stroke-opacity:1;stroke-dasharray:none"
     id="rect3015"
     width="690.57928"
     height="336.24829"
     x="1345.7729"
     y="810.52502" />
  <path
     sodipodi:type="arc"
     style="fill:#28ff00;fill-opacity:1;stroke:#000000;stroke-width:0.35433072;stroke-linecap:butt;stroke-linejoin:round;stroke-miterlimit:4;stroke-opacity:1;stroke-dasharray:none"
     id="path3967"
     sodipodi:cx="1875.1638"
     sodipodi:cy="930.20117"
     sodipodi:rx="58.42662"
     sodipodi:ry="58.42662"
     d="m 1933.5904,930.20117 a 58.42662,58.42662 0 1 1 -116.8532,0 58.42662,58.42662 0 1 1 116.8532,0 z"
     transform="matrix(0.51392816,0,0,0.51392816,450.62329,435.04908)" />
  <rect
     style="fill:#ff7000;fill-opacity:1;stroke:#000000;stroke-width:0.38106662;stroke-linecap:butt;stroke-linejoin:round;stroke-miterlimit:4;stroke-opacity:1;stroke-dasharray:none"
     id="rect3983"
     width="446.07602"
     height="275.99713"
     x="1456.4911"
     y="840.65063">
    <title
       id="title3987">Samsung S2</title>
  </rect>
  <rect
     style="fill:#ff7000;fill-opacity:1;stroke:#000000;stroke-width:0.49024224;stroke-linecap:butt;stroke-linejoin:round;stroke-miterlimit:4;stroke-opacity:1;stroke-dasharray:none"
     id="rect3991"
     width="88.092514"
     height="88.659439"
     x="1380.7045"
     y="953.55072" />
  <path
     sodipodi:type="star"
     style="fill:#28ff00;stroke:#000000;stroke-width:0.35433071999999999;stroke-linecap:butt;stroke-linejoin:round;stroke-miterlimit:4;stroke-opacity:1;stroke-dasharray:none;fill-opacity:1"
     id="path3993"
     sodipodi:sides="5"
     sodipodi:cx="999.849"
     sodipodi:cy="852.20105"
     sodipodi:r1="61.660358"
     sodipodi:r2="30.830179"
     sodipodi:arg1="2.2097103"
     sodipodi:arg2="2.8380288"
     inkscape:flatsided="false"
     inkscape:rounded="0"
     inkscape:randomized="0"
     d="m 963.07945,901.69852 7.34901,-40.28162 -29.01677,-28.89021 40.58107,-5.45838 18.50954,-36.52416 17.7315,36.90816 40.4563,6.31704 -29.6224,28.26888 6.4938,40.4283 -36.03915,-19.43703 z"
     transform="translate(8.4852885,-156.37498)"
     inkscape:transform-center-x="-0.20104239"
     inkscape:transform-center-y="-5.6964193" />
  <rect
     style="fill:none;stroke:#000000;stroke-width:0.21123499;stroke-linecap:butt;stroke-linejoin:round;stroke-miterlimit:4;stroke-opacity:1;stroke-dasharray:none"
     id="rect3997"
     width="84.828209"
     height="43.2766"
     x="931.89539"
     y="293.51505" />
  <rect
     style="fill:none;stroke:#000000;stroke-width:0.31965998;stroke-linecap:butt;stroke-linejoin:round;stroke-miterlimit:4;stroke-opacity:1;stroke-dasharray:none"
     id="rect3999"
     width="154.89102"
     height="108.22201"
     x="753.05139"
     y="229.22252" />
  <path
     sodipodi:type="arc"
     style="fill:#28ff00;fill-opacity:1;stroke:#000000;stroke-width:0.35433071999999999;stroke-linecap:butt;stroke-linejoin:round;stroke-miterlimit:4;stroke-opacity:1;stroke-dasharray:none"
     id="path4001"
     sodipodi:cx="1146.9272"
     sodipodi:cy="314.7999"
     sodipodi:rx="18.384777"
     sodipodi:ry="18.384777"
     d="m 1165.312,314.7999 a 18.384777,18.384777 0 1 1 -36.7695,0 18.384777,18.384777 0 1 1 36.7695,0 z"
     transform="matrix(1.0499012,0,0,1.0499012,-136.91701,-12.39263)" />
  <text
     xml:space="preserve"
     style="font-size:163.20793152px;font-style:italic;font-variant:normal;font-weight:normal;font-stretch:normal;text-align:start;line-height:125%;letter-spacing:0px;word-spacing:0px;writing-mode:lr-tb;text-anchor:start;fill:#000000;fill-opacity:1;stroke:none;font-family:Bitstream Charter;-inkscape-font-specification:Bitstream Charter Italic"
     x="747.04712"
     y="190.42259"
     id="text3009-2"
     sodipodi:linespacing="125%"><tspan
       sodipodi:role="line"
       id="tspan3013-8"
       x="747.04712"
       y="190.42259">caracas</tspan></text>
  <rect
     style="fill:none;fill-opacity:0.44390246999999999;stroke:#000000;stroke-width:0.35433071999999999;stroke-linecap:butt;stroke-linejoin:round;stroke-miterlimit:4;stroke-opacity:1;stroke-dasharray:none"
     id="rect4026"
     width="458"
     height="196"
     x="116"
     y="113.95544"
     transform="translate(0,-1.2064036e-4)" />
  <rect
     style="fill:#2bff01;fill-opacity:1;stroke:#000000;stroke-width:0.30645019;stroke-linecap:butt;stroke-linejoin:round;stroke-miterlimit:4;stroke-opacity:1;stroke-dasharray:none"
     id="rect3989"
     width="333.89856"
     height="199.94051"
     x="1514.9183"
     y="883.14075" />
  <rect
     style="fill:#28ff00;fill-opacity:1;stroke:#000000;stroke-width:0.22797488;stroke-linecap:butt;stroke-linejoin:round;stroke-miterlimit:4;stroke-opacity:1;stroke-dasharray:none"
     id="rect3979"
     width="43.000408"
     height="16.425583"
     x="1394.8826"
     y="1066.6949" />
</svg>
