<svg xmlns="http://www.w3.org/2000/svg" version="1.1" width="546.7mm" height="292.7mm" viewBox = " 0 0 1937.1275770000002 1037.126837" >
<!-- Front--> 
<g transform="translate(22.5000185, 22.5000185) " > 
<polygon style="stroke:#000000; fill:none; stroke-width:0.90000074" points="0, 0 59.3504425, 0 59.3504425, 21.25986 118.700885, 21.25986 118.700885, 0 154.133985, 0 154.133985, 21.25986 189.567085, 21.25986 189.567085, 0 225.000185, 0 225.000185, 21.25986 260.43328499999996, 21.25986 260.43328499999996, 0 295.866385, 0 295.866385, 21.25986 331.299485, 21.25986 331.299485, 0 366.732585, 0 366.732585, 21.25986 402.16568499999994, 21.25986 402.16568499999994, 0 437.5987849999999, 0 437.5987849999999, 21.25986 473.031885, 21.25986 473.031885, 0 508.46498499999996, 0 508.46498499999996, 21.25986 567.8154274999999, 21.25986 567.8154274999999, 0 627.16587, 0 627.16587, 44.291375 605.90601, 44.291375 605.90601, 88.58275 627.16587, 88.58275 627.16587, 124.01585 605.90601, 124.01585 605.90601, 159.44895 627.16587, 159.44895 627.16587, 194.88205 605.90601, 194.88205 605.90601, 230.31515 627.16587, 230.31515 627.16587, 265.74825 605.90601, 265.74825 605.90601, 310.039625 627.16587, 310.039625 627.16587, 354.331 567.8154274999999, 354.331 567.8154274999999, 333.07114 508.46498499999996, 333.07114 508.46498499999996, 354.331 473.031885, 354.331 473.031885, 333.07114 437.5987849999999, 333.07114 437.5987849999999, 354.331 402.16568499999994, 354.331 402.16568499999994, 333.07114 366.732585, 333.07114 366.732585, 354.331 331.299485, 354.331 331.299485, 333.07114 295.866385, 333.07114 295.866385, 354.331 260.43328499999996, 354.331 260.43328499999996, 333.07114 225.000185, 333.07114 225.000185, 354.331 189.567085, 354.331 189.567085, 333.07114 154.133985, 333.07114 154.133985, 354.331 118.700885, 354.331 118.700885, 333.07114 59.3504425, 333.07114 59.3504425, 354.331 0, 354.331 0, 310.039625 21.25986, 310.039625 21.25986, 265.74825 0, 265.74825 0, 230.31515 21.25986, 230.31515 21.25986, 194.88205 0, 194.88205 0, 159.44895 21.25986, 159.44895 21.25986, 124.01585 0, 124.01585 0, 88.58275 21.25986, 88.58275 21.25986, 44.291375 0, 44.291375 "/> 
</g>
<!-- Back--> 
<g transform="translate(649.6658884999999, 22.5000185) " > 
<polygon style="stroke:#000000; fill:none; stroke-width:0.90000074" points="0, 0 59.3504425, 0 59.3504425, 21.25986 118.700885, 21.25986 118.700885, 0 154.133985, 0 154.133985, 21.25986 189.567085, 21.25986 189.567085, 0 225.000185, 0 225.000185, 21.25986 260.43328499999996, 21.25986 260.43328499999996, 0 295.866385, 0 295.866385, 21.25986 331.299485, 21.25986 331.299485, 0 366.732585, 0 366.732585, 21.25986 402.16568499999994, 21.25986 402.16568499999994, 0 437.5987849999999, 0 437.5987849999999, 21.25986 473.031885, 21.25986 473.031885, 0 508.46498499999996, 0 508.46498499999996, 21.25986 567.8154274999999, 21.25986 567.8154274999999, 0 627.16587, 0 627.16587, 44.291375 605.90601, 44.291375 605.90601, 88.58275 627.16587, 88.58275 627.16587, 124.01585 605.90601, 124.01585 605.90601, 159.44895 627.16587, 159.44895 627.16587, 194.88205 605.90601, 194.88205 605.90601, 230.31515 627.16587, 230.31515 627.16587, 265.74825 605.90601, 265.74825 605.90601, 310.039625 627.16587, 310.039625 627.16587, 354.331 567.8154274999999, 354.331 567.8154274999999, 333.07114 508.46498499999996, 333.07114 508.46498499999996, 354.331 473.031885, 354.331 473.031885, 333.07114 437.5987849999999, 333.07114 437.5987849999999, 354.331 402.16568499999994, 354.331 402.16568499999994, 333.07114 366.732585, 333.07114 366.732585, 354.331 331.299485, 354.331 331.299485, 333.07114 295.866385, 333.07114 295.866385, 354.331 260.43328499999996, 354.331 260.43328499999996, 333.07114 225.000185, 333.07114 225.000185, 354.331 189.567085, 354.331 189.567085, 333.07114 154.133985, 333.07114 154.133985, 354.331 118.700885, 354.331 118.700885, 333.07114 59.3504425, 333.07114 59.3504425, 354.331 0, 354.331 0, 310.039625 21.25986, 310.039625 21.25986, 265.74825 0, 265.74825 0, 230.31515 21.25986, 230.31515 21.25986, 194.88205 0, 194.88205 0, 159.44895 21.25986, 159.44895 21.25986, 124.01585 0, 124.01585 0, 88.58275 21.25986, 88.58275 21.25986, 44.291375 0, 44.291375 "/> 
</g>
<!-- Left--> 
<g transform="translate(1276.8317585, 22.5000185) " > 
<polygon style="stroke:#000000; fill:none; stroke-width:0.90000074" points="21.25986, 0 44.291375, 0 44.291375, 21.25986 88.58275, 21.25986 88.58275, 0 124.01585, 0 124.01585, 21.25986 159.44895, 21.25986 159.44895, 0 194.88205, 0 194.88205, 21.25986 230.31515, 21.25986 230.31515, 0 265.74825, 0 265.74825, 21.25986 301.18134999999995, 21.25986 301.18134999999995, 0 336.61445, 0 336.61445, 21.25986 372.04755, 21.25986 372.04755, 0 407.48064999999997, 0 407.48064999999997, 21.25986 442.91374999999994, 21.25986 442.91374999999994, 0 478.34685, 0 478.34685, 21.25986 513.77995, 21.25986 513.77995, 0 549.21305, 0 549.21305, 21.25986 593.5044249999999, 21.25986 593.5044249999999, 0 616.53594, 0 616.53594, 44.291375 637.7958, 44.291375 637.7958, 88.58275 616.53594, 88.58275 616.53594, 124.01585 637.7958, 124.01585 637.7958, 159.44895 616.53594, 159.44895 616.53594, 194.88205 637.7958, 194.88205 637.7958, 230.31515 616.53594, 230.31515 616.53594, 265.74825 637.7958, 265.74825 637.7958, 310.039625 616.53594, 310.039625 616.5359399999999, 354.331 593.5044249999999, 354.331 593.5044249999999, 333.07114 549.21305, 333.07114 549.21305, 354.331 513.77995, 354.331 513.77995, 333.07114 478.34685, 333.07114 478.34685, 354.331 442.91374999999994, 354.331 442.91374999999994, 333.07114 407.48064999999997, 333.07114 407.48064999999997, 354.331 372.04755, 354.331 372.04755, 333.07114 336.61445, 333.07114 336.61445, 354.331 301.18134999999995, 354.331 301.18134999999995, 333.07114 265.74825, 333.07114 265.74825, 354.331 230.31515, 354.331 230.31515, 333.07114 194.88205, 333.07114 194.88205, 354.331 159.44895, 354.331 159.44895, 333.07114 124.01585, 333.07114 124.01585, 354.331 88.58275, 354.331 88.58275, 333.07114 44.291375, 333.07114 44.291375, 354.331 21.25986, 354.331 21.25986, 310.039625 0, 310.039625 0, 265.74825 21.25986, 265.74825 21.25986, 230.31515 0, 230.31515 0, 194.88205 21.25986, 194.88205 21.25986, 159.44895 0, 159.44895 0, 124.01585 21.25986, 124.01585 21.25986, 88.58275 0, 88.58275 0, 44.291375 21.25986, 44.291375 "/> 
</g>
<!-- Right--> 
<g transform="translate(1276.8317585, 376.83101849999997) " > 
<polygon style="stroke:#000000; fill:none; stroke-width:0.90000074" points="21.25986, 0 44.291375, 0 44.291375, 21.25986 88.58275, 21.25986 88.58275, 0 124.01585, 0 124.01585, 21.25986 159.44895, 21.25986 159.44895, 0 194.88205, 0 194.88205, 21.25986 230.31515, 21.25986 230.31515, 0 265.74825, 0 265.74825, 21.25986 301.18134999999995, 21.25986 301.18134999999995, 0 336.61445, 0 336.61445, 21.25986 372.04755, 21.25986 372.04755, 0 407.48064999999997, 0 407.48064999999997, 21.25986 442.91374999999994, 21.25986 442.91374999999994, 0 478.34685, 0 478.34685, 21.25986 513.77995, 21.25986 513.77995, 0 549.21305, 0 549.21305, 21.25986 593.5044249999999, 21.25986 593.5044249999999, 0 616.53594, 0 616.53594, 44.291375 637.7958, 44.291375 637.7958, 88.58275 616.53594, 88.58275 616.53594, 124.01585 637.7958, 124.01585 637.7958, 159.44895 616.53594, 159.44895 616.53594, 194.88205 637.7958, 194.88205 637.7958, 230.31515 616.53594, 230.31515 616.53594, 265.74825 637.7958, 265.74825 637.7958, 310.039625 616.53594, 310.039625 616.5359399999999, 354.331 593.5044249999999, 354.331 593.5044249999999, 333.07114 549.21305, 333.07114 549.21305, 354.331 513.77995, 354.331 513.77995, 333.07114 478.34685, 333.07114 478.34685, 354.331 442.91374999999994, 354.331 442.91374999999994, 333.07114 407.48064999999997, 333.07114 407.48064999999997, 354.331 372.04755, 354.331 372.04755, 333.07114 336.61445, 333.07114 336.61445, 354.331 301.18134999999995, 354.331 301.18134999999995, 333.07114 265.74825, 333.07114 265.74825, 354.331 230.31515, 354.331 230.31515, 333.07114 194.88205, 333.07114 194.88205, 354.331 159.44895, 354.331 159.44895, 333.07114 124.01585, 333.07114 124.01585, 354.331 88.58275, 354.331 88.58275, 333.07114 44.291375, 333.07114 44.291375, 354.331 21.25986, 354.331 21.25986, 310.039625 0, 310.039625 0, 265.74825 21.25986, 265.74825 21.25986, 230.31515 0, 230.31515 0, 194.88205 21.25986, 194.88205 21.25986, 159.44895 0, 159.44895 0, 124.01585 21.25986, 124.01585 21.25986, 88.58275 0, 88.58275 0, 44.291375 21.25986, 44.291375 "/> 
</g>
<!-- Top--> 
<g transform="translate(22.5000185, 376.83101849999997) " > 
<polygon style="stroke:#000000; fill:none; stroke-width:0.90000074" points="21.25986, 21.25986 59.3504425, 21.25986 59.3504425, 0 118.700885, 0 118.700885, 21.25986 154.133985, 21.25986 154.133985, 0 189.567085, 0 189.567085, 21.25986 225.000185, 21.25986 225.000185, 0 260.43328499999996, 0 260.43328499999996, 21.25986 295.866385, 21.25986 295.866385, 0 331.299485, 0 331.299485, 21.25986 366.732585, 21.25986 366.732585, 0 402.16568499999994, 0 402.16568499999994, 21.25986 437.5987849999999, 21.25986 437.5987849999999, 0 473.031885, 0 473.031885, 21.25986 508.46498499999996, 21.25986 508.46498499999996, 0 567.8154274999999, 0 567.8154274999999, 21.25986 605.90601, 21.25986 605.90601, 44.291375 627.16587, 44.291375 627.16587, 88.58275 605.90601, 88.58275 605.90601, 124.01585 627.16587, 124.01585 627.16587, 159.44895 605.90601, 159.44895 605.90601, 194.88205 627.16587, 194.88205 627.16587, 230.31515 605.90601, 230.31515 605.90601, 265.74825 627.16587, 265.74825 627.16587, 301.18134999999995 605.90601, 301.18134999999995 605.90601, 336.61445 627.16587, 336.61445 627.16587, 372.04755 605.90601, 372.04755 605.90601, 407.48064999999997 627.16587, 407.48064999999997 627.16587, 442.91374999999994 605.90601, 442.91374999999994 605.90601, 478.34685 627.16587, 478.34685 627.16587, 513.77995 605.90601, 513.77995 605.90601, 549.21305 627.16587, 549.21305 627.16587, 593.5044249999999 605.90601, 593.5044249999999 605.90601, 616.53594 567.8154274999999, 616.53594 567.8154274999999, 637.7958 508.46498499999996, 637.7958 508.46498499999996, 616.53594 473.031885, 616.53594 473.031885, 637.7958 437.5987849999999, 637.7958 437.5987849999999, 616.53594 402.16568499999994, 616.53594 402.16568499999994, 637.7958 366.732585, 637.7958 366.732585, 616.53594 331.299485, 616.53594 331.299485, 637.7958 295.866385, 637.7958 295.866385, 616.53594 260.43328499999996, 616.53594 260.43328499999996, 637.7958 225.000185, 637.7958 225.000185, 616.53594 189.567085, 616.53594 189.567085, 637.7958 154.133985, 637.7958 154.133985, 616.53594 118.700885, 616.53594 118.700885, 637.7958 59.3504425, 637.7958 59.3504425, 616.53594 21.25986, 616.5359399999999 21.25986, 593.5044249999999 0, 593.5044249999999 0, 549.21305 21.25986, 549.21305 21.25986, 513.77995 0, 513.77995 0, 478.34685 21.25986, 478.34685 21.25986, 442.91374999999994 0, 442.91374999999994 0, 407.48064999999997 21.25986, 407.48064999999997 21.25986, 372.04755 0, 372.04755 0, 336.61445 21.25986, 336.61445 21.25986, 301.18134999999995 0, 301.18134999999995 0, 265.74825 21.25986, 265.74825 21.25986, 230.31515 0, 230.31515 0, 194.88205 21.25986, 194.88205 21.25986, 159.44895 0, 159.44895 0, 124.01585 21.25986, 124.01585 21.25986, 88.58275 0, 88.58275 0, 44.291375 21.25986, 44.291375 "/> 
</g>
<!-- Bottom--> 
<g transform="translate(649.6658884999999, 376.83101849999997) " > 
<polygon style="stroke:#000000; fill:none; stroke-width:0.90000074" points="21.25986, 21.25986 59.3504425, 21.25986 59.3504425, 0 118.700885, 0 118.700885, 21.25986 154.133985, 21.25986 154.133985, 0 189.567085, 0 189.567085, 21.25986 225.000185, 21.25986 225.000185, 0 260.43328499999996, 0 260.43328499999996, 21.25986 295.866385, 21.25986 295.866385, 0 331.299485, 0 331.299485, 21.25986 366.732585, 21.25986 366.732585, 0 402.16568499999994, 0 402.16568499999994, 21.25986 437.5987849999999, 21.25986 437.5987849999999, 0 473.031885, 0 473.031885, 21.25986 508.46498499999996, 21.25986 508.46498499999996, 0 567.8154274999999, 0 567.8154274999999, 21.25986 605.90601, 21.25986 605.90601, 44.291375 627.16587, 44.291375 627.16587, 88.58275 605.90601, 88.58275 605.90601, 124.01585 627.16587, 124.01585 627.16587, 159.44895 605.90601, 159.44895 605.90601, 194.88205 627.16587, 194.88205 627.16587, 230.31515 605.90601, 230.31515 605.90601, 265.74825 627.16587, 265.74825 627.16587, 301.18134999999995 605.90601, 301.18134999999995 605.90601, 336.61445 627.16587, 336.61445 627.16587, 372.04755 605.90601, 372.04755 605.90601, 407.48064999999997 627.16587, 407.48064999999997 627.16587, 442.91374999999994 605.90601, 442.91374999999994 605.90601, 478.34685 627.16587, 478.34685 627.16587, 513.77995 605.90601, 513.77995 605.90601, 549.21305 627.16587, 549.21305 627.16587, 593.5044249999999 605.90601, 593.5044249999999 605.90601, 616.53594 567.8154274999999, 616.53594 567.8154274999999, 637.7958 508.46498499999996, 637.7958 508.46498499999996, 616.53594 473.031885, 616.53594 473.031885, 637.7958 437.5987849999999, 637.7958 437.5987849999999, 616.53594 402.16568499999994, 616.53594 402.16568499999994, 637.7958 366.732585, 637.7958 366.732585, 616.53594 331.299485, 616.53594 331.299485, 637.7958 295.866385, 637.7958 295.866385, 616.53594 260.43328499999996, 616.53594 260.43328499999996, 637.7958 225.000185, 637.7958 225.000185, 616.53594 189.567085, 616.53594 189.567085, 637.7958 154.133985, 637.7958 154.133985, 616.53594 118.700885, 616.53594 118.700885, 637.7958 59.3504425, 637.7958 59.3504425, 616.53594 21.25986, 616.5359399999999 21.25986, 593.5044249999999 0, 593.5044249999999 0, 549.21305 21.25986, 549.21305 21.25986, 513.77995 0, 513.77995 0, 478.34685 21.25986, 478.34685 21.25986, 442.91374999999994 0, 442.91374999999994 0, 407.48064999999997 21.25986, 407.48064999999997 21.25986, 372.04755 0, 372.04755 0, 336.61445 21.25986, 336.61445 21.25986, 301.18134999999995 0, 301.18134999999995 0, 265.74825 21.25986, 265.74825 21.25986, 230.31515 0, 230.31515 0, 194.88205 21.25986, 194.88205 21.25986, 159.44895 0, 159.44895 0, 124.01585 21.25986, 124.01585 21.25986, 88.58275 0, 88.58275 0, 44.291375 21.25986, 44.291375 "/> 
</g></svg>