<?xml version="1.0" encoding="UTF-8" standalone="no"?>
<svg
   xmlns:dc="http://purl.org/dc/elements/1.1/"
   xmlns:cc="http://creativecommons.org/ns#"
   xmlns:rdf="http://www.w3.org/1999/02/22-rdf-syntax-ns#"
   xmlns:svg="http://www.w3.org/2000/svg"
   xmlns="http://www.w3.org/2000/svg"
   xmlns:sodipodi="http://sodipodi.sourceforge.net/DTD/sodipodi-0.dtd"
   xmlns:inkscape="http://www.inkscape.org/namespaces/inkscape"
   version="1.1"
   width="8645.6689"
   height="4322.8345"
   viewBox="0 0 8645.676 4322.838"
   id="svg3294"
   inkscape:version="0.48.4 r9939"
   sodipodi:docname="case.svg">
  <sodipodi:namedview
     pagecolor="#ffffff"
     bordercolor="#666666"
     borderopacity="1"
     objecttolerance="10"
     gridtolerance="10"
     guidetolerance="10"
     inkscape:pageopacity="0"
     inkscape:pageshadow="2"
     inkscape:window-width="1920"
     inkscape:window-height="1061"
     id="namedview3320"
     showgrid="false"
     inkscape:zoom="0.39532251"
     inkscape:cx="1360.7084"
     inkscape:cy="918.64741"
     inkscape:window-x="1920"
     inkscape:window-y="0"
     inkscape:window-maximized="0"
     inkscape:current-layer="svg3294"
     inkscape:document-units="mm"
     units="mm"
     fit-margin-top="0"
     fit-margin-left="0"
     fit-margin-right="0"
     fit-margin-bottom="0" />
  <metadata
     id="metadata3324">
    <rdf:RDF>
      <cc:Work
         rdf:about="">
        <dc:format>image/svg+xml</dc:format>
        <dc:type
           rdf:resource="http://purl.org/dc/dcmitype/StillImage" />
      </cc:Work>
    </rdf:RDF>
  </metadata>
  <defs
     id="defs3322" />
  <!-- Front-->
  <!-- Back-->
  <!-- Left-->
  <!-- Right-->
  <!-- Top-->
  <!-- Bottom-->
  <g
     id="g5651"
     transform="translate(-237.46071,1063.3467)">
    <rect
       y="1788.6602"
       x="965.19952"
       height="106.01653"
       width="123.73307"
       id="rect3999"
       style="fill:#000000;fill-opacity:1;stroke:#000000;stroke-width:0.28277895;stroke-linecap:butt;stroke-linejoin:round;stroke-miterlimit:4;stroke-opacity:1;stroke-dasharray:none" />
    <path
       transform="matrix(1.2407913,0,0,1.2407913,-103.37551,1481.1853)"
       d="m 1165.312,314.7999 c 0,10.15363 -8.2311,18.38477 -18.3848,18.38477 -10.1536,0 -18.3847,-8.23114 -18.3847,-18.38477 0,-10.15364 8.2311,-18.38478 18.3847,-18.38478 10.1537,0 18.3848,8.23114 18.3848,18.38478 z"
       sodipodi:ry="18.384777"
       sodipodi:rx="18.384777"
       sodipodi:cy="314.7999"
       sodipodi:cx="1146.9272"
       id="path4001"
       style="fill:#000000;fill-opacity:1;stroke:#000000;stroke-width:0.35433072;stroke-linecap:butt;stroke-linejoin:round;stroke-miterlimit:4;stroke-opacity:1;stroke-dasharray:none"
       sodipodi:type="arc" />
    <path
       transform="matrix(1.1053661,0,0,1.1053661,4.8317872,1637.5156)"
       d="m 1122.8855,184.69228 c 0,26.55565 -21.5276,48.08326 -48.0833,48.08326 -26.5556,0 -48.0832,-21.52761 -48.0832,-48.08326 0,-26.55565 21.5276,-48.08326 48.0832,-48.08326 26.5557,0 48.0833,21.52761 48.0833,48.08326 z"
       sodipodi:ry="48.08326"
       sodipodi:rx="48.08326"
       sodipodi:cy="184.69228"
       sodipodi:cx="1074.8022"
       id="path4042"
       style="fill:#000000;fill-opacity:1"
       sodipodi:type="arc" />
  </g>
  <rect
     style="fill:#000000;fill-opacity:1;stroke:#000000;stroke-width:0.12556399;stroke-linecap:butt;stroke-linejoin:round;stroke-miterlimit:4;stroke-opacity:1;stroke-dasharray:none"
     id="rect4026"
     width="106.17374"
     height="106.17374"
     x="863.35815"
     y="3914.9204" />
  <line
     style="fill:none;stroke:#000000;stroke-width:19.6807785"
     x1="1821.0665"
     y1="3290.3354"
     x2="1821.0665"
     y2="3582.6868"
     id="line8-2" />
  <line
     style="fill:none;stroke:#000000;stroke-width:9.84038925"
     x1="1845.9084"
     y1="3290.3354"
     x2="1845.9084"
     y2="3582.6868"
     id="line10-0" />
  <line
     style="fill:none;stroke:#000000;stroke-width:9.84038925"
     x1="1895.5918"
     y1="3290.3354"
     x2="1895.5918"
     y2="3582.6868"
     id="line12-5" />
  <line
     style="fill:none;stroke:#000000;stroke-width:9.84038925"
     x1="1925.4017"
     y1="3290.3354"
     x2="1925.4017"
     y2="3582.6868"
     id="line14-1" />
  <line
     style="fill:none;stroke:#000000;stroke-width:29.52116966"
     x1="1965.1483"
     y1="3290.3354"
     x2="1965.1483"
     y2="3582.6868"
     id="line16-4" />
  <line
     style="fill:none;stroke:#000000;stroke-width:19.6807785"
     x1="1999.9266"
     y1="3290.3354"
     x2="1999.9266"
     y2="3582.6868"
     id="line18-3" />
  <line
     style="fill:none;stroke:#000000;stroke-width:9.84038925"
     x1="2034.705"
     y1="3290.3354"
     x2="2034.705"
     y2="3582.6868"
     id="line20-5" />
  <line
     style="fill:none;stroke:#000000;stroke-width:29.52116966;stroke-opacity:1"
     x1="2074.4517"
     y1="3290.3354"
     x2="2074.4517"
     y2="3582.6868"
     id="line22-0" />
  <line
     style="fill:none;stroke:#000000;stroke-width:19.6807785"
     x1="2109.23"
     y1="3290.3354"
     x2="2109.23"
     y2="3582.6868"
     id="line24-5" />
  <line
     style="fill:none;stroke:#000000;stroke-width:19.6807785"
     x1="2148.9766"
     y1="3290.3354"
     x2="2148.9766"
     y2="3582.6868"
     id="line26-4" />
  <line
     style="fill:none;stroke:#000000;stroke-width:29.52116966"
     x1="2203.6287"
     y1="3290.3354"
     x2="2203.6287"
     y2="3582.6868"
     id="line28-8" />
  <line
     style="fill:none;stroke:#000000;stroke-width:9.84038925"
     x1="2233.4387"
     y1="3290.3354"
     x2="2233.4387"
     y2="3582.6868"
     id="line30-5" />
  <line
     style="fill:none;stroke:#000000;stroke-width:19.6807785"
     x1="2258.2803"
     y1="3290.3354"
     x2="2258.2803"
     y2="3582.6868"
     id="line32-2" />
  <rect
     style="fill:none;stroke:#000000;stroke-width:0.36617002;stroke-linecap:butt;stroke-linejoin:round;stroke-miterlimit:4;stroke-opacity:1;stroke-dasharray:none"
     id="rect3015"
     width="690.57922"
     height="336.24829"
     x="-2100.7454"
     y="3816.1838"
     transform="scale(-1,1)" />
  <path
     sodipodi:type="arc"
     style="fill:#28ff00;fill-opacity:0.31304351;stroke:#000000;stroke-width:0.35433072;stroke-linecap:butt;stroke-linejoin:round;stroke-miterlimit:4;stroke-opacity:1;stroke-dasharray:none"
     id="path3967"
     sodipodi:cx="1875.1638"
     sodipodi:cy="930.20117"
     sodipodi:rx="58.42662"
     sodipodi:ry="58.42662"
     d="m 1933.5904,930.20117 a 58.42662,58.42662 0 1 1 -116.8532,0 58.42662,58.42662 0 1 1 116.8532,0 z"
     transform="matrix(-0.51392814,0,0,0.51392814,2981.8948,3440.2462)" />
  <rect
     style="fill:#ff7000;fill-opacity:0.31372549;stroke:#000000;stroke-width:0.65356338;stroke-linecap:butt;stroke-linejoin:round;stroke-miterlimit:4;stroke-opacity:1;stroke-dasharray:none"
     id="rect3991"
     width="87.929207"
     height="157.86456"
     x="-1531.7317"
     y="3945.3772"
     transform="scale(-1,1)" />
  <rect
     style="fill:#ff7000;fill-opacity:0.31304351;stroke:#000000;stroke-width:0.35395771;stroke-linecap:butt;stroke-linejoin:round;stroke-miterlimit:4;stroke-opacity:1;stroke-dasharray:none"
     id="rect3983"
     width="446.10309"
     height="238.11081"
     x="1532.4042"
     y="3865.2524">
    <title
       id="title3987">Samsung S2</title>
  </rect>
  <rect
     style="fill:#2bff01;fill-opacity:0.31372549;stroke:#000000;stroke-width:0.32226858;stroke-linecap:butt;stroke-linejoin:round;stroke-miterlimit:4;stroke-opacity:1;stroke-dasharray:none"
     id="rect3989"
     width="344.84167"
     height="214.09758"
     x="-1931.2976"
     y="3877.259"
     transform="scale(-1,1)" />
  <rect
     y="3836.938"
     x="-1813.1381"
     height="28.253359"
     width="52.93512"
     id="rect3686"
     style="fill:#ff7000;fill-opacity:0.31372549;stroke:#000000;stroke-width:0.21452887;stroke-linecap:butt;stroke-linejoin:round;stroke-miterlimit:4;stroke-opacity:1;stroke-dasharray:none"
     transform="scale(-1,1)" />
  <g
     inkscape:label="newlayer"
     inkscape:groupmode="layer"
     id="g4041" />
  <g
     id="g4231"
     inkscape:groupmode="layer"
     inkscape:label="newlayer" />
  <g
     inkscape:label="newlayer"
     inkscape:groupmode="layer"
     id="g4423" />
  <g
     id="g4617"
     inkscape:groupmode="layer"
     inkscape:label="newlayer" />
  <g
     inkscape:label="newlayer"
     inkscape:groupmode="layer"
     id="g4813" />
  <g
     id="g5011"
     inkscape:groupmode="layer"
     inkscape:label="newlayer" />
  <g
     inkscape:label="newlayer"
     inkscape:groupmode="layer"
     id="g5211" />
  <g
     id="g5467"
     inkscape:groupmode="layer"
     inkscape:label="newlayer" />
  <g
     id="g5627"
     transform="translate(106.79936,2656.9835)">
    <path
       d="m 496.06299,1176.378 93.01181,0 0,-42.5197 85.03937,0 0,42.5197 93.01181,0 0,-42.5197 85.03937,0 0,42.5197 93.01182,0 0,-42.5197 85.03933,0 0,42.5197 93.0118,0"
       style="fill:none;stroke:#000000"
       inkscape:label="part"
       id="path5469"
       inkscape:connector-curvature="0" />
    <path
       d="m 1123.2283,1176.378 0,92.1259 -42.5196,0 0,85.0394 42.5196,0 0,92.126"
       style="fill:none;stroke:#000000"
       inkscape:label="part"
       id="path5471"
       inkscape:connector-curvature="0" />
    <path
       d="m 1123.2283,1445.6693 -93.0118,0 0,42.5197 -85.03933,0 0,-42.5197 -93.01182,0 0,42.5197 -85.03937,0 0,-42.5197 -93.01181,0 0,42.5197 -85.03937,0 0,-42.5197 -93.01181,0"
       style="fill:none;stroke:#000000"
       inkscape:label="part"
       id="path5473"
       inkscape:connector-curvature="0" />
    <path
       d="m 496.06299,1445.6693 0,-92.126 42.51969,0 0,-85.0394 -42.51969,0 0,-92.1259"
       style="fill:none;stroke:#000000"
       inkscape:label="part"
       id="path5475"
       inkscape:connector-curvature="0" />
  </g>
  <g
     id="g5633"
     transform="translate(106.79936,2656.9835)">
    <path
       d="m 113.38583,538.58268 92.12598,0 0,-42.51969 85.03937,0 0,42.51969 92.12599,0"
       style="fill:none;stroke:#000000"
       inkscape:label="part"
       id="path5477"
       inkscape:connector-curvature="0" />
    <path
       d="m 382.67717,538.58268 0,89.76378 42.51968,0 0,85.03937 -42.51968,0 0,132.28346 42.51968,0 0,85.03937 -42.51968,0 0,89.76374"
       style="fill:none;stroke:#000000"
       inkscape:label="part"
       id="path5479"
       inkscape:connector-curvature="0" />
    <path
       d="m 382.67717,1020.4724 -92.12599,0 0,42.5197 -85.03937,0 0,-42.5197 -92.12598,0"
       style="fill:none;stroke:#000000"
       inkscape:label="part"
       id="path5481"
       inkscape:connector-curvature="0" />
    <path
       d="m 113.38583,1020.4724 0,-89.76374 -42.519688,0 0,-85.03937 42.519688,0 0,-132.28346 -42.519688,0 0,-85.03937 42.519688,0 0,-89.76378"
       style="fill:none;stroke:#000000"
       inkscape:label="part"
       id="path5483"
       inkscape:connector-curvature="0" />
  </g>
  <g
     id="g5645"
     transform="translate(106.79936,2656.9835)">
    <path
       d="m 496.06299,496.06299 93.01181,0 0,42.51969 85.03937,0 0,-42.51969 93.01181,0 0,42.51969 85.03937,0 0,-42.51969 93.01182,0 0,42.51969 85.03933,0 0,-42.51969 93.0118,0"
       style="fill:none;stroke:#000000"
       inkscape:label="part"
       id="path5485"
       inkscape:connector-curvature="0" />
    <path
       d="m 1123.2283,496.06299 0,132.28347 -42.5196,0 0,85.03937 42.5196,0 0,132.28346 -42.5196,0 0,85.03937 42.5196,0 0,132.28344"
       style="fill:none;stroke:#000000"
       inkscape:label="part"
       id="path5487"
       inkscape:connector-curvature="0" />
    <path
       d="m 1123.2283,1062.9921 -93.0118,0 0,-42.5197 -85.03933,0 0,42.5197 -93.01182,0 0,-42.5197 -85.03937,0 0,42.5197 -93.01181,0 0,-42.5197 -85.03937,0 0,42.5197 -93.01181,0"
       style="fill:none;stroke:#000000"
       inkscape:label="part"
       id="path5489"
       inkscape:connector-curvature="0" />
    <path
       d="m 496.06299,1062.9921 0,-132.28344 42.51969,0 0,-85.03937 -42.51969,0 0,-132.28346 42.51969,0 0,-85.03937 -42.51969,0 0,-132.28347"
       style="fill:none;stroke:#000000"
       inkscape:label="part"
       id="path5491"
       inkscape:connector-curvature="0" />
  </g>
  <g
     id="g5621"
     transform="translate(106.79936,2656.9835)">
    <path
       d="m 1236.6142,538.58268 92.126,0 0,-42.51969 85.0393,0 0,42.51969 92.126,0"
       style="fill:none;stroke:#000000"
       inkscape:label="part"
       id="path5493"
       inkscape:connector-curvature="0" />
    <path
       d="m 1505.9055,538.58268 0,89.76378 42.5197,0 0,85.03937 -42.5197,0 0,132.28346 42.5197,0 0,85.03937 -42.5197,0 0,89.76374"
       style="fill:none;stroke:#000000"
       inkscape:label="part"
       id="path5495"
       inkscape:connector-curvature="0" />
    <path
       d="m 1505.9055,1020.4724 -92.126,0 0,42.5197 -85.0393,0 0,-42.5197 -92.126,0"
       style="fill:none;stroke:#000000"
       inkscape:label="part"
       id="path5497"
       inkscape:connector-curvature="0" />
    <path
       d="m 1236.6142,1020.4724 0,-89.76374 -42.5197,0 0,-85.03937 42.5197,0 0,-132.28346 -42.5197,0 0,-85.03937 42.5197,0 0,-89.76378"
       style="fill:none;stroke:#000000"
       inkscape:label="part"
       id="path5499"
       inkscape:connector-curvature="0" />
  </g>
  <g
     id="g5615"
     transform="translate(106.79936,2656.9835)">
    <path
       d="m 1619.2913,496.06299 93.0118,0 0,42.51969 85.0394,0 0,-42.51969 93.0118,0 0,42.51969 85.0394,0 0,-42.51969 93.0118,0 0,42.51969 85.0394,0 0,-42.51969 93.0118,0"
       style="fill:none;stroke:#000000"
       inkscape:label="part"
       id="path5501"
       inkscape:connector-curvature="0" />
    <path
       d="m 2246.4567,496.06299 0,132.28347 -42.5197,0 0,85.03937 42.5197,0 0,132.28346 -42.5197,0 0,85.03937 42.5197,0 0,132.28344"
       style="fill:none;stroke:#000000"
       inkscape:label="part"
       id="path5503"
       inkscape:connector-curvature="0" />
    <path
       d="m 2246.4567,1062.9921 -93.0118,0 0,-42.5197 -85.0394,0 0,42.5197 -93.0118,0 0,-42.5197 -85.0394,0 0,42.5197 -93.0118,0 0,-42.5197 -85.0394,0 0,42.5197 -93.0118,0"
       style="fill:none;stroke:#000000"
       inkscape:label="part"
       id="path5505"
       inkscape:connector-curvature="0" />
    <path
       d="m 1619.2913,1062.9921 0,-132.28344 42.5197,0 0,-85.03937 -42.5197,0 0,-132.28346 42.5197,0 0,-85.03937 -42.5197,0 0,-132.28347"
       style="fill:none;stroke:#000000"
       inkscape:label="part"
       id="path5507"
       inkscape:connector-curvature="0" />
  </g>
  <g
     id="g5639"
     transform="translate(106.79936,2656.9835)">
    <path
       d="m 496.06299,113.38583 93.01181,0 0,-42.519688 85.03937,0 0,42.519688 93.01181,0 0,-42.519688 85.03937,0 0,42.519688 93.01182,0 0,-42.519688 85.03933,0 0,42.519688 93.0118,0"
       style="fill:none;stroke:#000000"
       inkscape:label="part"
       id="path5509"
       inkscape:connector-curvature="0" />
    <path
       d="m 1123.2283,113.38583 0,92.12598 -42.5196,0 0,85.03937 42.5196,0 0,92.12599"
       style="fill:none;stroke:#000000"
       inkscape:label="part"
       id="path5511"
       inkscape:connector-curvature="0" />
    <path
       d="m 1123.2283,382.67717 -93.0118,0 0,42.51968 -85.03933,0 0,-42.51968 -93.01182,0 0,42.51968 -85.03937,0 0,-42.51968 -93.01181,0 0,42.51968 -85.03937,0 0,-42.51968 -93.01181,0"
       style="fill:none;stroke:#000000"
       inkscape:label="part"
       id="path5513"
       inkscape:connector-curvature="0" />
    <path
       d="m 496.06299,382.67717 0,-92.12599 42.51969,0 0,-85.03937 -42.51969,0 0,-92.12598"
       style="fill:none;stroke:#000000"
       inkscape:label="part"
       id="path5515"
       inkscape:connector-curvature="0" />
  </g>
</svg>
