  0
SECTION
  2
HEADER
  9
$ACADVER
  1
AC1014
  9
$HANDSEED
  5
FFFF
  9
$MEASUREMENT
 70
     1
  0
ENDSEC
  0
SECTION
  2
TABLES
  0
TABLE
  2
VPORT
  5
8
330
0
100
AcDbSymbolTable
 70
     4
  0
VPORT
  5
2E
330
8
100
AcDbSymbolTableRecord
100
AcDbViewportTableRecord
  2
*ACTIVE
 70
     0
 10
0.0
 20
0.0
 11
1.0
 21
1.0
 12
210.0
 22
148.5
 13
0.0
 23
0.0
 14
10.0
 24
10.0
 15
10.0
 25
10.0
 16
0.0
 26
0.0
 36
1.0
 17
0.0
 27
0.0
 37
0.0
 40
341.0
 41
1.24
 42
50.0
 43
0.0
 44
0.0
 50
0.0
 51
0.0
 71
     0
 72
   100
 73
     1
 74
     3
 75
     0
 76
     0
 77
     0
 78
     0
  0
ENDTAB
  0
TABLE
  2
LTYPE
  5
5
330
0
100
AcDbSymbolTable
 70
     1
  0
LTYPE
  5
14
330
5
100
AcDbSymbolTableRecord
100
AcDbLinetypeTableRecord
  2
BYBLOCK
 70
     0
  3

 72
    65
 73
     0
 40
0.0
  0
LTYPE
  5
15
330
5
100
AcDbSymbolTableRecord
100
AcDbLinetypeTableRecord
  2
BYLAYER
 70
     0
  3

 72
    65
 73
     0
 40
0.0
  0
LTYPE
  5
16
330
5
100
AcDbSymbolTableRecord
100
AcDbLinetypeTableRecord
  2
CONTINUOUS
 70
     0
  3
Solid line
 72
    65
 73
     0
 40
0.0
  0
ENDTAB
  0
TABLE
  2
LAYER
  5
2
100
AcDbSymbolTable
 70
1
  0
LAYER
  5
50
100
AcDbSymbolTableRecord
100
AcDbLayerTableRecord
  2
0
 70
0
  6
CONTINUOUS
  0
ENDTAB
  0
TABLE
  2
STYLE
  5
3
330
0
100
AcDbSymbolTable
 70
     1
  0
STYLE
  5
11
330
3
100
AcDbSymbolTableRecord
100
AcDbTextStyleTableRecord
  2
STANDARD
 70
     0
 40
0.0
 41
1.0
 50
0.0
 71
     0
 42
2.5
  3
txt
  4

  0
ENDTAB
  0
TABLE
  2
VIEW
  5
6
330
0
100
AcDbSymbolTable
 70
     0
  0
ENDTAB
  0
TABLE
  2
UCS
  5
7
330
0
100
AcDbSymbolTable
 70
     0
  0
ENDTAB
  0
TABLE
  2
APPID
  5
9
330
0
100
AcDbSymbolTable
 70
     2
  0
APPID
  5
12
330
9
100
AcDbSymbolTableRecord
100
AcDbRegAppTableRecord
  2
ACAD
 70
     0
  0
ENDTAB
  0
TABLE
  2
DIMSTYLE
  5
A
330
0
100
AcDbSymbolTable
 70
     1
  0
DIMSTYLE
105
27
330
A
100
AcDbSymbolTableRecord
100
AcDbDimStyleTableRecord
  2
ISO-25
 70
     0
  3

  4

  5

  6

  7

 40
1.0
 41
2.5
 42
0.625
 43
3.75
 44
1.25
 45
0.0
 46
0.0
 47
0.0
 48
0.0
140
2.5
141
2.5
142
0.0
143
0.03937007874016
144
1.0
145
0.0
146
1.0
147
0.625
 71
     0
 72
     0
 73
     0
 74
     0
 75
     0
 76
     0
 77
     1
 78
     8
170
     0
171
     3
172
     1
173
     0
174
     0
175
     0
176
     0
177
     0
178
     0
270
     2
271
     2
272
     2
273
     2
274
     3
340
11
275
     0
280
     0
281
     0
282
     0
283
     0
284
     8
285
     0
286
     0
287
     3
288
     0
  0
ENDTAB
  0
TABLE
  2
BLOCK_RECORD
  5
1
330
0
100
AcDbSymbolTable
 70
     1
  0
BLOCK_RECORD
  5
1F
330
1
100
AcDbSymbolTableRecord
100
AcDbBlockTableRecord
  2
*MODEL_SPACE
  0
BLOCK_RECORD
  5
1B
330
1
100
AcDbSymbolTableRecord
100
AcDbBlockTableRecord
  2
*PAPER_SPACE
  0
ENDTAB
  0
ENDSEC
  0
SECTION
  2
BLOCKS
  0
BLOCK
  5
20
330
1F
100
AcDbEntity
  8
0
100
AcDbBlockBegin
  2
*MODEL_SPACE
 70
     0
 10
0.0
 20
0.0
 30
0.0
  3
*MODEL_SPACE
  1

  0
ENDBLK
  5
21
330
1F
100
AcDbEntity
  8
0
100
AcDbBlockEnd
  0
BLOCK
  5
1C
330
1B
100
AcDbEntity
 67
     1
  8
0
100
AcDbBlockBegin
  2
*PAPER_SPACE
  1

  0
ENDBLK
  5
1D
330
1B
100
AcDbEntity
 67
     1
  8
0
100
AcDbBlockEnd
  0
ENDSEC
  0
SECTION
  2
ENTITIES
  0
LINE
  5
100
100
AcDbEntity
  8
0
 62
7
100
AcDbLine
 10
230.141193
 20
188.140199
 30
0.0
 11
254.896194
 21
188.140199
 31
0.0
  0
LINE
  5
101
100
AcDbEntity
  8
0
 62
7
100
AcDbLine
 10
254.896194
 20
188.140199
 30
0.0
 11
254.896194
 21
200.140203
 31
0.0
  0
LINE
  5
102
100
AcDbEntity
  8
0
 62
7
100
AcDbLine
 10
254.896194
 20
200.140203
 30
0.0
 11
281.886194
 21
200.140203
 31
0.0
  0
LINE
  5
103
100
AcDbEntity
  8
0
 62
7
100
AcDbLine
 10
281.886194
 20
200.140203
 30
0.0
 11
281.886194
 21
188.140199
 31
0.0
  0
LINE
  5
104
100
AcDbEntity
  8
0
 62
7
100
AcDbLine
 10
281.886194
 20
188.140199
 30
0.0
 11
305.146194
 21
188.140199
 31
0.0
  0
LINE
  5
105
100
AcDbEntity
  8
0
 62
7
100
AcDbLine
 10
305.146194
 20
188.140199
 30
0.0
 11
305.146194
 21
200.140203
 31
0.0
  0
LINE
  5
106
100
AcDbEntity
  8
0
 62
7
100
AcDbLine
 10
305.146194
 20
200.140203
 30
0.0
 11
332.136194
 21
200.140203
 31
0.0
  0
LINE
  5
107
100
AcDbEntity
  8
0
 62
7
100
AcDbLine
 10
332.136194
 20
200.140203
 30
0.0
 11
332.136194
 21
188.140199
 31
0.0
  0
LINE
  5
108
100
AcDbEntity
  8
0
 62
7
100
AcDbLine
 10
332.136194
 20
188.140199
 30
0.0
 11
355.396205
 21
188.140199
 31
0.0
  0
LINE
  5
109
100
AcDbEntity
  8
0
 62
7
100
AcDbLine
 10
355.396205
 20
188.140199
 30
0.0
 11
355.396205
 21
200.140203
 31
0.0
  0
LINE
  5
10a
100
AcDbEntity
  8
0
 62
7
100
AcDbLine
 10
355.396205
 20
200.140203
 30
0.0
 11
382.386188
 21
200.140203
 31
0.0
  0
LINE
  5
10b
100
AcDbEntity
  8
0
 62
7
100
AcDbLine
 10
382.386188
 20
200.140203
 30
0.0
 11
382.386188
 21
188.140199
 31
0.0
  0
LINE
  5
10c
100
AcDbEntity
  8
0
 62
7
100
AcDbLine
 10
382.386188
 20
188.140199
 30
0.0
 11
407.141197
 21
188.140199
 31
0.0
  0
LINE
  5
10d
100
AcDbEntity
  8
0
 62
7
100
AcDbLine
 10
407.141197
 20
188.140199
 30
0.0
 11
407.141197
 21
160.645207
 31
0.0
  0
LINE
  5
10e
100
AcDbEntity
  8
0
 62
7
100
AcDbLine
 10
407.141197
 20
160.645207
 30
0.0
 11
395.141193
 21
160.645207
 31
0.0
  0
LINE
  5
10f
100
AcDbEntity
  8
0
 62
7
100
AcDbLine
 10
395.141193
 20
160.645207
 30
0.0
 11
395.141193
 21
139.635202
 31
0.0
  0
LINE
  5
110
100
AcDbEntity
  8
0
 62
7
100
AcDbLine
 10
395.141193
 20
139.635202
 30
0.0
 11
407.141197
 21
139.635202
 31
0.0
  0
LINE
  5
111
100
AcDbEntity
  8
0
 62
7
100
AcDbLine
 10
407.141197
 20
139.635202
 30
0.0
 11
407.141197
 21
112.140210
 31
0.0
  0
LINE
  5
112
100
AcDbEntity
  8
0
 62
7
100
AcDbLine
 10
407.141197
 20
112.140210
 30
0.0
 11
382.386188
 21
112.140210
 31
0.0
  0
LINE
  5
113
100
AcDbEntity
  8
0
 62
7
100
AcDbLine
 10
382.386188
 20
112.140210
 30
0.0
 11
382.386188
 21
100.140206
 31
0.0
  0
LINE
  5
114
100
AcDbEntity
  8
0
 62
7
100
AcDbLine
 10
382.386188
 20
100.140206
 30
0.0
 11
355.396205
 21
100.140206
 31
0.0
  0
LINE
  5
115
100
AcDbEntity
  8
0
 62
7
100
AcDbLine
 10
355.396205
 20
100.140206
 30
0.0
 11
355.396205
 21
112.140210
 31
0.0
  0
LINE
  5
116
100
AcDbEntity
  8
0
 62
7
100
AcDbLine
 10
355.396205
 20
112.140210
 30
0.0
 11
332.136194
 21
112.140210
 31
0.0
  0
LINE
  5
117
100
AcDbEntity
  8
0
 62
7
100
AcDbLine
 10
332.136194
 20
112.140210
 30
0.0
 11
332.136194
 21
100.140206
 31
0.0
  0
LINE
  5
118
100
AcDbEntity
  8
0
 62
7
100
AcDbLine
 10
332.136194
 20
100.140206
 30
0.0
 11
305.146194
 21
100.140206
 31
0.0
  0
LINE
  5
119
100
AcDbEntity
  8
0
 62
7
100
AcDbLine
 10
305.146194
 20
100.140206
 30
0.0
 11
305.146194
 21
112.140210
 31
0.0
  0
LINE
  5
11a
100
AcDbEntity
  8
0
 62
7
100
AcDbLine
 10
305.146194
 20
112.140210
 30
0.0
 11
281.886194
 21
112.140210
 31
0.0
  0
LINE
  5
11b
100
AcDbEntity
  8
0
 62
7
100
AcDbLine
 10
281.886194
 20
112.140210
 30
0.0
 11
281.886194
 21
100.140206
 31
0.0
  0
LINE
  5
11c
100
AcDbEntity
  8
0
 62
7
100
AcDbLine
 10
281.886194
 20
100.140206
 30
0.0
 11
254.896194
 21
100.140206
 31
0.0
  0
LINE
  5
11d
100
AcDbEntity
  8
0
 62
7
100
AcDbLine
 10
254.896194
 20
100.140206
 30
0.0
 11
254.896194
 21
112.140210
 31
0.0
  0
LINE
  5
11e
100
AcDbEntity
  8
0
 62
7
100
AcDbLine
 10
254.896194
 20
112.140210
 30
0.0
 11
230.141193
 21
112.140210
 31
0.0
  0
LINE
  5
11f
100
AcDbEntity
  8
0
 62
7
100
AcDbLine
 10
230.141193
 20
112.140210
 30
0.0
 11
230.141193
 21
139.635202
 31
0.0
  0
LINE
  5
120
100
AcDbEntity
  8
0
 62
7
100
AcDbLine
 10
230.141193
 20
139.635202
 30
0.0
 11
242.141194
 21
139.635202
 31
0.0
  0
LINE
  5
121
100
AcDbEntity
  8
0
 62
7
100
AcDbLine
 10
242.141194
 20
139.635202
 30
0.0
 11
242.141194
 21
160.645207
 31
0.0
  0
LINE
  5
122
100
AcDbEntity
  8
0
 62
7
100
AcDbLine
 10
242.141194
 20
160.645207
 30
0.0
 11
230.141193
 21
160.645207
 31
0.0
  0
LINE
  5
123
100
AcDbEntity
  8
0
 62
7
100
AcDbLine
 10
230.141193
 20
160.645207
 30
0.0
 11
230.141193
 21
188.140199
 31
0.0
  0
LINE
  5
124
100
AcDbEntity
  8
0
 62
7
100
AcDbLine
 10
112.141195
 20
378.140208
 30
0.0
 11
136.646195
 21
378.140208
 31
0.0
  0
LINE
  5
125
100
AcDbEntity
  8
0
 62
7
100
AcDbLine
 10
136.646195
 20
378.140208
 30
0.0
 11
136.646195
 21
390.140210
 31
0.0
  0
LINE
  5
126
100
AcDbEntity
  8
0
 62
7
100
AcDbLine
 10
136.646195
 20
390.140210
 30
0.0
 11
163.636195
 21
390.140210
 31
0.0
  0
LINE
  5
127
100
AcDbEntity
  8
0
 62
7
100
AcDbLine
 10
163.636195
 20
390.140210
 30
0.0
 11
163.636195
 21
378.140208
 31
0.0
  0
LINE
  5
128
100
AcDbEntity
  8
0
 62
7
100
AcDbLine
 10
163.636195
 20
378.140208
 30
0.0
 11
188.141195
 21
378.140208
 31
0.0
  0
LINE
  5
129
100
AcDbEntity
  8
0
 62
7
100
AcDbLine
 10
188.141195
 20
378.140208
 30
0.0
 11
188.141195
 21
354.301877
 31
0.0
  0
LINE
  5
12a
100
AcDbEntity
  8
0
 62
7
100
AcDbLine
 10
188.141195
 20
354.301877
 30
0.0
 11
200.141194
 21
354.301877
 31
0.0
  0
LINE
  5
12b
100
AcDbEntity
  8
0
 62
7
100
AcDbLine
 10
200.141194
 20
354.301877
 30
0.0
 11
200.141194
 21
327.311876
 31
0.0
  0
LINE
  5
12c
100
AcDbEntity
  8
0
 62
7
100
AcDbLine
 10
200.141194
 20
327.311876
 30
0.0
 11
188.141195
 21
327.311876
 31
0.0
  0
LINE
  5
12d
100
AcDbEntity
  8
0
 62
7
100
AcDbLine
 10
188.141195
 20
327.311876
 30
0.0
 11
188.141195
 21
292.968542
 31
0.0
  0
LINE
  5
12e
100
AcDbEntity
  8
0
 62
7
100
AcDbLine
 10
188.141195
 20
292.968542
 30
0.0
 11
200.141194
 21
292.968542
 31
0.0
  0
LINE
  5
12f
100
AcDbEntity
  8
0
 62
7
100
AcDbLine
 10
200.141194
 20
292.968542
 30
0.0
 11
200.141194
 21
265.978555
 31
0.0
  0
LINE
  5
130
100
AcDbEntity
  8
0
 62
7
100
AcDbLine
 10
200.141194
 20
265.978555
 30
0.0
 11
188.141195
 21
265.978555
 31
0.0
  0
LINE
  5
131
100
AcDbEntity
  8
0
 62
7
100
AcDbLine
 10
188.141195
 20
265.978555
 30
0.0
 11
188.141195
 21
242.140204
 31
0.0
  0
LINE
  5
132
100
AcDbEntity
  8
0
 62
7
100
AcDbLine
 10
188.141195
 20
242.140204
 30
0.0
 11
163.636195
 21
242.140204
 31
0.0
  0
LINE
  5
133
100
AcDbEntity
  8
0
 62
7
100
AcDbLine
 10
163.636195
 20
242.140204
 30
0.0
 11
163.636195
 21
230.140200
 31
0.0
  0
LINE
  5
134
100
AcDbEntity
  8
0
 62
7
100
AcDbLine
 10
163.636195
 20
230.140200
 30
0.0
 11
136.646195
 21
230.140200
 31
0.0
  0
LINE
  5
135
100
AcDbEntity
  8
0
 62
7
100
AcDbLine
 10
136.646195
 20
230.140200
 30
0.0
 11
136.646195
 21
242.140204
 31
0.0
  0
LINE
  5
136
100
AcDbEntity
  8
0
 62
7
100
AcDbLine
 10
136.646195
 20
242.140204
 30
0.0
 11
112.141195
 21
242.140204
 31
0.0
  0
LINE
  5
137
100
AcDbEntity
  8
0
 62
7
100
AcDbLine
 10
112.141195
 20
242.140204
 30
0.0
 11
112.141195
 21
265.978555
 31
0.0
  0
LINE
  5
138
100
AcDbEntity
  8
0
 62
7
100
AcDbLine
 10
112.141195
 20
265.978555
 30
0.0
 11
100.141193
 21
265.978555
 31
0.0
  0
LINE
  5
139
100
AcDbEntity
  8
0
 62
7
100
AcDbLine
 10
100.141193
 20
265.978555
 30
0.0
 11
100.141193
 21
292.968542
 31
0.0
  0
LINE
  5
13a
100
AcDbEntity
  8
0
 62
7
100
AcDbLine
 10
100.141193
 20
292.968542
 30
0.0
 11
112.141195
 21
292.968542
 31
0.0
  0
LINE
  5
13b
100
AcDbEntity
  8
0
 62
7
100
AcDbLine
 10
112.141195
 20
292.968542
 30
0.0
 11
112.141195
 21
327.311876
 31
0.0
  0
LINE
  5
13c
100
AcDbEntity
  8
0
 62
7
100
AcDbLine
 10
112.141195
 20
327.311876
 30
0.0
 11
100.141193
 21
327.311876
 31
0.0
  0
LINE
  5
13d
100
AcDbEntity
  8
0
 62
7
100
AcDbLine
 10
100.141193
 20
327.311876
 30
0.0
 11
100.141193
 21
354.301877
 31
0.0
  0
LINE
  5
13e
100
AcDbEntity
  8
0
 62
7
100
AcDbLine
 10
100.141193
 20
354.301877
 30
0.0
 11
112.141195
 21
354.301877
 31
0.0
  0
LINE
  5
13f
100
AcDbEntity
  8
0
 62
7
100
AcDbLine
 10
112.141195
 20
354.301877
 30
0.0
 11
112.141195
 21
378.140208
 31
0.0
  0
LINE
  5
140
100
AcDbEntity
  8
0
 62
7
100
AcDbLine
 10
230.141193
 20
390.140210
 30
0.0
 11
257.886194
 21
390.140210
 31
0.0
  0
LINE
  5
141
100
AcDbEntity
  8
0
 62
7
100
AcDbLine
 10
257.886194
 20
390.140210
 30
0.0
 11
257.886194
 21
378.140208
 31
0.0
  0
LINE
  5
142
100
AcDbEntity
  8
0
 62
7
100
AcDbLine
 10
257.886194
 20
378.140208
 30
0.0
 11
278.896194
 21
378.140208
 31
0.0
  0
LINE
  5
143
100
AcDbEntity
  8
0
 62
7
100
AcDbLine
 10
278.896194
 20
378.140208
 30
0.0
 11
278.896194
 21
390.140210
 31
0.0
  0
LINE
  5
144
100
AcDbEntity
  8
0
 62
7
100
AcDbLine
 10
278.896194
 20
390.140210
 30
0.0
 11
308.136194
 21
390.140210
 31
0.0
  0
LINE
  5
145
100
AcDbEntity
  8
0
 62
7
100
AcDbLine
 10
308.136194
 20
390.140210
 30
0.0
 11
308.136194
 21
378.140208
 31
0.0
  0
LINE
  5
146
100
AcDbEntity
  8
0
 62
7
100
AcDbLine
 10
308.136194
 20
378.140208
 30
0.0
 11
329.146194
 21
378.140208
 31
0.0
  0
LINE
  5
147
100
AcDbEntity
  8
0
 62
7
100
AcDbLine
 10
329.146194
 20
378.140208
 30
0.0
 11
329.146194
 21
390.140210
 31
0.0
  0
LINE
  5
148
100
AcDbEntity
  8
0
 62
7
100
AcDbLine
 10
329.146194
 20
390.140210
 30
0.0
 11
358.386208
 21
390.140210
 31
0.0
  0
LINE
  5
149
100
AcDbEntity
  8
0
 62
7
100
AcDbLine
 10
358.386208
 20
390.140210
 30
0.0
 11
358.386208
 21
378.140208
 31
0.0
  0
LINE
  5
14a
100
AcDbEntity
  8
0
 62
7
100
AcDbLine
 10
358.386208
 20
378.140208
 30
0.0
 11
379.396185
 21
378.140208
 31
0.0
  0
LINE
  5
14b
100
AcDbEntity
  8
0
 62
7
100
AcDbLine
 10
379.396185
 20
378.140208
 30
0.0
 11
379.396185
 21
390.140210
 31
0.0
  0
LINE
  5
14c
100
AcDbEntity
  8
0
 62
7
100
AcDbLine
 10
379.396185
 20
390.140210
 30
0.0
 11
407.141197
 21
390.140210
 31
0.0
  0
LINE
  5
14d
100
AcDbEntity
  8
0
 62
7
100
AcDbLine
 10
407.141197
 20
390.140210
 30
0.0
 11
407.141197
 21
351.311876
 31
0.0
  0
LINE
  5
14e
100
AcDbEntity
  8
0
 62
7
100
AcDbLine
 10
407.141197
 20
351.311876
 30
0.0
 11
395.141193
 21
351.311876
 31
0.0
  0
LINE
  5
14f
100
AcDbEntity
  8
0
 62
7
100
AcDbLine
 10
395.141193
 20
351.311876
 30
0.0
 11
395.141193
 21
330.301877
 31
0.0
  0
LINE
  5
150
100
AcDbEntity
  8
0
 62
7
100
AcDbLine
 10
395.141193
 20
330.301877
 30
0.0
 11
407.141197
 21
330.301877
 31
0.0
  0
LINE
  5
151
100
AcDbEntity
  8
0
 62
7
100
AcDbLine
 10
407.141197
 20
330.301877
 30
0.0
 11
407.141197
 21
289.978541
 31
0.0
  0
LINE
  5
152
100
AcDbEntity
  8
0
 62
7
100
AcDbLine
 10
407.141197
 20
289.978541
 30
0.0
 11
395.141193
 21
289.978541
 31
0.0
  0
LINE
  5
153
100
AcDbEntity
  8
0
 62
7
100
AcDbLine
 10
395.141193
 20
289.978541
 30
0.0
 11
395.141193
 21
268.968542
 31
0.0
  0
LINE
  5
154
100
AcDbEntity
  8
0
 62
7
100
AcDbLine
 10
395.141193
 20
268.968542
 30
0.0
 11
407.141197
 21
268.968542
 31
0.0
  0
LINE
  5
155
100
AcDbEntity
  8
0
 62
7
100
AcDbLine
 10
407.141197
 20
268.968542
 30
0.0
 11
407.141197
 21
230.140200
 31
0.0
  0
LINE
  5
156
100
AcDbEntity
  8
0
 62
7
100
AcDbLine
 10
407.141197
 20
230.140200
 30
0.0
 11
379.396185
 21
230.140200
 31
0.0
  0
LINE
  5
157
100
AcDbEntity
  8
0
 62
7
100
AcDbLine
 10
379.396185
 20
230.140200
 30
0.0
 11
379.396185
 21
242.140204
 31
0.0
  0
LINE
  5
158
100
AcDbEntity
  8
0
 62
7
100
AcDbLine
 10
379.396185
 20
242.140204
 30
0.0
 11
358.386208
 21
242.140204
 31
0.0
  0
LINE
  5
159
100
AcDbEntity
  8
0
 62
7
100
AcDbLine
 10
358.386208
 20
242.140204
 30
0.0
 11
358.386208
 21
230.140200
 31
0.0
  0
LINE
  5
15a
100
AcDbEntity
  8
0
 62
7
100
AcDbLine
 10
358.386208
 20
230.140200
 30
0.0
 11
329.146194
 21
230.140200
 31
0.0
  0
LINE
  5
15b
100
AcDbEntity
  8
0
 62
7
100
AcDbLine
 10
329.146194
 20
230.140200
 30
0.0
 11
329.146194
 21
242.140204
 31
0.0
  0
LINE
  5
15c
100
AcDbEntity
  8
0
 62
7
100
AcDbLine
 10
329.146194
 20
242.140204
 30
0.0
 11
308.136194
 21
242.140204
 31
0.0
  0
LINE
  5
15d
100
AcDbEntity
  8
0
 62
7
100
AcDbLine
 10
308.136194
 20
242.140204
 30
0.0
 11
308.136194
 21
230.140200
 31
0.0
  0
LINE
  5
15e
100
AcDbEntity
  8
0
 62
7
100
AcDbLine
 10
308.136194
 20
230.140200
 30
0.0
 11
278.896194
 21
230.140200
 31
0.0
  0
LINE
  5
15f
100
AcDbEntity
  8
0
 62
7
100
AcDbLine
 10
278.896194
 20
230.140200
 30
0.0
 11
278.896194
 21
242.140204
 31
0.0
  0
LINE
  5
160
100
AcDbEntity
  8
0
 62
7
100
AcDbLine
 10
278.896194
 20
242.140204
 30
0.0
 11
257.886194
 21
242.140204
 31
0.0
  0
LINE
  5
161
100
AcDbEntity
  8
0
 62
7
100
AcDbLine
 10
257.886194
 20
242.140204
 30
0.0
 11
257.886194
 21
230.140200
 31
0.0
  0
LINE
  5
162
100
AcDbEntity
  8
0
 62
7
100
AcDbLine
 10
257.886194
 20
230.140200
 30
0.0
 11
230.141193
 21
230.140200
 31
0.0
  0
LINE
  5
163
100
AcDbEntity
  8
0
 62
7
100
AcDbLine
 10
230.141193
 20
230.140200
 30
0.0
 11
230.141193
 21
268.968542
 31
0.0
  0
LINE
  5
164
100
AcDbEntity
  8
0
 62
7
100
AcDbLine
 10
230.141193
 20
268.968542
 30
0.0
 11
242.141194
 21
268.968542
 31
0.0
  0
LINE
  5
165
100
AcDbEntity
  8
0
 62
7
100
AcDbLine
 10
242.141194
 20
268.968542
 30
0.0
 11
242.141194
 21
289.978541
 31
0.0
  0
LINE
  5
166
100
AcDbEntity
  8
0
 62
7
100
AcDbLine
 10
242.141194
 20
289.978541
 30
0.0
 11
230.141193
 21
289.978541
 31
0.0
  0
LINE
  5
167
100
AcDbEntity
  8
0
 62
7
100
AcDbLine
 10
230.141193
 20
289.978541
 30
0.0
 11
230.141193
 21
330.301877
 31
0.0
  0
LINE
  5
168
100
AcDbEntity
  8
0
 62
7
100
AcDbLine
 10
230.141193
 20
330.301877
 30
0.0
 11
242.141194
 21
330.301877
 31
0.0
  0
LINE
  5
169
100
AcDbEntity
  8
0
 62
7
100
AcDbLine
 10
242.141194
 20
330.301877
 30
0.0
 11
242.141194
 21
351.311876
 31
0.0
  0
LINE
  5
16a
100
AcDbEntity
  8
0
 62
7
100
AcDbLine
 10
242.141194
 20
351.311876
 30
0.0
 11
230.141193
 21
351.311876
 31
0.0
  0
LINE
  5
16b
100
AcDbEntity
  8
0
 62
7
100
AcDbLine
 10
230.141193
 20
351.311876
 30
0.0
 11
230.141193
 21
390.140210
 31
0.0
  0
LINE
  5
16c
100
AcDbEntity
  8
0
 62
7
100
AcDbLine
 10
449.141198
 20
378.140208
 30
0.0
 11
473.646187
 21
378.140208
 31
0.0
  0
LINE
  5
16d
100
AcDbEntity
  8
0
 62
7
100
AcDbLine
 10
473.646187
 20
378.140208
 30
0.0
 11
473.646187
 21
390.140210
 31
0.0
  0
LINE
  5
16e
100
AcDbEntity
  8
0
 62
7
100
AcDbLine
 10
473.646187
 20
390.140210
 30
0.0
 11
500.636199
 21
390.140210
 31
0.0
  0
LINE
  5
16f
100
AcDbEntity
  8
0
 62
7
100
AcDbLine
 10
500.636199
 20
390.140210
 30
0.0
 11
500.636199
 21
378.140208
 31
0.0
  0
LINE
  5
170
100
AcDbEntity
  8
0
 62
7
100
AcDbLine
 10
500.636199
 20
378.140208
 30
0.0
 11
525.141187
 21
378.140208
 31
0.0
  0
LINE
  5
171
100
AcDbEntity
  8
0
 62
7
100
AcDbLine
 10
525.141187
 20
378.140208
 30
0.0
 11
525.141187
 21
354.301877
 31
0.0
  0
LINE
  5
172
100
AcDbEntity
  8
0
 62
7
100
AcDbLine
 10
525.141187
 20
354.301877
 30
0.0
 11
537.141191
 21
354.301877
 31
0.0
  0
LINE
  5
173
100
AcDbEntity
  8
0
 62
7
100
AcDbLine
 10
537.141191
 20
354.301877
 30
0.0
 11
537.141191
 21
327.311876
 31
0.0
  0
LINE
  5
174
100
AcDbEntity
  8
0
 62
7
100
AcDbLine
 10
537.141191
 20
327.311876
 30
0.0
 11
525.141187
 21
327.311876
 31
0.0
  0
LINE
  5
175
100
AcDbEntity
  8
0
 62
7
100
AcDbLine
 10
525.141187
 20
327.311876
 30
0.0
 11
525.141187
 21
292.968542
 31
0.0
  0
LINE
  5
176
100
AcDbEntity
  8
0
 62
7
100
AcDbLine
 10
525.141187
 20
292.968542
 30
0.0
 11
537.141191
 21
292.968542
 31
0.0
  0
LINE
  5
177
100
AcDbEntity
  8
0
 62
7
100
AcDbLine
 10
537.141191
 20
292.968542
 30
0.0
 11
537.141191
 21
265.978555
 31
0.0
  0
LINE
  5
178
100
AcDbEntity
  8
0
 62
7
100
AcDbLine
 10
537.141191
 20
265.978555
 30
0.0
 11
525.141187
 21
265.978555
 31
0.0
  0
LINE
  5
179
100
AcDbEntity
  8
0
 62
7
100
AcDbLine
 10
525.141187
 20
265.978555
 30
0.0
 11
525.141187
 21
242.140204
 31
0.0
  0
LINE
  5
17a
100
AcDbEntity
  8
0
 62
7
100
AcDbLine
 10
525.141187
 20
242.140204
 30
0.0
 11
500.636199
 21
242.140204
 31
0.0
  0
LINE
  5
17b
100
AcDbEntity
  8
0
 62
7
100
AcDbLine
 10
500.636199
 20
242.140204
 30
0.0
 11
500.636199
 21
230.140200
 31
0.0
  0
LINE
  5
17c
100
AcDbEntity
  8
0
 62
7
100
AcDbLine
 10
500.636199
 20
230.140200
 30
0.0
 11
473.646187
 21
230.140200
 31
0.0
  0
LINE
  5
17d
100
AcDbEntity
  8
0
 62
7
100
AcDbLine
 10
473.646187
 20
230.140200
 30
0.0
 11
473.646187
 21
242.140204
 31
0.0
  0
LINE
  5
17e
100
AcDbEntity
  8
0
 62
7
100
AcDbLine
 10
473.646187
 20
242.140204
 30
0.0
 11
449.141198
 21
242.140204
 31
0.0
  0
LINE
  5
17f
100
AcDbEntity
  8
0
 62
7
100
AcDbLine
 10
449.141198
 20
242.140204
 30
0.0
 11
449.141198
 21
265.978555
 31
0.0
  0
LINE
  5
180
100
AcDbEntity
  8
0
 62
7
100
AcDbLine
 10
449.141198
 20
265.978555
 30
0.0
 11
437.141194
 21
265.978555
 31
0.0
  0
LINE
  5
181
100
AcDbEntity
  8
0
 62
7
100
AcDbLine
 10
437.141194
 20
265.978555
 30
0.0
 11
437.141194
 21
292.968542
 31
0.0
  0
LINE
  5
182
100
AcDbEntity
  8
0
 62
7
100
AcDbLine
 10
437.141194
 20
292.968542
 30
0.0
 11
449.141198
 21
292.968542
 31
0.0
  0
LINE
  5
183
100
AcDbEntity
  8
0
 62
7
100
AcDbLine
 10
449.141198
 20
292.968542
 30
0.0
 11
449.141198
 21
327.311876
 31
0.0
  0
LINE
  5
184
100
AcDbEntity
  8
0
 62
7
100
AcDbLine
 10
449.141198
 20
327.311876
 30
0.0
 11
437.141194
 21
327.311876
 31
0.0
  0
LINE
  5
185
100
AcDbEntity
  8
0
 62
7
100
AcDbLine
 10
437.141194
 20
327.311876
 30
0.0
 11
437.141194
 21
354.301877
 31
0.0
  0
LINE
  5
186
100
AcDbEntity
  8
0
 62
7
100
AcDbLine
 10
437.141194
 20
354.301877
 30
0.0
 11
449.141198
 21
354.301877
 31
0.0
  0
LINE
  5
187
100
AcDbEntity
  8
0
 62
7
100
AcDbLine
 10
449.141198
 20
354.301877
 30
0.0
 11
449.141198
 21
378.140208
 31
0.0
  0
LINE
  5
188
100
AcDbEntity
  8
0
 62
7
100
AcDbLine
 10
567.141188
 20
390.140210
 30
0.0
 11
594.886201
 21
390.140210
 31
0.0
  0
LINE
  5
189
100
AcDbEntity
  8
0
 62
7
100
AcDbLine
 10
594.886201
 20
390.140210
 30
0.0
 11
594.886201
 21
378.140208
 31
0.0
  0
LINE
  5
18a
100
AcDbEntity
  8
0
 62
7
100
AcDbLine
 10
594.886201
 20
378.140208
 30
0.0
 11
615.896206
 21
378.140208
 31
0.0
  0
LINE
  5
18b
100
AcDbEntity
  8
0
 62
7
100
AcDbLine
 10
615.896206
 20
378.140208
 30
0.0
 11
615.896206
 21
390.140210
 31
0.0
  0
LINE
  5
18c
100
AcDbEntity
  8
0
 62
7
100
AcDbLine
 10
615.896206
 20
390.140210
 30
0.0
 11
645.136206
 21
390.140210
 31
0.0
  0
LINE
  5
18d
100
AcDbEntity
  8
0
 62
7
100
AcDbLine
 10
645.136206
 20
390.140210
 30
0.0
 11
645.136206
 21
378.140208
 31
0.0
  0
LINE
  5
18e
100
AcDbEntity
  8
0
 62
7
100
AcDbLine
 10
645.136206
 20
378.140208
 30
0.0
 11
666.146183
 21
378.140208
 31
0.0
  0
LINE
  5
18f
100
AcDbEntity
  8
0
 62
7
100
AcDbLine
 10
666.146183
 20
378.140208
 30
0.0
 11
666.146183
 21
390.140210
 31
0.0
  0
LINE
  5
190
100
AcDbEntity
  8
0
 62
7
100
AcDbLine
 10
666.146183
 20
390.140210
 30
0.0
 11
695.386183
 21
390.140210
 31
0.0
  0
LINE
  5
191
100
AcDbEntity
  8
0
 62
7
100
AcDbLine
 10
695.386183
 20
390.140210
 30
0.0
 11
695.386183
 21
378.140208
 31
0.0
  0
LINE
  5
192
100
AcDbEntity
  8
0
 62
7
100
AcDbLine
 10
695.386183
 20
378.140208
 30
0.0
 11
716.396188
 21
378.140208
 31
0.0
  0
LINE
  5
193
100
AcDbEntity
  8
0
 62
7
100
AcDbLine
 10
716.396188
 20
378.140208
 30
0.0
 11
716.396188
 21
390.140210
 31
0.0
  0
LINE
  5
194
100
AcDbEntity
  8
0
 62
7
100
AcDbLine
 10
716.396188
 20
390.140210
 30
0.0
 11
744.141201
 21
390.140210
 31
0.0
  0
LINE
  5
195
100
AcDbEntity
  8
0
 62
7
100
AcDbLine
 10
744.141201
 20
390.140210
 30
0.0
 11
744.141201
 21
351.311876
 31
0.0
  0
LINE
  5
196
100
AcDbEntity
  8
0
 62
7
100
AcDbLine
 10
744.141201
 20
351.311876
 30
0.0
 11
732.141197
 21
351.311876
 31
0.0
  0
LINE
  5
197
100
AcDbEntity
  8
0
 62
7
100
AcDbLine
 10
732.141197
 20
351.311876
 30
0.0
 11
732.141197
 21
330.301877
 31
0.0
  0
LINE
  5
198
100
AcDbEntity
  8
0
 62
7
100
AcDbLine
 10
732.141197
 20
330.301877
 30
0.0
 11
744.141201
 21
330.301877
 31
0.0
  0
LINE
  5
199
100
AcDbEntity
  8
0
 62
7
100
AcDbLine
 10
744.141201
 20
330.301877
 30
0.0
 11
744.141201
 21
289.978541
 31
0.0
  0
LINE
  5
19a
100
AcDbEntity
  8
0
 62
7
100
AcDbLine
 10
744.141201
 20
289.978541
 30
0.0
 11
732.141197
 21
289.978541
 31
0.0
  0
LINE
  5
19b
100
AcDbEntity
  8
0
 62
7
100
AcDbLine
 10
732.141197
 20
289.978541
 30
0.0
 11
732.141197
 21
268.968542
 31
0.0
  0
LINE
  5
19c
100
AcDbEntity
  8
0
 62
7
100
AcDbLine
 10
732.141197
 20
268.968542
 30
0.0
 11
744.141201
 21
268.968542
 31
0.0
  0
LINE
  5
19d
100
AcDbEntity
  8
0
 62
7
100
AcDbLine
 10
744.141201
 20
268.968542
 30
0.0
 11
744.141201
 21
230.140200
 31
0.0
  0
LINE
  5
19e
100
AcDbEntity
  8
0
 62
7
100
AcDbLine
 10
744.141201
 20
230.140200
 30
0.0
 11
716.396188
 21
230.140200
 31
0.0
  0
LINE
  5
19f
100
AcDbEntity
  8
0
 62
7
100
AcDbLine
 10
716.396188
 20
230.140200
 30
0.0
 11
716.396188
 21
242.140204
 31
0.0
  0
LINE
  5
1a0
100
AcDbEntity
  8
0
 62
7
100
AcDbLine
 10
716.396188
 20
242.140204
 30
0.0
 11
695.386183
 21
242.140204
 31
0.0
  0
LINE
  5
1a1
100
AcDbEntity
  8
0
 62
7
100
AcDbLine
 10
695.386183
 20
242.140204
 30
0.0
 11
695.386183
 21
230.140200
 31
0.0
  0
LINE
  5
1a2
100
AcDbEntity
  8
0
 62
7
100
AcDbLine
 10
695.386183
 20
230.140200
 30
0.0
 11
666.146183
 21
230.140200
 31
0.0
  0
LINE
  5
1a3
100
AcDbEntity
  8
0
 62
7
100
AcDbLine
 10
666.146183
 20
230.140200
 30
0.0
 11
666.146183
 21
242.140204
 31
0.0
  0
LINE
  5
1a4
100
AcDbEntity
  8
0
 62
7
100
AcDbLine
 10
666.146183
 20
242.140204
 30
0.0
 11
645.136206
 21
242.140204
 31
0.0
  0
LINE
  5
1a5
100
AcDbEntity
  8
0
 62
7
100
AcDbLine
 10
645.136206
 20
242.140204
 30
0.0
 11
645.136206
 21
230.140200
 31
0.0
  0
LINE
  5
1a6
100
AcDbEntity
  8
0
 62
7
100
AcDbLine
 10
645.136206
 20
230.140200
 30
0.0
 11
615.896206
 21
230.140200
 31
0.0
  0
LINE
  5
1a7
100
AcDbEntity
  8
0
 62
7
100
AcDbLine
 10
615.896206
 20
230.140200
 30
0.0
 11
615.896206
 21
242.140204
 31
0.0
  0
LINE
  5
1a8
100
AcDbEntity
  8
0
 62
7
100
AcDbLine
 10
615.896206
 20
242.140204
 30
0.0
 11
594.886201
 21
242.140204
 31
0.0
  0
LINE
  5
1a9
100
AcDbEntity
  8
0
 62
7
100
AcDbLine
 10
594.886201
 20
242.140204
 30
0.0
 11
594.886201
 21
230.140200
 31
0.0
  0
LINE
  5
1aa
100
AcDbEntity
  8
0
 62
7
100
AcDbLine
 10
594.886201
 20
230.140200
 30
0.0
 11
567.141188
 21
230.140200
 31
0.0
  0
LINE
  5
1ab
100
AcDbEntity
  8
0
 62
7
100
AcDbLine
 10
567.141188
 20
230.140200
 30
0.0
 11
567.141188
 21
268.968542
 31
0.0
  0
LINE
  5
1ac
100
AcDbEntity
  8
0
 62
7
100
AcDbLine
 10
567.141188
 20
268.968542
 30
0.0
 11
579.141192
 21
268.968542
 31
0.0
  0
LINE
  5
1ad
100
AcDbEntity
  8
0
 62
7
100
AcDbLine
 10
579.141192
 20
268.968542
 30
0.0
 11
579.141192
 21
289.978541
 31
0.0
  0
LINE
  5
1ae
100
AcDbEntity
  8
0
 62
7
100
AcDbLine
 10
579.141192
 20
289.978541
 30
0.0
 11
567.141188
 21
289.978541
 31
0.0
  0
LINE
  5
1af
100
AcDbEntity
  8
0
 62
7
100
AcDbLine
 10
567.141188
 20
289.978541
 30
0.0
 11
567.141188
 21
330.301877
 31
0.0
  0
LINE
  5
1b0
100
AcDbEntity
  8
0
 62
7
100
AcDbLine
 10
567.141188
 20
330.301877
 30
0.0
 11
579.141192
 21
330.301877
 31
0.0
  0
LINE
  5
1b1
100
AcDbEntity
  8
0
 62
7
100
AcDbLine
 10
579.141192
 20
330.301877
 30
0.0
 11
579.141192
 21
351.311876
 31
0.0
  0
LINE
  5
1b2
100
AcDbEntity
  8
0
 62
7
100
AcDbLine
 10
579.141192
 20
351.311876
 30
0.0
 11
567.141188
 21
351.311876
 31
0.0
  0
LINE
  5
1b3
100
AcDbEntity
  8
0
 62
7
100
AcDbLine
 10
567.141188
 20
351.311876
 30
0.0
 11
567.141188
 21
390.140210
 31
0.0
  0
LINE
  5
1b4
100
AcDbEntity
  8
0
 62
7
100
AcDbLine
 10
230.141193
 20
508.140208
 30
0.0
 11
254.896194
 21
508.140208
 31
0.0
  0
LINE
  5
1b5
100
AcDbEntity
  8
0
 62
7
100
AcDbLine
 10
254.896194
 20
508.140208
 30
0.0
 11
254.896194
 21
520.140209
 31
0.0
  0
LINE
  5
1b6
100
AcDbEntity
  8
0
 62
7
100
AcDbLine
 10
254.896194
 20
520.140209
 30
0.0
 11
281.886194
 21
520.140209
 31
0.0
  0
LINE
  5
1b7
100
AcDbEntity
  8
0
 62
7
100
AcDbLine
 10
281.886194
 20
520.140209
 30
0.0
 11
281.886194
 21
508.140208
 31
0.0
  0
LINE
  5
1b8
100
AcDbEntity
  8
0
 62
7
100
AcDbLine
 10
281.886194
 20
508.140208
 30
0.0
 11
305.146194
 21
508.140208
 31
0.0
  0
LINE
  5
1b9
100
AcDbEntity
  8
0
 62
7
100
AcDbLine
 10
305.146194
 20
508.140208
 30
0.0
 11
305.146194
 21
520.140209
 31
0.0
  0
LINE
  5
1ba
100
AcDbEntity
  8
0
 62
7
100
AcDbLine
 10
305.146194
 20
520.140209
 30
0.0
 11
332.136194
 21
520.140209
 31
0.0
  0
LINE
  5
1bb
100
AcDbEntity
  8
0
 62
7
100
AcDbLine
 10
332.136194
 20
520.140209
 30
0.0
 11
332.136194
 21
508.140208
 31
0.0
  0
LINE
  5
1bc
100
AcDbEntity
  8
0
 62
7
100
AcDbLine
 10
332.136194
 20
508.140208
 30
0.0
 11
355.396205
 21
508.140208
 31
0.0
  0
LINE
  5
1bd
100
AcDbEntity
  8
0
 62
7
100
AcDbLine
 10
355.396205
 20
508.140208
 30
0.0
 11
355.396205
 21
520.140209
 31
0.0
  0
LINE
  5
1be
100
AcDbEntity
  8
0
 62
7
100
AcDbLine
 10
355.396205
 20
520.140209
 30
0.0
 11
382.386188
 21
520.140209
 31
0.0
  0
LINE
  5
1bf
100
AcDbEntity
  8
0
 62
7
100
AcDbLine
 10
382.386188
 20
520.140209
 30
0.0
 11
382.386188
 21
508.140208
 31
0.0
  0
LINE
  5
1c0
100
AcDbEntity
  8
0
 62
7
100
AcDbLine
 10
382.386188
 20
508.140208
 30
0.0
 11
407.141197
 21
508.140208
 31
0.0
  0
LINE
  5
1c1
100
AcDbEntity
  8
0
 62
7
100
AcDbLine
 10
407.141197
 20
508.140208
 30
0.0
 11
407.141197
 21
480.645208
 31
0.0
  0
LINE
  5
1c2
100
AcDbEntity
  8
0
 62
7
100
AcDbLine
 10
407.141197
 20
480.645208
 30
0.0
 11
395.141193
 21
480.645208
 31
0.0
  0
LINE
  5
1c3
100
AcDbEntity
  8
0
 62
7
100
AcDbLine
 10
395.141193
 20
480.645208
 30
0.0
 11
395.141193
 21
459.635208
 31
0.0
  0
LINE
  5
1c4
100
AcDbEntity
  8
0
 62
7
100
AcDbLine
 10
395.141193
 20
459.635208
 30
0.0
 11
407.141197
 21
459.635208
 31
0.0
  0
LINE
  5
1c5
100
AcDbEntity
  8
0
 62
7
100
AcDbLine
 10
407.141197
 20
459.635208
 30
0.0
 11
407.141197
 21
432.140208
 31
0.0
  0
LINE
  5
1c6
100
AcDbEntity
  8
0
 62
7
100
AcDbLine
 10
407.141197
 20
432.140208
 30
0.0
 11
382.386188
 21
432.140208
 31
0.0
  0
LINE
  5
1c7
100
AcDbEntity
  8
0
 62
7
100
AcDbLine
 10
382.386188
 20
432.140208
 30
0.0
 11
382.386188
 21
420.140209
 31
0.0
  0
LINE
  5
1c8
100
AcDbEntity
  8
0
 62
7
100
AcDbLine
 10
382.386188
 20
420.140209
 30
0.0
 11
355.396205
 21
420.140209
 31
0.0
  0
LINE
  5
1c9
100
AcDbEntity
  8
0
 62
7
100
AcDbLine
 10
355.396205
 20
420.140209
 30
0.0
 11
355.396205
 21
432.140208
 31
0.0
  0
LINE
  5
1ca
100
AcDbEntity
  8
0
 62
7
100
AcDbLine
 10
355.396205
 20
432.140208
 30
0.0
 11
332.136194
 21
432.140208
 31
0.0
  0
LINE
  5
1cb
100
AcDbEntity
  8
0
 62
7
100
AcDbLine
 10
332.136194
 20
432.140208
 30
0.0
 11
332.136194
 21
420.140209
 31
0.0
  0
LINE
  5
1cc
100
AcDbEntity
  8
0
 62
7
100
AcDbLine
 10
332.136194
 20
420.140209
 30
0.0
 11
305.146194
 21
420.140209
 31
0.0
  0
LINE
  5
1cd
100
AcDbEntity
  8
0
 62
7
100
AcDbLine
 10
305.146194
 20
420.140209
 30
0.0
 11
305.146194
 21
432.140208
 31
0.0
  0
LINE
  5
1ce
100
AcDbEntity
  8
0
 62
7
100
AcDbLine
 10
305.146194
 20
432.140208
 30
0.0
 11
281.886194
 21
432.140208
 31
0.0
  0
LINE
  5
1cf
100
AcDbEntity
  8
0
 62
7
100
AcDbLine
 10
281.886194
 20
432.140208
 30
0.0
 11
281.886194
 21
420.140209
 31
0.0
  0
LINE
  5
1d0
100
AcDbEntity
  8
0
 62
7
100
AcDbLine
 10
281.886194
 20
420.140209
 30
0.0
 11
254.896194
 21
420.140209
 31
0.0
  0
LINE
  5
1d1
100
AcDbEntity
  8
0
 62
7
100
AcDbLine
 10
254.896194
 20
420.140209
 30
0.0
 11
254.896194
 21
432.140208
 31
0.0
  0
LINE
  5
1d2
100
AcDbEntity
  8
0
 62
7
100
AcDbLine
 10
254.896194
 20
432.140208
 30
0.0
 11
230.141193
 21
432.140208
 31
0.0
  0
LINE
  5
1d3
100
AcDbEntity
  8
0
 62
7
100
AcDbLine
 10
230.141193
 20
432.140208
 30
0.0
 11
230.141193
 21
459.635208
 31
0.0
  0
LINE
  5
1d4
100
AcDbEntity
  8
0
 62
7
100
AcDbLine
 10
230.141193
 20
459.635208
 30
0.0
 11
242.141194
 21
459.635208
 31
0.0
  0
LINE
  5
1d5
100
AcDbEntity
  8
0
 62
7
100
AcDbLine
 10
242.141194
 20
459.635208
 30
0.0
 11
242.141194
 21
480.645208
 31
0.0
  0
LINE
  5
1d6
100
AcDbEntity
  8
0
 62
7
100
AcDbLine
 10
242.141194
 20
480.645208
 30
0.0
 11
230.141193
 21
480.645208
 31
0.0
  0
LINE
  5
1d7
100
AcDbEntity
  8
0
 62
7
100
AcDbLine
 10
230.141193
 20
480.645208
 30
0.0
 11
230.141193
 21
508.140208
 31
0.0
  0
LINE
  5
1d8
100
AcDbEntity
  8
0
 62
7
100
AcDbLine
 10
265.384111
 20
485.100320
 30
0.0
 11
300.304333
 21
485.100320
 31
0.0
  0
LINE
  5
1d9
100
AcDbEntity
  8
0
 62
7
100
AcDbLine
 10
300.304333
 20
485.100320
 30
0.0
 11
300.304333
 21
455.180099
 31
0.0
  0
LINE
  5
1da
100
AcDbEntity
  8
0
 62
7
100
AcDbLine
 10
300.304333
 20
455.180099
 30
0.0
 11
265.384111
 21
455.180099
 31
0.0
  0
LINE
  5
1db
100
AcDbEntity
  8
0
 62
7
100
AcDbLine
 10
265.384111
 20
455.180099
 30
0.0
 11
265.384111
 21
485.100320
 31
0.0
  0
SPLINE
  5
1dc
100
AcDbEntity
  8
0
 62
7
100
AcDbSpline
 70
8
 71
3
 72
8
 73
4
 74
0
 40
0
 40
0
 40
0
 40
0
 40
1
 40
1
 40
1
 40
1
 10
371.876134
 20
461.640265
 30
0.0
 10
371.880081
 20
459.337579
 30
0.0
 10
370.653878
 20
457.208118
 30
0.0
 10
368.660348
 20
456.055634
 30
0.0
  0
SPLINE
  5
1dd
100
AcDbEntity
  8
0
 62
7
100
AcDbSpline
 70
8
 71
3
 72
8
 73
4
 74
0
 40
0
 40
0
 40
0
 40
0
 40
1
 40
1
 40
1
 40
1
 10
368.660348
 20
456.055634
 30
0.0
 10
366.666818
 20
454.903150
 30
0.0
 10
364.209548
 20
454.903150
 30
0.0
 10
362.216018
 20
456.055634
 30
0.0
  0
SPLINE
  5
1de
100
AcDbEntity
  8
0
 62
7
100
AcDbSpline
 70
8
 71
3
 72
8
 73
4
 74
0
 40
0
 40
0
 40
0
 40
0
 40
1
 40
1
 40
1
 40
1
 10
362.216018
 20
456.055634
 30
0.0
 10
360.222488
 20
457.208118
 30
0.0
 10
358.996285
 20
459.337579
 30
0.0
 10
359.000232
 20
461.640265
 30
0.0
  0
SPLINE
  5
1df
100
AcDbEntity
  8
0
 62
7
100
AcDbSpline
 70
8
 71
3
 72
8
 73
4
 74
0
 40
0
 40
0
 40
0
 40
0
 40
1
 40
1
 40
1
 40
1
 10
359.000232
 20
461.640265
 30
0.0
 10
358.996285
 20
463.942952
 30
0.0
 10
360.222488
 20
466.072412
 30
0.0
 10
362.216018
 20
467.224896
 30
0.0
  0
SPLINE
  5
1e0
100
AcDbEntity
  8
0
 62
7
100
AcDbSpline
 70
8
 71
3
 72
8
 73
4
 74
0
 40
0
 40
0
 40
0
 40
0
 40
1
 40
1
 40
1
 40
1
 10
362.216018
 20
467.224896
 30
0.0
 10
364.209548
 20
468.377380
 30
0.0
 10
366.666818
 20
468.377380
 30
0.0
 10
368.660348
 20
467.224896
 30
0.0
  0
SPLINE
  5
1e1
100
AcDbEntity
  8
0
 62
7
100
AcDbSpline
 70
8
 71
3
 72
8
 73
4
 74
0
 40
0
 40
0
 40
0
 40
0
 40
1
 40
1
 40
1
 40
1
 10
368.660348
 20
467.224896
 30
0.0
 10
370.653878
 20
466.072412
 30
0.0
 10
371.880081
 20
463.942952
 30
0.0
 10
371.876134
 20
461.640265
 30
0.0
  0
LINE
  5
1e2
100
AcDbEntity
  8
0
 62
7
100
AcDbLine
 10
371.876134
 20
461.640265
 30
0.0
 11
371.876134
 21
461.640265
 31
0.0
  0
SPLINE
  5
1e3
100
AcDbEntity
  8
0
 62
7
100
AcDbSpline
 70
8
 71
3
 72
8
 73
4
 74
0
 40
0
 40
0
 40
0
 40
0
 40
1
 40
1
 40
1
 40
1
 10
344.641090
 20
470.140260
 30
0.0
 10
344.644548
 20
464.778973
 30
0.0
 10
341.786321
 20
459.823460
 30
0.0
 10
337.143886
 20
457.141818
 30
0.0
  0
SPLINE
  5
1e4
100
AcDbEntity
  8
0
 62
7
100
AcDbSpline
 70
8
 71
3
 72
8
 73
4
 74
0
 40
0
 40
0
 40
0
 40
0
 40
1
 40
1
 40
1
 40
1
 10
337.143886
 20
457.141818
 30
0.0
 10
332.501450
 20
454.460176
 30
0.0
 10
326.780736
 20
454.460176
 30
0.0
 10
322.138301
 20
457.141818
 30
0.0
  0
SPLINE
  5
1e5
100
AcDbEntity
  8
0
 62
7
100
AcDbSpline
 70
8
 71
3
 72
8
 73
4
 74
0
 40
0
 40
0
 40
0
 40
0
 40
1
 40
1
 40
1
 40
1
 10
322.138301
 20
457.141818
 30
0.0
 10
317.495866
 20
459.823460
 30
0.0
 10
314.637639
 20
464.778973
 30
0.0
 10
314.641096
 20
470.140260
 30
0.0
  0
SPLINE
  5
1e6
100
AcDbEntity
  8
0
 62
7
100
AcDbSpline
 70
8
 71
3
 72
8
 73
4
 74
0
 40
0
 40
0
 40
0
 40
0
 40
1
 40
1
 40
1
 40
1
 10
314.641096
 20
470.140260
 30
0.0
 10
314.637639
 20
475.501547
 30
0.0
 10
317.495866
 20
480.457060
 30
0.0
 10
322.138301
 20
483.138702
 30
0.0
  0
SPLINE
  5
1e7
100
AcDbEntity
  8
0
 62
7
100
AcDbSpline
 70
8
 71
3
 72
8
 73
4
 74
0
 40
0
 40
0
 40
0
 40
0
 40
1
 40
1
 40
1
 40
1
 10
322.138301
 20
483.138702
 30
0.0
 10
326.780736
 20
485.820344
 30
0.0
 10
332.501450
 20
485.820344
 30
0.0
 10
337.143886
 20
483.138702
 30
0.0
  0
SPLINE
  5
1e8
100
AcDbEntity
  8
0
 62
7
100
AcDbSpline
 70
8
 71
3
 72
8
 73
4
 74
0
 40
0
 40
0
 40
0
 40
0
 40
1
 40
1
 40
1
 40
1
 10
337.143886
 20
483.138702
 30
0.0
 10
341.786321
 20
480.457060
 30
0.0
 10
344.644548
 20
475.501547
 30
0.0
 10
344.641090
 20
470.140260
 30
0.0
  0
LINE
  5
1e9
100
AcDbEntity
  8
0
 62
7
100
AcDbLine
 10
344.641090
 20
470.140260
 30
0.0
 11
344.641090
 21
470.140260
 31
0.0
  0
LINE
  5
1ea
100
AcDbEntity
  8
0
 62
7
100
AcDbLine
 10
303.659117
 20
165.122183
 30
0.0
 11
333.623706
 21
165.122183
 31
0.0
  0
LINE
  5
1eb
100
AcDbEntity
  8
0
 62
7
100
AcDbLine
 10
333.623706
 20
165.122183
 30
0.0
 11
333.623706
 21
135.157594
 31
0.0
  0
LINE
  5
1ec
100
AcDbEntity
  8
0
 62
7
100
AcDbLine
 10
333.623706
 20
135.157594
 30
0.0
 11
303.659117
 21
135.157594
 31
0.0
  0
LINE
  5
1ed
100
AcDbEntity
  8
0
 62
7
100
AcDbLine
 10
303.659117
 20
135.157594
 30
0.0
 11
303.659117
 21
165.122183
 31
0.0
  0
ENDSEC
  0
SECTION
  2
OBJECTS
  0
DICTIONARY
  5
C
330
0
100
AcDbDictionary
  3
ACAD_GROUP
350
D
  3
ACAD_MLINESTYLE
350
17
  0
DICTIONARY
  5
D
330
C
100
AcDbDictionary
  0
DICTIONARY
  5
1A
330
C
100
AcDbDictionary
  0
DICTIONARY
  5
17
330
C
100
AcDbDictionary
  3
STANDARD
350
18
  0
DICTIONARY
  5
19
330
C
100
AcDbDictionary
  0
ENDSEC
  0
EOF
