<?xml version="1.0" encoding="UTF-8" standalone="no"?>
<svg
   xmlns:dc="http://purl.org/dc/elements/1.1/"
   xmlns:cc="http://creativecommons.org/ns#"
   xmlns:rdf="http://www.w3.org/1999/02/22-rdf-syntax-ns#"
   xmlns:svg="http://www.w3.org/2000/svg"
   xmlns="http://www.w3.org/2000/svg"
   xmlns:sodipodi="http://sodipodi.sourceforge.net/DTD/sodipodi-0.dtd"
   xmlns:inkscape="http://www.inkscape.org/namespaces/inkscape"
   version="1.1"
   width="2094.5178"
   height="1194.5013"
   viewBox="0 0 2094.5196 1194.5021"
   id="svg2"
   inkscape:version="0.48.4 r9939"
   sodipodi:docname="caseplans.svg">
  <metadata
     id="metadata32">
    <rdf:RDF>
      <cc:Work
         rdf:about="">
        <dc:format>image/svg+xml</dc:format>
        <dc:type
           rdf:resource="http://purl.org/dc/dcmitype/StillImage" />
      </cc:Work>
    </rdf:RDF>
  </metadata>
  <defs
     id="defs30" />
  <sodipodi:namedview
     pagecolor="#ffffff"
     bordercolor="#666666"
     borderopacity="1"
     objecttolerance="10"
     gridtolerance="10"
     guidetolerance="10"
     inkscape:pageopacity="0"
     inkscape:pageshadow="2"
     inkscape:window-width="1440"
     inkscape:window-height="878"
     id="namedview28"
     showgrid="false"
     fit-margin-top="1"
     fit-margin-left="1"
     fit-margin-right="1"
     fit-margin-bottom="1"
     units="cm"
     inkscape:zoom="0.3535534"
     inkscape:cx="1276.0774"
     inkscape:cy="718.04953"
     inkscape:window-x="0"
     inkscape:window-y="0"
     inkscape:window-maximized="0"
     inkscape:current-layer="svg2"
     inkscape:document-units="mm"
     showguides="false"
     inkscape:guide-bbox="true">
    <sodipodi:guide
       orientation="0,1"
       position="1182.8786,1043.9861"
       id="guide3965" />
    <sodipodi:guide
       orientation="1,0"
       position="1362.568,407.90758"
       id="guide3973" />
    <sodipodi:guide
       orientation="1,0"
       position="1383.8059,440.17747"
       id="guide3975" />
    <sodipodi:guide
       orientation="0,1"
       position="1328.8507,357.9395"
       id="guide3977" />
    <sodipodi:guide
       orientation="0,1"
       position="1451.9778,65.951467"
       id="guide3981" />
    <sodipodi:guide
       orientation="1,0"
       position="2029.684,318.38859"
       id="guide3985" />
    <inkscape:grid
       type="xygrid"
       id="grid3995"
       empspacing="5"
       visible="true"
       enabled="true"
       snapvisiblegridlinesonly="true"
       originx="16.551014px"
       originy="4.4331767px" />
  </sodipodi:namedview>
  <!-- Front-->
  <!-- Back-->
  <!-- Left-->
  <!-- Right-->
  <!-- Top-->
  <g
     transform="translate(52.421629,421.78262)"
     id="g20"
     style="stroke-width:0.35433102;stroke-miterlimit:4;stroke-dasharray:none" />
  <!-- Bottom-->
  <text
     xml:space="preserve"
     style="font-size:96.67876434px;font-style:italic;font-variant:normal;font-weight:normal;font-stretch:normal;text-align:start;line-height:125%;letter-spacing:0px;word-spacing:0px;writing-mode:lr-tb;text-anchor:start;fill:#000000;fill-opacity:1;stroke:none;font-family:Bitstream Charter;-inkscape-font-specification:Bitstream Charter Italic"
     x="869.07709"
     y="647.23047"
     id="text3009"
     sodipodi:linespacing="125%"><tspan
       sodipodi:role="line"
       id="tspan3013"
       x="869.07709"
       y="647.23047">caracas</tspan></text>
  <rect
     style="fill:none;stroke:#000000;stroke-width:0.36617002;stroke-linecap:butt;stroke-linejoin:round;stroke-miterlimit:4;stroke-opacity:1;stroke-dasharray:none"
     id="rect3015"
     width="690.57928"
     height="336.24829"
     x="-2058.9033"
     y="822.6377"
     transform="scale(-1,1)" />
  <path
     sodipodi:type="arc"
     style="fill:#28ff00;fill-opacity:1;stroke:#000000;stroke-width:0.35433072;stroke-linecap:butt;stroke-linejoin:round;stroke-miterlimit:4;stroke-opacity:1;stroke-dasharray:none"
     id="path3967"
     sodipodi:cx="1875.1638"
     sodipodi:cy="930.20117"
     sodipodi:rx="58.42662"
     sodipodi:ry="58.42662"
     d="m 1933.5904,930.20117 a 58.42662,58.42662 0 1 1 -116.8532,0 58.42662,58.42662 0 1 1 116.8532,0 z"
     transform="matrix(-0.51392816,0,0,0.51392816,2954.0529,447.16177)" />
  <rect
     style="fill:#ff7000;fill-opacity:1;stroke:#000000;stroke-width:0.38106662;stroke-linecap:butt;stroke-linejoin:round;stroke-miterlimit:4;stroke-opacity:1;stroke-dasharray:none"
     id="rect3983"
     width="446.07602"
     height="275.99713"
     x="-1948.1851"
     y="852.76331"
     transform="scale(-1,1)">
    <title
       id="title3987">Samsung S2</title>
  </rect>
  <rect
     style="fill:#ff7000;fill-opacity:1;stroke:#000000;stroke-width:0.49024224;stroke-linecap:butt;stroke-linejoin:round;stroke-miterlimit:4;stroke-opacity:1;stroke-dasharray:none"
     id="rect3991"
     width="88.092514"
     height="88.659439"
     x="-2023.9717"
     y="965.66339"
     transform="scale(-1,1)" />
  <path
     sodipodi:type="star"
     style="fill:#28ff00;fill-opacity:1;stroke:#000000;stroke-width:0.35433072;stroke-linecap:butt;stroke-linejoin:round;stroke-miterlimit:4;stroke-opacity:1;stroke-dasharray:none"
     id="path3993"
     sodipodi:sides="5"
     sodipodi:cx="999.849"
     sodipodi:cy="852.20105"
     sodipodi:r1="61.660358"
     sodipodi:r2="30.830179"
     sodipodi:arg1="2.2097103"
     sodipodi:arg2="2.8380288"
     inkscape:flatsided="false"
     inkscape:rounded="0"
     inkscape:randomized="0"
     d="m 963.07945,901.69852 7.34901,-40.28162 -29.01677,-28.89021 40.58107,-5.45838 18.50954,-36.52416 17.7315,36.90816 40.4563,6.31704 -29.6224,28.26888 6.4938,40.4283 -36.03915,-19.43703 z"
     transform="translate(19.007455,-124.23599)"
     inkscape:transform-center-x="-0.20104239"
     inkscape:transform-center-y="-5.6964193" />
  <rect
     style="fill:#28ff00;fill-opacity:1;stroke:#000000;stroke-width:0.28277895;stroke-linecap:butt;stroke-linejoin:round;stroke-miterlimit:4;stroke-opacity:1;stroke-dasharray:none"
     id="rect3999"
     width="123.73307"
     height="106.01653"
     x="850.29474"
     y="199.82573" />
  <path
     sodipodi:type="arc"
     style="fill:#28ff00;fill-opacity:1;stroke:#000000;stroke-width:0.35433072;stroke-linecap:butt;stroke-linejoin:round;stroke-miterlimit:4;stroke-opacity:1;stroke-dasharray:none"
     id="path4001"
     sodipodi:cx="1146.9272"
     sodipodi:cy="314.7999"
     sodipodi:rx="18.384777"
     sodipodi:ry="18.384777"
     d="m 1165.312,314.7999 a 18.384777,18.384777 0 1 1 -36.7695,0 18.384777,18.384777 0 1 1 36.7695,0 z"
     transform="matrix(1.0499012,0,0,1.0499012,-2.885653,-44.013363)" />
  <rect
     style="fill:none;stroke:#000000;stroke-width:0.26467872;stroke-linecap:butt;stroke-linejoin:round;stroke-miterlimit:4;stroke-opacity:1;stroke-dasharray:none"
     id="rect4026"
     width="354.06631"
     height="141.46773"
     x="172.43288"
     y="142.31462" />
  <rect
     style="fill:#2bff01;fill-opacity:1;stroke:#000000;stroke-width:0.30645019;stroke-linecap:butt;stroke-linejoin:round;stroke-miterlimit:4;stroke-opacity:1;stroke-dasharray:none"
     id="rect3989"
     width="333.89856"
     height="199.94051"
     x="-1889.7578"
     y="895.25342"
     transform="scale(-1,1)" />
  <rect
     style="fill:#28ff00;fill-opacity:1;stroke:#000000;stroke-width:0.22797488;stroke-linecap:butt;stroke-linejoin:round;stroke-miterlimit:4;stroke-opacity:1;stroke-dasharray:none"
     id="rect3979"
     width="43.000408"
     height="16.425583"
     x="-2009.7937"
     y="1078.8076"
     transform="scale(-1,1)" />
  <g
     transform="translate(35.883101,35.88298)"
     id="g3961">
    <polygon
       style="fill:none;stroke:#000000;stroke-width:0.90000075"
       points="419.88223,42.51972 523.52405,42.51972 523.52405,0 627.16587,0 627.16587,70.8662 584.64615,70.8662 584.64615,141.7324 627.16587,141.7324 627.16587,212.5986 584.64615,212.5986 584.64615,283.4648 627.16587,283.4648 627.16587,354.331 523.52405,354.331 523.52405,311.81128 419.88223,311.81128 419.88223,354.331 349.01603,354.331 349.01603,311.81128 278.14983,311.81128 278.14983,354.331 207.28364,354.331 207.28364,311.81128 103.64182,311.81128 103.64182,354.331 0,354.331 0,283.4648 42.51972,283.4648 42.51972,212.5986 0,212.5986 0,141.7324 42.51972,141.7324 42.51972,70.8662 0,70.8662 0,0 103.64182,0 103.64182,42.51972 207.28364,42.51972 207.28364,0 278.14983,0 278.14983,42.51972 349.01603,42.51972 349.01603,0 419.88223,0 "
       id="polygon3963" />
  </g>
  <g
     transform="translate(705.4754,35.88298)"
     id="g3965">
    <polygon
       style="fill:none;stroke:#000000;stroke-width:0.90000075"
       points="627.16587,283.4648 627.16587,354.331 523.52405,354.331 523.52405,311.81128 419.88223,311.81128 419.88223,354.331 349.01603,354.331 349.01603,311.81128 278.14983,311.81128 278.14983,354.331 207.28364,354.331 207.28364,311.81128 103.64182,311.81128 103.64182,354.331 0,354.331 0,283.4648 42.51972,283.4648 42.51972,212.5986 0,212.5986 0,141.7324 42.51972,141.7324 42.51972,70.8662 0,70.8662 0,0 103.64182,0 103.64182,42.51972 207.28364,42.51972 207.28364,0 278.14983,0 278.14983,42.51972 349.01603,42.51972 349.01603,0 419.88223,0 419.88223,42.51972 523.52405,42.51972 523.52405,0 627.16587,0 627.16587,70.8662 584.64615,70.8662 584.64615,141.7324 627.16587,141.7324 627.16587,212.5986 584.64615,212.5986 584.64615,283.4648 "
       id="polygon3967" />
  </g>
  <g
     transform="translate(1387.352,35.88298)"
     id="g3969">
    <polygon
       style="fill:none;stroke:#000000;stroke-width:0.90000075"
       points="418.11058,354.331 363.18928,354.331 363.18928,311.81128 265.74825,311.81128 265.74825,354.331 194.88205,354.331 194.88205,311.81128 97.441025,311.81128 97.441025,354.331 42.51972,354.331 42.51972,283.4648 0,283.4648 0,212.5986 42.51972,212.5986 42.51972,141.7324 0,141.7324 0,70.8662 42.51972,70.8662 42.51972,0 97.441025,0 97.441025,42.51972 194.88205,42.51972 194.88205,0 265.74825,0 265.74825,42.51972 363.18928,42.51972 363.18928,0 418.11058,0 418.11058,70.8662 460.6303,70.8662 460.6303,141.7324 418.11058,141.7324 418.11058,212.5986 460.6303,212.5986 460.6303,283.4648 418.11058,283.4648 "
       id="polygon3971" />
  </g>
  <g
     transform="translate(1387.352,432.64043)"
     id="g3973">
    <polygon
       style="fill:none;stroke:#000000;stroke-width:0.90000075"
       points="363.18928,354.331 363.18928,311.81128 265.74825,311.81128 265.74825,354.331 194.88205,354.331 194.88205,311.81128 97.441025,311.81128 97.441025,354.331 42.51972,354.331 42.51972,283.4648 0,283.4648 0,212.5986 42.51972,212.5986 42.51972,141.7324 0,141.7324 0,70.8662 42.51972,70.8662 42.51972,0 97.441025,0 97.441025,42.51972 194.88205,42.51972 194.88205,0 265.74825,0 265.74825,42.51972 363.18928,42.51972 363.18928,0 418.11058,0 418.11058,70.8662 460.6303,70.8662 460.6303,141.7324 418.11058,141.7324 418.11058,212.5986 460.6303,212.5986 460.6303,283.4648 418.11058,283.4648 418.11058,354.331 "
       id="polygon3975" />
  </g>
  <g
     transform="translate(35.883101,432.64043)"
     id="g3977">
    <polygon
       style="fill:none;stroke:#000000;stroke-width:0.90000075"
       points="523.52405,0 523.52405,42.51972 584.64615,42.51972 584.64615,97.441025 627.16587,97.441025 627.16587,194.88205 584.64615,194.88205 584.64615,265.74825 627.16587,265.74825 627.16587,363.18928 584.64615,363.18928 584.64615,418.11058 523.52405,418.11058 523.52405,460.6303 419.88223,460.6303 419.88223,418.11058 349.01603,418.11058 349.01603,460.6303 278.14983,460.6303 278.14983,418.11058 207.28364,418.11058 207.28364,460.6303 103.64182,460.6303 103.64182,418.11058 42.51972,418.11058 42.51972,363.18928 0,363.18928 0,265.74825 42.51972,265.74825 42.51972,194.88205 0,194.88205 0,97.441025 42.51972,97.441025 42.51972,42.51972 103.64182,42.51972 103.64182,0 207.28364,0 207.28364,42.51972 278.14983,42.51972 278.14983,0 349.01603,0 349.01603,42.51972 419.88223,42.51972 419.88223,0 "
       id="polygon3979" />
  </g>
  <g
     transform="translate(705.4754,432.64043)"
     id="g3981">
    <polygon
       style="fill:none;stroke:#000000;stroke-width:0.90000075"
       points="523.52405,0 523.52405,42.51972 584.64615,42.51972 584.64615,97.441025 627.16587,97.441025 627.16587,194.88205 584.64615,194.88205 584.64615,265.74825 627.16587,265.74825 627.16587,363.18928 584.64615,363.18928 584.64615,418.11058 523.52405,418.11058 523.52405,460.6303 419.88223,460.6303 419.88223,418.11058 349.01603,418.11058 349.01603,460.6303 278.14983,460.6303 278.14983,418.11058 207.28364,418.11058 207.28364,460.6303 103.64182,460.6303 103.64182,418.11058 42.51972,418.11058 42.51972,363.18928 0,363.18928 0,265.74825 42.51972,265.74825 42.51972,194.88205 0,194.88205 0,97.441025 42.51972,97.441025 42.51972,42.51972 103.64182,42.51972 103.64182,0 207.28364,0 207.28364,42.51972 278.14983,42.51972 278.14983,0 349.01603,0 349.01603,42.51972 419.88223,42.51972 419.88223,0 "
       id="polygon3983" />
  </g>
  <path
     sodipodi:type="arc"
     style="fill:#28ff00;fill-opacity:1"
     id="path4042"
     sodipodi:cx="1074.8022"
     sodipodi:cy="184.69228"
     sodipodi:rx="48.08326"
     sodipodi:ry="48.08326"
     d="m 1122.8855,184.69228 a 48.08326,48.08326 0 1 1 -96.1665,0 48.08326,48.08326 0 1 1 96.1665,0 z"
     transform="matrix(1.1053671,0,0,1.1053671,-108.744,48.681213)" />
</svg>
