  0
SECTION
  2
HEADER
  9
$ACADVER
  1
AC1014
  9
$HANDSEED
  5
FFFF
  9
$MEASUREMENT
 70
     1
  0
ENDSEC
  0
SECTION
  2
TABLES
  0
TABLE
  2
VPORT
  5
8
330
0
100
AcDbSymbolTable
 70
     4
  0
VPORT
  5
2E
330
8
100
AcDbSymbolTableRecord
100
AcDbViewportTableRecord
  2
*ACTIVE
 70
     0
 10
0.0
 20
0.0
 11
1.0
 21
1.0
 12
210.0
 22
148.5
 13
0.0
 23
0.0
 14
10.0
 24
10.0
 15
10.0
 25
10.0
 16
0.0
 26
0.0
 36
1.0
 17
0.0
 27
0.0
 37
0.0
 40
341.0
 41
1.24
 42
50.0
 43
0.0
 44
0.0
 50
0.0
 51
0.0
 71
     0
 72
   100
 73
     1
 74
     3
 75
     0
 76
     0
 77
     0
 78
     0
  0
ENDTAB
  0
TABLE
  2
LTYPE
  5
5
330
0
100
AcDbSymbolTable
 70
     1
  0
LTYPE
  5
14
330
5
100
AcDbSymbolTableRecord
100
AcDbLinetypeTableRecord
  2
BYBLOCK
 70
     0
  3

 72
    65
 73
     0
 40
0.0
  0
LTYPE
  5
15
330
5
100
AcDbSymbolTableRecord
100
AcDbLinetypeTableRecord
  2
BYLAYER
 70
     0
  3

 72
    65
 73
     0
 40
0.0
  0
LTYPE
  5
16
330
5
100
AcDbSymbolTableRecord
100
AcDbLinetypeTableRecord
  2
CONTINUOUS
 70
     0
  3
Solid line
 72
    65
 73
     0
 40
0.0
  0
ENDTAB
  0
TABLE
  2
LAYER
  5
2
100
AcDbSymbolTable
 70
2
  0
LAYER
  5
50
100
AcDbSymbolTableRecord
100
AcDbLayerTableRecord
  2
0
 70
0
  6
CONTINUOUS
  0
LAYER
  5
51
100
AcDbSymbolTableRecord
100
AcDbLayerTableRecord
  2
newlayer
 70
0
  6
CONTINUOUS
  0
ENDTAB
  0
TABLE
  2
STYLE
  5
3
330
0
100
AcDbSymbolTable
 70
     1
  0
STYLE
  5
11
330
3
100
AcDbSymbolTableRecord
100
AcDbTextStyleTableRecord
  2
STANDARD
 70
     0
 40
0.0
 41
1.0
 50
0.0
 71
     0
 42
2.5
  3
txt
  4

  0
ENDTAB
  0
TABLE
  2
VIEW
  5
6
330
0
100
AcDbSymbolTable
 70
     0
  0
ENDTAB
  0
TABLE
  2
UCS
  5
7
330
0
100
AcDbSymbolTable
 70
     0
  0
ENDTAB
  0
TABLE
  2
APPID
  5
9
330
0
100
AcDbSymbolTable
 70
     2
  0
APPID
  5
12
330
9
100
AcDbSymbolTableRecord
100
AcDbRegAppTableRecord
  2
ACAD
 70
     0
  0
ENDTAB
  0
TABLE
  2
DIMSTYLE
  5
A
330
0
100
AcDbSymbolTable
 70
     1
  0
DIMSTYLE
105
27
330
A
100
AcDbSymbolTableRecord
100
AcDbDimStyleTableRecord
  2
ISO-25
 70
     0
  3

  4

  5

  6

  7

 40
1.0
 41
2.5
 42
0.625
 43
3.75
 44
1.25
 45
0.0
 46
0.0
 47
0.0
 48
0.0
140
2.5
141
2.5
142
0.0
143
0.03937007874016
144
1.0
145
0.0
146
1.0
147
0.625
 71
     0
 72
     0
 73
     0
 74
     0
 75
     0
 76
     0
 77
     1
 78
     8
170
     0
171
     3
172
     1
173
     0
174
     0
175
     0
176
     0
177
     0
178
     0
270
     2
271
     2
272
     2
273
     2
274
     3
340
11
275
     0
280
     0
281
     0
282
     0
283
     0
284
     8
285
     0
286
     0
287
     3
288
     0
  0
ENDTAB
  0
TABLE
  2
BLOCK_RECORD
  5
1
330
0
100
AcDbSymbolTable
 70
     1
  0
BLOCK_RECORD
  5
1F
330
1
100
AcDbSymbolTableRecord
100
AcDbBlockTableRecord
  2
*MODEL_SPACE
  0
BLOCK_RECORD
  5
1B
330
1
100
AcDbSymbolTableRecord
100
AcDbBlockTableRecord
  2
*PAPER_SPACE
  0
ENDTAB
  0
ENDSEC
  0
SECTION
  2
BLOCKS
  0
BLOCK
  5
20
330
1F
100
AcDbEntity
  8
0
100
AcDbBlockBegin
  2
*MODEL_SPACE
 70
     0
 10
0.0
 20
0.0
 30
0.0
  3
*MODEL_SPACE
  1

  0
ENDBLK
  5
21
330
1F
100
AcDbEntity
  8
0
100
AcDbBlockEnd
  0
BLOCK
  5
1C
330
1B
100
AcDbEntity
 67
     1
  8
0
100
AcDbBlockBegin
  2
*PAPER_SPACE
  1

  0
ENDBLK
  5
1D
330
1B
100
AcDbEntity
 67
     1
  8
0
100
AcDbBlockEnd
  0
ENDSEC
  0
SECTION
  2
ENTITIES
  0
LINE
  5
100
100
AcDbEntity
  8
0
 62
7
100
AcDbLine
 10
205.384064
 20
415.100234
 30
0.0
 11
240.304286
 21
415.100234
 31
0.0
  0
LINE
  5
101
100
AcDbEntity
  8
0
 62
7
100
AcDbLine
 10
240.304286
 20
415.100234
 30
0.0
 11
240.304286
 21
385.180013
 31
0.0
  0
LINE
  5
102
100
AcDbEntity
  8
0
 62
7
100
AcDbLine
 10
240.304286
 20
385.180013
 30
0.0
 11
205.384064
 21
385.180013
 31
0.0
  0
LINE
  5
103
100
AcDbEntity
  8
0
 62
7
100
AcDbLine
 10
205.384064
 20
385.180013
 30
0.0
 11
205.384064
 21
415.100234
 31
0.0
  0
SPLINE
  5
104
100
AcDbEntity
  8
0
 62
7
100
AcDbSpline
 70
8
 71
3
 72
8
 73
4
 74
0
 40
0
 40
0
 40
0
 40
0
 40
1
 40
1
 40
1
 40
1
 10
311.876093
 20
391.640208
 30
0.0
 10
311.876093
 20
388.084621
 30
0.0
 10
308.993736
 20
385.202249
 30
0.0
 10
305.438125
 20
385.202249
 30
0.0
  0
SPLINE
  5
105
100
AcDbEntity
  8
0
 62
7
100
AcDbSpline
 70
8
 71
3
 72
8
 73
4
 74
0
 40
0
 40
0
 40
0
 40
0
 40
1
 40
1
 40
1
 40
1
 10
305.438125
 20
385.202249
 30
0.0
 10
301.882548
 20
385.202249
 30
0.0
 10
299.000191
 20
388.084621
 30
0.0
 10
299.000191
 20
391.640208
 30
0.0
  0
SPLINE
  5
106
100
AcDbEntity
  8
0
 62
7
100
AcDbSpline
 70
8
 71
3
 72
8
 73
4
 74
0
 40
0
 40
0
 40
0
 40
0
 40
1
 40
1
 40
1
 40
1
 10
299.000191
 20
391.640208
 30
0.0
 10
299.000191
 20
395.195798
 30
0.0
 10
301.882548
 20
398.078169
 30
0.0
 10
305.438125
 20
398.078169
 30
0.0
  0
SPLINE
  5
107
100
AcDbEntity
  8
0
 62
7
100
AcDbSpline
 70
8
 71
3
 72
8
 73
4
 74
0
 40
0
 40
0
 40
0
 40
0
 40
1
 40
1
 40
1
 40
1
 10
305.438125
 20
398.078169
 30
0.0
 10
308.993736
 20
398.078169
 30
0.0
 10
311.876093
 20
395.195798
 30
0.0
 10
311.876093
 20
391.640208
 30
0.0
  0
LINE
  5
108
100
AcDbEntity
  8
0
 62
7
100
AcDbLine
 10
311.876093
 20
391.640208
 30
0.0
 11
311.876093
 21
391.640208
 31
0.0
  0
SPLINE
  5
109
100
AcDbEntity
  8
0
 62
7
100
AcDbSpline
 70
8
 71
3
 72
8
 73
4
 74
0
 40
0
 40
0
 40
0
 40
0
 40
1
 40
1
 40
1
 40
1
 10
284.641048
 20
400.140202
 30
0.0
 10
284.641048
 20
391.855932
 30
0.0
 10
277.925322
 20
385.140203
 30
0.0
 10
269.641036
 20
385.140203
 30
0.0
  0
SPLINE
  5
10a
100
AcDbEntity
  8
0
 62
7
100
AcDbSpline
 70
8
 71
3
 72
8
 73
4
 74
0
 40
0
 40
0
 40
0
 40
0
 40
1
 40
1
 40
1
 40
1
 10
269.641036
 20
385.140203
 30
0.0
 10
261.356781
 20
385.140203
 30
0.0
 10
254.641055
 20
391.855932
 30
0.0
 10
254.641055
 20
400.140202
 30
0.0
  0
SPLINE
  5
10b
100
AcDbEntity
  8
0
 62
7
100
AcDbSpline
 70
8
 71
3
 72
8
 73
4
 74
0
 40
0
 40
0
 40
0
 40
0
 40
1
 40
1
 40
1
 40
1
 10
254.641055
 20
400.140202
 30
0.0
 10
254.641055
 20
408.424473
 30
0.0
 10
261.356781
 20
415.140202
 30
0.0
 10
269.641036
 20
415.140202
 30
0.0
  0
SPLINE
  5
10c
100
AcDbEntity
  8
0
 62
7
100
AcDbSpline
 70
8
 71
3
 72
8
 73
4
 74
0
 40
0
 40
0
 40
0
 40
0
 40
1
 40
1
 40
1
 40
1
 10
269.641036
 20
415.140202
 30
0.0
 10
277.925322
 20
415.140202
 30
0.0
 10
284.641048
 20
408.424473
 30
0.0
 10
284.641048
 20
400.140202
 30
0.0
  0
LINE
  5
10d
100
AcDbEntity
  8
0
 62
7
100
AcDbLine
 10
284.641048
 20
400.140202
 30
0.0
 11
284.641048
 21
400.140202
 31
0.0
  0
LINE
  5
10e
100
AcDbEntity
  8
0
 62
7
100
AcDbLine
 10
243.658856
 20
115.122424
 30
0.0
 11
273.623445
 21
115.122424
 31
0.0
  0
LINE
  5
10f
100
AcDbEntity
  8
0
 62
7
100
AcDbLine
 10
273.623445
 20
115.122424
 30
0.0
 11
273.623445
 21
85.157835
 31
0.0
  0
LINE
  5
110
100
AcDbEntity
  8
0
 62
7
100
AcDbLine
 10
273.623445
 20
85.157835
 30
0.0
 11
243.658856
 21
85.157835
 31
0.0
  0
LINE
  5
111
100
AcDbEntity
  8
0
 62
7
100
AcDbLine
 10
243.658856
 20
85.157835
 30
0.0
 11
243.658856
 21
115.122424
 31
0.0
  0
LINE
  5
112
100
AcDbEntity
  8
0
 62
7
100
AcDbLine
 10
592.877035
 20
142.988086
 30
0.0
 11
397.980233
 21
142.988086
 31
0.0
  0
LINE
  5
113
100
AcDbEntity
  8
0
 62
7
100
AcDbLine
 10
397.980233
 20
142.988086
 30
0.0
 11
397.980233
 21
48.091347
 31
0.0
  0
LINE
  5
114
100
AcDbEntity
  8
0
 62
7
100
AcDbLine
 10
397.980233
 20
48.091347
 30
0.0
 11
592.877035
 21
48.091347
 31
0.0
  0
LINE
  5
115
100
AcDbEntity
  8
0
 62
7
100
AcDbLine
 10
592.877035
 20
48.091347
 30
0.0
 11
592.877035
 21
142.988086
 31
0.0
  0
SPLINE
  5
116
100
AcDbEntity
  8
0
 62
7
100
AcDbSpline
 70
8
 71
3
 72
8
 73
4
 74
0
 40
0
 40
0
 40
0
 40
0
 40
1
 40
1
 40
1
 40
1
 10
561.105271
 20
114.167847
 30
0.0
 10
561.102764
 20
111.138599
 30
0.0
 10
562.717410
 20
108.338385
 30
0.0
 10
565.340399
 20
106.823036
 30
0.0
  0
SPLINE
  5
117
100
AcDbEntity
  8
0
 62
7
100
AcDbSpline
 70
8
 71
3
 72
8
 73
4
 74
0
 40
0
 40
0
 40
0
 40
0
 40
1
 40
1
 40
1
 40
1
 10
565.340399
 20
106.823036
 30
0.0
 10
567.963388
 20
105.307688
 30
0.0
 10
571.195768
 20
105.307688
 30
0.0
 10
573.818757
 20
106.823036
 30
0.0
  0
SPLINE
  5
118
100
AcDbEntity
  8
0
 62
7
100
AcDbSpline
 70
8
 71
3
 72
8
 73
4
 74
0
 40
0
 40
0
 40
0
 40
0
 40
1
 40
1
 40
1
 40
1
 10
573.818757
 20
106.823036
 30
0.0
 10
576.441747
 20
108.338385
 30
0.0
 10
578.056392
 20
111.138599
 30
0.0
 10
578.053886
 20
114.167847
 30
0.0
  0
SPLINE
  5
119
100
AcDbEntity
  8
0
 62
7
100
AcDbSpline
 70
8
 71
3
 72
8
 73
4
 74
0
 40
0
 40
0
 40
0
 40
0
 40
1
 40
1
 40
1
 40
1
 10
578.053886
 20
114.167847
 30
0.0
 10
578.056392
 20
117.197096
 30
0.0
 10
576.441747
 20
119.997310
 30
0.0
 10
573.818757
 20
121.512658
 30
0.0
  0
SPLINE
  5
11a
100
AcDbEntity
  8
0
 62
7
100
AcDbSpline
 70
8
 71
3
 72
8
 73
4
 74
0
 40
0
 40
0
 40
0
 40
0
 40
1
 40
1
 40
1
 40
1
 10
573.818757
 20
121.512658
 30
0.0
 10
571.195768
 20
123.028007
 30
0.0
 10
567.963388
 20
123.028007
 30
0.0
 10
565.340399
 20
121.512658
 30
0.0
  0
SPLINE
  5
11b
100
AcDbEntity
  8
0
 62
7
100
AcDbSpline
 70
8
 71
3
 72
8
 73
4
 74
0
 40
0
 40
0
 40
0
 40
0
 40
1
 40
1
 40
1
 40
1
 10
565.340399
 20
121.512658
 30
0.0
 10
562.717410
 20
119.997310
 30
0.0
 10
561.102764
 20
117.197096
 30
0.0
 10
561.105271
 20
114.167847
 30
0.0
  0
LINE
  5
11c
100
AcDbEntity
  8
0
 62
7
100
AcDbLine
 10
561.105271
 20
114.167847
 30
0.0
 11
561.105271
 21
114.167847
 31
0.0
  0
LINE
  5
11d
100
AcDbEntity
  8
0
 62
7
100
AcDbLine
 10
432.288724
 20
106.526838
 30
0.0
 11
407.473148
 21
106.526838
 31
0.0
  0
LINE
  5
11e
100
AcDbEntity
  8
0
 62
7
100
AcDbLine
 10
407.473148
 20
106.526838
 30
0.0
 11
407.473148
 21
61.973951
 31
0.0
  0
LINE
  5
11f
100
AcDbEntity
  8
0
 62
7
100
AcDbLine
 10
407.473148
 20
61.973951
 30
0.0
 11
432.288724
 21
61.973951
 31
0.0
  0
LINE
  5
120
100
AcDbEntity
  8
0
 62
7
100
AcDbLine
 10
432.288724
 20
61.973951
 30
0.0
 11
432.288724
 21
106.526838
 31
0.0
  0
LINE
  5
121
100
AcDbEntity
  8
0
 62
7
100
AcDbLine
 10
432.478519
 20
129.139837
 30
0.0
 11
558.378724
 21
129.139837
 31
0.0
  0
LINE
  5
122
100
AcDbEntity
  8
0
 62
7
100
AcDbLine
 10
558.378724
 20
129.139837
 30
0.0
 11
558.378724
 21
61.939675
 31
0.0
  0
LINE
  5
123
100
AcDbEntity
  8
0
 62
7
100
AcDbLine
 10
558.378724
 20
61.939675
 30
0.0
 11
432.478519
 21
61.939675
 31
0.0
  0
LINE
  5
124
100
AcDbEntity
  8
0
 62
7
100
AcDbLine
 10
432.478519
 20
61.939675
 30
0.0
 11
432.478519
 21
129.139837
 31
0.0
  0
LINE
  5
125
100
AcDbEntity
  8
0
 62
7
100
AcDbLine
 10
545.055100
 20
125.751308
 30
0.0
 11
447.733118
 21
125.751308
 31
0.0
  0
LINE
  5
126
100
AcDbEntity
  8
0
 62
7
100
AcDbLine
 10
447.733118
 20
125.751308
 30
0.0
 11
447.733118
 21
65.328213
 31
0.0
  0
LINE
  5
127
100
AcDbEntity
  8
0
 62
7
100
AcDbLine
 10
447.733118
 20
65.328213
 30
0.0
 11
545.055100
 21
65.328213
 31
0.0
  0
LINE
  5
128
100
AcDbEntity
  8
0
 62
7
100
AcDbLine
 10
545.055100
 20
65.328213
 30
0.0
 11
545.055100
 21
125.751308
 31
0.0
  0
LINE
  5
129
100
AcDbEntity
  8
0
 62
7
100
AcDbLine
 10
511.707864
 20
137.130790
 30
0.0
 11
496.768397
 21
137.130790
 31
0.0
  0
LINE
  5
12a
100
AcDbEntity
  8
0
 62
7
100
AcDbLine
 10
496.768397
 20
137.130790
 30
0.0
 11
496.768397
 21
129.157064
 31
0.0
  0
LINE
  5
12b
100
AcDbEntity
  8
0
 62
7
100
AcDbLine
 10
496.768397
 20
129.157064
 30
0.0
 11
511.707864
 21
129.157064
 31
0.0
  0
LINE
  5
12c
100
AcDbEntity
  8
0
 62
7
100
AcDbLine
 10
511.707864
 20
129.157064
 30
0.0
 11
511.707864
 21
137.130790
 31
0.0
  0
LINE
  5
12d
100
AcDbEntity
  8
newlayer
 62
7
100
AcDbLine
 10
170.141152
 20
138.140158
 30
0.0
 11
196.391152
 21
138.140158
 31
0.0
  0
LINE
  5
12e
100
AcDbEntity
  8
newlayer
 62
7
100
AcDbLine
 10
196.391152
 20
138.140158
 30
0.0
 11
196.391152
 21
150.140162
 31
0.0
  0
LINE
  5
12f
100
AcDbEntity
  8
newlayer
 62
7
100
AcDbLine
 10
196.391152
 20
150.140162
 30
0.0
 11
220.391152
 21
150.140162
 31
0.0
  0
LINE
  5
130
100
AcDbEntity
  8
newlayer
 62
7
100
AcDbLine
 10
220.391152
 20
150.140162
 30
0.0
 11
220.391152
 21
138.140158
 31
0.0
  0
LINE
  5
131
100
AcDbEntity
  8
newlayer
 62
7
100
AcDbLine
 10
220.391152
 20
138.140158
 30
0.0
 11
246.641152
 21
138.140158
 31
0.0
  0
LINE
  5
132
100
AcDbEntity
  8
newlayer
 62
7
100
AcDbLine
 10
246.641152
 20
138.140158
 30
0.0
 11
246.641152
 21
150.140162
 31
0.0
  0
LINE
  5
133
100
AcDbEntity
  8
newlayer
 62
7
100
AcDbLine
 10
246.641152
 20
150.140162
 30
0.0
 11
270.641151
 21
150.140162
 31
0.0
  0
LINE
  5
134
100
AcDbEntity
  8
newlayer
 62
7
100
AcDbLine
 10
270.641151
 20
150.140162
 30
0.0
 11
270.641151
 21
138.140158
 31
0.0
  0
LINE
  5
135
100
AcDbEntity
  8
newlayer
 62
7
100
AcDbLine
 10
270.641151
 20
138.140158
 30
0.0
 11
296.891154
 21
138.140158
 31
0.0
  0
LINE
  5
136
100
AcDbEntity
  8
newlayer
 62
7
100
AcDbLine
 10
296.891154
 20
138.140158
 30
0.0
 11
296.891154
 21
150.140162
 31
0.0
  0
LINE
  5
137
100
AcDbEntity
  8
newlayer
 62
7
100
AcDbLine
 10
296.891154
 20
150.140162
 30
0.0
 11
320.891143
 21
150.140162
 31
0.0
  0
LINE
  5
138
100
AcDbEntity
  8
newlayer
 62
7
100
AcDbLine
 10
320.891143
 20
150.140162
 30
0.0
 11
320.891143
 21
138.140158
 31
0.0
  0
LINE
  5
139
100
AcDbEntity
  8
newlayer
 62
7
100
AcDbLine
 10
320.891143
 20
138.140158
 30
0.0
 11
347.141140
 21
138.140158
 31
0.0
  0
LINE
  5
13a
100
AcDbEntity
  8
newlayer
 62
7
100
AcDbLine
 10
347.141140
 20
138.140158
 30
0.0
 11
347.141140
 21
112.140182
 31
0.0
  0
LINE
  5
13b
100
AcDbEntity
  8
newlayer
 62
7
100
AcDbLine
 10
347.141140
 20
112.140182
 30
0.0
 11
335.141164
 21
112.140182
 31
0.0
  0
LINE
  5
13c
100
AcDbEntity
  8
newlayer
 62
7
100
AcDbLine
 10
335.141164
 20
112.140182
 30
0.0
 11
335.141164
 21
88.140173
 31
0.0
  0
LINE
  5
13d
100
AcDbEntity
  8
newlayer
 62
7
100
AcDbLine
 10
335.141164
 20
88.140173
 30
0.0
 11
347.141140
 21
88.140173
 31
0.0
  0
LINE
  5
13e
100
AcDbEntity
  8
newlayer
 62
7
100
AcDbLine
 10
347.141140
 20
88.140173
 30
0.0
 11
347.141140
 21
62.140169
 31
0.0
  0
LINE
  5
13f
100
AcDbEntity
  8
newlayer
 62
7
100
AcDbLine
 10
347.141140
 20
62.140169
 30
0.0
 11
320.891143
 21
62.140169
 31
0.0
  0
LINE
  5
140
100
AcDbEntity
  8
newlayer
 62
7
100
AcDbLine
 10
320.891143
 20
62.140169
 30
0.0
 11
320.891143
 21
50.140164
 31
0.0
  0
LINE
  5
141
100
AcDbEntity
  8
newlayer
 62
7
100
AcDbLine
 10
320.891143
 20
50.140164
 30
0.0
 11
296.891154
 21
50.140164
 31
0.0
  0
LINE
  5
142
100
AcDbEntity
  8
newlayer
 62
7
100
AcDbLine
 10
296.891154
 20
50.140164
 30
0.0
 11
296.891154
 21
62.140169
 31
0.0
  0
LINE
  5
143
100
AcDbEntity
  8
newlayer
 62
7
100
AcDbLine
 10
296.891154
 20
62.140169
 30
0.0
 11
270.641151
 21
62.140169
 31
0.0
  0
LINE
  5
144
100
AcDbEntity
  8
newlayer
 62
7
100
AcDbLine
 10
270.641151
 20
62.140169
 30
0.0
 11
270.641151
 21
50.140164
 31
0.0
  0
LINE
  5
145
100
AcDbEntity
  8
newlayer
 62
7
100
AcDbLine
 10
270.641151
 20
50.140164
 30
0.0
 11
246.641152
 21
50.140164
 31
0.0
  0
LINE
  5
146
100
AcDbEntity
  8
newlayer
 62
7
100
AcDbLine
 10
246.641152
 20
50.140164
 30
0.0
 11
246.641152
 21
62.140169
 31
0.0
  0
LINE
  5
147
100
AcDbEntity
  8
newlayer
 62
7
100
AcDbLine
 10
246.641152
 20
62.140169
 30
0.0
 11
220.391152
 21
62.140169
 31
0.0
  0
LINE
  5
148
100
AcDbEntity
  8
newlayer
 62
7
100
AcDbLine
 10
220.391152
 20
62.140169
 30
0.0
 11
220.391152
 21
50.140164
 31
0.0
  0
LINE
  5
149
100
AcDbEntity
  8
newlayer
 62
7
100
AcDbLine
 10
220.391152
 20
50.140164
 30
0.0
 11
196.391152
 21
50.140164
 31
0.0
  0
LINE
  5
14a
100
AcDbEntity
  8
newlayer
 62
7
100
AcDbLine
 10
196.391152
 20
50.140164
 30
0.0
 11
196.391152
 21
62.140169
 31
0.0
  0
LINE
  5
14b
100
AcDbEntity
  8
newlayer
 62
7
100
AcDbLine
 10
196.391152
 20
62.140169
 30
0.0
 11
170.141152
 21
62.140169
 31
0.0
  0
LINE
  5
14c
100
AcDbEntity
  8
newlayer
 62
7
100
AcDbLine
 10
170.141152
 20
62.140169
 30
0.0
 11
170.141152
 21
88.140173
 31
0.0
  0
LINE
  5
14d
100
AcDbEntity
  8
newlayer
 62
7
100
AcDbLine
 10
170.141152
 20
88.140173
 30
0.0
 11
182.141154
 21
88.140173
 31
0.0
  0
LINE
  5
14e
100
AcDbEntity
  8
newlayer
 62
7
100
AcDbLine
 10
182.141154
 20
88.140173
 30
0.0
 11
182.141154
 21
112.140182
 31
0.0
  0
LINE
  5
14f
100
AcDbEntity
  8
newlayer
 62
7
100
AcDbLine
 10
182.141154
 20
112.140182
 30
0.0
 11
170.141152
 21
112.140182
 31
0.0
  0
LINE
  5
150
100
AcDbEntity
  8
newlayer
 62
7
100
AcDbLine
 10
170.141152
 20
112.140182
 30
0.0
 11
170.141152
 21
138.140158
 31
0.0
  0
LINE
  5
151
100
AcDbEntity
  8
newlayer
 62
7
100
AcDbLine
 10
62.141154
 20
318.140170
 30
0.0
 11
88.141152
 21
318.140170
 31
0.0
  0
LINE
  5
152
100
AcDbEntity
  8
newlayer
 62
7
100
AcDbLine
 10
88.141152
 20
318.140170
 30
0.0
 11
88.141152
 21
330.140172
 31
0.0
  0
LINE
  5
153
100
AcDbEntity
  8
newlayer
 62
7
100
AcDbLine
 10
88.141152
 20
330.140172
 30
0.0
 11
112.141152
 21
330.140172
 31
0.0
  0
LINE
  5
154
100
AcDbEntity
  8
newlayer
 62
7
100
AcDbLine
 10
112.141152
 20
330.140172
 30
0.0
 11
112.141152
 21
318.140170
 31
0.0
  0
LINE
  5
155
100
AcDbEntity
  8
newlayer
 62
7
100
AcDbLine
 10
112.141152
 20
318.140170
 30
0.0
 11
138.141154
 21
318.140170
 31
0.0
  0
LINE
  5
156
100
AcDbEntity
  8
newlayer
 62
7
100
AcDbLine
 10
138.141154
 20
318.140170
 30
0.0
 11
138.141154
 21
292.806837
 31
0.0
  0
LINE
  5
157
100
AcDbEntity
  8
newlayer
 62
7
100
AcDbLine
 10
138.141154
 20
292.806837
 30
0.0
 11
150.141153
 21
292.806837
 31
0.0
  0
LINE
  5
158
100
AcDbEntity
  8
newlayer
 62
7
100
AcDbLine
 10
150.141153
 20
292.806837
 30
0.0
 11
150.141153
 21
268.806837
 31
0.0
  0
LINE
  5
159
100
AcDbEntity
  8
newlayer
 62
7
100
AcDbLine
 10
150.141153
 20
268.806837
 30
0.0
 11
138.141154
 21
268.806837
 31
0.0
  0
LINE
  5
15a
100
AcDbEntity
  8
newlayer
 62
7
100
AcDbLine
 10
138.141154
 20
268.806837
 30
0.0
 11
138.141154
 21
231.473505
 31
0.0
  0
LINE
  5
15b
100
AcDbEntity
  8
newlayer
 62
7
100
AcDbLine
 10
138.141154
 20
231.473505
 30
0.0
 11
150.141153
 21
231.473505
 31
0.0
  0
LINE
  5
15c
100
AcDbEntity
  8
newlayer
 62
7
100
AcDbLine
 10
150.141153
 20
231.473505
 30
0.0
 11
150.141153
 21
207.473505
 31
0.0
  0
LINE
  5
15d
100
AcDbEntity
  8
newlayer
 62
7
100
AcDbLine
 10
150.141153
 20
207.473505
 30
0.0
 11
138.141154
 21
207.473505
 31
0.0
  0
LINE
  5
15e
100
AcDbEntity
  8
newlayer
 62
7
100
AcDbLine
 10
138.141154
 20
207.473505
 30
0.0
 11
138.141154
 21
182.140183
 31
0.0
  0
LINE
  5
15f
100
AcDbEntity
  8
newlayer
 62
7
100
AcDbLine
 10
138.141154
 20
182.140183
 30
0.0
 11
112.141152
 21
182.140183
 31
0.0
  0
LINE
  5
160
100
AcDbEntity
  8
newlayer
 62
7
100
AcDbLine
 10
112.141152
 20
182.140183
 30
0.0
 11
112.141152
 21
170.140178
 31
0.0
  0
LINE
  5
161
100
AcDbEntity
  8
newlayer
 62
7
100
AcDbLine
 10
112.141152
 20
170.140178
 30
0.0
 11
88.141152
 21
170.140178
 31
0.0
  0
LINE
  5
162
100
AcDbEntity
  8
newlayer
 62
7
100
AcDbLine
 10
88.141152
 20
170.140178
 30
0.0
 11
88.141152
 21
182.140183
 31
0.0
  0
LINE
  5
163
100
AcDbEntity
  8
newlayer
 62
7
100
AcDbLine
 10
88.141152
 20
182.140183
 30
0.0
 11
62.141154
 21
182.140183
 31
0.0
  0
LINE
  5
164
100
AcDbEntity
  8
newlayer
 62
7
100
AcDbLine
 10
62.141154
 20
182.140183
 30
0.0
 11
62.141154
 21
207.473505
 31
0.0
  0
LINE
  5
165
100
AcDbEntity
  8
newlayer
 62
7
100
AcDbLine
 10
62.141154
 20
207.473505
 30
0.0
 11
50.141153
 21
207.473505
 31
0.0
  0
LINE
  5
166
100
AcDbEntity
  8
newlayer
 62
7
100
AcDbLine
 10
50.141153
 20
207.473505
 30
0.0
 11
50.141153
 21
231.473505
 31
0.0
  0
LINE
  5
167
100
AcDbEntity
  8
newlayer
 62
7
100
AcDbLine
 10
50.141153
 20
231.473505
 30
0.0
 11
62.141154
 21
231.473505
 31
0.0
  0
LINE
  5
168
100
AcDbEntity
  8
newlayer
 62
7
100
AcDbLine
 10
62.141154
 20
231.473505
 30
0.0
 11
62.141154
 21
268.806837
 31
0.0
  0
LINE
  5
169
100
AcDbEntity
  8
newlayer
 62
7
100
AcDbLine
 10
62.141154
 20
268.806837
 30
0.0
 11
50.141153
 21
268.806837
 31
0.0
  0
LINE
  5
16a
100
AcDbEntity
  8
newlayer
 62
7
100
AcDbLine
 10
50.141153
 20
268.806837
 30
0.0
 11
50.141153
 21
292.806837
 31
0.0
  0
LINE
  5
16b
100
AcDbEntity
  8
newlayer
 62
7
100
AcDbLine
 10
50.141153
 20
292.806837
 30
0.0
 11
62.141154
 21
292.806837
 31
0.0
  0
LINE
  5
16c
100
AcDbEntity
  8
newlayer
 62
7
100
AcDbLine
 10
62.141154
 20
292.806837
 30
0.0
 11
62.141154
 21
318.140170
 31
0.0
  0
LINE
  5
16d
100
AcDbEntity
  8
newlayer
 62
7
100
AcDbLine
 10
170.141152
 20
330.140172
 30
0.0
 11
196.391152
 21
330.140172
 31
0.0
  0
LINE
  5
16e
100
AcDbEntity
  8
newlayer
 62
7
100
AcDbLine
 10
196.391152
 20
330.140172
 30
0.0
 11
196.391152
 21
318.140170
 31
0.0
  0
LINE
  5
16f
100
AcDbEntity
  8
newlayer
 62
7
100
AcDbLine
 10
196.391152
 20
318.140170
 30
0.0
 11
220.391152
 21
318.140170
 31
0.0
  0
LINE
  5
170
100
AcDbEntity
  8
newlayer
 62
7
100
AcDbLine
 10
220.391152
 20
318.140170
 30
0.0
 11
220.391152
 21
330.140172
 31
0.0
  0
LINE
  5
171
100
AcDbEntity
  8
newlayer
 62
7
100
AcDbLine
 10
220.391152
 20
330.140172
 30
0.0
 11
246.641152
 21
330.140172
 31
0.0
  0
LINE
  5
172
100
AcDbEntity
  8
newlayer
 62
7
100
AcDbLine
 10
246.641152
 20
330.140172
 30
0.0
 11
246.641152
 21
318.140170
 31
0.0
  0
LINE
  5
173
100
AcDbEntity
  8
newlayer
 62
7
100
AcDbLine
 10
246.641152
 20
318.140170
 30
0.0
 11
270.641151
 21
318.140170
 31
0.0
  0
LINE
  5
174
100
AcDbEntity
  8
newlayer
 62
7
100
AcDbLine
 10
270.641151
 20
318.140170
 30
0.0
 11
270.641151
 21
330.140172
 31
0.0
  0
LINE
  5
175
100
AcDbEntity
  8
newlayer
 62
7
100
AcDbLine
 10
270.641151
 20
330.140172
 30
0.0
 11
296.891154
 21
330.140172
 31
0.0
  0
LINE
  5
176
100
AcDbEntity
  8
newlayer
 62
7
100
AcDbLine
 10
296.891154
 20
330.140172
 30
0.0
 11
296.891154
 21
318.140170
 31
0.0
  0
LINE
  5
177
100
AcDbEntity
  8
newlayer
 62
7
100
AcDbLine
 10
296.891154
 20
318.140170
 30
0.0
 11
320.891143
 21
318.140170
 31
0.0
  0
LINE
  5
178
100
AcDbEntity
  8
newlayer
 62
7
100
AcDbLine
 10
320.891143
 20
318.140170
 30
0.0
 11
320.891143
 21
330.140172
 31
0.0
  0
LINE
  5
179
100
AcDbEntity
  8
newlayer
 62
7
100
AcDbLine
 10
320.891143
 20
330.140172
 30
0.0
 11
347.141140
 21
330.140172
 31
0.0
  0
LINE
  5
17a
100
AcDbEntity
  8
newlayer
 62
7
100
AcDbLine
 10
347.141140
 20
330.140172
 30
0.0
 11
347.141140
 21
292.806837
 31
0.0
  0
LINE
  5
17b
100
AcDbEntity
  8
newlayer
 62
7
100
AcDbLine
 10
347.141140
 20
292.806837
 30
0.0
 11
335.141164
 21
292.806837
 31
0.0
  0
LINE
  5
17c
100
AcDbEntity
  8
newlayer
 62
7
100
AcDbLine
 10
335.141164
 20
292.806837
 30
0.0
 11
335.141164
 21
268.806837
 31
0.0
  0
LINE
  5
17d
100
AcDbEntity
  8
newlayer
 62
7
100
AcDbLine
 10
335.141164
 20
268.806837
 30
0.0
 11
347.141140
 21
268.806837
 31
0.0
  0
LINE
  5
17e
100
AcDbEntity
  8
newlayer
 62
7
100
AcDbLine
 10
347.141140
 20
268.806837
 30
0.0
 11
347.141140
 21
231.473505
 31
0.0
  0
LINE
  5
17f
100
AcDbEntity
  8
newlayer
 62
7
100
AcDbLine
 10
347.141140
 20
231.473505
 30
0.0
 11
335.141164
 21
231.473505
 31
0.0
  0
LINE
  5
180
100
AcDbEntity
  8
newlayer
 62
7
100
AcDbLine
 10
335.141164
 20
231.473505
 30
0.0
 11
335.141164
 21
207.473505
 31
0.0
  0
LINE
  5
181
100
AcDbEntity
  8
newlayer
 62
7
100
AcDbLine
 10
335.141164
 20
207.473505
 30
0.0
 11
347.141140
 21
207.473505
 31
0.0
  0
LINE
  5
182
100
AcDbEntity
  8
newlayer
 62
7
100
AcDbLine
 10
347.141140
 20
207.473505
 30
0.0
 11
347.141140
 21
170.140178
 31
0.0
  0
LINE
  5
183
100
AcDbEntity
  8
newlayer
 62
7
100
AcDbLine
 10
347.141140
 20
170.140178
 30
0.0
 11
320.891143
 21
170.140178
 31
0.0
  0
LINE
  5
184
100
AcDbEntity
  8
newlayer
 62
7
100
AcDbLine
 10
320.891143
 20
170.140178
 30
0.0
 11
320.891143
 21
182.140183
 31
0.0
  0
LINE
  5
185
100
AcDbEntity
  8
newlayer
 62
7
100
AcDbLine
 10
320.891143
 20
182.140183
 30
0.0
 11
296.891154
 21
182.140183
 31
0.0
  0
LINE
  5
186
100
AcDbEntity
  8
newlayer
 62
7
100
AcDbLine
 10
296.891154
 20
182.140183
 30
0.0
 11
296.891154
 21
170.140178
 31
0.0
  0
LINE
  5
187
100
AcDbEntity
  8
newlayer
 62
7
100
AcDbLine
 10
296.891154
 20
170.140178
 30
0.0
 11
270.641151
 21
170.140178
 31
0.0
  0
LINE
  5
188
100
AcDbEntity
  8
newlayer
 62
7
100
AcDbLine
 10
270.641151
 20
170.140178
 30
0.0
 11
270.641151
 21
182.140183
 31
0.0
  0
LINE
  5
189
100
AcDbEntity
  8
newlayer
 62
7
100
AcDbLine
 10
270.641151
 20
182.140183
 30
0.0
 11
246.641152
 21
182.140183
 31
0.0
  0
LINE
  5
18a
100
AcDbEntity
  8
newlayer
 62
7
100
AcDbLine
 10
246.641152
 20
182.140183
 30
0.0
 11
246.641152
 21
170.140178
 31
0.0
  0
LINE
  5
18b
100
AcDbEntity
  8
newlayer
 62
7
100
AcDbLine
 10
246.641152
 20
170.140178
 30
0.0
 11
220.391152
 21
170.140178
 31
0.0
  0
LINE
  5
18c
100
AcDbEntity
  8
newlayer
 62
7
100
AcDbLine
 10
220.391152
 20
170.140178
 30
0.0
 11
220.391152
 21
182.140183
 31
0.0
  0
LINE
  5
18d
100
AcDbEntity
  8
newlayer
 62
7
100
AcDbLine
 10
220.391152
 20
182.140183
 30
0.0
 11
196.391152
 21
182.140183
 31
0.0
  0
LINE
  5
18e
100
AcDbEntity
  8
newlayer
 62
7
100
AcDbLine
 10
196.391152
 20
182.140183
 30
0.0
 11
196.391152
 21
170.140178
 31
0.0
  0
LINE
  5
18f
100
AcDbEntity
  8
newlayer
 62
7
100
AcDbLine
 10
196.391152
 20
170.140178
 30
0.0
 11
170.141152
 21
170.140178
 31
0.0
  0
LINE
  5
190
100
AcDbEntity
  8
newlayer
 62
7
100
AcDbLine
 10
170.141152
 20
170.140178
 30
0.0
 11
170.141152
 21
207.473505
 31
0.0
  0
LINE
  5
191
100
AcDbEntity
  8
newlayer
 62
7
100
AcDbLine
 10
170.141152
 20
207.473505
 30
0.0
 11
182.141154
 21
207.473505
 31
0.0
  0
LINE
  5
192
100
AcDbEntity
  8
newlayer
 62
7
100
AcDbLine
 10
182.141154
 20
207.473505
 30
0.0
 11
182.141154
 21
231.473505
 31
0.0
  0
LINE
  5
193
100
AcDbEntity
  8
newlayer
 62
7
100
AcDbLine
 10
182.141154
 20
231.473505
 30
0.0
 11
170.141152
 21
231.473505
 31
0.0
  0
LINE
  5
194
100
AcDbEntity
  8
newlayer
 62
7
100
AcDbLine
 10
170.141152
 20
231.473505
 30
0.0
 11
170.141152
 21
268.806837
 31
0.0
  0
LINE
  5
195
100
AcDbEntity
  8
newlayer
 62
7
100
AcDbLine
 10
170.141152
 20
268.806837
 30
0.0
 11
182.141154
 21
268.806837
 31
0.0
  0
LINE
  5
196
100
AcDbEntity
  8
newlayer
 62
7
100
AcDbLine
 10
182.141154
 20
268.806837
 30
0.0
 11
182.141154
 21
292.806837
 31
0.0
  0
LINE
  5
197
100
AcDbEntity
  8
newlayer
 62
7
100
AcDbLine
 10
182.141154
 20
292.806837
 30
0.0
 11
170.141152
 21
292.806837
 31
0.0
  0
LINE
  5
198
100
AcDbEntity
  8
newlayer
 62
7
100
AcDbLine
 10
170.141152
 20
292.806837
 30
0.0
 11
170.141152
 21
330.140172
 31
0.0
  0
LINE
  5
199
100
AcDbEntity
  8
newlayer
 62
7
100
AcDbLine
 10
379.141160
 20
318.140170
 30
0.0
 11
405.141165
 21
318.140170
 31
0.0
  0
LINE
  5
19a
100
AcDbEntity
  8
newlayer
 62
7
100
AcDbLine
 10
405.141165
 20
318.140170
 30
0.0
 11
405.141165
 21
330.140172
 31
0.0
  0
LINE
  5
19b
100
AcDbEntity
  8
newlayer
 62
7
100
AcDbLine
 10
405.141165
 20
330.140172
 30
0.0
 11
429.141145
 21
330.140172
 31
0.0
  0
LINE
  5
19c
100
AcDbEntity
  8
newlayer
 62
7
100
AcDbLine
 10
429.141145
 20
330.140172
 30
0.0
 11
429.141145
 21
318.140170
 31
0.0
  0
LINE
  5
19d
100
AcDbEntity
  8
newlayer
 62
7
100
AcDbLine
 10
429.141145
 20
318.140170
 30
0.0
 11
455.141149
 21
318.140170
 31
0.0
  0
LINE
  5
19e
100
AcDbEntity
  8
newlayer
 62
7
100
AcDbLine
 10
455.141149
 20
318.140170
 30
0.0
 11
455.141149
 21
292.806837
 31
0.0
  0
LINE
  5
19f
100
AcDbEntity
  8
newlayer
 62
7
100
AcDbLine
 10
455.141149
 20
292.806837
 30
0.0
 11
467.141154
 21
292.806837
 31
0.0
  0
LINE
  5
1a0
100
AcDbEntity
  8
newlayer
 62
7
100
AcDbLine
 10
467.141154
 20
292.806837
 30
0.0
 11
467.141154
 21
268.806837
 31
0.0
  0
LINE
  5
1a1
100
AcDbEntity
  8
newlayer
 62
7
100
AcDbLine
 10
467.141154
 20
268.806837
 30
0.0
 11
455.141149
 21
268.806837
 31
0.0
  0
LINE
  5
1a2
100
AcDbEntity
  8
newlayer
 62
7
100
AcDbLine
 10
455.141149
 20
268.806837
 30
0.0
 11
455.141149
 21
231.473505
 31
0.0
  0
LINE
  5
1a3
100
AcDbEntity
  8
newlayer
 62
7
100
AcDbLine
 10
455.141149
 20
231.473505
 30
0.0
 11
467.141154
 21
231.473505
 31
0.0
  0
LINE
  5
1a4
100
AcDbEntity
  8
newlayer
 62
7
100
AcDbLine
 10
467.141154
 20
231.473505
 30
0.0
 11
467.141154
 21
207.473505
 31
0.0
  0
LINE
  5
1a5
100
AcDbEntity
  8
newlayer
 62
7
100
AcDbLine
 10
467.141154
 20
207.473505
 30
0.0
 11
455.141149
 21
207.473505
 31
0.0
  0
LINE
  5
1a6
100
AcDbEntity
  8
newlayer
 62
7
100
AcDbLine
 10
455.141149
 20
207.473505
 30
0.0
 11
455.141149
 21
182.140183
 31
0.0
  0
LINE
  5
1a7
100
AcDbEntity
  8
newlayer
 62
7
100
AcDbLine
 10
455.141149
 20
182.140183
 30
0.0
 11
429.141145
 21
182.140183
 31
0.0
  0
LINE
  5
1a8
100
AcDbEntity
  8
newlayer
 62
7
100
AcDbLine
 10
429.141145
 20
182.140183
 30
0.0
 11
429.141145
 21
170.140178
 31
0.0
  0
LINE
  5
1a9
100
AcDbEntity
  8
newlayer
 62
7
100
AcDbLine
 10
429.141145
 20
170.140178
 30
0.0
 11
405.141165
 21
170.140178
 31
0.0
  0
LINE
  5
1aa
100
AcDbEntity
  8
newlayer
 62
7
100
AcDbLine
 10
405.141165
 20
170.140178
 30
0.0
 11
405.141165
 21
182.140183
 31
0.0
  0
LINE
  5
1ab
100
AcDbEntity
  8
newlayer
 62
7
100
AcDbLine
 10
405.141165
 20
182.140183
 30
0.0
 11
379.141160
 21
182.140183
 31
0.0
  0
LINE
  5
1ac
100
AcDbEntity
  8
newlayer
 62
7
100
AcDbLine
 10
379.141160
 20
182.140183
 30
0.0
 11
379.141160
 21
207.473505
 31
0.0
  0
LINE
  5
1ad
100
AcDbEntity
  8
newlayer
 62
7
100
AcDbLine
 10
379.141160
 20
207.473505
 30
0.0
 11
367.141156
 21
207.473505
 31
0.0
  0
LINE
  5
1ae
100
AcDbEntity
  8
newlayer
 62
7
100
AcDbLine
 10
367.141156
 20
207.473505
 30
0.0
 11
367.141156
 21
231.473505
 31
0.0
  0
LINE
  5
1af
100
AcDbEntity
  8
newlayer
 62
7
100
AcDbLine
 10
367.141156
 20
231.473505
 30
0.0
 11
379.141160
 21
231.473505
 31
0.0
  0
LINE
  5
1b0
100
AcDbEntity
  8
newlayer
 62
7
100
AcDbLine
 10
379.141160
 20
231.473505
 30
0.0
 11
379.141160
 21
268.806837
 31
0.0
  0
LINE
  5
1b1
100
AcDbEntity
  8
newlayer
 62
7
100
AcDbLine
 10
379.141160
 20
268.806837
 30
0.0
 11
367.141156
 21
268.806837
 31
0.0
  0
LINE
  5
1b2
100
AcDbEntity
  8
newlayer
 62
7
100
AcDbLine
 10
367.141156
 20
268.806837
 30
0.0
 11
367.141156
 21
292.806837
 31
0.0
  0
LINE
  5
1b3
100
AcDbEntity
  8
newlayer
 62
7
100
AcDbLine
 10
367.141156
 20
292.806837
 30
0.0
 11
379.141160
 21
292.806837
 31
0.0
  0
LINE
  5
1b4
100
AcDbEntity
  8
newlayer
 62
7
100
AcDbLine
 10
379.141160
 20
292.806837
 30
0.0
 11
379.141160
 21
318.140170
 31
0.0
  0
LINE
  5
1b5
100
AcDbEntity
  8
newlayer
 62
7
100
AcDbLine
 10
487.141142
 20
330.140172
 30
0.0
 11
513.391139
 21
330.140172
 31
0.0
  0
LINE
  5
1b6
100
AcDbEntity
  8
newlayer
 62
7
100
AcDbLine
 10
513.391139
 20
330.140172
 30
0.0
 11
513.391139
 21
318.140170
 31
0.0
  0
LINE
  5
1b7
100
AcDbEntity
  8
newlayer
 62
7
100
AcDbLine
 10
513.391139
 20
318.140170
 30
0.0
 11
537.391147
 21
318.140170
 31
0.0
  0
LINE
  5
1b8
100
AcDbEntity
  8
newlayer
 62
7
100
AcDbLine
 10
537.391147
 20
318.140170
 30
0.0
 11
537.391147
 21
330.140172
 31
0.0
  0
LINE
  5
1b9
100
AcDbEntity
  8
newlayer
 62
7
100
AcDbLine
 10
537.391147
 20
330.140172
 30
0.0
 11
563.641144
 21
330.140172
 31
0.0
  0
LINE
  5
1ba
100
AcDbEntity
  8
newlayer
 62
7
100
AcDbLine
 10
563.641144
 20
330.140172
 30
0.0
 11
563.641144
 21
318.140170
 31
0.0
  0
LINE
  5
1bb
100
AcDbEntity
  8
newlayer
 62
7
100
AcDbLine
 10
563.641144
 20
318.140170
 30
0.0
 11
587.641152
 21
318.140170
 31
0.0
  0
LINE
  5
1bc
100
AcDbEntity
  8
newlayer
 62
7
100
AcDbLine
 10
587.641152
 20
318.140170
 30
0.0
 11
587.641152
 21
330.140172
 31
0.0
  0
LINE
  5
1bd
100
AcDbEntity
  8
newlayer
 62
7
100
AcDbLine
 10
587.641152
 20
330.140172
 30
0.0
 11
613.891149
 21
330.140172
 31
0.0
  0
LINE
  5
1be
100
AcDbEntity
  8
newlayer
 62
7
100
AcDbLine
 10
613.891149
 20
330.140172
 30
0.0
 11
613.891149
 21
318.140170
 31
0.0
  0
LINE
  5
1bf
100
AcDbEntity
  8
newlayer
 62
7
100
AcDbLine
 10
613.891149
 20
318.140170
 30
0.0
 11
637.891158
 21
318.140170
 31
0.0
  0
LINE
  5
1c0
100
AcDbEntity
  8
newlayer
 62
7
100
AcDbLine
 10
637.891158
 20
318.140170
 30
0.0
 11
637.891158
 21
330.140172
 31
0.0
  0
LINE
  5
1c1
100
AcDbEntity
  8
newlayer
 62
7
100
AcDbLine
 10
637.891158
 20
330.140172
 30
0.0
 11
664.141155
 21
330.140172
 31
0.0
  0
LINE
  5
1c2
100
AcDbEntity
  8
newlayer
 62
7
100
AcDbLine
 10
664.141155
 20
330.140172
 30
0.0
 11
664.141155
 21
292.806837
 31
0.0
  0
LINE
  5
1c3
100
AcDbEntity
  8
newlayer
 62
7
100
AcDbLine
 10
664.141155
 20
292.806837
 30
0.0
 11
652.141150
 21
292.806837
 31
0.0
  0
LINE
  5
1c4
100
AcDbEntity
  8
newlayer
 62
7
100
AcDbLine
 10
652.141150
 20
292.806837
 30
0.0
 11
652.141150
 21
268.806837
 31
0.0
  0
LINE
  5
1c5
100
AcDbEntity
  8
newlayer
 62
7
100
AcDbLine
 10
652.141150
 20
268.806837
 30
0.0
 11
664.141155
 21
268.806837
 31
0.0
  0
LINE
  5
1c6
100
AcDbEntity
  8
newlayer
 62
7
100
AcDbLine
 10
664.141155
 20
268.806837
 30
0.0
 11
664.141155
 21
231.473505
 31
0.0
  0
LINE
  5
1c7
100
AcDbEntity
  8
newlayer
 62
7
100
AcDbLine
 10
664.141155
 20
231.473505
 30
0.0
 11
652.141150
 21
231.473505
 31
0.0
  0
LINE
  5
1c8
100
AcDbEntity
  8
newlayer
 62
7
100
AcDbLine
 10
652.141150
 20
231.473505
 30
0.0
 11
652.141150
 21
207.473505
 31
0.0
  0
LINE
  5
1c9
100
AcDbEntity
  8
newlayer
 62
7
100
AcDbLine
 10
652.141150
 20
207.473505
 30
0.0
 11
664.141155
 21
207.473505
 31
0.0
  0
LINE
  5
1ca
100
AcDbEntity
  8
newlayer
 62
7
100
AcDbLine
 10
664.141155
 20
207.473505
 30
0.0
 11
664.141155
 21
170.140178
 31
0.0
  0
LINE
  5
1cb
100
AcDbEntity
  8
newlayer
 62
7
100
AcDbLine
 10
664.141155
 20
170.140178
 30
0.0
 11
637.891158
 21
170.140178
 31
0.0
  0
LINE
  5
1cc
100
AcDbEntity
  8
newlayer
 62
7
100
AcDbLine
 10
637.891158
 20
170.140178
 30
0.0
 11
637.891158
 21
182.140183
 31
0.0
  0
LINE
  5
1cd
100
AcDbEntity
  8
newlayer
 62
7
100
AcDbLine
 10
637.891158
 20
182.140183
 30
0.0
 11
613.891149
 21
182.140183
 31
0.0
  0
LINE
  5
1ce
100
AcDbEntity
  8
newlayer
 62
7
100
AcDbLine
 10
613.891149
 20
182.140183
 30
0.0
 11
613.891149
 21
170.140178
 31
0.0
  0
LINE
  5
1cf
100
AcDbEntity
  8
newlayer
 62
7
100
AcDbLine
 10
613.891149
 20
170.140178
 30
0.0
 11
587.641152
 21
170.140178
 31
0.0
  0
LINE
  5
1d0
100
AcDbEntity
  8
newlayer
 62
7
100
AcDbLine
 10
587.641152
 20
170.140178
 30
0.0
 11
587.641152
 21
182.140183
 31
0.0
  0
LINE
  5
1d1
100
AcDbEntity
  8
newlayer
 62
7
100
AcDbLine
 10
587.641152
 20
182.140183
 30
0.0
 11
563.641144
 21
182.140183
 31
0.0
  0
LINE
  5
1d2
100
AcDbEntity
  8
newlayer
 62
7
100
AcDbLine
 10
563.641144
 20
182.140183
 30
0.0
 11
563.641144
 21
170.140178
 31
0.0
  0
LINE
  5
1d3
100
AcDbEntity
  8
newlayer
 62
7
100
AcDbLine
 10
563.641144
 20
170.140178
 30
0.0
 11
537.391147
 21
170.140178
 31
0.0
  0
LINE
  5
1d4
100
AcDbEntity
  8
newlayer
 62
7
100
AcDbLine
 10
537.391147
 20
170.140178
 30
0.0
 11
537.391147
 21
182.140183
 31
0.0
  0
LINE
  5
1d5
100
AcDbEntity
  8
newlayer
 62
7
100
AcDbLine
 10
537.391147
 20
182.140183
 30
0.0
 11
513.391139
 21
182.140183
 31
0.0
  0
LINE
  5
1d6
100
AcDbEntity
  8
newlayer
 62
7
100
AcDbLine
 10
513.391139
 20
182.140183
 30
0.0
 11
513.391139
 21
170.140178
 31
0.0
  0
LINE
  5
1d7
100
AcDbEntity
  8
newlayer
 62
7
100
AcDbLine
 10
513.391139
 20
170.140178
 30
0.0
 11
487.141142
 21
170.140178
 31
0.0
  0
LINE
  5
1d8
100
AcDbEntity
  8
newlayer
 62
7
100
AcDbLine
 10
487.141142
 20
170.140178
 30
0.0
 11
487.141142
 21
207.473505
 31
0.0
  0
LINE
  5
1d9
100
AcDbEntity
  8
newlayer
 62
7
100
AcDbLine
 10
487.141142
 20
207.473505
 30
0.0
 11
499.141146
 21
207.473505
 31
0.0
  0
LINE
  5
1da
100
AcDbEntity
  8
newlayer
 62
7
100
AcDbLine
 10
499.141146
 20
207.473505
 30
0.0
 11
499.141146
 21
231.473505
 31
0.0
  0
LINE
  5
1db
100
AcDbEntity
  8
newlayer
 62
7
100
AcDbLine
 10
499.141146
 20
231.473505
 30
0.0
 11
487.141142
 21
231.473505
 31
0.0
  0
LINE
  5
1dc
100
AcDbEntity
  8
newlayer
 62
7
100
AcDbLine
 10
487.141142
 20
231.473505
 30
0.0
 11
487.141142
 21
268.806837
 31
0.0
  0
LINE
  5
1dd
100
AcDbEntity
  8
newlayer
 62
7
100
AcDbLine
 10
487.141142
 20
268.806837
 30
0.0
 11
499.141146
 21
268.806837
 31
0.0
  0
LINE
  5
1de
100
AcDbEntity
  8
newlayer
 62
7
100
AcDbLine
 10
499.141146
 20
268.806837
 30
0.0
 11
499.141146
 21
292.806837
 31
0.0
  0
LINE
  5
1df
100
AcDbEntity
  8
newlayer
 62
7
100
AcDbLine
 10
499.141146
 20
292.806837
 30
0.0
 11
487.141142
 21
292.806837
 31
0.0
  0
LINE
  5
1e0
100
AcDbEntity
  8
newlayer
 62
7
100
AcDbLine
 10
487.141142
 20
292.806837
 30
0.0
 11
487.141142
 21
330.140172
 31
0.0
  0
LINE
  5
1e1
100
AcDbEntity
  8
newlayer
 62
7
100
AcDbLine
 10
170.141152
 20
438.140170
 30
0.0
 11
196.391152
 21
438.140170
 31
0.0
  0
LINE
  5
1e2
100
AcDbEntity
  8
newlayer
 62
7
100
AcDbLine
 10
196.391152
 20
438.140170
 30
0.0
 11
196.391152
 21
450.140171
 31
0.0
  0
LINE
  5
1e3
100
AcDbEntity
  8
newlayer
 62
7
100
AcDbLine
 10
196.391152
 20
450.140171
 30
0.0
 11
220.391152
 21
450.140171
 31
0.0
  0
LINE
  5
1e4
100
AcDbEntity
  8
newlayer
 62
7
100
AcDbLine
 10
220.391152
 20
450.140171
 30
0.0
 11
220.391152
 21
438.140170
 31
0.0
  0
LINE
  5
1e5
100
AcDbEntity
  8
newlayer
 62
7
100
AcDbLine
 10
220.391152
 20
438.140170
 30
0.0
 11
246.641152
 21
438.140170
 31
0.0
  0
LINE
  5
1e6
100
AcDbEntity
  8
newlayer
 62
7
100
AcDbLine
 10
246.641152
 20
438.140170
 30
0.0
 11
246.641152
 21
450.140171
 31
0.0
  0
LINE
  5
1e7
100
AcDbEntity
  8
newlayer
 62
7
100
AcDbLine
 10
246.641152
 20
450.140171
 30
0.0
 11
270.641151
 21
450.140171
 31
0.0
  0
LINE
  5
1e8
100
AcDbEntity
  8
newlayer
 62
7
100
AcDbLine
 10
270.641151
 20
450.140171
 30
0.0
 11
270.641151
 21
438.140170
 31
0.0
  0
LINE
  5
1e9
100
AcDbEntity
  8
newlayer
 62
7
100
AcDbLine
 10
270.641151
 20
438.140170
 30
0.0
 11
296.891154
 21
438.140170
 31
0.0
  0
LINE
  5
1ea
100
AcDbEntity
  8
newlayer
 62
7
100
AcDbLine
 10
296.891154
 20
438.140170
 30
0.0
 11
296.891154
 21
450.140171
 31
0.0
  0
LINE
  5
1eb
100
AcDbEntity
  8
newlayer
 62
7
100
AcDbLine
 10
296.891154
 20
450.140171
 30
0.0
 11
320.891143
 21
450.140171
 31
0.0
  0
LINE
  5
1ec
100
AcDbEntity
  8
newlayer
 62
7
100
AcDbLine
 10
320.891143
 20
450.140171
 30
0.0
 11
320.891143
 21
438.140170
 31
0.0
  0
LINE
  5
1ed
100
AcDbEntity
  8
newlayer
 62
7
100
AcDbLine
 10
320.891143
 20
438.140170
 30
0.0
 11
347.141140
 21
438.140170
 31
0.0
  0
LINE
  5
1ee
100
AcDbEntity
  8
newlayer
 62
7
100
AcDbLine
 10
347.141140
 20
438.140170
 30
0.0
 11
347.141140
 21
412.140171
 31
0.0
  0
LINE
  5
1ef
100
AcDbEntity
  8
newlayer
 62
7
100
AcDbLine
 10
347.141140
 20
412.140171
 30
0.0
 11
335.141164
 21
412.140171
 31
0.0
  0
LINE
  5
1f0
100
AcDbEntity
  8
newlayer
 62
7
100
AcDbLine
 10
335.141164
 20
412.140171
 30
0.0
 11
335.141164
 21
388.140171
 31
0.0
  0
LINE
  5
1f1
100
AcDbEntity
  8
newlayer
 62
7
100
AcDbLine
 10
335.141164
 20
388.140171
 30
0.0
 11
347.141140
 21
388.140171
 31
0.0
  0
LINE
  5
1f2
100
AcDbEntity
  8
newlayer
 62
7
100
AcDbLine
 10
347.141140
 20
388.140171
 30
0.0
 11
347.141140
 21
362.140170
 31
0.0
  0
LINE
  5
1f3
100
AcDbEntity
  8
newlayer
 62
7
100
AcDbLine
 10
347.141140
 20
362.140170
 30
0.0
 11
320.891143
 21
362.140170
 31
0.0
  0
LINE
  5
1f4
100
AcDbEntity
  8
newlayer
 62
7
100
AcDbLine
 10
320.891143
 20
362.140170
 30
0.0
 11
320.891143
 21
350.140171
 31
0.0
  0
LINE
  5
1f5
100
AcDbEntity
  8
newlayer
 62
7
100
AcDbLine
 10
320.891143
 20
350.140171
 30
0.0
 11
296.891154
 21
350.140171
 31
0.0
  0
LINE
  5
1f6
100
AcDbEntity
  8
newlayer
 62
7
100
AcDbLine
 10
296.891154
 20
350.140171
 30
0.0
 11
296.891154
 21
362.140170
 31
0.0
  0
LINE
  5
1f7
100
AcDbEntity
  8
newlayer
 62
7
100
AcDbLine
 10
296.891154
 20
362.140170
 30
0.0
 11
270.641151
 21
362.140170
 31
0.0
  0
LINE
  5
1f8
100
AcDbEntity
  8
newlayer
 62
7
100
AcDbLine
 10
270.641151
 20
362.140170
 30
0.0
 11
270.641151
 21
350.140171
 31
0.0
  0
LINE
  5
1f9
100
AcDbEntity
  8
newlayer
 62
7
100
AcDbLine
 10
270.641151
 20
350.140171
 30
0.0
 11
246.641152
 21
350.140171
 31
0.0
  0
LINE
  5
1fa
100
AcDbEntity
  8
newlayer
 62
7
100
AcDbLine
 10
246.641152
 20
350.140171
 30
0.0
 11
246.641152
 21
362.140170
 31
0.0
  0
LINE
  5
1fb
100
AcDbEntity
  8
newlayer
 62
7
100
AcDbLine
 10
246.641152
 20
362.140170
 30
0.0
 11
220.391152
 21
362.140170
 31
0.0
  0
LINE
  5
1fc
100
AcDbEntity
  8
newlayer
 62
7
100
AcDbLine
 10
220.391152
 20
362.140170
 30
0.0
 11
220.391152
 21
350.140171
 31
0.0
  0
LINE
  5
1fd
100
AcDbEntity
  8
newlayer
 62
7
100
AcDbLine
 10
220.391152
 20
350.140171
 30
0.0
 11
196.391152
 21
350.140171
 31
0.0
  0
LINE
  5
1fe
100
AcDbEntity
  8
newlayer
 62
7
100
AcDbLine
 10
196.391152
 20
350.140171
 30
0.0
 11
196.391152
 21
362.140170
 31
0.0
  0
LINE
  5
1ff
100
AcDbEntity
  8
newlayer
 62
7
100
AcDbLine
 10
196.391152
 20
362.140170
 30
0.0
 11
170.141152
 21
362.140170
 31
0.0
  0
LINE
  5
200
100
AcDbEntity
  8
newlayer
 62
7
100
AcDbLine
 10
170.141152
 20
362.140170
 30
0.0
 11
170.141152
 21
388.140171
 31
0.0
  0
LINE
  5
201
100
AcDbEntity
  8
newlayer
 62
7
100
AcDbLine
 10
170.141152
 20
388.140171
 30
0.0
 11
182.141154
 21
388.140171
 31
0.0
  0
LINE
  5
202
100
AcDbEntity
  8
newlayer
 62
7
100
AcDbLine
 10
182.141154
 20
388.140171
 30
0.0
 11
182.141154
 21
412.140171
 31
0.0
  0
LINE
  5
203
100
AcDbEntity
  8
newlayer
 62
7
100
AcDbLine
 10
182.141154
 20
412.140171
 30
0.0
 11
170.141152
 21
412.140171
 31
0.0
  0
LINE
  5
204
100
AcDbEntity
  8
newlayer
 62
7
100
AcDbLine
 10
170.141152
 20
412.140171
 30
0.0
 11
170.141152
 21
438.140170
 31
0.0
  0
ENDSEC
  0
SECTION
  2
OBJECTS
  0
DICTIONARY
  5
C
330
0
100
AcDbDictionary
  3
ACAD_GROUP
350
D
  3
ACAD_MLINESTYLE
350
17
  0
DICTIONARY
  5
D
330
C
100
AcDbDictionary
  0
DICTIONARY
  5
1A
330
C
100
AcDbDictionary
  0
DICTIONARY
  5
17
330
C
100
AcDbDictionary
  3
STANDARD
350
18
  0
DICTIONARY
  5
19
330
C
100
AcDbDictionary
  0
ENDSEC
  0
EOF
