<?xml version="1.0" encoding="UTF-8" standalone="no"?>
<svg
   xmlns:dc="http://purl.org/dc/elements/1.1/"
   xmlns:cc="http://creativecommons.org/ns#"
   xmlns:rdf="http://www.w3.org/1999/02/22-rdf-syntax-ns#"
   xmlns:svg="http://www.w3.org/2000/svg"
   xmlns="http://www.w3.org/2000/svg"
   xmlns:sodipodi="http://sodipodi.sourceforge.net/DTD/sodipodi-0.dtd"
   xmlns:inkscape="http://www.inkscape.org/namespaces/inkscape"
   sodipodi:docname="case.svg"
   inkscape:version="0.48.4 r9939"
   id="svg3294"
   viewBox="0 0 8645.676 4322.838"
   height="4322.8345"
   width="8645.6689"
   version="1.1">
  <metadata
     id="metadata3324">
    <rdf:RDF>
      <cc:Work
         rdf:about="">
        <dc:format>image/svg+xml</dc:format>
        <dc:type
           rdf:resource="http://purl.org/dc/dcmitype/StillImage" />
      </cc:Work>
    </rdf:RDF>
  </metadata>
  <defs
     id="defs3322" />
  <sodipodi:namedview
     pagecolor="#ffffff"
     bordercolor="#666666"
     borderopacity="1"
     objecttolerance="10"
     gridtolerance="10"
     guidetolerance="10"
     inkscape:pageopacity="0"
     inkscape:pageshadow="2"
     inkscape:window-width="1920"
     inkscape:window-height="1061"
     id="namedview3320"
     showgrid="false"
     inkscape:zoom="0.39532251"
     inkscape:cx="1381.2962"
     inkscape:cy="1094.0804"
     inkscape:window-x="0"
     inkscape:window-y="0"
     inkscape:window-maximized="0"
     inkscape:current-layer="svg3294"
     inkscape:document-units="mm"
     units="mm"
     fit-margin-top="0"
     fit-margin-left="0"
     fit-margin-right="0"
     fit-margin-bottom="0" />
  <!-- Front-->
  <!-- Back-->
  <!-- Left-->
  <!-- Right-->
  <!-- Top-->
  <!-- Bottom-->
  <g
     transform="translate(248.53179,2373.5188)"
     id="g3352">
    <path
       inkscape:connector-curvature="0"
       d="m 566.92913,1282.6772 87.71457,0 0,-42.5197 95.63386,0 0,42.5197 82.41732,0 0,-42.5197 95.63386,0 0,42.5197 82.41736,0 0,-42.5197 95.6338,0 0,42.5197 87.7146,0"
       style="fill:none;stroke:#000000"
       inkscape:label="part"
       id="path3078" />
    <path
       inkscape:connector-curvature="0"
       d="m 1194.0945,1282.6772 0,97.4232 -42.5197,0 0,74.4449 42.5197,0 0,97.4232"
       style="fill:none;stroke:#000000"
       inkscape:label="part"
       id="path3080" />
    <path
       inkscape:connector-curvature="0"
       d="m 1194.0945,1551.9685 -87.7146,0 0,42.5197 -95.6338,0 0,-42.5197 -82.41736,0 0,42.5197 -95.63386,0 0,-42.5197 -82.41732,0 0,42.5197 -95.63386,0 0,-42.5197 -87.71457,0"
       style="fill:none;stroke:#000000"
       inkscape:label="part"
       id="path3082" />
    <path
       inkscape:connector-curvature="0"
       d="m 566.92913,1551.9685 0,-97.4232 42.51969,0 0,-74.4449 -42.51969,0 0,-97.4232"
       style="fill:none;stroke:#000000"
       inkscape:label="part"
       id="path3084" />
  </g>
  <g
     transform="translate(248.53179,2373.5188)"
     id="g3340">
    <path
       inkscape:connector-curvature="0"
       d="m 148.8189,609.44882 86.82874,0 0,-42.51969 95.63386,0 0,42.51969 86.82874,0"
       style="fill:none;stroke:#000000"
       inkscape:label="part"
       id="path3086" />
    <path
       inkscape:connector-curvature="0"
       d="m 418.11024,609.44882 0,84.46653 42.51968,0 0,95.63386 -42.51968,0 0,121.68898 42.51968,0 0,95.63381 -42.51968,0 0,84.4666"
       style="fill:none;stroke:#000000"
       inkscape:label="part"
       id="path3088" />
    <path
       inkscape:connector-curvature="0"
       d="m 418.11024,1091.3386 -86.82874,0 0,42.5197 -95.63386,0 0,-42.5197 -86.82874,0"
       style="fill:none;stroke:#000000"
       inkscape:label="part"
       id="path3090" />
    <path
       inkscape:connector-curvature="0"
       d="m 148.8189,1091.3386 0,-84.4666 -42.51969,0 0,-95.63381 42.51969,0 0,-121.68898 -42.51969,0 0,-95.63386 42.51969,0 0,-84.46653"
       style="fill:none;stroke:#000000"
       inkscape:label="part"
       id="path3092" />
  </g>
  <g
     transform="translate(248.53179,2373.5188)"
     id="g3346">
    <path
       inkscape:connector-curvature="0"
       d="m 566.92913,566.92913 98.30906,0 0,42.51969 74.44488,0 0,-42.51969 103.6063,0 0,42.51969 74.44488,0 0,-42.51969 103.60635,0 0,42.51969 74.4448,0 0,-42.51969 98.3091,0"
       style="fill:none;stroke:#000000"
       inkscape:label="part"
       id="path3094" />
    <path
       inkscape:connector-curvature="0"
       d="m 1194.0945,566.92913 0,137.58071 -42.5197,0 0,74.44488 42.5197,0 0,142.87796 -42.5197,0 0,74.44488 42.5197,0 0,137.58074"
       style="fill:none;stroke:#000000"
       inkscape:label="part"
       id="path3096" />
    <path
       inkscape:connector-curvature="0"
       d="m 1194.0945,1133.8583 -98.3091,0 0,-42.5197 -74.4448,0 0,42.5197 -103.60635,0 0,-42.5197 -74.44488,0 0,42.5197 -103.6063,0 0,-42.5197 -74.44488,0 0,42.5197 -98.30906,0"
       style="fill:none;stroke:#000000"
       inkscape:label="part"
       id="path3098" />
    <path
       inkscape:connector-curvature="0"
       d="m 566.92913,1133.8583 0,-137.58074 42.51969,0 0,-74.44488 -42.51969,0 0,-142.87796 42.51969,0 0,-74.44488 -42.51969,0 0,-137.58071"
       style="fill:none;stroke:#000000"
       inkscape:label="part"
       id="path3100" />
  </g>
  <g
     transform="translate(248.53179,2373.5188)"
     id="g3358">
    <path
       inkscape:connector-curvature="0"
       d="m 1342.9134,609.44882 86.8287,0 0,-42.51969 95.6339,0 0,42.51969 86.8287,0"
       style="fill:none;stroke:#000000"
       inkscape:label="part"
       id="path3102" />
    <path
       inkscape:connector-curvature="0"
       d="m 1612.2047,609.44882 0,84.46653 42.5197,0 0,95.63386 -42.5197,0 0,121.68898 42.5197,0 0,95.63381 -42.5197,0 0,84.4666"
       style="fill:none;stroke:#000000"
       inkscape:label="part"
       id="path3104" />
    <path
       inkscape:connector-curvature="0"
       d="m 1612.2047,1091.3386 -86.8287,0 0,42.5197 -95.6339,0 0,-42.5197 -86.8287,0"
       style="fill:none;stroke:#000000"
       inkscape:label="part"
       id="path3106" />
    <path
       inkscape:connector-curvature="0"
       d="m 1342.9134,1091.3386 0,-84.4666 -42.5197,0 0,-95.63381 42.5197,0 0,-121.68898 -42.5197,0 0,-95.63386 42.5197,0 0,-84.46653"
       style="fill:none;stroke:#000000"
       inkscape:label="part"
       id="path3108" />
  </g>
  <g
     transform="translate(248.53179,2373.5188)"
     id="g3364">
    <path
       inkscape:connector-curvature="0"
       d="m 1761.0236,566.92913 98.3091,0 0,42.51969 74.4449,0 0,-42.51969 103.6063,0 0,42.51969 74.4448,0 0,-42.51969 103.6063,0 0,42.51969 74.4449,0 0,-42.51969 98.3091,0"
       style="fill:none;stroke:#000000"
       inkscape:label="part"
       id="path3110" />
    <path
       inkscape:connector-curvature="0"
       d="m 2388.189,566.92913 0,137.58071 -42.5197,0 0,74.44488 42.5197,0 0,142.87796 -42.5197,0 0,74.44488 42.5197,0 0,137.58074"
       style="fill:none;stroke:#000000"
       inkscape:label="part"
       id="path3112" />
    <path
       inkscape:connector-curvature="0"
       d="m 2388.189,1133.8583 -98.3091,0 0,-42.5197 -74.4449,0 0,42.5197 -103.6063,0 0,-42.5197 -74.4448,0 0,42.5197 -103.6063,0 0,-42.5197 -74.4449,0 0,42.5197 -98.3091,0"
       style="fill:none;stroke:#000000"
       inkscape:label="part"
       id="path3114" />
    <path
       inkscape:connector-curvature="0"
       d="m 1761.0236,1133.8583 0,-137.58074 42.5197,0 0,-74.44488 -42.5197,0 0,-142.87796 42.5197,0 0,-74.44488 -42.5197,0 0,-137.58071"
       style="fill:none;stroke:#000000"
       inkscape:label="part"
       id="path3116" />
  </g>
  <g
     transform="translate(248.53179,2373.5188)"
     id="g3334">
    <path
       inkscape:connector-curvature="0"
       d="m 566.92913,148.8189 87.71457,0 0,-42.51969 95.63386,0 0,42.51969 82.41732,0 0,-42.51969 95.63386,0 0,42.51969 82.41736,0 0,-42.51969 95.6338,0 0,42.51969 87.7146,0"
       style="fill:none;stroke:#000000"
       inkscape:label="part"
       id="path3118" />
    <path
       inkscape:connector-curvature="0"
       d="m 1194.0945,148.8189 0,97.42323 -42.5197,0 0,74.44488 42.5197,0 0,97.42323"
       style="fill:none;stroke:#000000"
       inkscape:label="part"
       id="path3120" />
    <path
       inkscape:connector-curvature="0"
       d="m 1194.0945,418.11024 -87.7146,0 0,42.51968 -95.6338,0 0,-42.51968 -82.41736,0 0,42.51968 -95.63386,0 0,-42.51968 -82.41732,0 0,42.51968 -95.63386,0 0,-42.51968 -87.71457,0"
       style="fill:none;stroke:#000000"
       inkscape:label="part"
       id="path3122" />
    <path
       inkscape:connector-curvature="0"
       d="m 566.92913,418.11024 0,-97.42323 42.51969,0 0,-74.44488 -42.51969,0 0,-97.42323"
       style="fill:none;stroke:#000000"
       inkscape:label="part"
       id="path3124" />
  </g>
  <rect
     style="fill:#000000;fill-opacity:1;stroke:#000000;stroke-width:0.28277895;stroke-linecap:butt;stroke-linejoin:round;stroke-miterlimit:4;stroke-opacity:1;stroke-dasharray:none"
     id="rect3999"
     width="123.73307"
     height="106.01653"
     x="940.3374"
     y="2603.9751" />
  <path
     sodipodi:type="arc"
     style="fill:#000000;fill-opacity:1;stroke:#000000;stroke-width:0.35433072;stroke-linecap:butt;stroke-linejoin:round;stroke-miterlimit:4;stroke-opacity:1;stroke-dasharray:none"
     id="path4001"
     sodipodi:cx="1146.9272"
     sodipodi:cy="314.7999"
     sodipodi:rx="18.384777"
     sodipodi:ry="18.384777"
     d="m 1165.312,314.7999 a 18.384777,18.384777 0 1 1 -36.7695,0 18.384777,18.384777 0 1 1 36.7695,0 z"
     transform="matrix(1.2407913,0,0,1.2407913,-128.23765,2296.5003)" />
  <path
     sodipodi:type="arc"
     style="fill:#000000;fill-opacity:1"
     id="path4042"
     sodipodi:cx="1074.8022"
     sodipodi:cy="184.69228"
     sodipodi:rx="48.08326"
     sodipodi:ry="48.08326"
     d="m 1122.8855,184.69228 a 48.08326,48.08326 0 1 1 -96.1665,0 48.08326,48.08326 0 1 1 96.1665,0 z"
     transform="matrix(1.1053661,0,0,1.1053661,-20.03035,2452.8306)" />
  <rect
     style="fill:#000000;fill-opacity:1;stroke:#000000;stroke-width:0.12556398999999999;stroke-linecap:butt;stroke-linejoin:round;stroke-miterlimit:4;stroke-opacity:1;stroke-dasharray:none"
     id="rect4026"
     width="106.17374"
     height="106.17374"
     x="1075.9575"
     y="3737.7559" />
  <line
     style="fill:none;stroke:#000000;stroke-width:19.6807785"
     x1="2104.5312"
     y1="3077.7368"
     x2="2104.5312"
     y2="3370.0881"
     id="line8-2" />
  <line
     style="fill:none;stroke:#000000;stroke-width:9.84038925"
     x1="2129.373"
     y1="3077.7368"
     x2="2129.373"
     y2="3370.0881"
     id="line10-0" />
  <line
     style="fill:none;stroke:#000000;stroke-width:9.84038925"
     x1="2179.0564"
     y1="3077.7368"
     x2="2179.0564"
     y2="3370.0881"
     id="line12-5" />
  <line
     style="fill:none;stroke:#000000;stroke-width:9.84038925"
     x1="2208.8665"
     y1="3077.7368"
     x2="2208.8665"
     y2="3370.0881"
     id="line14-1" />
  <line
     style="fill:none;stroke:#000000;stroke-width:29.52116966"
     x1="2248.613"
     y1="3077.7368"
     x2="2248.613"
     y2="3370.0881"
     id="line16-4" />
  <line
     style="fill:none;stroke:#000000;stroke-width:19.6807785"
     x1="2283.3914"
     y1="3077.7368"
     x2="2283.3914"
     y2="3370.0881"
     id="line18-3" />
  <line
     style="fill:none;stroke:#000000;stroke-width:9.84038925"
     x1="2318.1697"
     y1="3077.7368"
     x2="2318.1697"
     y2="3370.0881"
     id="line20-5" />
  <line
     style="fill:none;stroke:#000000;stroke-width:29.52116966000000176;stroke-opacity:1"
     x1="2357.9165"
     y1="3077.7368"
     x2="2357.9165"
     y2="3370.0881"
     id="line22-0" />
  <line
     style="fill:none;stroke:#000000;stroke-width:19.6807785"
     x1="2392.6948"
     y1="3077.7368"
     x2="2392.6948"
     y2="3370.0881"
     id="line24-5" />
  <line
     style="fill:none;stroke:#000000;stroke-width:19.6807785"
     x1="2432.4414"
     y1="3077.7368"
     x2="2432.4414"
     y2="3370.0881"
     id="line26-4" />
  <line
     style="fill:none;stroke:#000000;stroke-width:29.52116966"
     x1="2487.0933"
     y1="3077.7368"
     x2="2487.0933"
     y2="3370.0881"
     id="line28-8" />
  <line
     style="fill:none;stroke:#000000;stroke-width:9.84038925"
     x1="2516.9033"
     y1="3077.7368"
     x2="2516.9033"
     y2="3370.0881"
     id="line30-5" />
  <line
     style="fill:none;stroke:#000000;stroke-width:19.6807785"
     x1="2541.7449"
     y1="3077.7368"
     x2="2541.7449"
     y2="3370.0881"
     id="line32-2" />
</svg>
