<svg xmlns="http://www.w3.org/2000/svg" version="1.1" width="534mm" height="280mm" viewBox = " 0 0 1892.12754 992.1268" >
<!-- Front--> 
<g transform="translate(35.433099999999996, 35.433099999999996) " > 
<polygon style="stroke:#000000; fill:none; stroke-width:0.90000074" points="0, 0 61.1220975, 0 61.1220975, 42.51972 122.244195, 42.51972 122.244195, 0 164.763915, 0 164.763915, 42.51972 207.283635, 42.51972 207.283635, 0 249.803355, 0 249.803355, 42.51972 292.323075, 42.51972 292.323075, 0 334.842795, 0 334.842795, 42.51972 377.362515, 42.51972 377.362515, 0 419.882235, 0 419.882235, 42.51972 462.401955, 42.51972 462.401955, 0 504.921675, 0 504.921675, 42.51972 566.0437725, 42.51972 566.0437725, 0 627.16587, 0 627.16587, 56.69296 584.64615, 56.69296 584.64615, 113.38592 627.16587, 113.38592 627.16587, 155.90564 584.64615, 155.90564 584.64615, 198.42536 627.16587, 198.42536 627.16587, 240.94508 584.64615, 240.94508 584.64615, 297.63804 627.16587, 297.63804 627.16587, 354.331 566.0437725, 354.331 566.0437725, 311.81128 504.921675, 311.81128 504.921675, 354.331 462.401955, 354.331 462.401955, 311.81128 419.882235, 311.81128 419.882235, 354.331 377.362515, 354.331 377.362515, 311.81128 334.842795, 311.81128 334.842795, 354.331 292.323075, 354.331 292.323075, 311.81128 249.803355, 311.81128 249.803355, 354.331 207.283635, 354.331 207.283635, 311.81128 164.763915, 311.81128 164.763915, 354.331 122.244195, 354.331 122.244195, 311.81128 61.1220975, 311.81128 61.1220975, 354.331 0, 354.331 0, 297.63804 42.51972, 297.63804 42.51972, 240.94508 0, 240.94508 0, 198.42536 42.51972, 198.42536 42.51972, 155.90564 0, 155.90564 0, 113.38592 42.51972, 113.38592 42.51972, 56.69296 0, 56.69296 "/> 
</g>
<!-- Back--> 
<g transform="translate(662.59897, 35.433099999999996) " > 
<polygon style="stroke:#000000; fill:none; stroke-width:0.90000074" points="0, 0 61.1220975, 0 61.1220975, 42.51972 122.244195, 42.51972 122.244195, 0 164.763915, 0 164.763915, 42.51972 207.283635, 42.51972 207.283635, 0 249.803355, 0 249.803355, 42.51972 292.323075, 42.51972 292.323075, 0 334.842795, 0 334.842795, 42.51972 377.362515, 42.51972 377.362515, 0 419.882235, 0 419.882235, 42.51972 462.401955, 42.51972 462.401955, 0 504.921675, 0 504.921675, 42.51972 566.0437725, 42.51972 566.0437725, 0 627.16587, 0 627.16587, 56.69296 584.64615, 56.69296 584.64615, 113.38592 627.16587, 113.38592 627.16587, 155.90564 584.64615, 155.90564 584.64615, 198.42536 627.16587, 198.42536 627.16587, 240.94508 584.64615, 240.94508 584.64615, 297.63804 627.16587, 297.63804 627.16587, 354.331 566.0437725, 354.331 566.0437725, 311.81128 504.921675, 311.81128 504.921675, 354.331 462.401955, 354.331 462.401955, 311.81128 419.882235, 311.81128 419.882235, 354.331 377.362515, 354.331 377.362515, 311.81128 334.842795, 311.81128 334.842795, 354.331 292.323075, 354.331 292.323075, 311.81128 249.803355, 311.81128 249.803355, 354.331 207.283635, 354.331 207.283635, 311.81128 164.763915, 311.81128 164.763915, 354.331 122.244195, 354.331 122.244195, 311.81128 61.1220975, 311.81128 61.1220975, 354.331 0, 354.331 0, 297.63804 42.51972, 297.63804 42.51972, 240.94508 0, 240.94508 0, 198.42536 42.51972, 198.42536 42.51972, 155.90564 0, 155.90564 0, 113.38592 42.51972, 113.38592 42.51972, 56.69296 0, 56.69296 "/> 
</g>
<!-- Left--> 
<g transform="translate(1289.76484, 35.433099999999996) " > 
<polygon style="stroke:#000000; fill:none; stroke-width:0.90000074" points="42.51972, 0 67.32289, 0 67.32289, 42.51972 134.64578, 42.51972 134.64578, 0 177.1655, 0 177.1655, 42.51972 219.68522000000002, 42.51972 219.68522000000002, 0 262.20493999999997, 0 262.20493999999997, 42.51972 304.72466, 42.51972 304.72466, 0 347.24438, 0 347.24438, 42.51972 389.7641, 42.51972 389.7641, 0 432.28382, 0 432.28382, 42.51972 499.60671, 42.51972 499.60671, 0 524.4098799999999, 0 524.4098799999999, 56.69296 566.9295999999999, 56.69296 566.9295999999999, 113.38592 524.4098799999999, 113.38592 524.4098799999999, 155.90564 566.9295999999999, 155.90564 566.9295999999999, 198.42536 524.4098799999999, 198.42536 524.4098799999999, 240.94508 566.9295999999999, 240.94508 566.9295999999999, 297.63804 524.4098799999999, 297.63804 524.4098799999999, 354.331 499.60671, 354.331 499.60671, 311.81128 432.28382, 311.81128 432.28382, 354.331 389.7641, 354.331 389.7641, 311.81128 347.24438, 311.81128 347.24438, 354.331 304.72466, 354.331 304.72466, 311.81128 262.20493999999997, 311.81128 262.20493999999997, 354.331 219.68522000000002, 354.331 219.68522000000002, 311.81128 177.1655, 311.81128 177.1655, 354.331 134.64578, 354.331 134.64578, 311.81128 67.32289, 311.81128 67.32289, 354.331 42.51972, 354.331 42.51972, 297.63804 0, 297.63804 0, 240.94508 42.51972, 240.94508 42.51972, 198.42536 0, 198.42536 0, 155.90564 42.51972, 155.90564 42.51972, 113.38592 0, 113.38592 0, 56.69296 42.51972, 56.69296 "/> 
</g>
<!-- Right--> 
<g transform="translate(1289.76484, 389.7641) " > 
<polygon style="stroke:#000000; fill:none; stroke-width:0.90000074" points="42.51972, 0 67.32289, 0 67.32289, 42.51972 134.64578, 42.51972 134.64578, 0 177.1655, 0 177.1655, 42.51972 219.68522000000002, 42.51972 219.68522000000002, 0 262.20493999999997, 0 262.20493999999997, 42.51972 304.72466, 42.51972 304.72466, 0 347.24438, 0 347.24438, 42.51972 389.7641, 42.51972 389.7641, 0 432.28382, 0 432.28382, 42.51972 499.60671, 42.51972 499.60671, 0 524.4098799999999, 0 524.4098799999999, 56.69296 566.9295999999999, 56.69296 566.9295999999999, 113.38592 524.4098799999999, 113.38592 524.4098799999999, 155.90564 566.9295999999999, 155.90564 566.9295999999999, 198.42536 524.4098799999999, 198.42536 524.4098799999999, 240.94508 566.9295999999999, 240.94508 566.9295999999999, 297.63804 524.4098799999999, 297.63804 524.4098799999999, 354.331 499.60671, 354.331 499.60671, 311.81128 432.28382, 311.81128 432.28382, 354.331 389.7641, 354.331 389.7641, 311.81128 347.24438, 311.81128 347.24438, 354.331 304.72466, 354.331 304.72466, 311.81128 262.20493999999997, 311.81128 262.20493999999997, 354.331 219.68522000000002, 354.331 219.68522000000002, 311.81128 177.1655, 311.81128 177.1655, 354.331 134.64578, 354.331 134.64578, 311.81128 67.32289, 311.81128 67.32289, 354.331 42.51972, 354.331 42.51972, 297.63804 0, 297.63804 0, 240.94508 42.51972, 240.94508 42.51972, 198.42536 0, 198.42536 0, 155.90564 42.51972, 155.90564 42.51972, 113.38592 0, 113.38592 0, 56.69296 42.51972, 56.69296 "/> 
</g>
<!-- Top--> 
<g transform="translate(35.433099999999996, 389.7641) " > 
<polygon style="stroke:#000000; fill:none; stroke-width:0.90000074" points="42.51972, 42.51972 61.1220975, 42.51972 61.1220975, 0 122.244195, 0 122.244195, 42.51972 164.763915, 42.51972 164.763915, 0 207.283635, 0 207.283635, 42.51972 249.803355, 42.51972 249.803355, 0 292.323075, 0 292.323075, 42.51972 334.842795, 42.51972 334.842795, 0 377.362515, 0 377.362515, 42.51972 419.882235, 42.51972 419.882235, 0 462.401955, 0 462.401955, 42.51972 504.921675, 42.51972 504.921675, 0 566.0437725, 0 566.0437725, 42.51972 584.64615, 42.51972 584.64615, 67.32289 627.16587, 67.32289 627.16587, 134.64578 584.64615, 134.64578 584.64615, 177.1655 627.16587, 177.1655 627.16587, 219.68522000000002 584.64615, 219.68522000000002 584.64615, 262.20493999999997 627.16587, 262.20493999999997 627.16587, 304.72466 584.64615, 304.72466 584.64615, 347.24438 627.16587, 347.24438 627.16587, 389.7641 584.64615, 389.7641 584.64615, 432.28382 627.16587, 432.28382 627.16587, 499.60671 584.64615, 499.60671 584.64615, 524.4098799999999 566.0437725, 524.4098799999999 566.0437725, 566.9295999999999 504.921675, 566.9295999999999 504.921675, 524.4098799999999 462.401955, 524.4098799999999 462.401955, 566.9295999999999 419.882235, 566.9295999999999 419.882235, 524.4098799999999 377.362515, 524.4098799999999 377.362515, 566.9295999999999 334.842795, 566.9295999999999 334.842795, 524.4098799999999 292.323075, 524.4098799999999 292.323075, 566.9295999999999 249.803355, 566.9295999999999 249.803355, 524.4098799999999 207.283635, 524.4098799999999 207.283635, 566.9295999999999 164.763915, 566.9295999999999 164.763915, 524.4098799999999 122.244195, 524.4098799999999 122.244195, 566.9295999999999 61.1220975, 566.9295999999999 61.1220975, 524.4098799999999 42.51972, 524.4098799999999 42.51972, 499.60671 0, 499.60671 0, 432.28382 42.51972, 432.28382 42.51972, 389.7641 0, 389.7641 0, 347.24438 42.51972, 347.24438 42.51972, 304.72466 0, 304.72466 0, 262.20493999999997 42.51972, 262.20493999999997 42.51972, 219.68522000000002 0, 219.68522000000002 0, 177.1655 42.51972, 177.1655 42.51972, 134.64578 0, 134.64578 0, 67.32289 42.51972, 67.32289 "/> 
</g>
<!-- Bottom--> 
<g transform="translate(662.59897, 389.7641) " > 
<polygon style="stroke:#000000; fill:none; stroke-width:0.90000074" points="42.51972, 42.51972 61.1220975, 42.51972 61.1220975, 0 122.244195, 0 122.244195, 42.51972 164.763915, 42.51972 164.763915, 0 207.283635, 0 207.283635, 42.51972 249.803355, 42.51972 249.803355, 0 292.323075, 0 292.323075, 42.51972 334.842795, 42.51972 334.842795, 0 377.362515, 0 377.362515, 42.51972 419.882235, 42.51972 419.882235, 0 462.401955, 0 462.401955, 42.51972 504.921675, 42.51972 504.921675, 0 566.0437725, 0 566.0437725, 42.51972 584.64615, 42.51972 584.64615, 67.32289 627.16587, 67.32289 627.16587, 134.64578 584.64615, 134.64578 584.64615, 177.1655 627.16587, 177.1655 627.16587, 219.68522000000002 584.64615, 219.68522000000002 584.64615, 262.20493999999997 627.16587, 262.20493999999997 627.16587, 304.72466 584.64615, 304.72466 584.64615, 347.24438 627.16587, 347.24438 627.16587, 389.7641 584.64615, 389.7641 584.64615, 432.28382 627.16587, 432.28382 627.16587, 499.60671 584.64615, 499.60671 584.64615, 524.4098799999999 566.0437725, 524.4098799999999 566.0437725, 566.9295999999999 504.921675, 566.9295999999999 504.921675, 524.4098799999999 462.401955, 524.4098799999999 462.401955, 566.9295999999999 419.882235, 566.9295999999999 419.882235, 524.4098799999999 377.362515, 524.4098799999999 377.362515, 566.9295999999999 334.842795, 566.9295999999999 334.842795, 524.4098799999999 292.323075, 524.4098799999999 292.323075, 566.9295999999999 249.803355, 566.9295999999999 249.803355, 524.4098799999999 207.283635, 524.4098799999999 207.283635, 566.9295999999999 164.763915, 566.9295999999999 164.763915, 524.4098799999999 122.244195, 524.4098799999999 122.244195, 566.9295999999999 61.1220975, 566.9295999999999 61.1220975, 524.4098799999999 42.51972, 524.4098799999999 42.51972, 499.60671 0, 499.60671 0, 432.28382 42.51972, 432.28382 42.51972, 389.7641 0, 389.7641 0, 347.24438 42.51972, 347.24438 42.51972, 304.72466 0, 304.72466 0, 262.20493999999997 42.51972, 262.20493999999997 42.51972, 219.68522000000002 0, 219.68522000000002 0, 177.1655 42.51972, 177.1655 42.51972, 134.64578 0, 134.64578 0, 67.32289 42.51972, 67.32289 "/> 
</g></svg>