<?xml version="1.0" encoding="utf-8"?>
<!-- Generator: Adobe Illustrator 16.0.0, SVG Export Plug-In . SVG Version: 6.00 Build 0)  -->
<!DOCTYPE svg PUBLIC "-//W3C//DTD SVG 1.1//EN" "http://www.w3.org/Graphics/SVG/1.1/DTD/svg11.dtd">
<svg version="1.1" id="Layer_1" xmlns="http://www.w3.org/2000/svg" xmlns:xlink="http://www.w3.org/1999/xlink" x="0px" y="0px"
	 width="377.509px" height="67.4px" viewBox="0 0 377.509 67.4" enable-background="new 0 0 377.509 67.4" xml:space="preserve">
<g>
	<path fill="#D7DF23" d="M0,34.2c0-5.466,0.866-10.315,2.6-14.55c1.733-4.233,4.065-7.8,7-10.7c2.933-2.9,6.315-5.115,10.15-6.65
		C23.583,0.768,27.6,0,31.8,0c4.133,0,7.883,0.851,11.25,2.55c3.365,1.7,6.215,3.718,8.55,6.051l-9.4,10.6
		c-1.6-1.4-3.167-2.482-4.7-3.25c-1.534-0.766-3.367-1.15-5.5-1.15c-1.934,0-3.784,0.435-5.55,1.301c-1.767,0.867-3.3,2.1-4.6,3.699
		c-1.3,1.601-2.334,3.567-3.1,5.9c-0.767,2.334-1.15,4.967-1.15,7.9c0,6.134,1.283,10.834,3.85,14.1c2.565,3.268,5.95,4.9,10.15,4.9
		c2.533,0,4.716-0.483,6.55-1.45c1.833-0.966,3.45-2.216,4.85-3.75L52.4,57.8c-2.8,3.2-6,5.601-9.6,7.2c-3.6,1.601-7.4,2.4-11.4,2.4
		c-4.267,0-8.3-0.685-12.1-2.05c-3.8-1.366-7.135-3.434-10-6.2c-2.867-2.766-5.135-6.233-6.8-10.4C0.833,44.585,0,39.734,0,34.2z"/>
	<path fill="#D7DF23" d="M145.9,66.2l-11.2-21.8h-6.6v21.8h-17.2v-65h24.6c3.466,0,6.783,0.334,9.95,1
		c3.166,0.667,5.933,1.8,8.3,3.4c2.366,1.6,4.25,3.75,5.65,6.449c1.4,2.7,2.1,6.085,2.1,10.15c0,4.667-0.95,8.534-2.85,11.6
		c-1.9,3.067-4.45,5.468-7.65,7.2l14.1,25.2H145.9z M128.1,30.8h6.2c6.933,0,10.4-2.865,10.4-8.6c0-2.8-0.884-4.732-2.65-5.8
		c-1.767-1.065-4.35-1.601-7.75-1.601h-6.2V30.8z"/>
	<path fill="#D7DF23" d="M219.509,34.2c0-5.466,0.865-10.315,2.6-14.55c1.733-4.233,4.066-7.8,7-10.7s6.316-5.115,10.15-6.65
		c3.833-1.532,7.85-2.3,12.051-2.3c4.133,0,7.883,0.851,11.25,2.55c3.365,1.7,6.215,3.718,8.549,6.051l-9.399,10.6
		c-1.601-1.4-3.167-2.482-4.7-3.25c-1.534-0.766-3.367-1.15-5.5-1.15c-1.934,0-3.784,0.435-5.55,1.301
		c-1.767,0.867-3.3,2.1-4.601,3.699c-1.299,1.601-2.334,3.567-3.1,5.9c-0.768,2.334-1.15,4.967-1.15,7.9
		c0,6.134,1.283,10.834,3.851,14.1c2.565,3.268,5.95,4.9,10.149,4.9c2.533,0,4.717-0.483,6.551-1.45
		c1.832-0.966,3.449-2.216,4.85-3.75l9.4,10.399c-2.801,3.2-6,5.601-9.6,7.2c-3.601,1.601-7.4,2.4-11.4,2.4
		c-4.268,0-8.301-0.685-12.1-2.05c-3.801-1.366-7.135-3.434-10-6.2c-2.867-2.766-5.135-6.233-6.801-10.4
		C220.342,44.585,219.509,39.734,219.509,34.2z"/>
	<path fill="#D7DF23" d="M337.309,46.3c2.333,1.867,4.85,3.385,7.55,4.551c2.7,1.167,5.25,1.75,7.65,1.75c2.6,0,4.482-0.4,5.649-1.2
		c1.166-0.8,1.75-1.933,1.75-3.4c0-0.8-0.199-1.466-0.6-2c-0.4-0.532-0.984-1.032-1.75-1.5c-0.768-0.466-1.685-0.915-2.75-1.35
		c-1.067-0.433-2.3-0.916-3.7-1.45l-8.1-3.4c-1.734-0.665-3.4-1.55-5-2.649c-1.601-1.101-3-2.4-4.2-3.9s-2.15-3.216-2.85-5.149
		c-0.7-1.934-1.051-4.066-1.051-6.4c0-2.8,0.601-5.416,1.801-7.85c1.199-2.434,2.865-4.566,5-6.4
		c2.133-1.833,4.683-3.283,7.649-4.35C347.324,0.534,350.574,0,354.108,0c3.733,0,7.516,0.7,11.351,2.101
		c3.832,1.399,7.25,3.6,10.25,6.6l-8.601,10.8c-2.2-1.532-4.317-2.7-6.35-3.5c-2.034-0.8-4.25-1.2-6.65-1.2
		c-2.134,0-3.8,0.367-5,1.101c-1.2,0.734-1.8,1.834-1.8,3.3c0,1.534,0.85,2.717,2.55,3.55c1.7,0.835,4.05,1.817,7.05,2.95l7.9,3.1
		c4.065,1.601,7.2,3.835,9.4,6.7c2.199,2.867,3.3,6.567,3.3,11.101c0,2.734-0.567,5.367-1.7,7.899
		c-1.135,2.534-2.784,4.75-4.95,6.65c-2.167,1.899-4.817,3.417-7.95,4.55c-3.134,1.133-6.734,1.7-10.8,1.7
		c-4.134,0-8.384-0.75-12.75-2.25c-4.367-1.5-8.317-3.851-11.85-7.05L337.309,46.3z"/>
	<g>
		<polygon fill="#D7DF23" points="163.398,66.2 180.999,66.2 184.198,52.4 184.398,51.54 167.864,51.54 		"/>
		<polygon fill="#D7DF23" points="202.398,52.4 205.599,66.2 223.799,66.2 219.333,51.54 202.198,51.54 		"/>
		<polygon fill="#D7DF23" points="203.999,1.2 183.198,1.2 179.037,14.859 208.16,14.859 		"/>
		<polygon fill="#D7DF23" points="175.382,26.859 171.52,39.54 215.678,39.54 211.815,26.859 		"/>
	</g>
	<g>
		<polygon fill="#D7DF23" points="49.63,66.2 67.23,66.2 70.43,52.4 70.63,51.54 54.096,51.54 		"/>
		<polygon fill="#D7DF23" points="88.63,52.4 91.83,66.2 110.03,66.2 105.564,51.54 88.43,51.54 		"/>
		<polygon fill="#D7DF23" points="90.23,1.2 69.43,1.2 65.269,14.859 94.392,14.859 		"/>
		<polygon fill="#D7DF23" points="61.613,26.859 57.751,39.54 101.909,39.54 98.047,26.859 		"/>
	</g>
	<g>
		<polygon fill="#D7DF23" points="269.138,66.2 286.739,66.2 289.938,52.4 290.138,51.54 273.604,51.54 		"/>
		<polygon fill="#D7DF23" points="308.138,52.4 311.339,66.2 329.538,66.2 325.073,51.54 307.938,51.54 		"/>
		<polygon fill="#D7DF23" points="309.739,1.2 288.938,1.2 284.776,14.859 313.899,14.859 		"/>
		<polygon fill="#D7DF23" points="281.122,26.859 277.259,39.54 321.417,39.54 317.556,26.859 		"/>
	</g>
</g>
</svg>
