  0
SECTION
  2
HEADER
  9
$ACADVER
  1
AC1009
  9
$INSBASE
 10
0.0
 20
0.0
 30
0.0
  9
$EXTMIN
 10
0.0
 20
0.0
 30
0.0
  9
$EXTMAX
 10
0.0
 20
0.0
 30
0.0
  0
ENDSEC
  0
SECTION
  2
TABLES
  0
TABLE
  2
VPORT
 70
0
  0
ENDTAB
  0
TABLE
  2
LTYPE
 70
1
  0
LTYPE
  2
CONTINUOUS
 70
0
  3
Solid line
 72
65
 73
0
 40
0.0
  0
ENDTAB
  0
TABLE
  2
LAYER
 70
1
  0
LAYER
  2
0
 70
64
 62
7
  6
continuous
  0
ENDTAB
  0
TABLE
  2
STYLE
 70
1
  0
STYLE
  2
STANDARD
 70
0
 40
0
 41
1.0
 50
0.0
 71
0
 42
1
 3
ARIAL.TTF
 4

  0
ENDTAB
  0
TABLE
  2
VIEW
 70
0
  0
ENDTAB
  0
ENDSEC
  0
SECTION
  2
BLOCKS
  0
BLOCK
  8
0
  2
PAD
 70
0
 10
0.0
 20
0.0
 30
0.0
  3
PAD
  0
LINE
  8
0
 62
0
 10
0.0
 20
0.0
 30
0.0
 11
202.5
 21
0.0
 31
0.0
  0
LINE
  8
0
 62
0
 10
202.5
 20
0.0
 30
0.0
 11
202.5
 21
102.9
 31
0.0
  0
LINE
  8
0
 62
0
 10
202.5
 20
102.9
 30
0.0
 11
0.0
 21
102.9
 31
0.0
  0
LINE
  8
0
 62
0
 10
0.0
 20
102.9
 30
0.0
 11
0.0
 21
0.0
 31
0.0
  0
ENDBLK
  0
BLOCK
  8
0
  2
POCKET
 70
0
 10
0.0
 20
0.0
 30
0.0
  3
POCKET
  0
LINE
  8
0
 62
0
 10
0.0
 20
0.0
 30
0.0
 11
202.5
 21
0.0
 31
0.0
  0
LINE
  8
0
 62
0
 10
0.0
 20
102.9
 30
0.0
 11
0.0
 21
0.0
 31
0.0
  0
LINE
  8
0
 62
0
 10
202.5
 20
0.0
 30
0.0
 11
202.5
 21
102.9
 31
0.0
  0
LINE
  8
0
 62
0
 10
202.5
 20
102.9
 30
0.0
 11
0.0
 21
102.9
 31
0.0
  0
LINE
  8
0
 62
0
 10
161.75
 20
89.95
 30
0.0
 11
161.75
 21
12.95
 31
0.0
  0
LINE
  8
0
 62
0
 10
161.75
 20
12.95
 30
0.0
 11
40.75
 21
12.95
 31
0.0
  0
LINE
  8
0
 62
0
 10
40.75
 20
12.95
 30
0.0
 11
40.75
 21
89.95
 31
0.0
  0
LINE
  8
0
 62
0
 10
40.75
 20
89.95
 30
0.0
 11
161.75
 21
89.95
 31
0.0
  0
LINE
  8
0
 62
0
 10
161.75
 20
89.95
 30
0.0
 11
161.75
 21
12.95
 31
0.0
  0
ENDBLK
  0
BLOCK
  8
0
  2
POCKET001
 70
0
 10
0.0
 20
0.0
 30
0.0
  3
POCKET001
  0
LINE
  8
0
 62
0
 10
0.0
 20
0.0
 30
0.0
 11
202.5
 21
0.0
 31
0.0
  0
LINE
  8
0
 62
0
 10
0.0
 20
102.9
 30
0.0
 11
0.0
 21
0.0
 31
0.0
  0
LINE
  8
0
 62
0
 10
202.5
 20
0.0
 30
0.0
 11
202.5
 21
102.9
 31
0.0
  0
LINE
  8
0
 62
0
 10
202.5
 20
102.9
 30
0.0
 11
0.0
 21
102.9
 31
0.0
  0
LINE
  8
0
 62
0
 10
161.75
 20
89.95
 30
0.0
 11
161.75
 21
12.95
 31
0.0
  0
LINE
  8
0
 62
0
 10
161.75
 20
12.95
 30
0.0
 11
40.75
 21
12.95
 31
0.0
  0
LINE
  8
0
 62
0
 10
40.75
 20
12.95
 30
0.0
 11
40.75
 21
89.95
 31
0.0
  0
LINE
  8
0
 62
0
 10
40.75
 20
89.95
 30
0.0
 11
161.75
 21
89.95
 31
0.0
  0
LINE
  8
0
 62
0
 10
46.95
 20
20.15
 30
0.0
 11
46.95
 21
86.35
 31
0.0
  0
LINE
  8
0
 62
0
 10
46.95
 20
86.35
 30
0.0
 11
155.15
 21
86.35
 31
0.0
  0
LINE
  8
0
 62
0
 10
155.15
 20
86.35
 30
0.0
 11
155.15
 21
20.15
 31
0.0
  0
LINE
  8
0
 62
0
 10
155.15
 20
20.15
 30
0.0
 11
46.95
 21
20.15
 31
0.0
  0
LINE
  8
0
 62
0
 10
161.75
 20
89.95
 30
0.0
 11
161.75
 21
12.95
 31
0.0
  0
ENDBLK
  0
BLOCK
  8
0
  2
POCKET002
 70
0
 10
0.0
 20
0.0
 30
0.0
  3
POCKET002
  0
LINE
  8
0
 62
0
 10
0.0
 20
0.0
 30
0.0
 11
202.5
 21
0.0
 31
0.0
  0
LINE
  8
0
 62
0
 10
0.0
 20
102.9
 30
0.0
 11
0.0
 21
0.0
 31
0.0
  0
LINE
  8
0
 62
0
 10
202.5
 20
0.0
 30
0.0
 11
202.5
 21
102.9
 31
0.0
  0
LINE
  8
0
 62
0
 10
202.5
 20
102.9
 30
0.0
 11
0.0
 21
102.9
 31
0.0
  0
LINE
  8
0
 62
0
 10
161.75
 20
89.95
 30
0.0
 11
161.75
 21
12.95
 31
0.0
  0
LINE
  8
0
 62
0
 10
40.75
 20
89.95
 30
0.0
 11
161.75
 21
89.95
 31
0.0
  0
LINE
  8
0
 62
0
 10
161.75
 20
12.95
 30
0.0
 11
40.75
 21
12.95
 31
0.0
  0
LINE
  8
0
 62
0
 10
40.75
 20
12.95
 30
0.0
 11
40.75
 21
89.95
 31
0.0
  0
CIRCLE
  8
0
 62
0
 10
44.75
 20
8.35
 30
0.0
 40
1.5
  0
CIRCLE
  8
0
 62
0
 10
157.75
 20
8.35
 30
0.0
 40
1.5
  0
CIRCLE
  8
0
 62
0
 10
157.75
 20
93.95
 30
0.0
 40
1.5
  0
CIRCLE
  8
0
 62
0
 10
44.75
 20
93.95
 30
0.0
 40
1.5
  0
LINE
  8
0
 62
0
 10
46.95
 20
20.15
 30
0.0
 11
46.95
 21
86.35
 31
0.0
  0
LINE
  8
0
 62
0
 10
46.95
 20
86.35
 30
0.0
 11
155.15
 21
86.35
 31
0.0
  0
LINE
  8
0
 62
0
 10
155.15
 20
86.35
 30
0.0
 11
155.15
 21
20.15
 31
0.0
  0
LINE
  8
0
 62
0
 10
155.15
 20
20.15
 30
0.0
 11
46.95
 21
20.15
 31
0.0
  0
LINE
  8
0
 62
0
 10
161.75
 20
89.95
 30
0.0
 11
161.75
 21
12.95
 31
0.0
  0
ENDBLK
  0
BLOCK
  8
0
  2
POCKET003
 70
0
 10
0.0
 20
0.0
 30
0.0
  3
POCKET003
  0
LINE
  8
0
 62
0
 10
0.0
 20
0.0
 30
0.0
 11
202.5
 21
0.0
 31
0.0
  0
LINE
  8
0
 62
0
 10
0.0
 20
102.9
 30
0.0
 11
0.0
 21
0.0
 31
0.0
  0
LINE
  8
0
 62
0
 10
202.5
 20
0.0
 30
0.0
 11
202.5
 21
102.9
 31
0.0
  0
LINE
  8
0
 62
0
 10
202.5
 20
102.9
 30
0.0
 11
0.0
 21
102.9
 31
0.0
  0
LINE
  8
0
 62
0
 10
161.75
 20
89.95
 30
0.0
 11
161.75
 21
12.95
 31
0.0
  0
LINE
  8
0
 62
0
 10
40.75
 20
89.95
 30
0.0
 11
161.75
 21
89.95
 31
0.0
  0
LINE
  8
0
 62
0
 10
161.75
 20
12.95
 30
0.0
 11
40.75
 21
12.95
 31
0.0
  0
LINE
  8
0
 62
0
 10
40.75
 20
12.95
 30
0.0
 11
40.75
 21
89.95
 31
0.0
  0
CIRCLE
  8
0
 62
0
 10
44.75
 20
8.35
 30
0.0
 40
1.5
  0
CIRCLE
  8
0
 62
0
 10
157.75
 20
8.35
 30
0.0
 40
1.5
  0
CIRCLE
  8
0
 62
0
 10
157.75
 20
93.95
 30
0.0
 40
1.5
  0
CIRCLE
  8
0
 62
0
 10
44.75
 20
93.95
 30
0.0
 40
1.5
  0
CIRCLE
  8
0
 62
0
 10
178.825
 20
76.35
 30
0.0
 40
8.5
  0
LINE
  8
0
 62
0
 10
46.95
 20
20.15
 30
0.0
 11
46.95
 21
86.35
 31
0.0
  0
LINE
  8
0
 62
0
 10
46.95
 20
86.35
 30
0.0
 11
155.15
 21
86.35
 31
0.0
  0
LINE
  8
0
 62
0
 10
155.15
 20
20.15
 30
0.0
 11
46.95
 21
20.15
 31
0.0
  0
LINE
  8
0
 62
0
 10
155.15
 20
86.35
 30
0.0
 11
155.15
 21
20.15
 31
0.0
  0
LINE
  8
0
 62
0
 10
161.75
 20
89.95
 30
0.0
 11
161.75
 21
12.95
 31
0.0
  0
ENDBLK
  0
ENDSEC
  0
SECTION
  2
ENTITIES
  0
INSERT
  2
PAD
  8
0
 10
0.0
 20
0.0
 30
0.0
  0
INSERT
  2
POCKET
  8
0
 10
0.0
 20
0.0
 30
0.0
  0
INSERT
  2
POCKET001
  8
0
 10
0.0
 20
0.0
 30
0.0
  0
INSERT
  2
POCKET002
  8
0
 10
0.0
 20
0.0
 30
0.0
  0
INSERT
  2
POCKET003
  8
0
 10
0.0
 20
0.0
 30
0.0
  0
ENDSEC
  0
EOF
