G75*
%MOIN*%
%OFA0B0*%
%FSLAX24Y24*%
%IPPOS*%
%LPD*%
%AMOC8*
5,1,8,0,0,1.08239X$1,22.5*
%
%ADD10C,0.0160*%
%ADD11C,0.0120*%
%ADD12C,0.0000*%
%ADD13C,0.0050*%
%ADD14C,0.0040*%
%ADD15C,0.0060*%
%ADD16C,0.0030*%
%ADD17R,0.0240X0.0340*%
%ADD18C,0.0100*%
%ADD19R,0.0340X0.0240*%
D10*
X001461Y000280D02*
X024689Y000280D01*
X024755Y000282D01*
X024821Y000287D01*
X024887Y000297D01*
X024952Y000310D01*
X025016Y000326D01*
X025079Y000346D01*
X025141Y000370D01*
X025201Y000397D01*
X025260Y000427D01*
X025317Y000461D01*
X025372Y000498D01*
X025425Y000538D01*
X025476Y000580D01*
X025524Y000626D01*
X025570Y000674D01*
X025612Y000725D01*
X025652Y000778D01*
X025689Y000833D01*
X025723Y000890D01*
X025753Y000949D01*
X025780Y001009D01*
X025804Y001071D01*
X025824Y001134D01*
X025840Y001198D01*
X025853Y001263D01*
X025863Y001329D01*
X025868Y001395D01*
X025870Y001461D01*
X025871Y001461D02*
X025871Y021343D01*
X025870Y021343D02*
X025868Y021409D01*
X025863Y021475D01*
X025853Y021541D01*
X025840Y021606D01*
X025824Y021670D01*
X025804Y021733D01*
X025780Y021795D01*
X025753Y021855D01*
X025723Y021914D01*
X025689Y021971D01*
X025652Y022026D01*
X025612Y022079D01*
X025570Y022130D01*
X025524Y022178D01*
X025476Y022224D01*
X025425Y022266D01*
X025372Y022306D01*
X025317Y022343D01*
X025260Y022377D01*
X025201Y022407D01*
X025141Y022434D01*
X025079Y022458D01*
X025016Y022478D01*
X024952Y022494D01*
X024887Y022507D01*
X024821Y022517D01*
X024755Y022522D01*
X024689Y022524D01*
X001461Y022524D02*
X001395Y022522D01*
X001329Y022517D01*
X001263Y022507D01*
X001198Y022494D01*
X001134Y022478D01*
X001071Y022458D01*
X001009Y022434D01*
X000949Y022407D01*
X000890Y022377D01*
X000833Y022343D01*
X000778Y022306D01*
X000725Y022266D01*
X000674Y022224D01*
X000626Y022178D01*
X000580Y022130D01*
X000538Y022079D01*
X000498Y022026D01*
X000461Y021971D01*
X000427Y021914D01*
X000397Y021855D01*
X000370Y021795D01*
X000346Y021733D01*
X000326Y021670D01*
X000310Y021606D01*
X000297Y021541D01*
X000287Y021475D01*
X000282Y021409D01*
X000280Y021343D01*
X000280Y001461D01*
X000282Y001395D01*
X000287Y001329D01*
X000297Y001263D01*
X000310Y001198D01*
X000326Y001134D01*
X000346Y001071D01*
X000370Y001009D01*
X000397Y000949D01*
X000427Y000890D01*
X000461Y000833D01*
X000498Y000778D01*
X000538Y000725D01*
X000580Y000674D01*
X000626Y000626D01*
X000674Y000580D01*
X000725Y000538D01*
X000778Y000498D01*
X000833Y000461D01*
X000890Y000427D01*
X000949Y000397D01*
X001009Y000370D01*
X001071Y000346D01*
X001134Y000326D01*
X001198Y000310D01*
X001263Y000297D01*
X001329Y000287D01*
X001395Y000282D01*
X001461Y000280D01*
D11*
X001461Y022524D02*
X024689Y022524D01*
D12*
X023952Y021146D02*
X023954Y021192D01*
X023960Y021237D01*
X023969Y021282D01*
X023983Y021326D01*
X024000Y021369D01*
X024021Y021410D01*
X024045Y021449D01*
X024072Y021486D01*
X024102Y021520D01*
X024136Y021552D01*
X024171Y021581D01*
X024209Y021607D01*
X024249Y021629D01*
X024291Y021648D01*
X024335Y021663D01*
X024379Y021675D01*
X024424Y021683D01*
X024470Y021687D01*
X024516Y021687D01*
X024562Y021683D01*
X024607Y021675D01*
X024651Y021663D01*
X024695Y021648D01*
X024737Y021629D01*
X024777Y021607D01*
X024815Y021581D01*
X024850Y021552D01*
X024884Y021520D01*
X024914Y021486D01*
X024941Y021449D01*
X024965Y021410D01*
X024986Y021369D01*
X025003Y021326D01*
X025017Y021282D01*
X025026Y021237D01*
X025032Y021192D01*
X025034Y021146D01*
X025032Y021100D01*
X025026Y021055D01*
X025017Y021010D01*
X025003Y020966D01*
X024986Y020923D01*
X024965Y020882D01*
X024941Y020843D01*
X024914Y020806D01*
X024884Y020772D01*
X024850Y020740D01*
X024815Y020711D01*
X024777Y020685D01*
X024737Y020663D01*
X024695Y020644D01*
X024651Y020629D01*
X024607Y020617D01*
X024562Y020609D01*
X024516Y020605D01*
X024470Y020605D01*
X024424Y020609D01*
X024379Y020617D01*
X024335Y020629D01*
X024291Y020644D01*
X024249Y020663D01*
X024209Y020685D01*
X024171Y020711D01*
X024136Y020740D01*
X024102Y020772D01*
X024072Y020806D01*
X024045Y020843D01*
X024021Y020882D01*
X024000Y020923D01*
X023983Y020966D01*
X023969Y021010D01*
X023960Y021055D01*
X023954Y021100D01*
X023952Y021146D01*
X019136Y011085D02*
X019134Y011106D01*
X019129Y011126D01*
X019120Y011145D01*
X019108Y011162D01*
X019093Y011177D01*
X019076Y011189D01*
X019057Y011198D01*
X019037Y011203D01*
X019016Y011205D01*
X018995Y011203D01*
X018975Y011198D01*
X018956Y011189D01*
X018939Y011177D01*
X018924Y011162D01*
X018912Y011145D01*
X018903Y011126D01*
X018898Y011106D01*
X018896Y011085D01*
X023952Y001658D02*
X023954Y001704D01*
X023960Y001749D01*
X023969Y001794D01*
X023983Y001838D01*
X024000Y001881D01*
X024021Y001922D01*
X024045Y001961D01*
X024072Y001998D01*
X024102Y002032D01*
X024136Y002064D01*
X024171Y002093D01*
X024209Y002119D01*
X024249Y002141D01*
X024291Y002160D01*
X024335Y002175D01*
X024379Y002187D01*
X024424Y002195D01*
X024470Y002199D01*
X024516Y002199D01*
X024562Y002195D01*
X024607Y002187D01*
X024651Y002175D01*
X024695Y002160D01*
X024737Y002141D01*
X024777Y002119D01*
X024815Y002093D01*
X024850Y002064D01*
X024884Y002032D01*
X024914Y001998D01*
X024941Y001961D01*
X024965Y001922D01*
X024986Y001881D01*
X025003Y001838D01*
X025017Y001794D01*
X025026Y001749D01*
X025032Y001704D01*
X025034Y001658D01*
X025032Y001612D01*
X025026Y001567D01*
X025017Y001522D01*
X025003Y001478D01*
X024986Y001435D01*
X024965Y001394D01*
X024941Y001355D01*
X024914Y001318D01*
X024884Y001284D01*
X024850Y001252D01*
X024815Y001223D01*
X024777Y001197D01*
X024737Y001175D01*
X024695Y001156D01*
X024651Y001141D01*
X024607Y001129D01*
X024562Y001121D01*
X024516Y001117D01*
X024470Y001117D01*
X024424Y001121D01*
X024379Y001129D01*
X024335Y001141D01*
X024291Y001156D01*
X024249Y001175D01*
X024209Y001197D01*
X024171Y001223D01*
X024136Y001252D01*
X024102Y001284D01*
X024072Y001318D01*
X024045Y001355D01*
X024021Y001394D01*
X024000Y001435D01*
X023983Y001478D01*
X023969Y001522D01*
X023960Y001567D01*
X023954Y001612D01*
X023952Y001658D01*
X001117Y001658D02*
X001119Y001704D01*
X001125Y001749D01*
X001134Y001794D01*
X001148Y001838D01*
X001165Y001881D01*
X001186Y001922D01*
X001210Y001961D01*
X001237Y001998D01*
X001267Y002032D01*
X001301Y002064D01*
X001336Y002093D01*
X001374Y002119D01*
X001414Y002141D01*
X001456Y002160D01*
X001500Y002175D01*
X001544Y002187D01*
X001589Y002195D01*
X001635Y002199D01*
X001681Y002199D01*
X001727Y002195D01*
X001772Y002187D01*
X001816Y002175D01*
X001860Y002160D01*
X001902Y002141D01*
X001942Y002119D01*
X001980Y002093D01*
X002015Y002064D01*
X002049Y002032D01*
X002079Y001998D01*
X002106Y001961D01*
X002130Y001922D01*
X002151Y001881D01*
X002168Y001838D01*
X002182Y001794D01*
X002191Y001749D01*
X002197Y001704D01*
X002199Y001658D01*
X002197Y001612D01*
X002191Y001567D01*
X002182Y001522D01*
X002168Y001478D01*
X002151Y001435D01*
X002130Y001394D01*
X002106Y001355D01*
X002079Y001318D01*
X002049Y001284D01*
X002015Y001252D01*
X001980Y001223D01*
X001942Y001197D01*
X001902Y001175D01*
X001860Y001156D01*
X001816Y001141D01*
X001772Y001129D01*
X001727Y001121D01*
X001681Y001117D01*
X001635Y001117D01*
X001589Y001121D01*
X001544Y001129D01*
X001500Y001141D01*
X001456Y001156D01*
X001414Y001175D01*
X001374Y001197D01*
X001336Y001223D01*
X001301Y001252D01*
X001267Y001284D01*
X001237Y001318D01*
X001210Y001355D01*
X001186Y001394D01*
X001165Y001435D01*
X001148Y001478D01*
X001134Y001522D01*
X001125Y001567D01*
X001119Y001612D01*
X001117Y001658D01*
X001117Y021146D02*
X001119Y021192D01*
X001125Y021237D01*
X001134Y021282D01*
X001148Y021326D01*
X001165Y021369D01*
X001186Y021410D01*
X001210Y021449D01*
X001237Y021486D01*
X001267Y021520D01*
X001301Y021552D01*
X001336Y021581D01*
X001374Y021607D01*
X001414Y021629D01*
X001456Y021648D01*
X001500Y021663D01*
X001544Y021675D01*
X001589Y021683D01*
X001635Y021687D01*
X001681Y021687D01*
X001727Y021683D01*
X001772Y021675D01*
X001816Y021663D01*
X001860Y021648D01*
X001902Y021629D01*
X001942Y021607D01*
X001980Y021581D01*
X002015Y021552D01*
X002049Y021520D01*
X002079Y021486D01*
X002106Y021449D01*
X002130Y021410D01*
X002151Y021369D01*
X002168Y021326D01*
X002182Y021282D01*
X002191Y021237D01*
X002197Y021192D01*
X002199Y021146D01*
X002197Y021100D01*
X002191Y021055D01*
X002182Y021010D01*
X002168Y020966D01*
X002151Y020923D01*
X002130Y020882D01*
X002106Y020843D01*
X002079Y020806D01*
X002049Y020772D01*
X002015Y020740D01*
X001980Y020711D01*
X001942Y020685D01*
X001902Y020663D01*
X001860Y020644D01*
X001816Y020629D01*
X001772Y020617D01*
X001727Y020609D01*
X001681Y020605D01*
X001635Y020605D01*
X001589Y020609D01*
X001544Y020617D01*
X001500Y020629D01*
X001456Y020644D01*
X001414Y020663D01*
X001374Y020685D01*
X001336Y020711D01*
X001301Y020740D01*
X001267Y020772D01*
X001237Y020806D01*
X001210Y020843D01*
X001186Y020882D01*
X001165Y020923D01*
X001148Y020966D01*
X001134Y021010D01*
X001125Y021055D01*
X001119Y021100D01*
X001117Y021146D01*
D13*
X003400Y019625D02*
X003550Y019775D01*
X003550Y019324D01*
X003400Y019324D02*
X003701Y019324D01*
X009180Y013880D02*
X010755Y013880D01*
X010755Y011911D01*
X009180Y011911D01*
X009180Y013880D01*
X008880Y010280D02*
X010455Y010280D01*
X010455Y008311D01*
X008880Y008311D01*
X008880Y010280D01*
X009398Y007406D02*
X001406Y007406D01*
X001406Y003406D01*
X001406Y003390D02*
X009398Y003390D01*
X009406Y003406D02*
X009406Y007406D01*
X012255Y006806D02*
X014223Y006806D01*
X014223Y008381D01*
X012255Y008381D01*
X012255Y006806D01*
X008910Y003011D02*
X008685Y003011D01*
X008685Y002561D01*
X008685Y002711D02*
X008910Y002711D01*
X008985Y002786D01*
X008985Y002936D01*
X008910Y003011D01*
X008835Y002711D02*
X008985Y002561D01*
X008915Y002261D02*
X008915Y001811D01*
X009215Y001811D01*
X008755Y001811D02*
X008605Y001961D01*
X008680Y001961D02*
X008455Y001961D01*
X008455Y001811D02*
X008455Y002261D01*
X008680Y002261D01*
X008755Y002186D01*
X008755Y002036D01*
X008680Y001961D01*
X008294Y002261D02*
X007994Y002261D01*
X008144Y002261D02*
X008144Y001811D01*
X007834Y001886D02*
X007759Y001811D01*
X007609Y001811D01*
X007534Y001886D01*
X007534Y002186D01*
X007609Y002261D01*
X007759Y002261D01*
X007834Y002186D01*
X007764Y002561D02*
X007764Y003011D01*
X007989Y003011D01*
X008064Y002936D01*
X008064Y002786D01*
X007989Y002711D01*
X007764Y002711D01*
X008224Y002561D02*
X008224Y003011D01*
X008525Y003011D02*
X008525Y002561D01*
X008375Y002711D01*
X008224Y002561D01*
X007207Y002711D02*
X007207Y003011D01*
X006907Y003011D02*
X006907Y002711D01*
X007057Y002561D01*
X007207Y002711D01*
X006747Y002561D02*
X006447Y002561D01*
X006747Y002861D01*
X006747Y002936D01*
X006672Y003011D01*
X006522Y003011D01*
X006447Y002936D01*
X006136Y003011D02*
X006136Y002561D01*
X005986Y002561D02*
X006287Y002561D01*
X006215Y002261D02*
X006140Y002186D01*
X006140Y001886D01*
X006215Y001811D01*
X006365Y001811D01*
X006440Y001886D01*
X006440Y002036D01*
X006290Y002036D01*
X006440Y002186D02*
X006365Y002261D01*
X006215Y002261D01*
X005983Y002261D02*
X005833Y002261D01*
X005908Y002261D02*
X005908Y001811D01*
X005833Y001811D02*
X005983Y001811D01*
X006600Y001811D02*
X006600Y002261D01*
X006900Y001811D01*
X006900Y002261D01*
X006136Y003011D02*
X005986Y002861D01*
X005826Y002786D02*
X005526Y002786D01*
X005676Y002936D02*
X005676Y002636D01*
X005200Y002711D02*
X005200Y003011D01*
X004899Y003011D02*
X004899Y002711D01*
X005049Y002561D01*
X005200Y002711D01*
X004739Y002561D02*
X004439Y002561D01*
X004739Y002861D01*
X004739Y002936D01*
X004664Y003011D01*
X004514Y003011D01*
X004439Y002936D01*
X004129Y003011D02*
X004129Y002561D01*
X004279Y002561D02*
X003978Y002561D01*
X003818Y002786D02*
X003518Y002786D01*
X003668Y002936D02*
X003668Y002636D01*
X003978Y002861D02*
X004129Y003011D01*
X003001Y002936D02*
X003001Y002636D01*
X002926Y002561D01*
X002701Y002561D01*
X002701Y003011D01*
X002926Y003011D01*
X003001Y002936D01*
X002540Y003011D02*
X002540Y002561D01*
X002240Y003011D01*
X002240Y002561D01*
X002080Y002636D02*
X002080Y002786D01*
X001930Y002786D01*
X002080Y002636D02*
X002005Y002561D01*
X001855Y002561D01*
X001780Y002636D01*
X001780Y002936D01*
X001855Y003011D01*
X002005Y003011D01*
X002080Y002936D01*
X022325Y022124D02*
X022325Y022575D01*
X022100Y022349D01*
X022401Y022349D01*
X022561Y022199D02*
X022636Y022124D01*
X022786Y022124D01*
X022861Y022199D01*
X022861Y022500D01*
X022561Y022199D01*
X022561Y022500D01*
X022636Y022575D01*
X022786Y022575D01*
X022861Y022500D01*
D14*
X022968Y019560D02*
X023088Y019440D01*
X023088Y019200D01*
X023216Y019200D02*
X023396Y019200D01*
X023456Y019260D01*
X023456Y019500D01*
X023396Y019560D01*
X023216Y019560D01*
X023216Y019200D01*
X023088Y019380D02*
X022848Y019380D01*
X022848Y019440D02*
X022848Y019200D01*
X022848Y019440D02*
X022968Y019560D01*
X023584Y019500D02*
X023584Y019260D01*
X023644Y019200D01*
X023764Y019200D01*
X023824Y019260D01*
X023824Y019500D02*
X023764Y019560D01*
X023644Y019560D01*
X023584Y019500D01*
X025000Y018496D02*
X025060Y018556D01*
X025120Y018556D01*
X025180Y018496D01*
X025180Y018376D01*
X025120Y018316D01*
X025060Y018316D01*
X025000Y018376D01*
X025000Y018496D01*
X025180Y018496D02*
X025240Y018556D01*
X025300Y018556D01*
X025360Y018496D01*
X025360Y018376D01*
X025300Y018316D01*
X025240Y018316D01*
X025180Y018376D01*
X025060Y017556D02*
X025300Y017316D01*
X025360Y017316D01*
X025000Y017316D02*
X025000Y017556D01*
X025060Y017556D01*
X025000Y016556D02*
X025060Y016436D01*
X025180Y016316D01*
X025180Y016496D01*
X025240Y016556D01*
X025300Y016556D01*
X025360Y016496D01*
X025360Y016376D01*
X025300Y016316D01*
X025180Y016316D01*
X025180Y015556D02*
X025300Y015556D01*
X025360Y015496D01*
X025360Y015376D01*
X025300Y015316D01*
X025180Y015316D02*
X025120Y015436D01*
X025120Y015496D01*
X025180Y015556D01*
X025000Y015556D02*
X025000Y015316D01*
X025180Y015316D01*
X025180Y014556D02*
X025180Y014316D01*
X025000Y014496D01*
X025360Y014496D01*
X025300Y013556D02*
X025360Y013496D01*
X025360Y013376D01*
X025300Y013316D01*
X025180Y013436D02*
X025180Y013496D01*
X025240Y013556D01*
X025300Y013556D01*
X025180Y013496D02*
X025120Y013556D01*
X025060Y013556D01*
X025000Y013496D01*
X025000Y013376D01*
X025060Y013316D01*
X025060Y012556D02*
X025000Y012496D01*
X025000Y012376D01*
X025060Y012316D01*
X025060Y012556D02*
X025120Y012556D01*
X025360Y012316D01*
X025360Y012556D01*
X025360Y011556D02*
X025360Y011316D01*
X025360Y011436D02*
X025000Y011436D01*
X025120Y011316D01*
X025240Y010572D02*
X025000Y010572D01*
X025240Y010572D02*
X025360Y010452D01*
X025240Y010332D01*
X025000Y010332D01*
X025060Y010204D02*
X025120Y010204D01*
X025180Y010144D01*
X025240Y010204D01*
X025300Y010204D01*
X025360Y010144D01*
X025360Y010023D01*
X025300Y009963D01*
X025300Y009839D02*
X025360Y009839D01*
X025360Y009779D01*
X025300Y009779D01*
X025300Y009839D01*
X025300Y009651D02*
X025360Y009591D01*
X025360Y009471D01*
X025300Y009411D01*
X025180Y009531D02*
X025180Y009591D01*
X025240Y009651D01*
X025300Y009651D01*
X025180Y009591D02*
X025120Y009651D01*
X025060Y009651D01*
X025000Y009591D01*
X025000Y009471D01*
X025060Y009411D01*
X025180Y009283D02*
X025180Y009043D01*
X025060Y009163D02*
X025300Y009163D01*
X025060Y009963D02*
X025000Y010023D01*
X025000Y010144D01*
X025060Y010204D01*
X025180Y010144D02*
X025180Y010083D01*
X024260Y009137D02*
X024200Y009137D01*
X023960Y009377D01*
X023900Y009377D01*
X023900Y009137D01*
X023900Y008888D02*
X024260Y008888D01*
X024260Y008768D02*
X024260Y009009D01*
X024020Y008768D02*
X023900Y008888D01*
X023960Y008640D02*
X024080Y008640D01*
X024140Y008580D01*
X024140Y008400D01*
X024260Y008400D02*
X023900Y008400D01*
X023900Y008580D01*
X023960Y008640D01*
X024140Y008520D02*
X024260Y008640D01*
X023160Y008517D02*
X023160Y008397D01*
X023100Y008337D01*
X022980Y008337D01*
X022980Y008517D01*
X023040Y008577D01*
X023100Y008577D01*
X023160Y008517D01*
X022980Y008337D02*
X022860Y008457D01*
X022800Y008577D01*
X022800Y008088D02*
X023160Y008088D01*
X023160Y007968D02*
X023160Y008209D01*
X022920Y007968D02*
X022800Y008088D01*
X022860Y007840D02*
X022980Y007840D01*
X023040Y007780D01*
X023040Y007600D01*
X023160Y007600D02*
X022800Y007600D01*
X022800Y007780D01*
X022860Y007840D01*
X023040Y007720D02*
X023160Y007840D01*
X022060Y007717D02*
X022060Y007597D01*
X022000Y007537D01*
X021880Y007537D02*
X021820Y007657D01*
X021820Y007717D01*
X021880Y007777D01*
X022000Y007777D01*
X022060Y007717D01*
X021880Y007537D02*
X021700Y007537D01*
X021700Y007777D01*
X022060Y007409D02*
X022060Y007168D01*
X022060Y007288D02*
X021700Y007288D01*
X021820Y007168D01*
X021880Y007040D02*
X021940Y006980D01*
X021940Y006800D01*
X022060Y006800D02*
X021700Y006800D01*
X021700Y006980D01*
X021760Y007040D01*
X021880Y007040D01*
X021940Y006920D02*
X022060Y007040D01*
X020960Y006917D02*
X020600Y006917D01*
X020780Y006737D01*
X020780Y006977D01*
X020960Y006609D02*
X020960Y006368D01*
X020960Y006488D02*
X020600Y006488D01*
X020720Y006368D01*
X020780Y006240D02*
X020840Y006180D01*
X020840Y006000D01*
X020960Y006000D02*
X020600Y006000D01*
X020600Y006180D01*
X020660Y006240D01*
X020780Y006240D01*
X020840Y006120D02*
X020960Y006240D01*
X019860Y006240D02*
X019740Y006120D01*
X019740Y006180D02*
X019740Y006000D01*
X019860Y006000D02*
X019500Y006000D01*
X019500Y006180D01*
X019560Y006240D01*
X019680Y006240D01*
X019740Y006180D01*
X019860Y006368D02*
X019860Y006609D01*
X019860Y006488D02*
X019500Y006488D01*
X019620Y006368D01*
X019560Y006737D02*
X019500Y006797D01*
X019500Y006917D01*
X019560Y006977D01*
X019620Y006977D01*
X019680Y006917D01*
X019740Y006977D01*
X019800Y006977D01*
X019860Y006917D01*
X019860Y006797D01*
X019800Y006737D01*
X019680Y006857D02*
X019680Y006917D01*
X018760Y006977D02*
X018760Y006737D01*
X018520Y006977D01*
X018460Y006977D01*
X018400Y006917D01*
X018400Y006797D01*
X018460Y006737D01*
X018400Y006488D02*
X018760Y006488D01*
X018760Y006368D02*
X018760Y006609D01*
X018520Y006368D02*
X018400Y006488D01*
X018460Y006240D02*
X018580Y006240D01*
X018640Y006180D01*
X018640Y006000D01*
X018760Y006000D02*
X018400Y006000D01*
X018400Y006180D01*
X018460Y006240D01*
X018640Y006120D02*
X018760Y006240D01*
X017660Y006240D02*
X017540Y006120D01*
X017540Y006180D02*
X017540Y006000D01*
X017660Y006000D02*
X017300Y006000D01*
X017300Y006180D01*
X017360Y006240D01*
X017480Y006240D01*
X017540Y006180D01*
X017660Y006368D02*
X017660Y006609D01*
X017660Y006488D02*
X017300Y006488D01*
X017420Y006368D01*
X017420Y006737D02*
X017300Y006857D01*
X017660Y006857D01*
X017660Y006737D02*
X017660Y006977D01*
X017664Y007875D02*
X017543Y007875D01*
X017603Y007875D02*
X017603Y008115D01*
X017543Y008115D01*
X017603Y008235D02*
X017603Y008295D01*
X017538Y008475D02*
X017358Y008475D01*
X017298Y008535D01*
X017358Y008595D01*
X017538Y008595D01*
X017538Y008655D02*
X017538Y008475D01*
X017666Y008535D02*
X017726Y008475D01*
X017906Y008475D01*
X018035Y008535D02*
X018095Y008595D01*
X018275Y008595D01*
X018275Y008655D02*
X018275Y008475D01*
X018095Y008475D01*
X018035Y008535D01*
X018095Y008715D02*
X018215Y008715D01*
X018275Y008655D01*
X018403Y008655D02*
X018463Y008715D01*
X018643Y008715D01*
X018583Y008595D02*
X018463Y008595D01*
X018403Y008655D01*
X018403Y008475D02*
X018583Y008475D01*
X018643Y008535D01*
X018583Y008595D01*
X018586Y008115D02*
X018706Y008115D01*
X018766Y008055D01*
X018766Y007995D01*
X018526Y007995D01*
X018526Y007935D02*
X018526Y008055D01*
X018586Y008115D01*
X018397Y008115D02*
X018217Y008115D01*
X018157Y008055D01*
X018157Y007935D01*
X018217Y007875D01*
X018397Y007875D01*
X018526Y007935D02*
X018586Y007875D01*
X018706Y007875D01*
X018894Y007875D02*
X018894Y008115D01*
X019074Y008115D01*
X019134Y008055D01*
X019134Y007875D01*
X019262Y007935D02*
X019262Y008055D01*
X019322Y008115D01*
X019502Y008115D01*
X019502Y008235D02*
X019502Y007875D01*
X019322Y007875D01*
X019262Y007935D01*
X019631Y007875D02*
X019751Y007875D01*
X019691Y007875D02*
X019691Y008115D01*
X019631Y008115D01*
X019691Y008235D02*
X019691Y008295D01*
X019688Y008475D02*
X019568Y008475D01*
X019508Y008535D01*
X019628Y008655D02*
X019688Y008655D01*
X019748Y008595D01*
X019748Y008535D01*
X019688Y008475D01*
X019688Y008655D02*
X019748Y008715D01*
X019748Y008775D01*
X019688Y008835D01*
X019568Y008835D01*
X019508Y008775D01*
X019380Y008715D02*
X019260Y008475D01*
X019139Y008715D01*
X019876Y008535D02*
X019936Y008535D01*
X019936Y008475D01*
X019876Y008475D01*
X019876Y008535D01*
X020060Y008535D02*
X020060Y008775D01*
X020120Y008835D01*
X020240Y008835D01*
X020300Y008775D01*
X020060Y008535D01*
X020120Y008475D01*
X020240Y008475D01*
X020300Y008535D01*
X020300Y008775D01*
X020429Y008115D02*
X020609Y008115D01*
X020669Y008055D01*
X020669Y007875D01*
X020797Y007935D02*
X020797Y008055D01*
X020857Y008115D01*
X020977Y008115D01*
X021037Y008055D01*
X021037Y007935D01*
X020977Y007875D01*
X020857Y007875D01*
X020797Y007935D01*
X020429Y007875D02*
X020429Y008115D01*
X020304Y007935D02*
X020304Y007875D01*
X020244Y007875D01*
X020244Y007935D01*
X020304Y007935D01*
X020116Y007935D02*
X020116Y008055D01*
X020056Y008115D01*
X019936Y008115D01*
X019876Y008055D01*
X019876Y007935D01*
X019936Y007875D01*
X020056Y007875D01*
X020116Y007935D01*
X018029Y007875D02*
X018029Y008055D01*
X017969Y008115D01*
X017789Y008115D01*
X017789Y007875D01*
X017415Y007935D02*
X017355Y007875D01*
X017235Y007875D01*
X017175Y007935D01*
X017175Y008175D01*
X017235Y008235D01*
X017355Y008235D01*
X017415Y008175D01*
X017415Y008055D01*
X017355Y007995D01*
X017355Y008115D01*
X017235Y008115D01*
X017235Y007995D01*
X017355Y007995D01*
X017047Y008055D02*
X017047Y007875D01*
X016927Y007875D02*
X016927Y008055D01*
X016987Y008115D01*
X017047Y008055D01*
X016927Y008055D02*
X016867Y008115D01*
X016807Y008115D01*
X016807Y007875D01*
X016681Y007875D02*
X016561Y007875D01*
X016621Y007875D02*
X016621Y008115D01*
X016561Y008115D01*
X016434Y008115D02*
X016254Y007995D01*
X016434Y007875D01*
X016254Y007875D02*
X016254Y008235D01*
X016314Y008475D02*
X016434Y008475D01*
X016495Y008535D01*
X016623Y008535D02*
X016683Y008595D01*
X016863Y008595D01*
X016863Y008655D02*
X016863Y008475D01*
X016683Y008475D01*
X016623Y008535D01*
X016683Y008715D02*
X016803Y008715D01*
X016863Y008655D01*
X016991Y008715D02*
X016991Y008475D01*
X016991Y008595D02*
X017111Y008715D01*
X017171Y008715D01*
X017358Y008715D02*
X017478Y008715D01*
X017538Y008655D01*
X017666Y008655D02*
X017726Y008715D01*
X017906Y008715D01*
X017666Y008655D02*
X017666Y008535D01*
X016621Y008295D02*
X016621Y008235D01*
X016314Y008475D02*
X016254Y008535D01*
X016254Y008775D01*
X016314Y008835D01*
X016434Y008835D01*
X016495Y008775D01*
X016500Y009500D02*
X016500Y009860D01*
X016680Y009860D01*
X016740Y009800D01*
X016740Y009680D01*
X016680Y009620D01*
X016500Y009620D01*
X016620Y009620D02*
X016740Y009500D01*
X016868Y009560D02*
X016868Y009680D01*
X017048Y009680D01*
X017109Y009620D01*
X017109Y009560D01*
X017048Y009500D01*
X016928Y009500D01*
X016868Y009560D01*
X016868Y009680D02*
X016988Y009800D01*
X017109Y009860D01*
X017048Y010600D02*
X016928Y010600D01*
X016868Y010660D01*
X016868Y010780D02*
X016988Y010840D01*
X017048Y010840D01*
X017109Y010780D01*
X017109Y010660D01*
X017048Y010600D01*
X016868Y010780D02*
X016868Y010960D01*
X017109Y010960D01*
X016740Y010900D02*
X016740Y010780D01*
X016680Y010720D01*
X016500Y010720D01*
X016500Y010600D02*
X016500Y010960D01*
X016680Y010960D01*
X016740Y010900D01*
X016620Y010720D02*
X016740Y010600D01*
X015048Y008360D02*
X014928Y008360D01*
X014868Y008300D01*
X014740Y008300D02*
X014740Y008060D01*
X014680Y008000D01*
X014560Y008000D01*
X014500Y008060D01*
X014500Y008300D01*
X014560Y008360D01*
X014680Y008360D01*
X014740Y008300D01*
X014620Y008120D02*
X014740Y008000D01*
X014868Y008000D02*
X015109Y008240D01*
X015109Y008300D01*
X015048Y008360D01*
X015109Y008000D02*
X014868Y008000D01*
X016200Y006917D02*
X016200Y006797D01*
X016260Y006737D01*
X016500Y006737D01*
X016260Y006977D01*
X016500Y006977D01*
X016560Y006917D01*
X016560Y006797D01*
X016500Y006737D01*
X016560Y006609D02*
X016560Y006368D01*
X016560Y006488D02*
X016200Y006488D01*
X016320Y006368D01*
X016380Y006240D02*
X016440Y006180D01*
X016440Y006000D01*
X016560Y006000D02*
X016200Y006000D01*
X016200Y006180D01*
X016260Y006240D01*
X016380Y006240D01*
X016440Y006120D02*
X016560Y006240D01*
X016200Y006917D02*
X016260Y006977D01*
X014440Y006080D02*
X014200Y006080D01*
X014380Y006260D01*
X014380Y005900D01*
X014072Y005900D02*
X013952Y006020D01*
X014012Y006020D02*
X013832Y006020D01*
X013832Y005900D02*
X013832Y006260D01*
X014012Y006260D01*
X014072Y006200D01*
X014072Y006080D01*
X014012Y006020D01*
X013340Y006020D02*
X013340Y005960D01*
X013280Y005900D01*
X013160Y005900D01*
X013100Y005960D01*
X012972Y005900D02*
X012852Y006020D01*
X012912Y006020D02*
X012732Y006020D01*
X012732Y005900D02*
X012732Y006260D01*
X012912Y006260D01*
X012972Y006200D01*
X012972Y006080D01*
X012912Y006020D01*
X013100Y006200D02*
X013160Y006260D01*
X013280Y006260D01*
X013340Y006200D01*
X013340Y006140D01*
X013280Y006080D01*
X013340Y006020D01*
X013280Y006080D02*
X013220Y006080D01*
X012240Y006140D02*
X012240Y006200D01*
X012180Y006260D01*
X012060Y006260D01*
X012000Y006200D01*
X011872Y006200D02*
X011872Y006080D01*
X011812Y006020D01*
X011632Y006020D01*
X011752Y006020D02*
X011872Y005900D01*
X012000Y005900D02*
X012240Y006140D01*
X012240Y005900D02*
X012000Y005900D01*
X011632Y005900D02*
X011632Y006260D01*
X011812Y006260D01*
X011872Y006200D01*
X011140Y006200D02*
X011140Y005960D01*
X011080Y005900D01*
X010960Y005900D01*
X010900Y005960D01*
X010960Y006080D02*
X011140Y006080D01*
X011140Y006200D02*
X011080Y006260D01*
X010960Y006260D01*
X010900Y006200D01*
X010900Y006140D01*
X010960Y006080D01*
X010772Y006080D02*
X010712Y006020D01*
X010532Y006020D01*
X010652Y006020D02*
X010772Y005900D01*
X010772Y006080D02*
X010772Y006200D01*
X010712Y006260D01*
X010532Y006260D01*
X010532Y005900D01*
X010412Y007700D02*
X010292Y007700D01*
X010232Y007760D01*
X010104Y007760D02*
X010104Y008000D01*
X010044Y008060D01*
X009923Y008060D01*
X009863Y008000D01*
X009863Y007760D01*
X009923Y007700D01*
X010044Y007700D01*
X010104Y007760D01*
X010104Y007700D02*
X009983Y007820D01*
X010232Y008000D02*
X010292Y008060D01*
X010412Y008060D01*
X010472Y008000D01*
X010472Y007940D01*
X010412Y007880D01*
X010472Y007820D01*
X010472Y007760D01*
X010412Y007700D01*
X010412Y007880D02*
X010352Y007880D01*
X007490Y007900D02*
X007490Y008141D01*
X007250Y008141D02*
X007250Y007900D01*
X007370Y007780D01*
X007490Y007900D01*
X007122Y007780D02*
X006881Y007780D01*
X007122Y008021D01*
X007122Y008081D01*
X007062Y008141D01*
X006942Y008141D01*
X006881Y008081D01*
X006633Y008141D02*
X006633Y007780D01*
X006513Y007780D02*
X006753Y007780D01*
X006513Y008021D02*
X006633Y008141D01*
X006385Y007960D02*
X006145Y007960D01*
X006265Y007840D02*
X006265Y008081D01*
X002458Y008081D02*
X002458Y007840D01*
X002398Y007780D01*
X002218Y007780D01*
X002218Y008141D01*
X002398Y008141D01*
X002458Y008081D01*
X002090Y008141D02*
X002090Y007780D01*
X001849Y008141D01*
X001849Y007780D01*
X001721Y007840D02*
X001721Y007960D01*
X001601Y007960D01*
X001481Y007840D02*
X001481Y008081D01*
X001541Y008141D01*
X001661Y008141D01*
X001721Y008081D01*
X001721Y007840D02*
X001661Y007780D01*
X001541Y007780D01*
X001481Y007840D01*
X008132Y014200D02*
X008132Y014560D01*
X008312Y014560D01*
X008372Y014500D01*
X008372Y014380D01*
X008312Y014320D01*
X008132Y014320D01*
X008252Y014320D02*
X008372Y014200D01*
X008500Y014260D02*
X008500Y014320D01*
X008560Y014380D01*
X008680Y014380D01*
X008740Y014320D01*
X008740Y014260D01*
X008680Y014200D01*
X008560Y014200D01*
X008500Y014260D01*
X008560Y014380D02*
X008500Y014440D01*
X008500Y014500D01*
X008560Y014560D01*
X008680Y014560D01*
X008740Y014500D01*
X008740Y014440D01*
X008680Y014380D01*
X009332Y014320D02*
X009512Y014320D01*
X009572Y014380D01*
X009572Y014500D01*
X009512Y014560D01*
X009332Y014560D01*
X009332Y014200D01*
X009452Y014320D02*
X009572Y014200D01*
X009700Y014200D02*
X009700Y014260D01*
X009940Y014500D01*
X009940Y014560D01*
X009700Y014560D01*
X010532Y014560D02*
X010532Y014200D01*
X010532Y014320D02*
X010712Y014320D01*
X010772Y014380D01*
X010772Y014500D01*
X010712Y014560D01*
X010532Y014560D01*
X010652Y014320D02*
X010772Y014200D01*
X010900Y014200D02*
X011140Y014200D01*
X011020Y014200D02*
X011020Y014560D01*
X010900Y014440D01*
X009688Y011660D02*
X009688Y011300D01*
X009568Y011300D02*
X009809Y011300D01*
X009568Y011540D02*
X009688Y011660D01*
X009440Y011600D02*
X009440Y011360D01*
X009380Y011300D01*
X009260Y011300D01*
X009200Y011360D01*
X009200Y011600D01*
X009260Y011660D01*
X009380Y011660D01*
X009440Y011600D01*
X009320Y011420D02*
X009440Y011300D01*
X007370Y018804D02*
X007250Y018924D01*
X007250Y019164D01*
X007122Y019164D02*
X006881Y019164D01*
X006881Y018984D01*
X007002Y019044D01*
X007062Y019044D01*
X007122Y018984D01*
X007122Y018864D01*
X007062Y018804D01*
X006942Y018804D01*
X006881Y018864D01*
X006753Y018984D02*
X006513Y018984D01*
X006633Y019104D02*
X006633Y018864D01*
X007370Y018804D02*
X007490Y018924D01*
X007490Y019164D01*
X002464Y019107D02*
X002464Y018867D01*
X002404Y018807D01*
X002224Y018807D01*
X002224Y019167D01*
X002404Y019167D01*
X002464Y019107D01*
X002096Y019167D02*
X002096Y018807D01*
X001856Y019167D01*
X001856Y018807D01*
X001728Y018867D02*
X001728Y018987D01*
X001608Y018987D01*
X001728Y018867D02*
X001668Y018807D01*
X001547Y018807D01*
X001487Y018867D01*
X001487Y019107D01*
X001547Y019167D01*
X001668Y019167D01*
X001728Y019107D01*
X013293Y019380D02*
X013534Y019380D01*
X013662Y019260D02*
X013722Y019200D01*
X013842Y019200D01*
X013902Y019260D01*
X013902Y019500D01*
X013662Y019260D01*
X013662Y019500D01*
X013722Y019560D01*
X013842Y019560D01*
X013902Y019500D01*
X014030Y019440D02*
X014150Y019560D01*
X014150Y019200D01*
X014030Y019200D02*
X014270Y019200D01*
X014398Y019200D02*
X014639Y019200D01*
X014518Y019200D02*
X014518Y019560D01*
X014398Y019440D01*
X013474Y019560D02*
X013474Y019200D01*
X013293Y019380D02*
X013474Y019560D01*
X017800Y019560D02*
X017800Y019200D01*
X018040Y019200D02*
X018040Y019560D01*
X017920Y019440D01*
X017800Y019560D01*
X018168Y019500D02*
X018168Y019260D01*
X018228Y019200D01*
X018348Y019200D01*
X018409Y019260D01*
X018537Y019200D02*
X018537Y019560D01*
X018717Y019560D01*
X018777Y019500D01*
X018777Y019380D01*
X018717Y019320D01*
X018537Y019320D01*
X018409Y019500D02*
X018348Y019560D01*
X018228Y019560D01*
X018168Y019500D01*
X018905Y019500D02*
X018965Y019560D01*
X019085Y019560D01*
X019145Y019500D01*
X019145Y019440D01*
X019085Y019380D01*
X019145Y019320D01*
X019145Y019260D01*
X019085Y019200D01*
X018965Y019200D01*
X018905Y019260D01*
X019025Y019380D02*
X019085Y019380D01*
X019273Y019260D02*
X019333Y019200D01*
X019453Y019200D01*
X019513Y019260D01*
X019513Y019500D01*
X019273Y019260D01*
X019273Y019500D01*
X019333Y019560D01*
X019453Y019560D01*
X019513Y019500D01*
X019642Y019500D02*
X019702Y019560D01*
X019822Y019560D01*
X019882Y019500D01*
X019642Y019260D01*
X019702Y019200D01*
X019822Y019200D01*
X019882Y019260D01*
X019882Y019500D01*
X020010Y019500D02*
X020010Y019440D01*
X020070Y019380D01*
X020190Y019380D01*
X020250Y019320D01*
X020250Y019260D01*
X020190Y019200D01*
X020070Y019200D01*
X020010Y019260D01*
X020010Y019320D01*
X020070Y019380D01*
X020190Y019380D02*
X020250Y019440D01*
X020250Y019500D01*
X020190Y019560D01*
X020070Y019560D01*
X020010Y019500D01*
X019642Y019500D02*
X019642Y019260D01*
D15*
X019825Y019949D02*
X019325Y019949D01*
X019075Y020199D01*
X018825Y019949D01*
X018325Y019949D01*
X018075Y020199D01*
X017825Y019949D01*
X017325Y019949D01*
X017075Y020199D01*
X016825Y019949D01*
X016325Y019949D01*
X016075Y020199D01*
X015825Y019949D01*
X015325Y019949D01*
X015075Y020199D01*
X014825Y019949D01*
X014325Y019949D01*
X014075Y020199D01*
X013825Y019949D01*
X013325Y019949D01*
X013075Y020199D01*
X012825Y019949D01*
X012325Y019949D01*
X012075Y020199D01*
X011825Y019949D01*
X011325Y019949D01*
X011075Y020199D01*
X010825Y019949D01*
X010325Y019949D01*
X010075Y020199D01*
X009825Y019949D01*
X009325Y019949D01*
X009075Y020199D01*
X008825Y019949D01*
X008325Y019949D01*
X008075Y020199D01*
X007825Y019949D01*
X007325Y019949D01*
X007075Y020199D01*
X006825Y019949D01*
X006325Y019949D01*
X006075Y020199D01*
X005825Y019949D01*
X005325Y019949D01*
X005075Y020199D01*
X004825Y019949D01*
X004325Y019949D01*
X004075Y020199D01*
X003825Y019949D01*
X003325Y019949D01*
X003075Y020199D01*
X003075Y021699D01*
X003325Y021949D01*
X003825Y021949D01*
X004075Y021699D01*
X004325Y021949D01*
X004825Y021949D01*
X005075Y021699D01*
X005325Y021949D01*
X005825Y021949D01*
X006075Y021699D01*
X006325Y021949D01*
X006825Y021949D01*
X007075Y021699D01*
X007325Y021949D01*
X007825Y021949D01*
X008075Y021699D01*
X008325Y021949D01*
X008825Y021949D01*
X009075Y021699D01*
X009325Y021949D01*
X009825Y021949D01*
X010075Y021699D01*
X010325Y021949D01*
X010825Y021949D01*
X011075Y021699D01*
X011325Y021949D01*
X011825Y021949D01*
X012075Y021699D01*
X012325Y021949D01*
X012825Y021949D01*
X013075Y021699D01*
X013325Y021949D01*
X013825Y021949D01*
X014075Y021699D01*
X014325Y021949D01*
X014825Y021949D01*
X015075Y021699D01*
X015325Y021949D01*
X015825Y021949D01*
X016075Y021699D01*
X016325Y021949D01*
X016825Y021949D01*
X017075Y021699D01*
X017325Y021949D01*
X017825Y021949D01*
X018075Y021699D01*
X018325Y021949D01*
X018825Y021949D01*
X019075Y021699D01*
X019325Y021949D01*
X019825Y021949D01*
X020075Y021699D01*
X020325Y021949D01*
X020825Y021949D01*
X021075Y021699D01*
X021325Y021949D01*
X021825Y021949D01*
X022075Y021699D01*
X022325Y021949D01*
X022825Y021949D01*
X023075Y021699D01*
X023075Y020199D01*
X022825Y019949D01*
X022325Y019949D01*
X022075Y020199D01*
X021825Y019949D01*
X021325Y019949D01*
X021075Y020199D01*
X020825Y019949D01*
X020325Y019949D01*
X020075Y020199D01*
X019825Y019949D01*
X020216Y018685D02*
X017816Y018685D01*
X017716Y018005D02*
X017716Y017765D01*
X017716Y017005D02*
X017716Y016765D01*
X017716Y016005D02*
X017716Y015765D01*
X017716Y015005D02*
X017716Y014765D01*
X017716Y014005D02*
X017716Y013765D01*
X017716Y013005D02*
X017716Y012765D01*
X017716Y012005D02*
X017716Y011765D01*
X017816Y011085D02*
X018896Y011085D01*
X019136Y011085D01*
X020086Y011085D01*
X020316Y011815D02*
X020316Y012005D01*
X020316Y012765D02*
X020316Y013005D01*
X020316Y013765D02*
X020316Y014005D01*
X020316Y014765D02*
X020316Y015005D01*
X020316Y015765D02*
X020316Y016005D01*
X020316Y016765D02*
X020316Y017005D01*
X020316Y017765D02*
X020316Y018005D01*
X015160Y018880D02*
X014410Y018880D01*
X014408Y018841D01*
X014402Y018802D01*
X014393Y018764D01*
X014380Y018727D01*
X014363Y018691D01*
X014343Y018658D01*
X014319Y018626D01*
X014293Y018597D01*
X014264Y018571D01*
X014232Y018547D01*
X014199Y018527D01*
X014163Y018510D01*
X014126Y018497D01*
X014088Y018488D01*
X014049Y018482D01*
X014010Y018480D01*
X013971Y018482D01*
X013932Y018488D01*
X013894Y018497D01*
X013857Y018510D01*
X013821Y018527D01*
X013788Y018547D01*
X013756Y018571D01*
X013727Y018597D01*
X013701Y018626D01*
X013677Y018658D01*
X013657Y018691D01*
X013640Y018727D01*
X013627Y018764D01*
X013618Y018802D01*
X013612Y018841D01*
X013610Y018880D01*
X012860Y018880D01*
X012860Y011880D01*
X015160Y011880D01*
X015160Y018880D01*
X011330Y018230D02*
X011330Y018080D01*
X011280Y018030D01*
X011280Y016130D01*
X011330Y016080D01*
X011330Y015930D01*
X011328Y015913D01*
X011324Y015896D01*
X011317Y015880D01*
X011307Y015866D01*
X011294Y015853D01*
X011280Y015843D01*
X011264Y015836D01*
X011247Y015832D01*
X011230Y015830D01*
X010530Y015830D01*
X010513Y015832D01*
X010496Y015836D01*
X010480Y015843D01*
X010466Y015853D01*
X010453Y015866D01*
X010443Y015880D01*
X010436Y015896D01*
X010432Y015913D01*
X010430Y015930D01*
X010430Y016080D01*
X010480Y016130D01*
X010480Y018030D01*
X010430Y018080D01*
X010430Y018230D01*
X010432Y018247D01*
X010436Y018264D01*
X010443Y018280D01*
X010453Y018294D01*
X010466Y018307D01*
X010480Y018317D01*
X010496Y018324D01*
X010513Y018328D01*
X010530Y018330D01*
X011230Y018330D01*
X011247Y018328D01*
X011264Y018324D01*
X011280Y018317D01*
X011294Y018307D01*
X011307Y018294D01*
X011317Y018280D01*
X011324Y018264D01*
X011328Y018247D01*
X011330Y018230D01*
X010130Y018230D02*
X010130Y018080D01*
X010080Y018030D01*
X010080Y016130D01*
X010130Y016080D01*
X010130Y015930D01*
X010128Y015913D01*
X010124Y015896D01*
X010117Y015880D01*
X010107Y015866D01*
X010094Y015853D01*
X010080Y015843D01*
X010064Y015836D01*
X010047Y015832D01*
X010030Y015830D01*
X009330Y015830D01*
X009313Y015832D01*
X009296Y015836D01*
X009280Y015843D01*
X009266Y015853D01*
X009253Y015866D01*
X009243Y015880D01*
X009236Y015896D01*
X009232Y015913D01*
X009230Y015930D01*
X009230Y016080D01*
X009280Y016130D01*
X009280Y018030D01*
X009230Y018080D01*
X009230Y018230D01*
X009232Y018247D01*
X009236Y018264D01*
X009243Y018280D01*
X009253Y018294D01*
X009266Y018307D01*
X009280Y018317D01*
X009296Y018324D01*
X009313Y018328D01*
X009330Y018330D01*
X010030Y018330D01*
X010047Y018328D01*
X010064Y018324D01*
X010080Y018317D01*
X010094Y018307D01*
X010107Y018294D01*
X010117Y018280D01*
X010124Y018264D01*
X010128Y018247D01*
X010130Y018230D01*
X008930Y018230D02*
X008930Y018080D01*
X008880Y018030D01*
X008880Y016130D01*
X008930Y016080D01*
X008930Y015930D01*
X008928Y015913D01*
X008924Y015896D01*
X008917Y015880D01*
X008907Y015866D01*
X008894Y015853D01*
X008880Y015843D01*
X008864Y015836D01*
X008847Y015832D01*
X008830Y015830D01*
X008130Y015830D01*
X008113Y015832D01*
X008096Y015836D01*
X008080Y015843D01*
X008066Y015853D01*
X008053Y015866D01*
X008043Y015880D01*
X008036Y015896D01*
X008032Y015913D01*
X008030Y015930D01*
X008030Y016080D01*
X008080Y016130D01*
X008080Y018030D01*
X008030Y018080D01*
X008030Y018230D01*
X008032Y018247D01*
X008036Y018264D01*
X008043Y018280D01*
X008053Y018294D01*
X008066Y018307D01*
X008080Y018317D01*
X008096Y018324D01*
X008113Y018328D01*
X008130Y018330D01*
X008830Y018330D01*
X008847Y018328D01*
X008864Y018324D01*
X008880Y018317D01*
X008894Y018307D01*
X008907Y018294D01*
X008917Y018280D01*
X008924Y018264D01*
X008928Y018247D01*
X008930Y018230D01*
X012830Y011230D02*
X012980Y011230D01*
X013030Y011180D01*
X014930Y011180D01*
X014980Y011230D01*
X015130Y011230D01*
X015147Y011228D01*
X015164Y011224D01*
X015180Y011217D01*
X015194Y011207D01*
X015207Y011194D01*
X015217Y011180D01*
X015224Y011164D01*
X015228Y011147D01*
X015230Y011130D01*
X015230Y010430D01*
X015228Y010413D01*
X015224Y010396D01*
X015217Y010380D01*
X015207Y010366D01*
X015194Y010353D01*
X015180Y010343D01*
X015164Y010336D01*
X015147Y010332D01*
X015130Y010330D01*
X014980Y010330D01*
X014930Y010380D01*
X013030Y010380D01*
X012980Y010330D01*
X012830Y010330D01*
X012813Y010332D01*
X012796Y010336D01*
X012780Y010343D01*
X012766Y010353D01*
X012753Y010366D01*
X012743Y010380D01*
X012736Y010396D01*
X012732Y010413D01*
X012730Y010430D01*
X012730Y011130D01*
X012732Y011147D01*
X012736Y011164D01*
X012743Y011180D01*
X012753Y011194D01*
X012766Y011207D01*
X012780Y011217D01*
X012796Y011224D01*
X012813Y011228D01*
X012830Y011230D01*
X012830Y010130D02*
X012980Y010130D01*
X013030Y010080D01*
X014930Y010080D01*
X014980Y010130D01*
X015130Y010130D01*
X015147Y010128D01*
X015164Y010124D01*
X015180Y010117D01*
X015194Y010107D01*
X015207Y010094D01*
X015217Y010080D01*
X015224Y010064D01*
X015228Y010047D01*
X015230Y010030D01*
X015230Y009330D01*
X015228Y009313D01*
X015224Y009296D01*
X015217Y009280D01*
X015207Y009266D01*
X015194Y009253D01*
X015180Y009243D01*
X015164Y009236D01*
X015147Y009232D01*
X015130Y009230D01*
X014980Y009230D01*
X014930Y009280D01*
X013030Y009280D01*
X012980Y009230D01*
X012830Y009230D01*
X012813Y009232D01*
X012796Y009236D01*
X012780Y009243D01*
X012766Y009253D01*
X012753Y009266D01*
X012743Y009280D01*
X012736Y009296D01*
X012732Y009313D01*
X012730Y009330D01*
X012730Y010030D01*
X012732Y010047D01*
X012736Y010064D01*
X012743Y010080D01*
X012753Y010094D01*
X012766Y010107D01*
X012780Y010117D01*
X012796Y010124D01*
X012813Y010128D01*
X012830Y010130D01*
X012730Y004710D02*
X013430Y004710D01*
X013447Y004708D01*
X013464Y004704D01*
X013480Y004697D01*
X013494Y004687D01*
X013507Y004674D01*
X013517Y004660D01*
X013524Y004644D01*
X013528Y004627D01*
X013530Y004610D01*
X013530Y004460D01*
X013480Y004410D01*
X013480Y002510D01*
X013530Y002460D01*
X013530Y002310D01*
X013528Y002293D01*
X013524Y002276D01*
X013517Y002260D01*
X013507Y002246D01*
X013494Y002233D01*
X013480Y002223D01*
X013464Y002216D01*
X013447Y002212D01*
X013430Y002210D01*
X012730Y002210D01*
X012713Y002212D01*
X012696Y002216D01*
X012680Y002223D01*
X012666Y002233D01*
X012653Y002246D01*
X012643Y002260D01*
X012636Y002276D01*
X012632Y002293D01*
X012630Y002310D01*
X012630Y002460D01*
X012680Y002510D01*
X012680Y004410D01*
X012630Y004460D01*
X012630Y004610D01*
X012632Y004627D01*
X012636Y004644D01*
X012643Y004660D01*
X012653Y004674D01*
X012666Y004687D01*
X012680Y004697D01*
X012696Y004704D01*
X012713Y004708D01*
X012730Y004710D01*
X012430Y004610D02*
X012430Y004460D01*
X012380Y004410D01*
X012380Y002510D01*
X012430Y002460D01*
X012430Y002310D01*
X012428Y002293D01*
X012424Y002276D01*
X012417Y002260D01*
X012407Y002246D01*
X012394Y002233D01*
X012380Y002223D01*
X012364Y002216D01*
X012347Y002212D01*
X012330Y002210D01*
X011630Y002210D01*
X011613Y002212D01*
X011596Y002216D01*
X011580Y002223D01*
X011566Y002233D01*
X011553Y002246D01*
X011543Y002260D01*
X011536Y002276D01*
X011532Y002293D01*
X011530Y002310D01*
X011530Y002460D01*
X011580Y002510D01*
X011580Y004410D01*
X011530Y004460D01*
X011530Y004610D01*
X011532Y004627D01*
X011536Y004644D01*
X011543Y004660D01*
X011553Y004674D01*
X011566Y004687D01*
X011580Y004697D01*
X011596Y004704D01*
X011613Y004708D01*
X011630Y004710D01*
X012330Y004710D01*
X012347Y004708D01*
X012364Y004704D01*
X012380Y004697D01*
X012394Y004687D01*
X012407Y004674D01*
X012417Y004660D01*
X012424Y004644D01*
X012428Y004627D01*
X012430Y004610D01*
X011330Y004610D02*
X011330Y004460D01*
X011280Y004410D01*
X011280Y002510D01*
X011330Y002460D01*
X011330Y002310D01*
X011328Y002293D01*
X011324Y002276D01*
X011317Y002260D01*
X011307Y002246D01*
X011294Y002233D01*
X011280Y002223D01*
X011264Y002216D01*
X011247Y002212D01*
X011230Y002210D01*
X010530Y002210D01*
X010513Y002212D01*
X010496Y002216D01*
X010480Y002223D01*
X010466Y002233D01*
X010453Y002246D01*
X010443Y002260D01*
X010436Y002276D01*
X010432Y002293D01*
X010430Y002310D01*
X010430Y002460D01*
X010480Y002510D01*
X010480Y004410D01*
X010430Y004460D01*
X010430Y004610D01*
X010432Y004627D01*
X010436Y004644D01*
X010443Y004660D01*
X010453Y004674D01*
X010466Y004687D01*
X010480Y004697D01*
X010496Y004704D01*
X010513Y004708D01*
X010530Y004710D01*
X011230Y004710D01*
X011247Y004708D01*
X011264Y004704D01*
X011280Y004697D01*
X011294Y004687D01*
X011307Y004674D01*
X011317Y004660D01*
X011324Y004644D01*
X011328Y004627D01*
X011330Y004610D01*
X013730Y004610D02*
X013730Y004460D01*
X013780Y004410D01*
X013780Y002510D01*
X013730Y002460D01*
X013730Y002310D01*
X013732Y002293D01*
X013736Y002276D01*
X013743Y002260D01*
X013753Y002246D01*
X013766Y002233D01*
X013780Y002223D01*
X013796Y002216D01*
X013813Y002212D01*
X013830Y002210D01*
X014530Y002210D01*
X014547Y002212D01*
X014564Y002216D01*
X014580Y002223D01*
X014594Y002233D01*
X014607Y002246D01*
X014617Y002260D01*
X014624Y002276D01*
X014628Y002293D01*
X014630Y002310D01*
X014630Y002460D01*
X014580Y002510D01*
X014580Y004410D01*
X014630Y004460D01*
X014630Y004610D01*
X014628Y004627D01*
X014624Y004644D01*
X014617Y004660D01*
X014607Y004674D01*
X014594Y004687D01*
X014580Y004697D01*
X014564Y004704D01*
X014547Y004708D01*
X014530Y004710D01*
X013830Y004710D01*
X013813Y004708D01*
X013796Y004704D01*
X013780Y004697D01*
X013766Y004687D01*
X013753Y004674D01*
X013743Y004660D01*
X013736Y004644D01*
X013732Y004627D01*
X013730Y004610D01*
X015930Y004630D02*
X015930Y004480D01*
X015980Y004430D01*
X015980Y002530D01*
X015930Y002480D01*
X015930Y002330D01*
X015932Y002313D01*
X015936Y002296D01*
X015943Y002280D01*
X015953Y002266D01*
X015966Y002253D01*
X015980Y002243D01*
X015996Y002236D01*
X016013Y002232D01*
X016030Y002230D01*
X016730Y002230D01*
X016747Y002232D01*
X016764Y002236D01*
X016780Y002243D01*
X016794Y002253D01*
X016807Y002266D01*
X016817Y002280D01*
X016824Y002296D01*
X016828Y002313D01*
X016830Y002330D01*
X016830Y002480D01*
X016780Y002530D01*
X016780Y004430D01*
X016830Y004480D01*
X016830Y004630D01*
X016828Y004647D01*
X016824Y004664D01*
X016817Y004680D01*
X016807Y004694D01*
X016794Y004707D01*
X016780Y004717D01*
X016764Y004724D01*
X016747Y004728D01*
X016730Y004730D01*
X016030Y004730D01*
X016013Y004728D01*
X015996Y004724D01*
X015980Y004717D01*
X015966Y004707D01*
X015953Y004694D01*
X015943Y004680D01*
X015936Y004664D01*
X015932Y004647D01*
X015930Y004630D01*
X017030Y004630D02*
X017030Y004480D01*
X017080Y004430D01*
X017080Y002530D01*
X017030Y002480D01*
X017030Y002330D01*
X017032Y002313D01*
X017036Y002296D01*
X017043Y002280D01*
X017053Y002266D01*
X017066Y002253D01*
X017080Y002243D01*
X017096Y002236D01*
X017113Y002232D01*
X017130Y002230D01*
X017830Y002230D01*
X017847Y002232D01*
X017864Y002236D01*
X017880Y002243D01*
X017894Y002253D01*
X017907Y002266D01*
X017917Y002280D01*
X017924Y002296D01*
X017928Y002313D01*
X017930Y002330D01*
X017930Y002480D01*
X017880Y002530D01*
X017880Y004430D01*
X017930Y004480D01*
X017930Y004630D01*
X017928Y004647D01*
X017924Y004664D01*
X017917Y004680D01*
X017907Y004694D01*
X017894Y004707D01*
X017880Y004717D01*
X017864Y004724D01*
X017847Y004728D01*
X017830Y004730D01*
X017130Y004730D01*
X017113Y004728D01*
X017096Y004724D01*
X017080Y004717D01*
X017066Y004707D01*
X017053Y004694D01*
X017043Y004680D01*
X017036Y004664D01*
X017032Y004647D01*
X017030Y004630D01*
X018130Y004630D02*
X018130Y004480D01*
X018180Y004430D01*
X018180Y002530D01*
X018130Y002480D01*
X018130Y002330D01*
X018132Y002313D01*
X018136Y002296D01*
X018143Y002280D01*
X018153Y002266D01*
X018166Y002253D01*
X018180Y002243D01*
X018196Y002236D01*
X018213Y002232D01*
X018230Y002230D01*
X018930Y002230D01*
X018947Y002232D01*
X018964Y002236D01*
X018980Y002243D01*
X018994Y002253D01*
X019007Y002266D01*
X019017Y002280D01*
X019024Y002296D01*
X019028Y002313D01*
X019030Y002330D01*
X019030Y002480D01*
X018980Y002530D01*
X018980Y004430D01*
X019030Y004480D01*
X019030Y004630D01*
X019028Y004647D01*
X019024Y004664D01*
X019017Y004680D01*
X019007Y004694D01*
X018994Y004707D01*
X018980Y004717D01*
X018964Y004724D01*
X018947Y004728D01*
X018930Y004730D01*
X018230Y004730D01*
X018213Y004728D01*
X018196Y004724D01*
X018180Y004717D01*
X018166Y004707D01*
X018153Y004694D01*
X018143Y004680D01*
X018136Y004664D01*
X018132Y004647D01*
X018130Y004630D01*
X019230Y004630D02*
X019230Y004480D01*
X019280Y004430D01*
X019280Y002530D01*
X019230Y002480D01*
X019230Y002330D01*
X019232Y002313D01*
X019236Y002296D01*
X019243Y002280D01*
X019253Y002266D01*
X019266Y002253D01*
X019280Y002243D01*
X019296Y002236D01*
X019313Y002232D01*
X019330Y002230D01*
X020030Y002230D01*
X020047Y002232D01*
X020064Y002236D01*
X020080Y002243D01*
X020094Y002253D01*
X020107Y002266D01*
X020117Y002280D01*
X020124Y002296D01*
X020128Y002313D01*
X020130Y002330D01*
X020130Y002480D01*
X020080Y002530D01*
X020080Y004430D01*
X020130Y004480D01*
X020130Y004630D01*
X020128Y004647D01*
X020124Y004664D01*
X020117Y004680D01*
X020107Y004694D01*
X020094Y004707D01*
X020080Y004717D01*
X020064Y004724D01*
X020047Y004728D01*
X020030Y004730D01*
X019330Y004730D01*
X019313Y004728D01*
X019296Y004724D01*
X019280Y004717D01*
X019266Y004707D01*
X019253Y004694D01*
X019243Y004680D01*
X019236Y004664D01*
X019232Y004647D01*
X019230Y004630D01*
X020330Y004630D02*
X020330Y004480D01*
X020380Y004430D01*
X020380Y002530D01*
X020330Y002480D01*
X020330Y002330D01*
X020332Y002313D01*
X020336Y002296D01*
X020343Y002280D01*
X020353Y002266D01*
X020366Y002253D01*
X020380Y002243D01*
X020396Y002236D01*
X020413Y002232D01*
X020430Y002230D01*
X021130Y002230D01*
X021147Y002232D01*
X021164Y002236D01*
X021180Y002243D01*
X021194Y002253D01*
X021207Y002266D01*
X021217Y002280D01*
X021224Y002296D01*
X021228Y002313D01*
X021230Y002330D01*
X021230Y002480D01*
X021180Y002530D01*
X021180Y004430D01*
X021230Y004480D01*
X021230Y004630D01*
X021228Y004647D01*
X021224Y004664D01*
X021217Y004680D01*
X021207Y004694D01*
X021194Y004707D01*
X021180Y004717D01*
X021164Y004724D01*
X021147Y004728D01*
X021130Y004730D01*
X020430Y004730D01*
X020413Y004728D01*
X020396Y004724D01*
X020380Y004717D01*
X020366Y004707D01*
X020353Y004694D01*
X020343Y004680D01*
X020336Y004664D01*
X020332Y004647D01*
X020330Y004630D01*
X021430Y005280D02*
X021430Y005430D01*
X021432Y005447D01*
X021436Y005464D01*
X021443Y005480D01*
X021453Y005494D01*
X021466Y005507D01*
X021480Y005517D01*
X021496Y005524D01*
X021513Y005528D01*
X021530Y005530D01*
X022230Y005530D01*
X022247Y005528D01*
X022264Y005524D01*
X022280Y005517D01*
X022294Y005507D01*
X022307Y005494D01*
X022317Y005480D01*
X022324Y005464D01*
X022328Y005447D01*
X022330Y005430D01*
X022330Y005280D01*
X022280Y005230D01*
X022280Y003330D01*
X022330Y003280D01*
X022330Y003130D01*
X022328Y003113D01*
X022324Y003096D01*
X022317Y003080D01*
X022307Y003066D01*
X022294Y003053D01*
X022280Y003043D01*
X022264Y003036D01*
X022247Y003032D01*
X022230Y003030D01*
X021530Y003030D01*
X021513Y003032D01*
X021496Y003036D01*
X021480Y003043D01*
X021466Y003053D01*
X021453Y003066D01*
X021443Y003080D01*
X021436Y003096D01*
X021432Y003113D01*
X021430Y003130D01*
X021430Y003280D01*
X021480Y003330D01*
X021480Y005230D01*
X021430Y005280D01*
X022530Y006080D02*
X022530Y006230D01*
X022532Y006247D01*
X022536Y006264D01*
X022543Y006280D01*
X022553Y006294D01*
X022566Y006307D01*
X022580Y006317D01*
X022596Y006324D01*
X022613Y006328D01*
X022630Y006330D01*
X023330Y006330D01*
X023347Y006328D01*
X023364Y006324D01*
X023380Y006317D01*
X023394Y006307D01*
X023407Y006294D01*
X023417Y006280D01*
X023424Y006264D01*
X023428Y006247D01*
X023430Y006230D01*
X023430Y006080D01*
X023380Y006030D01*
X023380Y004130D01*
X023430Y004080D01*
X023430Y003930D01*
X023428Y003913D01*
X023424Y003896D01*
X023417Y003880D01*
X023407Y003866D01*
X023394Y003853D01*
X023380Y003843D01*
X023364Y003836D01*
X023347Y003832D01*
X023330Y003830D01*
X022630Y003830D01*
X022613Y003832D01*
X022596Y003836D01*
X022580Y003843D01*
X022566Y003853D01*
X022553Y003866D01*
X022543Y003880D01*
X022536Y003896D01*
X022532Y003913D01*
X022530Y003930D01*
X022530Y004080D01*
X022580Y004130D01*
X022580Y006030D01*
X022530Y006080D01*
X023630Y006880D02*
X023630Y007030D01*
X023632Y007047D01*
X023636Y007064D01*
X023643Y007080D01*
X023653Y007094D01*
X023666Y007107D01*
X023680Y007117D01*
X023696Y007124D01*
X023713Y007128D01*
X023730Y007130D01*
X024430Y007130D01*
X024447Y007128D01*
X024464Y007124D01*
X024480Y007117D01*
X024494Y007107D01*
X024507Y007094D01*
X024517Y007080D01*
X024524Y007064D01*
X024528Y007047D01*
X024530Y007030D01*
X024530Y006880D01*
X024480Y006830D01*
X024480Y004930D01*
X024530Y004880D01*
X024530Y004730D01*
X024528Y004713D01*
X024524Y004696D01*
X024517Y004680D01*
X024507Y004666D01*
X024494Y004653D01*
X024480Y004643D01*
X024464Y004636D01*
X024447Y004632D01*
X024430Y004630D01*
X023730Y004630D01*
X023713Y004632D01*
X023696Y004636D01*
X023680Y004643D01*
X023666Y004653D01*
X023653Y004666D01*
X023643Y004680D01*
X023636Y004696D01*
X023632Y004713D01*
X023630Y004730D01*
X023630Y004880D01*
X023680Y004930D01*
X023680Y006830D01*
X023630Y006880D01*
D16*
X020731Y010638D02*
X020418Y010951D01*
X020574Y010951D02*
X020574Y010638D01*
X020418Y010638D02*
X020731Y010951D01*
X020731Y010795D02*
X020418Y010795D01*
X013999Y007229D02*
X013999Y007181D01*
X013951Y007132D01*
X013854Y007132D01*
X013806Y007181D01*
X013806Y007229D01*
X013854Y007277D01*
X013951Y007277D01*
X013999Y007229D01*
X013951Y007132D02*
X013999Y007084D01*
X013999Y007036D01*
X013951Y006987D01*
X013854Y006987D01*
X013806Y007036D01*
X013806Y007084D01*
X013854Y007132D01*
X010274Y009911D02*
X010225Y009863D01*
X010177Y009863D01*
X010128Y009911D01*
X010128Y010008D01*
X010177Y010056D01*
X010225Y010056D01*
X010274Y010008D01*
X010274Y009911D01*
X010128Y009911D02*
X010080Y009863D01*
X010032Y009863D01*
X009983Y009911D01*
X009983Y010008D01*
X010032Y010056D01*
X010080Y010056D01*
X010128Y010008D01*
X010332Y013463D02*
X010380Y013463D01*
X010428Y013511D01*
X010428Y013608D01*
X010477Y013656D01*
X010525Y013656D01*
X010574Y013608D01*
X010574Y013511D01*
X010525Y013463D01*
X010477Y013463D01*
X010428Y013511D01*
X010428Y013608D02*
X010380Y013656D01*
X010332Y013656D01*
X010283Y013608D01*
X010283Y013511D01*
X010332Y013463D01*
D17*
X010880Y015660D03*
X009680Y015660D03*
X008480Y015660D03*
X008480Y018500D03*
X009680Y018500D03*
X010880Y018500D03*
X024080Y007300D03*
X022980Y006500D03*
X021880Y005700D03*
X020780Y004900D03*
X019680Y004900D03*
X018580Y004900D03*
X017480Y004900D03*
X016380Y004900D03*
X014180Y004880D03*
X013080Y004880D03*
X011980Y004880D03*
X010880Y004880D03*
X010880Y002040D03*
X011980Y002040D03*
X013080Y002040D03*
X014180Y002040D03*
X016380Y002060D03*
X017480Y002060D03*
X018580Y002060D03*
X019680Y002060D03*
X020780Y002060D03*
X021880Y002860D03*
X022980Y003660D03*
X024080Y004460D03*
D18*
X024630Y009980D02*
X022880Y009980D01*
X022880Y018980D01*
X024630Y018980D01*
X024630Y009980D01*
X022880Y009980D02*
X022130Y009980D01*
X022130Y018980D01*
X022880Y018980D01*
X013917Y008105D02*
X013919Y008118D01*
X013924Y008131D01*
X013933Y008142D01*
X013944Y008149D01*
X013957Y008154D01*
X013970Y008155D01*
X013984Y008152D01*
X013996Y008146D01*
X014006Y008137D01*
X014013Y008125D01*
X014017Y008112D01*
X014017Y008098D01*
X014013Y008085D01*
X014006Y008073D01*
X013996Y008064D01*
X013984Y008058D01*
X013970Y008055D01*
X013957Y008056D01*
X013944Y008061D01*
X013933Y008068D01*
X013924Y008079D01*
X013919Y008092D01*
X013917Y008105D01*
X009106Y010024D02*
X009108Y010037D01*
X009113Y010050D01*
X009122Y010061D01*
X009133Y010068D01*
X009146Y010073D01*
X009159Y010074D01*
X009173Y010071D01*
X009185Y010065D01*
X009195Y010056D01*
X009202Y010044D01*
X009206Y010031D01*
X009206Y010017D01*
X009202Y010004D01*
X009195Y009992D01*
X009185Y009983D01*
X009173Y009977D01*
X009159Y009974D01*
X009146Y009975D01*
X009133Y009980D01*
X009122Y009987D01*
X009113Y009998D01*
X009108Y010011D01*
X009106Y010024D01*
X007474Y009233D02*
X007474Y008483D01*
X005474Y008483D01*
X005474Y009233D01*
X007474Y009233D01*
X007474Y010983D01*
X005474Y010983D01*
X005474Y009233D01*
X003474Y009233D02*
X003474Y008483D01*
X001474Y008483D01*
X001474Y009233D01*
X003474Y009233D01*
X003474Y010983D01*
X001474Y010983D01*
X001474Y009233D01*
X001474Y015983D02*
X001474Y016733D01*
X003474Y016733D01*
X003474Y015983D01*
X001474Y015983D01*
X001474Y016733D02*
X001474Y018483D01*
X003474Y018483D01*
X003474Y016733D01*
X005474Y016733D02*
X005474Y018483D01*
X007474Y018483D01*
X007474Y016733D01*
X005474Y016733D01*
X005474Y015983D01*
X007474Y015983D01*
X007474Y016733D01*
X009406Y013624D02*
X009408Y013637D01*
X009413Y013650D01*
X009422Y013661D01*
X009433Y013668D01*
X009446Y013673D01*
X009459Y013674D01*
X009473Y013671D01*
X009485Y013665D01*
X009495Y013656D01*
X009502Y013644D01*
X009506Y013631D01*
X009506Y013617D01*
X009502Y013604D01*
X009495Y013592D01*
X009485Y013583D01*
X009473Y013577D01*
X009459Y013574D01*
X009446Y013575D01*
X009433Y013580D01*
X009422Y013587D01*
X009413Y013598D01*
X009408Y013611D01*
X009406Y013624D01*
D19*
X012560Y010780D03*
X012560Y009680D03*
X015400Y009680D03*
X015400Y010780D03*
M02*
